<svg xmlns="http://www.w3.org/2000/svg" width="90.18" height="94.457" viewBox="0 0 90.18 94.457">
  <g id="t1-ic10" transform="translate(-8199.749 -1832.179)">
    <circle id="Ellipse_3974" data-name="Ellipse 3974" cx="45.09" cy="45.09" r="45.09" transform="translate(8199.749 1836.456)" fill="#7b1fa2"/>
    <g id="Group_53397" data-name="Group 53397" transform="translate(8221.047 1850.585)">
      <g id="Group_53396" data-name="Group 53396" transform="translate(0 0)">
        <path id="Path_101913" data-name="Path 101913" d="M8340.9,1985.771l-.706-7.789a76.424,76.424,0,0,0-3.956-18.282l-4.283-12.272a5.638,5.638,0,0,0-3.388-3.439l-3.661-1.339-.06-.022a6.925,6.925,0,0,1-4.423-7.054l.255-3.18-4.973,3.6,1.781,4.014a14.766,14.766,0,0,0,4.684,5.859l1.965,1.462,8.722,24.99a38.847,38.847,0,0,0,8.043,13.452Z" transform="translate(-8315.71 -1932.394)" fill="#acd1e5"/>
      </g>
    </g>
    <g id="Group_53399" data-name="Group 53399" transform="translate(8211.889 1837.6)">
      <g id="Group_53398" data-name="Group 53398" transform="translate(0 0)">
        <path id="Path_101914" data-name="Path 101914" d="M8266.076,1869.835a8.375,8.375,0,0,1,.874-2.825c.767-2.209,1.49-3.4,3.5-4.1.854-.3,1.5-1.273,2.378-1.21,3.2.228,6.3,2.719,7.606,6.452,1.66,4.756-.225,9.754-4.2,11.142a7.04,7.04,0,0,1-6.176-.855,10.136,10.136,0,0,1-4.045-5.253C8265.6,1872.017,8266.076,1871.008,8266.076,1869.835Zm11.091,1.836a6.864,6.864,0,0,0-.388-2.248c-.94-2.695-3.364-4.4-5.293-3.73a3.262,3.262,0,0,0-1.922,2.127,6.354,6.354,0,0,0,.1,4.085h0a6.353,6.353,0,0,0,2.464,3.26,3.261,3.261,0,0,0,2.829.47C8276.345,1875.151,8277.167,1873.54,8277.167,1871.671Z" transform="translate(-8265.846 -1861.693)" fill="#f54e7e"/>
      </g>
    </g>
    <g id="Group_53401" data-name="Group 53401" transform="translate(8211.458 1837.586)">
      <g id="Group_53400" data-name="Group 53400" transform="translate(0 0)">
        <path id="Path_101915" data-name="Path 101915" d="M8266.223,1869.58a6.946,6.946,0,0,1,4.946-4.7,1.649,1.649,0,0,0-.259-3.248,6.5,6.5,0,0,0-2.614.343c-4.27,1.49-5.721,6.635-4.226,11.072a.845.845,0,0,0,1.645-.271,9.437,9.437,0,0,1,.508-3.2Z" transform="translate(-8263.499 -1861.617)" fill="#ea3065"/>
      </g>
    </g>
    <path id="Path_101916" data-name="Path 101916" d="M8382.02,2197.3a45.11,45.11,0,0,1-65.043,20.757V2197.3Z" transform="translate(-95.697 -298.063)" fill="#f6e738"/>
    <path id="Path_101917" data-name="Path 101917" d="M8308.758,2109.421v13.627a44.707,44.707,0,0,1-1.769,4.248h-42.821a19.683,19.683,0,0,0-8.085,1.726,4.422,4.422,0,0,0-2.615,4.032.685.685,0,0,1-.686.685h-.977a.5.5,0,0,1-.49-.521.52.52,0,0,0-.883-.37,19.71,19.71,0,0,0-6.034,14.218v.225a45.287,45.287,0,0,1-18.372-19.112v-18.759Z" transform="translate(-21.451 -226.322)" fill="#f1d333"/>
    <g id="Group_53402" data-name="Group 53402" transform="translate(8229.864 1910.646)">
      <path id="Path_101918" data-name="Path 101918" d="M8365.87,2259.405v3.228h-2.152v-3.228Z" transform="translate(-8363.718 -2259.405)" fill="#f1d333"/>
    </g>
    <g id="Group_53403" data-name="Group 53403" transform="translate(8229.864 1917.102)">
      <path id="Path_101919" data-name="Path 101919" d="M8365.87,2294.557v3.228h-2.152v-3.228Z" transform="translate(-8363.718 -2294.557)" fill="#f1d333"/>
    </g>
    <rect id="Rectangle_5172" data-name="Rectangle 5172" width="2.152" height="3.228" transform="translate(8231.586 1915.381)" fill="#fff"/>
    <rect id="Rectangle_5173" data-name="Rectangle 5173" width="2.152" height="3.228" transform="translate(8231.586 1908.924)" fill="#fff"/>
    <rect id="Rectangle_5174" data-name="Rectangle 5174" width="2.152" height="3.228" transform="translate(8231.586 1902.468)" fill="#fff"/>
    <rect id="Rectangle_5175" data-name="Rectangle 5175" width="2.152" height="3.228" transform="translate(8231.586 1896.012)" fill="#fff"/>
    <rect id="Rectangle_5176" data-name="Rectangle 5176" width="2.152" height="3.228" transform="translate(8231.586 1889.556)" fill="#fff"/>
    <rect id="Rectangle_5177" data-name="Rectangle 5177" width="2.152" height="3.228" transform="translate(8231.586 1883.099)" fill="#fff"/>
    <g id="Group_53404" data-name="Group 53404" transform="translate(8223.687 1856.611)">
      <path id="Path_101920" data-name="Path 101920" d="M8330.2,2013.533a38.851,38.851,0,0,0,6.6-14.217l5.509-23.379a7.985,7.985,0,0,1,2.363-4.042,14.76,14.76,0,0,0,4.048-6.315l.122-.374h-3.312a8.853,8.853,0,0,1-3.914,3.776l-3.5,1.713a5.638,5.638,0,0,0-3.011,3.773l-2.981,12.651a76.387,76.387,0,0,0-2.029,18.594Z" transform="translate(-8330.079 -1965.205)" fill="#daf1f4"/>
    </g>
    <g id="Group_53405" data-name="Group 53405" transform="translate(8230.541 1863.221)">
      <path id="Path_101921" data-name="Path 101921" d="M8374.752,2007.4a7.87,7.87,0,0,1,.349-1.108l-.943-2.7a5.636,5.636,0,0,0-1.628-2.4l-1.972.965a5.641,5.641,0,0,0-3.012,3.773l-.144.611,4.508,12.917Z" transform="translate(-8367.402 -2001.189)" fill="#92b1c2"/>
    </g>
    <g id="Group_53407" data-name="Group 53407" transform="translate(8223.687 1856.611)">
      <g id="Group_53406" data-name="Group 53406" transform="translate(0 0)">
        <path id="Path_101922" data-name="Path 101922" d="M8330.2,2013.533a38.851,38.851,0,0,0,6.6-14.217l5.509-23.379a7.985,7.985,0,0,1,2.363-4.042,14.76,14.76,0,0,0,4.048-6.315l.122-.374h-3.312a8.853,8.853,0,0,1-3.914,3.776l-3.5,1.713a5.638,5.638,0,0,0-3.011,3.773l-2.981,12.651a76.387,76.387,0,0,0-2.029,18.594Z" transform="translate(-8330.079 -1965.205)" fill="#c5e2f2"/>
      </g>
    </g>
    <g id="Group_53408" data-name="Group 53408" transform="translate(8234.227 1833.995)">
      <path id="Path_101923" data-name="Path 101923" d="M8403.288,1855.042c.135-.707.235-1.413.3-2.111a9.325,9.325,0,0,1,3.49-6.427,2.343,2.343,0,0,0,.389-3.29c-.8-1.015-1.876-.158-2.892.643a1.851,1.851,0,0,1-2.691,0c-.932-1.16-2.735-1.424-4.088-1.682-2.4-.456-3.582.512-5.6,3.094-1.674,2.144-2.943,3.728-3.565,7a22.773,22.773,0,0,0-.485,4.238c0,1.5-.928,2.738-.618,4,.83,3.373,2.715,5.732,5.344,6.232,4.506.856,8.981-4.169,10.411-11.69Zm-9.536,7.088c-1.164-.221-2.682-3.889-1.669-9.217h0a15.392,15.392,0,0,1,2.65-6.385c.944-1.21,1.827-1.664,2.284-1.577,1.327.252,2.606,4.28,1.668,9.217-1.012,5.328-3.77,8.183-4.934,7.962Z" transform="translate(-8387.47 -1842.067)" fill="#f54e7e"/>
    </g>
    <g id="Group_53410" data-name="Group 53410" transform="translate(8233.817 1832.179)">
      <g id="Group_53409" data-name="Group 53409" transform="translate(0 0)">
        <path id="Path_101924" data-name="Path 101924" d="M8387.22,1852.178a23.159,23.159,0,0,1,.42-4.31h0a19.89,19.89,0,0,1,3.56-8.393c2.017-2.583,4.45-3.753,6.852-3.3a5.785,5.785,0,0,1,3.457,2.159,2,2,0,0,0,2.8.348l.036-.029a2.329,2.329,0,0,1,1.2-.488,2.341,2.341,0,0,0-3.182-3.413l-.036.029a2,2,0,0,1-2.8-.348,5.781,5.781,0,0,0-3.456-2.159c-2.4-.456-4.835.714-6.852,3.3a19.889,19.889,0,0,0-3.56,8.393h0a23.159,23.159,0,0,0-.42,4.31,17.436,17.436,0,0,0,.473,4.152.765.765,0,0,0,1.5-.2v-.049Z" transform="translate(-8385.242 -1832.179)" fill="#ea3065"/>
      </g>
    </g>
    <g id="Group_53411" data-name="Group 53411" transform="translate(8230.868 1865.455)">
      <circle id="Ellipse_3975" data-name="Ellipse 3975" cx="1.475" cy="1.475" r="1.475" transform="translate(0 0)" fill="#92b1c2"/>
    </g>
    <g id="Group_53413" data-name="Group 53413" transform="translate(8223.803 1871.174)">
      <g id="Group_53412" data-name="Group 53412" transform="translate(0 0)">
        <path id="Path_101925" data-name="Path 101925" d="M8337.313,2064.04l4.509-19.132-4.041-.417-7.064,33.766A38.852,38.852,0,0,0,8337.313,2064.04Z" transform="translate(-8330.716 -2044.491)" fill="#def2fe"/>
      </g>
    </g>
    <path id="Path_101926" data-name="Path 101926" d="M8363.718,2330.237v-.527h2.152v1.224Q8364.782,2330.612,8363.718,2330.237Z" transform="translate(-133.853 -406.151)" fill="#f1d333"/>
    <path id="Path_101927" data-name="Path 101927" d="M8374.518,2323.564c-.479-.13-.955-.265-1.427-.41v-2.818h2.152v3.228Z" transform="translate(-141.505 -398.499)" fill="#fff"/>
  </g>
</svg>
