<svg xmlns="http://www.w3.org/2000/svg" width="90.18" height="90.18" viewBox="0 0 90.18 90.18">
  <g id="t1-ic4" transform="translate(-6325 -1844.214)">
    <circle id="Ellipse_3964" data-name="Ellipse 3964" cx="45.09" cy="45.09" r="45.09" transform="translate(6325 1844.214)" fill="#7b1fa2"/>
    <g id="Group_53334" data-name="Group 53334" transform="translate(6329.862 1847.425)">
      <g id="Group_53323" data-name="Group 53323" transform="translate(0 0)">
        <path id="Path_101826" data-name="Path 101826" d="M6361.741,1866.316c-14.605,8.45-9.929,22.343-8.008,35.055,16.294,26.552,19.153,30.143,37.144,43.717,8,1.29,15.987-1.117,27.9-2.653,13.739-1.774,14.968-20.812,8.607-27.837s-9.229-5.986-12.067-26.584c-3.559-28.976-38.781-30.258-53.575-21.7Z" transform="translate(-6351.473 -1861.698)" fill="#e1f9ff" fill-rule="evenodd"/>
      </g>
      <g id="Group_53324" data-name="Group 53324" transform="translate(2.895 42.049)">
        <path id="Path_101827" data-name="Path 101827" d="M6367.238,2094.511c.961,15.419,14.571,34.562,30.981,35.949,5.123-16.4-11.007-38.363-24.925-39.81C6371.759,2090.492,6367.975,2092.534,6367.238,2094.511Z" transform="translate(-6367.238 -2090.641)" fill="#fff" fill-rule="evenodd"/>
      </g>
      <g id="Group_53325" data-name="Group 53325" transform="translate(9.031 0)">
        <path id="Path_101828" data-name="Path 101828" d="M6400.644,1867.073c16.409-6.091,45.971-2.7,49.214,23.724,2.839,20.6,5.707,19.564,12.068,26.584,5.058,5.585,5.318,18.765-1.692,24.821,12.495-2.781,13.44-20.81,7.289-27.6-6.361-7.02-9.229-5.986-12.067-26.584-3.558-28.976-38.781-30.259-53.575-21.7C6401.452,1866.563,6401.039,1866.819,6400.644,1867.073Z" transform="translate(-6400.644 -1861.698)" fill="#a6dff5" fill-rule="evenodd"/>
      </g>
      <g id="Group_53326" data-name="Group 53326" transform="translate(15.46 28.398)">
        <path id="Path_101829" data-name="Path 101829" d="M6436.981,2029.354a1.25,1.25,0,0,1-.168,0,1.274,1.274,0,0,1-1.161-1.378,40.312,40.312,0,0,1,2.647-10.832,1.274,1.274,0,0,1,2.383.9,38.329,38.329,0,0,0-2.492,10.148,1.274,1.274,0,0,1-1.209,1.164Z" transform="translate(-6435.647 -2016.317)" fill="#a6dff5"/>
      </g>
      <g id="Group_53327" data-name="Group 53327" transform="translate(27.191 33.598)">
        <path id="Path_101830" data-name="Path 101830" d="M6500.851,2062.686a1.275,1.275,0,0,1-1.3-1.56c1.541-6.657,5.242-11.573,8.215-15.524l.352-.467a1.273,1.273,0,1,1,2.036,1.53l-.353.469c-2.829,3.758-6.35,8.435-7.769,14.566a1.275,1.275,0,0,1-1.183.985Z" transform="translate(-6499.518 -2044.627)" fill="#a6dff5"/>
      </g>
      <g id="Group_53328" data-name="Group 53328" transform="translate(26.889 9.643)">
        <path id="Path_101831" data-name="Path 101831" d="M6520.953,1940.251a1.274,1.274,0,0,1-1.311-1.055c-1.484-8.533-4.889-14.81-10.119-18.657a19.2,19.2,0,0,0-10.413-3.794,1.274,1.274,0,1,1,.075-2.546,21.852,21.852,0,0,1,11.848,4.288c5.778,4.249,9.52,11.07,11.12,20.272a1.277,1.277,0,0,1-1.2,1.491Z" transform="translate(-6497.873 -1914.199)" fill="#a6dff5"/>
      </g>
      <g id="Group_53329" data-name="Group 53329" transform="translate(34.339 52.136)">
        <path id="Path_101832" data-name="Path 101832" d="M6539.769,2155.708a1.274,1.274,0,0,1-.907-2.223c6.687-5.969,10.282-7.265,15.813-7.913a1.274,1.274,0,1,1,.3,2.53c-4.894.573-7.91,1.479-14.413,7.283a1.27,1.27,0,0,1-.79.322Z" transform="translate(-6538.437 -2145.563)" fill="#a6dff5"/>
      </g>
      <g id="Group_53330" data-name="Group 53330" transform="translate(37.349 68.119)">
        <path id="Path_101833" data-name="Path 101833" d="M6574.592,2236.563a1.268,1.268,0,0,1-.455-.063c-4.947-1.625-9.629-2.141-17.663.3a1.274,1.274,0,0,1-.742-2.437c8.648-2.631,13.93-2.017,19.2-.286a1.274,1.274,0,0,1-.34,2.483Z" transform="translate(-6554.829 -2232.586)" fill="#a6dff5"/>
      </g>
      <g id="Group_53331" data-name="Group 53331" transform="translate(2.895 43.551)">
        <path id="Path_101834" data-name="Path 101834" d="M6367.7,2104.879c12.122-.656,22.336,17.475,24.893,31.077a23.865,23.865,0,0,0,5.631,1.18c.815-15.147-12.668-36.843-26.587-38.29a4.075,4.075,0,0,0-4.394,2.341A32.655,32.655,0,0,0,6367.7,2104.879Z" transform="translate(-6367.238 -2098.821)" fill="#e1f9ff" fill-rule="evenodd"/>
      </g>
      <g id="Group_53333" data-name="Group 53333" transform="translate(2.259 38.19)">
        <g id="Group_53332" data-name="Group 53332">
          <path id="Path_101835" data-name="Path 101835" d="M6368.8,2075.018c13.919,1.447,27.4,23.143,26.587,38.29a26.569,26.569,0,0,0,5.526,1.523c2.676-23.584-21.32-52.053-37.144-43.717a55.679,55.679,0,0,1,.614,5.768l.021.478A4.075,4.075,0,0,1,6368.8,2075.018Z" transform="translate(-6363.774 -2069.63)" fill="#ffd54f" fill-rule="evenodd"/>
        </g>
      </g>
    </g>
  </g>
</svg>
