<svg xmlns="http://www.w3.org/2000/svg" xmlns:xlink="http://www.w3.org/1999/xlink" width="90.18" height="95.231" viewBox="0 0 90.18 95.231">
  <defs>
    <clipPath id="clip-path">
      <path id="Path_102044" data-name="Path 102044" d="M9671.744,634.214A44.908,44.908,0,0,0,9643,644.563v69.482a45.09,45.09,0,1,0,28.744-79.831Z" transform="translate(-9643 -634.214)" fill="none"/>
    </clipPath>
  </defs>
  <g id="t1-ic19" transform="translate(-9554 -606.714)">
    <circle id="Ellipse_3980" data-name="Ellipse 3980" cx="45.09" cy="45.09" r="45.09" transform="translate(9554 611.765)" fill="#7b1fa2"/>
    <rect id="Rectangle_5185" data-name="Rectangle 5185" width="1.286" height="59.14" rx="0.643" transform="translate(9569.061 617.091)" fill="#ea3065"/>
    <path id="Path_102031" data-name="Path 102031" d="M9748.5,606.714" transform="translate(-158.777)" fill="none" stroke="#7b1fa2" stroke-miterlimit="10" stroke-width="1"/>
    <g id="Group_53434" data-name="Group 53434" transform="translate(9570.346 611.765)">
      <g id="Group_53433" data-name="Group 53433" transform="translate(0 0)" clip-path="url(#clip-path)">
        <g id="Group_53432" data-name="Group 53432" transform="translate(3.122 -2.983)">
          <rect id="Rectangle_5186" data-name="Rectangle 5186" width="25.713" height="3.122" transform="translate(45.916 50.002)" fill="#cbb292"/>
          <rect id="Rectangle_5187" data-name="Rectangle 5187" width="21.673" height="6.612" transform="translate(49.957 53.124)" fill="#cb8252"/>
          <rect id="Rectangle_5188" data-name="Rectangle 5188" width="21.673" height="1.286" transform="translate(49.957 53.124)" fill="#805333"/>
          <rect id="Rectangle_5189" data-name="Rectangle 5189" width="38.57" height="3.857" transform="translate(2.755 81.96)" fill="#ffd54f"/>
          <rect id="Rectangle_5190" data-name="Rectangle 5190" width="38.57" height="2.204" transform="translate(2.755 83.613)" fill="#ebb610"/>
          <path id="Path_102032" data-name="Path 102032" d="M9689.02,875.416h-26.265V829.591a1.377,1.377,0,1,0-2.755,0v48.4h29.02a1.286,1.286,0,0,0,0-2.571Z" transform="translate(-9660 -789.6)" fill="#bababa"/>
          <path id="Path_102033" data-name="Path 102033" d="M9775.852,719.605s-.918-3.306-15.428-6.245-17.266-4.408-18.734-5.51-1.285-6.245-1.285-9.183c0,0,.551-4.959,1.469-6.979s3.857-5.51,2.021-8.632-5.143-7.53-5.694-10.1,0-7.347,0-7.347,3.674,1.1,4.775.735.184-4.592.734-5.143,1.1-.551,1.654-.918-1.47-2.571-1.654-3.122a37.127,37.127,0,0,1,.185-4.775,17.525,17.525,0,0,0-10.653.367c-6.061,2.02-1.836,9.367-1.836,9.367s.367,6.612-.367,8.449-4.041,5.51-4.592,11.02,1.652,19.836.551,24.244-6.611,17.816,5.143,21.673h34.713l2.755-.735Z" transform="translate(-9712.854 -645.543)" fill="#fff"/>
          <path id="Path_102034" data-name="Path 102034" d="M9679.408,796.214H9675v43.345h4.408s2.388-17.081,2.388-27.366S9679.408,796.214,9679.408,796.214Z" transform="translate(-9672.245 -763.477)" fill="#ffd54f"/>
          <path id="Path_102035" data-name="Path 102035" d="M9740.671,796.49c2.945.1,5.366.091,6.981.064-.14-1.8-.094-3.824-.094-5.3,0,0,.551-4.959,1.47-6.979s3.856-5.51,2.021-8.632c-1.331-2.261-3.431-5.2-4.7-7.62a23.172,23.172,0,0,0-9.288-2.858,20.909,20.909,0,0,0-3.464,9.008c-.457,4.574.984,15.223.855,21.23A20.859,20.859,0,0,0,9740.671,796.49Z" transform="translate(-9720.009 -738.131)" fill="#7a279f"/>
          <path id="Path_102036" data-name="Path 102036" d="M9892.955,983.447c-1.468-.3-2.813-.579-4.051-.847l-1.81,14.99h12.288l2.756-.735,6.244-7.163S9907.465,986.386,9892.955,983.447Z" transform="translate(-9845.385 -915.63)" fill="#f9c193"/>
          <path id="Path_102037" data-name="Path 102037" d="M9758.754,964.751,9761.8,950.9q-.667-.145-1.377-.289c-14.51-2.939-17.266-4.408-18.734-5.51a3.2,3.2,0,0,1-.913-1.863,31.193,31.193,0,0,1-6.893.3,24.626,24.626,0,0,1-6.751-1.165c-.038.257-.084.493-.137.705-1.1,4.408-6.611,17.816,5.143,21.673Z" transform="translate(-9712.854 -882.791)" fill="#7a279f"/>
          <path id="Path_102038" data-name="Path 102038" d="M9753.079,780.377c-2.022.967-.735,6.061,1.837,10.285s8.448,13.959,9.918,14.326,9.917-2.571,12.673-4.775,5.326-4.224,7.163-3.857a5.982,5.982,0,0,0,4.408-.551c1.469-.735,2.754-1.469,3.856-.735a3.826,3.826,0,0,0,3.673.367c.919-.551-4.04-3.857-6.8-4.224s-14.142,3.49-16.713,4.592-4.225,2.02-5.51,1.469-3.673-8.081-5.694-11.387S9757.3,778.357,9753.079,780.377Z" transform="translate(-9735.171 -750.119)" fill="#f9c193"/>
          <rect id="Rectangle_5191" data-name="Rectangle 5191" width="3.857" height="18.183" transform="translate(22.499 88.296)" fill="#bababa"/>
          <rect id="Rectangle_5192" data-name="Rectangle 5192" width="3.857" height="3.765" transform="translate(22.499 88.296)" fill="#989da0"/>
          <path id="Path_102039" data-name="Path 102039" d="M9761.216,668.506c.065-1.6.214-2.9.214-2.9s3.674,1.1,4.775.735.184-4.592.735-5.143,1.1-.551,1.652-.918-1.47-2.571-1.652-3.122a36.814,36.814,0,0,1,.183-4.775,17.521,17.521,0,0,0-10.652.367c-6.061,2.02-1.836,9.367-1.836,9.367s.084,1.521.091,3.306h.644Z" transform="translate(-9736.084 -645.543)" fill="#f9c193"/>
          <path id="Path_102040" data-name="Path 102040" d="M9766.663,716.738a29.791,29.791,0,0,1-.006-7.285,13.446,13.446,0,0,1-5.771-4.072l-1.18.218c.1.194.16.3.16.3s.327,5.892-.254,8.1h0a28.385,28.385,0,0,1,7.264,3.477A6.192,6.192,0,0,1,9766.663,716.738Z" transform="translate(-9741.317 -689.327)" fill="#f9c193"/>
          <path id="Path_102041" data-name="Path 102041" d="M9732.027,623.25a8.2,8.2,0,0,1,4.164-4.941,3.187,3.187,0,0,0-3.8.716C9730.559,620.863,9732.027,623.25,9732.027,623.25Z" transform="translate(-9718.344 -617.971)" fill="#ffd54f"/>
          <rect id="Rectangle_5193" data-name="Rectangle 5193" width="3.122" height="32.693" transform="translate(49.957 59.736)" fill="#bababa"/>
          <path id="Path_102042" data-name="Path 102042" d="M9932,954.785l3.122-4.408v-7.163H9932Z" transform="translate(-9882.043 -883.478)" fill="#989da0"/>
          <path id="Path_102043" data-name="Path 102043" d="M9675,954.813v13.5h4.408s.948-6.785,1.649-14.377A11.775,11.775,0,0,1,9675,954.813Z" transform="translate(-9672.245 -892.23)" fill="#ebb610"/>
        </g>
      </g>
    </g>
    <path id="Path_102045" data-name="Path 102045" d="M9703.312,629.431s-.185,2.02-1.47,2.755a1.639,1.639,0,0,0-.551-1.469c-.735-.735-4.041-2.939-4.225-5.51s-.918-.735-.918-.735-1.286,8.449-.734,11.02a15.053,15.053,0,0,1,0,5.326,6.062,6.062,0,0,1-5.694-3.122c-1.837-3.49-.367-17.632,1.286-20.571s5.143-5.694,9-1.837c0,0,6.062-3.857,12.122-.551s4.408,6.8,4.408,6.8-1.285-1.286-4.959,0-3.49,2.02-5.143,2.2a5.055,5.055,0,0,1-1.1,3.857s-.368-2.388-2.205-2.2S9700.924,628.88,9703.312,629.431Z" transform="translate(-110.098 -5.452)" fill="#4d4d4d"/>
  </g>
</svg>
