<svg xmlns="http://www.w3.org/2000/svg" width="90.18" height="94.221" viewBox="0 0 90.18 94.221">
  <g id="t1-ic25" transform="translate(-9024.5 -1822.212)">
    <circle id="Ellipse_3984" data-name="Ellipse 3984" cx="45.09" cy="45.09" r="45.09" transform="translate(9024.5 1826.253)" fill="#7b1fa2"/>
    <g id="Group_53445" data-name="Group 53445" transform="translate(9041.212 1822.212)">
      <path id="Path_102071" data-name="Path 102071" d="M9231.99,2084.858v-5.207h-9.179v5.3c-.666.446-.985.176-5.048.257,1.71,3.971,5.405,8.311,9.9,8.311,6.33,0,9.37-8.311,9.37-8.311C9233.209,2085.1,9232.717,2085.455,9231.99,2084.858Z" transform="translate(-9198.979 -2032.368)" fill="#ebb99a"/>
      <path id="Path_102072" data-name="Path 102072" d="M9120.322,1869.229c-1.334-7.126-3.587-15.565-4.756-19.926a2.251,2.251,0,0,1,1.243-2.632l20.143-11.326c.663-.359,1.076-3.029,1.081-3.782l.964-5.489c.426-2.184,1.583-3.579,2.712-3.842a.659.659,0,0,1,.8.782V1835.6a2.371,2.371,0,0,1-1.05,2.138c-.818.6-1.448.115-1.963.552l-13.031,11.048a2.312,2.312,0,0,0-.94,2.483c1.114,4.381,2.68,10.8,3.608,15.765Z" transform="translate(-9115.489 -1822.213)" fill="#f0cfba"/>
      <path id="Path_102073" data-name="Path 102073" d="M9175.049,1835.6a2.3,2.3,0,0,1-2.2,2.482,1.053,1.053,0,0,0-.809.207L9159,1849.334a2.3,2.3,0,0,0-.937,2.481c1.113,4.382,2.68,10.8,3.607,15.763l-3.2.6c-.919-5.31-2.134-12.776-3.044-16.361a2.3,2.3,0,0,1,.937-2.481c16.566-14.172,16.76-13.9,17.034-15.354.737-12.252.64-11.7.854-11.751a.658.658,0,0,1,.8.783V1835.6Z" transform="translate(-9148.032 -1822.212)" fill="#ebb99a"/>
      <path id="Path_102074" data-name="Path 102074" d="M9299.521,1869.229c1.334-7.126,3.586-15.565,4.756-19.926a2.25,2.25,0,0,0-1.244-2.632l-20.142-11.326c-.663-.359-1.077-3.029-1.082-3.782l-.963-5.489c-.427-2.184-1.583-3.579-2.713-3.842a.659.659,0,0,0-.8.782V1835.6a2.3,2.3,0,0,0,2.2,2.482,1.07,1.07,0,0,1,.813.208l13.031,11.048a2.312,2.312,0,0,1,.939,2.482c-1.114,4.381-2.68,10.8-3.608,15.765Z" transform="translate(-9247.597 -1822.213)" fill="#f0cfba"/>
      <path id="Path_102075" data-name="Path 102075" d="M9277.347,1835.6a2.379,2.379,0,0,0,1.049,2.137,1.811,1.811,0,0,0,1.155.344c.646-.264.758.274,13.841,11.257a2.3,2.3,0,0,1,.937,2.481c-1.112,4.382-2.679,10.8-3.606,15.763l3.2.6c.919-5.31,2.134-12.776,3.045-16.361a2.3,2.3,0,0,0-.937-2.481c-16.566-14.172-16.76-13.9-17.034-15.354-.737-12.252-.64-11.7-.854-11.751a.658.658,0,0,0-.8.783V1835.6Z" transform="translate(-9247.606 -1822.212)" fill="#ebb99a"/>
      <path id="Path_102076" data-name="Path 102076" d="M9235.229,1970.27l-.794,5.81c-.076,3.66-4.889,6.534-7.955,8a5.438,5.438,0,0,1-1.6.473h-.009c-.075.012-.15.019-.229.026s-.181.014-.273.017a5.4,5.4,0,0,1-2.833-.684c-2.854-1.608-7.173-4.637-7.1-8.244l-.557-5.838a10.249,10.249,0,0,1,5.426-8.917c2.407-1.2,4.072-.945,6.77-.893C9231.229,1960.123,9235.345,1964.737,9235.229,1970.27Z" transform="translate(-9195.812 -1934.659)" fill="#f0cfba"/>
      <g id="Group_53442" data-name="Group 53442" transform="translate(18.023 25.327)">
        <path id="Path_102077" data-name="Path 102077" d="M9271.525,1960.11c-.124.013-.273.013-.44.013C9271.23,1960.115,9271.375,1960.11,9271.525,1960.11Z" transform="translate(-9260.53 -1960.11)" fill="#ebb99a"/>
        <path id="Path_102078" data-name="Path 102078" d="M9224.913,1984.672c-.075.013-.149.022-.229.031s-.181.017-.272.022a5.4,5.4,0,0,1-2.847-.625c-2.886-1.549-7.268-4.488-7.268-8.095l-.678-5.825a10.249,10.249,0,0,1,5.239-9.027,9.426,9.426,0,0,1,5.314-1.021,9.2,9.2,0,0,0-7.14,4.166c-.1,1.012.215,2.191-.687,3.762l-1.042,2.587.624,5.358c0,3.607,4.382,6.546,7.269,8.095A5.4,5.4,0,0,0,9224.913,1984.672Z" transform="translate(-9213.619 -1960.12)" fill="#ebb99a"/>
      </g>
      <path id="Path_102079" data-name="Path 102079" d="M9213.831,1966.572c-2.081,1.406-2.151,1.811-2.118,3.773a5.007,5.007,0,0,1-.661,2.572l-1.1,2.715a.3.3,0,0,1-.539.024,6.852,6.852,0,0,1-.62-2.585v-3.639A3.3,3.3,0,0,1,9213.831,1966.572Z" transform="translate(-9191.658 -1939.647)" fill="#4d4d4d"/>
      <g id="Group_53443" data-name="Group 53443" transform="translate(14.497 21.886)">
        <path id="Path_102080" data-name="Path 102080" d="M9209.982,1969.432v3.639a6.685,6.685,0,0,0,.3,1.758l-.324.8a.3.3,0,0,1-.54.024,6.869,6.869,0,0,1-.62-2.585v-3.639a3.325,3.325,0,0,1,3.9-3.307A3.339,3.339,0,0,0,9209.982,1969.432Z" transform="translate(-9206.158 -1961.534)" fill="#666"/>
        <path id="Path_102081" data-name="Path 102081" d="M9306.531,1966.59c2.183,1.476,2.713,1.8,2.812,4.017a7.556,7.556,0,0,0,.437,2.23l.818,2.846a.288.288,0,0,0,.548.015,8.984,8.984,0,0,0,.414-2.614v-3.635a3.341,3.341,0,0,0-3.081-3.357A3.208,3.208,0,0,0,9306.531,1966.59Z" transform="translate(-9285.94 -1961.548)" fill="#666"/>
        <path id="Path_102082" data-name="Path 102082" d="M9220.041,1947.855v.878c0,.277-1.849,1.372-2.225,1.189l-.011-.006a.069.069,0,0,1-.018-.013l-.077-.069c-3.082-2.7-9.184-1.71-12.867-1.118l-.014,0a23.023,23.023,0,0,1-2.347.309c-2.108.076-4.16-1.316-5.737-3.074a14.154,14.154,0,0,1-.9-1.106,14.3,14.3,0,0,1-1.06-1.668l-.3-.553a.575.575,0,0,1,.548-.846,19,19,0,0,0,2.912.624,20.814,20.814,0,0,0,3.591.008c2.436-.32,5.6-1.139,8.188-1.029a15.269,15.269,0,0,1,7.86,2.18,5.536,5.536,0,0,1,2.2,2.74A4.762,4.762,0,0,1,9220.041,1947.855Z" transform="translate(-9194.421 -1941.374)" fill="#4d4d4d"/>
      </g>
      <g id="Group_53444" data-name="Group 53444" transform="translate(14.497 22.291)">
        <path id="Path_102083" data-name="Path 102083" d="M9203.542,1950.72c-.421.059-.779.1-1.06.109-3.162.114-6.2-3.074-7.693-5.848l-.3-.553a.575.575,0,0,1,.548-.846s.671.214,1.664.415a.563.563,0,0,0,.047.431C9196.783,1944.476,9199.392,1949.83,9203.542,1950.72Z" transform="translate(-9194.421 -1943.58)" fill="#666"/>
        <path id="Path_102084" data-name="Path 102084" d="M9264.488,1975.341c-.071.22-.274.83-.45.679-3.06-2.73-8.889-1.838-12.945-1.186l-.014,0c-.192-.105,9.43-2.475,12.756-.97A1.212,1.212,0,0,1,9264.488,1975.341Z" transform="translate(-9240.671 -1967.896)" fill="#666"/>
      </g>
      <path id="Path_102085" data-name="Path 102085" d="M9133.079,2047.643c1.255,3.636,3.116,6.989,3.168,10.7l.721,18.253.081,2.049a45.2,45.2,0,0,0,35.041-.286l-.327-19.462c-.07-4.048,1.751-7.748,3.168-11.808l5.372-18.253a1.487,1.487,0,0,0-1.1-1.874l-8.108-1.87a1.526,1.526,0,0,0-1.716,1.183l-3.058,10.941a3.3,3.3,0,0,1-3.22,2.6h-.045a2.121,2.121,0,0,0-2.045,1.667,7.287,7.287,0,0,1-14.185,0,2.12,2.12,0,0,0-2.085-1.667,3.3,3.3,0,0,1-3.221-2.6l-2.31-10.941a1.525,1.525,0,0,0-1.716-1.183l-8.16,1.883a1.489,1.489,0,0,0-1.109,1.826Z" transform="translate(-9125.852 -1987.816)" fill="#ffd54f"/>
      <path id="Path_102086" data-name="Path 102086" d="M9186.271,2205.546c5.957-1.168,12.476-2.9,15.245-5.2,5.68-4.729,6.252.66,2.887,3.52a15.108,15.108,0,0,1-3.538,2.088,44.782,44.782,0,0,0,11.806-3.273l-.327-19.461a18.065,18.065,0,0,1,1.013-5.852c-7.5,11.8-22.387,23.118-35.462,25.707A44.765,44.765,0,0,0,9186.271,2205.546Z" transform="translate(-9166.432 -2112.136)" fill="#ebb610"/>
      <path id="Path_102087" data-name="Path 102087" d="M9199.311,2025.855c-3.606,11.548-15.454,34.469-26.4,26.629-8.165-5.847-12.287-18.064-14.241-26.537l3.718-.858a1.526,1.526,0,0,1,1.716,1.183l2.31,10.941a3.3,3.3,0,0,0,3.221,2.6h.044a2.113,2.113,0,0,1,2.041,1.667,7.286,7.286,0,0,0,14.184,0,2.121,2.121,0,0,1,2.046-1.667H9188a3.3,3.3,0,0,0,3.221-2.6l3.058-10.941a1.525,1.525,0,0,1,1.716-1.183Z" transform="translate(-9150.742 -1987.814)" fill="#ebb610"/>
    </g>
  </g>
</svg>
