<svg xmlns="http://www.w3.org/2000/svg" width="90.18" height="86.312" viewBox="0 0 90.18 86.312">
  <g id="t1-ic22" transform="translate(-9780.499 -1264.213)">
    <circle id="Ellipse_3981" data-name="Ellipse 3981" cx="43.156" cy="43.156" r="43.156" transform="translate(9780.499 1264.213)" fill="#7b1fa2"/>
    <path id="Path_102046" data-name="Path 102046" d="M9875.069,1701.034v-4.321h-5.625v.37A43.251,43.251,0,0,0,9875.069,1701.034Z" transform="translate(-73.31 -356.471)" fill="#b9b9b9"/>
    <path id="Path_102047" data-name="Path 102047" d="M9872.69,1435.778h19.255v-59.065h-22.5v56.623Q9871.007,1434.631,9872.69,1435.778Z" transform="translate(-73.31 -92.724)" fill="#ebebeb"/>
    <path id="Path_102048" data-name="Path 102048" d="M10237.444,1704.713h5.625v7.031h-5.625Z" transform="translate(-376.62 -363.065)" fill="#b9b9b9"/>
    <g id="Group_53437" data-name="Group 53437" transform="translate(9821.448 1265.707)">
      <path id="Path_102049" data-name="Path 102049" d="M10014.851,1292.4a1.407,1.407,0,0,1-1.406-1.406v-16.876a1.406,1.406,0,1,1,2.813,0v16.876A1.406,1.406,0,0,1,10014.851,1292.4Z" transform="translate(-10013.444 -1272.713)" fill="#d9d9d9"/>
      <path id="Path_102050" data-name="Path 102050" d="M10094.851,1292.4a1.407,1.407,0,0,1-1.406-1.406v-16.876a1.406,1.406,0,1,1,2.813,0v16.876A1.407,1.407,0,0,1,10094.851,1292.4Z" transform="translate(-10079.381 -1272.713)" fill="#d9d9d9"/>
    </g>
    <path id="Path_102051" data-name="Path 102051" d="M9997.444,1296.713h8.438v11.25h-8.437Z" transform="translate(-178.809 -26.787)" fill="#e863c9"/>
    <path id="Path_102052" data-name="Path 102052" d="M10077.445,1296.713h8.438v11.25h-8.437v-11.25Z" transform="translate(-244.747 -26.787)" fill="#ffd54f"/>
    <path id="Path_102053" data-name="Path 102053" d="M10206.852,1555.964a1.406,1.406,0,0,1-1.406-1.406v-8.438a1.406,1.406,0,1,1,2.813,0v8.438A1.406,1.406,0,0,1,10206.852,1555.964Z" transform="translate(-350.246 -231.191)" fill="#b9b9b9"/>
    <path id="Path_102054" data-name="Path 102054" d="M10189.444,1512.713h8.438v7.032h-8.438Z" transform="translate(-337.057 -204.816)" fill="#d9d9d9"/>
    <path id="Path_102055" data-name="Path 102055" d="M10189.444,1512.713h8.438v4.219h-8.438Z" transform="translate(-337.057 -204.816)" fill="#b9b9b9"/>
    <path id="Path_102056" data-name="Path 102056" d="M10165.444,1456.713h16.876v11.25h-16.876Z" transform="translate(-317.276 -158.661)" fill="#ebebeb"/>
    <g id="Group_53438" data-name="Group 53438" transform="translate(9789.104 1285.395)">
      <path id="Path_102057" data-name="Path 102057" d="M10165.444,1456.713h16.876v7.031h-16.876Z" transform="translate(-10106.38 -1444.056)" fill="#d9d9d9"/>
      <path id="Path_102058" data-name="Path 102058" d="M10037.106,1400.181h-47.662v-15.469H10040a2.852,2.852,0,0,1,2.889,2.813v7.031A5.7,5.7,0,0,1,10037.106,1400.181Z" transform="translate(-9961.318 -1384.712)" fill="#d9d9d9"/>
      <path id="Path_102059" data-name="Path 102059" d="M9829.444,1440.713h9.845v11.25h-9.845Z" transform="translate(-9829.444 -1430.869)" fill="#d9d9d9"/>
    </g>
    <path id="Path_102060" data-name="Path 102060" d="M9829.444,1480.713h9.845v4.219h-9.845Z" transform="translate(-40.341 -178.442)" fill="#b9b9b9"/>
    <path id="Path_102061" data-name="Path 102061" d="M9981.444,1600.713h54.846v16.876a2.812,2.812,0,0,1-2.812,2.813h-52.033v-19.688Z" transform="translate(-165.621 -277.347)" fill="#ebebeb"/>
    <circle id="Ellipse_3982" data-name="Ellipse 3982" cx="5.625" cy="5.625" r="5.625" transform="translate(9801.76 1309.303)" fill="#d9d9d9"/>
    <path id="Path_102062" data-name="Path 102062" d="M9902.508,1533.657a5.616,5.616,0,0,0,8.9,6.856Z" transform="translate(-99.623 -222.079)" fill="#b9b9b9"/>
    <circle id="Ellipse_3983" data-name="Ellipse 3983" cx="5.625" cy="5.625" r="5.625" transform="translate(9801.76 1326.179)" fill="#d9d9d9"/>
    <path id="Path_102063" data-name="Path 102063" d="M9902.508,1629.657a5.616,5.616,0,0,0,8.9,6.856Z" transform="translate(-99.623 -301.203)" fill="#b9b9b9"/>
    <path id="Path_102064" data-name="Path 102064" d="M10036.29,1383.745h-54.846v-7.032h51.882a3.275,3.275,0,0,1,2.964,3.516Z" transform="translate(-165.621 -92.724)" fill="#ebebeb"/>
    <path id="Path_102065" data-name="Path 102065" d="M10109.444,1600.713h32.345v5.625h-32.345Z" transform="translate(-271.121 -277.347)" fill="#b9b9b9"/>
    <path id="Path_102066" data-name="Path 102066" d="M10133.444,1600.713l12.657,11.25,11.25-11.25Z" transform="translate(-290.902 -277.347)" fill="#e863c9"/>
    <path id="Path_102067" data-name="Path 102067" d="M9901.444,1416.713H9912.7v7.031h-11.251Z" transform="translate(-99.685 -125.692)" fill="#b3e4e8"/>
    <g id="Group_53439" data-name="Group 53439" transform="translate(9800.354 1302.271)">
      <path id="Path_102068" data-name="Path 102068" d="M9893.444,1480.713h2.813v2.813h-2.812Z" transform="translate(-9893.444 -1480.713)" fill="#6fbbc6"/>
      <path id="Path_102069" data-name="Path 102069" d="M9925.444,1480.713h2.813v2.813h-2.812Z" transform="translate(-9919.819 -1480.713)" fill="#6fbbc6"/>
      <path id="Path_102070" data-name="Path 102070" d="M9957.444,1480.713h2.813v2.813h-2.812Z" transform="translate(-9946.194 -1480.713)" fill="#6fbbc6"/>
    </g>
  </g>
</svg>
