<svg xmlns="http://www.w3.org/2000/svg" width="90.18" height="90.18" viewBox="0 0 90.18 90.18">
  <g id="t1-ic2" transform="translate(-6788.499 -1264.213)">
    <circle id="Ellipse_3960" data-name="Ellipse 3960" cx="45.09" cy="45.09" r="45.09" transform="translate(6788.499 1264.213)" fill="#7b1fa2"/>
    <path id="Path_101813" data-name="Path 101813" d="M6871.886,1298.858h11.754a14.7,14.7,0,0,0-9.981-13.917,45.179,45.179,0,0,0-13.836,9.509h7.655A4.408,4.408,0,0,1,6871.886,1298.858Z" transform="translate(-58.224 -16.921)" fill="#dfdfdd"/>
    <path id="Path_101814" data-name="Path 101814" d="M6871.861,1360.713l-12.068,59.135a44.948,44.948,0,0,0,32,13.321,45.463,45.463,0,0,0,6.526-.472l-14.7-71.984Z" transform="translate(-58.2 -78.776)" fill="#4db6e4"/>
    <circle id="Ellipse_3961" data-name="Ellipse 3961" cx="3.673" cy="3.673" r="3.673" transform="translate(6831.293 1281.937)" fill="#4db6e4"/>
    <path id="Path_101815" data-name="Path 101815" d="M6934.394,1419.106l1.093-19.827,2.933.162-1.093,19.827Z" transform="translate(-119.099 -110.259)" fill="#3ba5d3"/>
    <path id="Path_101816" data-name="Path 101816" d="M6966.526,1441.383l2.93-.235,1.283,15.983-2.931.235Z" transform="translate(-145.329 -144.438)" fill="#3ba5d3"/>
    <circle id="Ellipse_3962" data-name="Ellipse 3962" cx="3.673" cy="3.673" r="3.673" transform="translate(6797.499 1321.609)" fill="#4db6e4"/>
    <path id="Path_101817" data-name="Path 101817" d="M7020.885,1364.83l-.771-.617a58.612,58.612,0,0,0-13.121-7.928l-12-4.758a3.73,3.73,0,0,0-3.733,6.4l.1.072,10.459,6.831h-28.593a4.085,4.085,0,1,0,0,8.17h-1.362a4.085,4.085,0,1,0,0,8.17h2.723a4.085,4.085,0,0,0,0,8.17h4.085a4.085,4.085,0,1,0,0,8.17h24.906c6.006,0,11.931-2.76,17.3-5.446h4.085V1364.83Z" transform="translate(-146.355 -71.022)" fill="#fdb683"/>
    <g id="Group_53319" data-name="Group 53319" transform="translate(6826.874 1293.808)">
      <path id="Path_101818" data-name="Path 101818" d="M6997.436,1462.416h20.424v2.723h-20.424Z" transform="translate(-6997.436 -1455.608)" fill="#f6a368"/>
      <path id="Path_101819" data-name="Path 101819" d="M6997.436,1506.9h20.424v2.723h-20.424Z" transform="translate(-6997.436 -1491.92)" fill="#f6a368"/>
      <path id="Path_101820" data-name="Path 101820" d="M7019.676,1551.378h16.34v2.723h-16.34Z" transform="translate(-7015.591 -1528.231)" fill="#f6a368"/>
      <path id="Path_101821" data-name="Path 101821" d="M7163.139,1436.249c-5.1.509-9.135-1.171-11.99-5a17.682,17.682,0,0,1-2.813-5.9h-2.791l.056.267a19.962,19.962,0,0,0,3.3,7.178,14.947,14.947,0,0,0,12.5,6.266q.962,0,2-.1Z" transform="translate(-7118.342 -1425.349)" fill="#f6a368"/>
    </g>
    <path id="Path_101822" data-name="Path 101822" d="M6961.333,1483.008l-.772-.618a58.706,58.706,0,0,0-13.145-7.943l-12.018-4.766a3.737,3.737,0,0,0-3.74,6.412c.033.025.065.048.1.072l10.478,6.843H6913.59a4.092,4.092,0,1,0,0,8.185h-1.364a4.092,4.092,0,1,0,0,8.184h2.728a4.092,4.092,0,0,0,0,8.185h4.093a4.092,4.092,0,1,0,0,8.185H6944c6.018,0,13.317-2.765,18.7-5.456h13.641v-27.282Z" transform="translate(-97.662 -167.475)" fill="#fdc8a2"/>
    <g id="Group_53320" data-name="Group 53320" transform="translate(6814.564 1322.354)">
      <path id="Path_101823" data-name="Path 101823" d="M6930.415,1580.773h20.461v2.728h-20.461Z" transform="translate(-6930.415 -1580.773)" fill="#fcb079"/>
      <path id="Path_101824" data-name="Path 101824" d="M6930.415,1625.335h20.461v2.728h-20.461Z" transform="translate(-6930.415 -1617.151)" fill="#fcb079"/>
      <path id="Path_101825" data-name="Path 101825" d="M6952.7,1669.9h16.369v2.728H6952.7Z" transform="translate(-6948.604 -1653.529)" fill="#fcb079"/>
    </g>
    <circle id="Ellipse_3963" data-name="Ellipse 3963" cx="3.673" cy="3.673" r="3.673" transform="translate(6845.987 1331.894)" fill="#4db6e4"/>
  </g>
</svg>
