<svg xmlns="http://www.w3.org/2000/svg" width="90.18" height="90.18" viewBox="0 0 90.18 90.18">
  <g id="t1-ic3" transform="translate(-7399.143 -674.214)">
    <circle id="Ellipse_3979" data-name="Ellipse 3979" cx="37.019" cy="37.019" r="37.019" transform="translate(7407.188 682.811)" fill="#7b1fa2"/>
    <path id="Path_101977" data-name="Path 101977" d="M7444.233,674.214a45.09,45.09,0,1,0,45.09,45.09A45.09,45.09,0,0,0,7444.233,674.214Zm0,86.12a41.03,41.03,0,1,1,41.03-41.03A41.03,41.03,0,0,1,7444.233,760.334Z" transform="translate(0)" fill="#ea3065"/>
    <g id="Group_53428" data-name="Group 53428" transform="translate(7409.73 689.083)">
      <path id="Path_101978" data-name="Path 101978" d="M7735.471,863.2a17.213,17.213,0,0,1,4.215,11.409l-.112,15.443a1.692,1.692,0,0,0,3.375.184l3.82-37.531-1.021-.465-10.384,9.269Z" transform="translate(-7686.961 -835.876)" fill="#ebb610"/>
      <path id="Path_101979" data-name="Path 101979" d="M7764.5,891.559a1.689,1.689,0,0,0,2.473-1.323l3.82-37.531-1.02-.465-3.274,2.922-.593,16.94-.634,18.094A1.692,1.692,0,0,1,7764.5,891.559Z" transform="translate(-7710.982 -835.876)" fill="#ffd54f"/>
      <path id="Path_101980" data-name="Path 101980" d="M7560.17,802.472c-4.318,9.4-11.748,11.576-17.739,11.564l.1,1.557,9.458,2.17,9.064-4.26,16.914-37.807-.767-1.93a152.631,152.631,0,0,0-17.028,28.707Z" transform="translate(-7527.878 -771.168)" fill="#989da0"/>
      <path id="Path_101981" data-name="Path 101981" d="M7585.169,813.5l4.922-11,.459-1.726.274.087,11.259-25.167-.766-1.93a151.314,151.314,0,0,0-16.178,26.888q-.363,1.233-.715,2.5c-2.314,8.363-7.6,12.06-12.743,13.592l4.424,1.015Z" transform="translate(-7551.997 -771.168)" fill="#42454c"/>
      <path id="Path_101982" data-name="Path 101982" d="M7513.244,759.583a23.583,23.583,0,0,1,6.588,15.124,1.183,1.183,0,0,1-.541,1.087,50.462,50.462,0,0,0-21.014,31.052,11.745,11.745,0,0,1-8.316,8.857,29.2,29.2,0,0,1-13.21.6,87.224,87.224,0,0,1-14.948-4.209,3.594,3.594,0,0,1-.414-6.532,76.645,76.645,0,0,1,8.539-3.847,4.241,4.241,0,0,1,3.775-.041c13.974,6.746,19.134-1.743,24.593-18.154,4.174-12.548,9.3-20.4,11.734-23.689a2.128,2.128,0,0,1,3.213-.247Z" transform="translate(-7459.485 -758.964)" fill="#bababa"/>
      <g id="Group_53427" data-name="Group 53427" transform="translate(14.6 0)">
        <path id="Path_101983" data-name="Path 101983" d="M7553.661,814.84a29.209,29.209,0,0,1-10.959.924q1.3.286,2.666.538a29.2,29.2,0,0,0,13.21-.6,11.744,11.744,0,0,0,8.316-8.857,50.46,50.46,0,0,1,21.014-31.052,1.185,1.185,0,0,0,.541-1.087,23.586,23.586,0,0,0-6.589-15.124,2.128,2.128,0,0,0-3.214.247c-.1.135-.206.281-.314.431a24.111,24.111,0,0,1,5.2,13.583,1.184,1.184,0,0,1-.541,1.087,50.459,50.459,0,0,0-21.014,31.052,11.746,11.746,0,0,1-8.316,8.857Z" transform="translate(-7542.702 -758.964)" fill="#989da0"/>
      </g>
    </g>
    <rect id="Rectangle_5184" data-name="Rectangle 5184" width="88.025" height="3.722" transform="translate(7414.427 686.867) rotate(45)" fill="#ea3065"/>
  </g>
</svg>
