<svg xmlns="http://www.w3.org/2000/svg" width="86.38" height="90.18" viewBox="0 0 86.38 90.18">
  <g id="t1-ic24" transform="translate(-9712.308 -1847.212)">
    <circle id="Ellipse_3977" data-name="Ellipse 3977" cx="43.156" cy="43.156" r="43.156" transform="translate(9712.342 1851.08)" fill="#7b1fa2"/>
    <path id="Path_101943" data-name="Path 101943" d="M9745.968,1995.115a43.153,43.153,0,0,0,66.916.009l3.975-51.328.454-5.015.2-2.239h-76.171l.2,2.241Z" transform="translate(-23.932 -73.627)" fill="#ebb610"/>
    <path id="Path_101944" data-name="Path 101944" d="M9817.024,1847.212h-56.493a7.845,7.845,0,0,0-7.846,7.845v5.655h72.184v-5.655A7.845,7.845,0,0,0,9817.024,1847.212Z" transform="translate(-33.28)" fill="#ebb610"/>
    <path id="Path_101945" data-name="Path 101945" d="M9796.911,1913.618h-82.827a1.776,1.776,0,0,1-1.776-1.776v-5.481a1.776,1.776,0,0,1,1.776-1.776h82.827a1.777,1.777,0,0,1,1.776,1.776v5.481A1.776,1.776,0,0,1,9796.911,1913.618Z" transform="translate(0 -47.287)" fill="#ffd54f"/>
    <path id="Path_101946" data-name="Path 101946" d="M9826.916,2040.324h0q.514.262,1.035.51l.289.135q.384.18.771.353l.351.153q.368.159.738.312l.357.146q.39.157.784.305c.1.039.207.08.312.119q.521.192,1.047.372l.056.02c.375.127.754.249,1.134.367l.278.083c.282.085.565.168.851.248.128.036.257.07.386.1q.381.1.766.2l.411.1q.387.092.774.176c.132.029.263.058.395.086.295.062.591.119.888.175.095.018.188.037.283.054q.589.106,1.183.2l.233.033c.317.047.635.09.954.13.137.017.274.031.412.047.264.03.527.058.792.083l.455.04q.387.033.774.058c.151.01.3.02.453.029.276.016.554.027.832.038.131,0,.262.011.393.015.408.011.816.018,1.228.018s.8-.006,1.192-.017c.13,0,.259-.01.389-.015.267-.01.532-.02.8-.034.152-.008.3-.019.455-.029.243-.016.485-.032.727-.052.158-.013.315-.027.473-.042q.354-.033.707-.071c.156-.017.313-.035.468-.054q.357-.043.714-.092c.148-.02.3-.04.446-.062.251-.037.5-.078.752-.119.131-.022.263-.042.394-.065.3-.053.605-.111.906-.171l.228-.043q.573-.117,1.142-.248l.159-.039c.32-.076.641-.154.958-.237.11-.029.221-.06.33-.089.261-.07.521-.141.779-.216l.371-.11c.245-.074.49-.148.733-.226l.373-.121q.366-.12.729-.247l.354-.124q.382-.138.762-.282l.3-.115q.437-.17.868-.35l.18-.073q1.074-.451,2.12-.958l.07-.035q.475-.231.943-.474l.2-.1q.406-.213.807-.434l.231-.13q.387-.217.769-.441l.226-.133q.391-.234.778-.475l.188-.117q.428-.27.849-.55l.095-.062a43.307,43.307,0,0,0,3.7-2.776l.091-.076c.261-.22.521-.443.776-.669l.115-.1q.376-.335.745-.678l.1-.1q.387-.363.766-.735l.052-.05a43.377,43.377,0,0,0,3.14-3.451h0l3.975-51.328h-52.626a8.575,8.575,0,0,0-8.541,9.349Z" transform="translate(-91.033 -107.637)" fill="#ffd54f"/>
  </g>
</svg>
