<svg id="t4-i2" xmlns="http://www.w3.org/2000/svg" width="536" height="320" viewBox="0 0 536 320">
  <g id="Illustration">
    <rect id="Rectangle_5105" data-name="Rectangle 5105" width="536" height="320" rx="20" fill="#fff4d3"/>
    <path id="Path_100871" data-name="Path 100871" d="M429.54,113.31c-5.69-.22-11.78-.27-17.94-.24h-2l-5.85.07h-2c-5.16.09-10.23.21-15,.33l-2.86.07a4.457,4.457,0,0,0-.07-.51c-.2-1.21-.35-2.61-.48-4.17l3.22-.07q7.64-.2,14.69-.32h2l5.83-.08h2q9.705-.075,18,.18C429.17,110.32,429.33,111.91,429.54,113.31Z" fill="#7b1fa2"/>
    <path id="Path_100872" data-name="Path 100872" d="M234.89,109.68h9.83l17.88-.07c.14,1.67.3,3.19.51,4.51v.18l-17.83.07H223.59c-1.62,0-3.67.08-6,.17-.06-.5-.12-1-.19-1.47-.16-1-.29-2-.41-3.21,2.56-.11,4.84-.19,6.66-.19C225.91,109.7,229.82,109.7,234.89,109.68Z" fill="#7b1fa2"/>
    <path id="Path_100873" data-name="Path 100873" d="M290.33,109.47h9.83l17.94-.07c.14,1.73.31,3.32.53,4.68l-17.9.07H272.98a7.49,7.49,0,0,0-.16-1.17c-.16-1-.3-2.22-.41-3.52h.51l14.22-.06Z" fill="#7b1fa2"/>
    <path id="Path_100874" data-name="Path 100874" d="M345.84,109.26H364.1c2.94,0,6.14,0,9.49-.1.13,1.73.29,3.31.5,4.68-3.52.07-6.88.11-10,.11H346.34l-17.9.06a7.415,7.415,0,0,0-.13-1c-.17-1.09-.32-2.36-.43-3.74Z" fill="#7b1fa2"/>
    <path id="Path_100875" data-name="Path 100875" d="M178.92,90.53v4.72c-6,.52-11,1.6-13.65,3.61a4.44,4.44,0,0,0-2,3.77,4.72,4.72,0,0,0,2.09,3.93c2.78,2.1,8,3.23,14.14,3.78.65.06,1.33.1,2,.15,1.89.13,3.85.21,5.86.26h2c6.12.06,12.42-.18,17.89-.44.13,1.37.28,2.64.47,3.76a6.1,6.1,0,0,0,.13.9c-5.7.28-11.86.53-17.87.49h-2c-2,0-3.95-.11-5.86-.23l-2-.13c-7.87-.62-14.71-2.1-18.73-5.14a9.09,9.09,0,0,1-3.93-7.35,8.85,8.85,0,0,1,3.9-7.21C165.1,92.57,171.49,91.15,178.92,90.53Z" fill="#7b1fa2"/>
    <path id="Path_100876" data-name="Path 100876" d="M234.42,91.63v4.7h-9c-2.36,0-5.42-.17-8.94-.38l-2-.12-1.34-.09-4.48-.27-2-.11c-5.64-.32-11.93-.59-18-.55V90.1c5.95,0,12.13.23,17.95.56l2,.11,4.67.29,1.15.07,2,.12c3.59.21,6.68.38,9,.39H227Z" fill="#7b1fa2"/>
    <path id="Path_100877" data-name="Path 100877" d="M289.91,91.16v4.69l-18,.17h-9.82l-17.93.15v-4.7l17.92-.15h2l5.82-.06h2Z" fill="#7b1fa2"/>
    <path id="Path_100878" data-name="Path 100878" d="M345.43,90.62v4.69l-18,.17h-9.82l-18,.17V90.96l18-.17h9.82Z" fill="#7b1fa2"/>
    <path id="Path_100879" data-name="Path 100879" d="M400.92,90.1v4.69L383,95h-2l-5.82.06h-2l-18,.18v-4.7l18-.17h2l5.83-.06h2Z" fill="#7b1fa2"/>
    <path id="Path_100880" data-name="Path 100880" d="M438.44,94.5h-9.82l-18,.15V89.96l18-.15h9.83c8.78,0,16-.09,20.89-.09a2.4,2.4,0,1,1,0,4.69C454.46,94.4,447.26,94.44,438.44,94.5Z" fill="#7b1fa2"/>
    <path id="Path_100881" data-name="Path 100881" d="M440.41,132.84l-2,.16c-1.85.14-3.8.26-5.82.36-.66,0-1.3.07-2,.09-5.46.22-11.47.28-18,.25,0-1.64,0-3.2-.05-4.68,6.18,0,12.29-.05,18-.29l2-.09c2-.11,3.95-.23,5.81-.38l2-.17c8.37-.79,14.9-2.17,17.88-4.5a3,3,0,0,0,0-5.1c-3.09-2.4-10-3.8-18.75-4.58a5.536,5.536,0,0,0-.11-.83c-.19-1.15-.35-2.49-.48-4,11.07.89,19.13,2.68,23.39,6a7.64,7.64,0,0,1,3.14,5.34,2.33,2.33,0,0,1,.08.57,2,2,0,0,1-.06.48,7.76,7.76,0,0,1-3.16,5.44C458.21,130.14,450.7,131.92,440.41,132.84Z" fill="#7b1fa2"/>
    <path id="Path_100882" data-name="Path 100882" d="M462.93,188.85c-5.05-3.82-14-5.34-23.84-5.8q.18-4.11.34-8.22c9.75-.48,18.51-2,23.5-5.79a10.5,10.5,0,0,0,4.56-8.51,10.24,10.24,0,0,0-4.52-8.34c-4.82-3.61-13.21-5.1-22.66-5.57.08-4.28.12-8.39.12-12.19,10.85-1,18.82-2.88,23.23-6.32a9.11,9.11,0,0,0,3.74-6.37,2.589,2.589,0,0,0,.09-.7,3.561,3.561,0,0,0-.1-.79,9.05,9.05,0,0,0-3.73-6.27c-4.62-3.61-13.2-5.52-24.89-6.45-.23-3.38-.32-7.33-.33-11.43,8.82-.06,16-.1,20.93-.1,2.7,0,4.9-1.77,4.9-3.94s-2.2-4-4.9-4c-4.93,0-12.1,0-20.86.09.23-11.5.88-22,.89-22.2.14-2.18-1.95-4-4.64-4.14h-.25c-2.61,0-4.76,1.65-4.89,3.75-.05.78-.69,11.2-.91,22.67l-18,.15c.22-11.59.88-22.23.89-22.42.14-2.18-1.95-4-4.64-4.14h-.25c-2.61,0-4.76,1.65-4.89,3.75-.05.78-.7,11.34-.91,22.9L383,88.66c.21-11.68.85-22.48.86-22.67a3.56,3.56,0,0,0-1.26-2.85,5.42,5.42,0,0,0-3.39-1.28H379c-2.62,0-4.76,1.65-4.89,3.76-.05.79-.68,11.49-.88,23.14l-18,.17c.21-11.78.86-22.74.87-22.93a3.56,3.56,0,0,0-1.26-2.85,5.42,5.42,0,0,0-3.39-1.28h-.24c-2.62,0-4.76,1.65-4.89,3.76,0,.79-.69,11.66-.88,23.41l-18,.17c.2-11.88.86-23,.87-23.2a3.56,3.56,0,0,0-1.26-2.85,5.42,5.42,0,0,0-3.39-1.28h-.24c-2.62,0-4.76,1.65-4.89,3.76-.05.8-.7,11.82-.89,23.68l-18,.17c.2-12,.87-23.28.88-23.47a3.56,3.56,0,0,0-1.26-2.85A5.42,5.42,0,0,0,296,61.86h-.24c-2.62,0-4.76,1.65-4.89,3.76-.05.81-.71,12-.89,23.94l-18,.17c.19-12.08.87-23.54.88-23.73a3.56,3.56,0,0,0-1.26-2.85,5.42,5.42,0,0,0-3.39-1.28H268c-2.62,0-4.76,1.65-4.89,3.76-.05.81-.72,12.14-.89,24.2L244.24,90c.19-12.17.91-23.77.92-24,.14-2.18-1.95-4-4.64-4.14h-.25c-2.61,0-4.76,1.65-4.89,3.75,0,.82-.76,12.28-.94,24.42h-9c-2.25,0-5.36-.18-8.94-.4.19-12,.9-23.47.91-23.66.14-2.18-2-4-4.64-4.14h-.25c-2.61,0-4.76,1.65-4.89,3.75-.05.8-.73,11.69-.92,23.47-5.82-.32-12-.58-17.95-.54.21-11.63.88-22.34.89-22.53.14-2.18-1.95-4-4.64-4.14h-.25c-2.61,0-4.76,1.65-4.89,3.75-.05.79-.72,11.6-.92,23.33-7.93.65-14.82,2.18-19,5.31a10.32,10.32,0,0,0-4.54,8.39,10.51,10.51,0,0,0,4.56,8.51c4.44,3.36,11.85,4.94,20.28,5.58.24,2.38.4,5.31.5,8.61-8.63.62-16.26,2.19-20.78,5.61a10.53,10.53,0,0,0-4.56,8.52,10.29,10.29,0,0,0,4.54,8.38c4.49,3.35,12,4.88,20.68,5.45-.11,4.22-.24,8.45-.38,12.52-9.71,1-16.92,2.88-21,6.07a9.11,9.11,0,0,0-3.74,6.37,2.59,2.59,0,0,0-.09.7,3.579,3.579,0,0,0,.1.8,9,9,0,0,0,3.73,6.26c3.94,3.08,10.77,4.92,19.95,6-.11,3.57-.18,7.91-.22,12.78-7.94.65-14.84,2.19-19,5.33a10.25,10.25,0,0,0-4.52,8.35A10.54,10.54,0,0,0,160,227c4.21,3.18,11.1,4.76,19,5.47l.06,8.86c-7.91.71-14.82,2.29-19,5.49a10.54,10.54,0,0,0-4.58,8.56,10.15,10.15,0,0,0,4.47,8.23c4.25,3.17,11.3,4.73,19.45,5.4.16,11.71.3,19.89.3,20.14,0,2.15,2.24,3.89,4.9,3.89a5.48,5.48,0,0,0,3.51-1.2,3.54,3.54,0,0,0,1.38-2.8c0-.25-.14-8.19-.29-19.62,5.93.05,12.06-.18,17.9-.49.14,11.76.28,20,.28,20.22,0,2.14,2.2,3.85,4.93,3.89s4.9-1.82,4.86-4c0-1-.14-9.23-.29-20.68,4.29-.26,8-.47,10.55-.48,1.87,0,4.38,0,7.42.06.15,12.28.29,21,.29,21.21,0,2.14,2.2,3.85,4.93,3.89s4.9-1.82,4.86-4c0-1-.15-9.33-.29-20.89h.11l2.41.06c4.76.11,10,.23,15.45.33.15,12,.29,20.36.29,20.61,0,2.14,2.2,3.85,4.93,3.89s4.9-1.82,4.86-4c0-1-.14-9.06-.28-20.33,5.84.09,11.88.15,18,.17.14,11.78.28,20,.28,20.27,0,2.14,2.2,3.85,4.93,3.89s4.9-1.82,4.86-4c0-1-.14-9-.28-20.19,6.09,0,12.12-.14,17.95-.33.15,12,.3,20.38.3,20.63,0,2.15,2.24,3.89,4.9,3.89a5.48,5.48,0,0,0,3.51-1.2,3.54,3.54,0,0,0,1.38-2.8c0-.25-.15-8.8-.31-20.92,3.73-.19,7.33-.43,10.73-.72,2.25-.18,4.67-.34,7.23-.48.16,12.83.32,22,.32,22.23,0,2.13,2.15,3.8,4.91,3.89a5.47,5.47,0,0,0,3.5-1.2,3.54,3.54,0,0,0,1.38-2.8c0-.27-.16-9.55-.33-22.53,5.65-.19,11.71-.3,18-.36.17,13.23.34,22.73.34,23,0,2.09,2.2,3.8,4.91,3.89a5.47,5.47,0,0,0,3.5-1.2,3.54,3.54,0,0,0,1.38-2.8c0-.27-.17-9.74-.34-22.93,6,0,12.06,0,18,.1.17,13.2.34,22.67.34,22.94,0,2.15,2.24,3.89,4.9,3.89a5.48,5.48,0,0,0,3.51-1.2,3.54,3.54,0,0,0,1.38-2.8c0-.27-.16-9.63-.33-22.7,6.42.1,12.51.23,18,.36.17,12.95.33,22.19.33,22.45,0,2.15,2.24,3.89,4.9,3.89a5.48,5.48,0,0,0,3.51-1.2,3.54,3.54,0,0,0,1.38-2.8c0-.26-.16-9.34-.32-22.09,8.5.24,14.15.44,15,.47,2.79.05,5-1.6,5.13-3.76a3.48,3.48,0,0,0-1.27-2.84,5.39,5.39,0,0,0-3.39-1.28c-2-.07-7.62-.27-15.55-.5,0-2.78-.07-5.68-.1-8.64,11.77-.92,20.39-2.82,25-6.44a9.11,9.11,0,0,0,3.74-6.37,2.588,2.588,0,0,0,.09-.7,3.564,3.564,0,0,0-.1-.79,9.07,9.07,0,0,0-3.73-6.27c-4.65-3.63-13.34-5.53-25.2-6.44v-12c10.19-.35,19.35-1.8,24.5-5.64a10.3,10.3,0,0,0,4.53-8.38,10.52,10.52,0,0,0-4.78-8.52ZM436.47,223.2v7.93c0,3.82,0,7.67.07,11.47q-2.81.19-5.81.32c0-4-.06-8.08-.08-12.11V211.46h5.82C436.46,215.19,436.46,219.14,436.47,223.2Zm-7.75-19.69c-6.51-.13-12.93-.51-18-.82.05-4.28.12-8.07.22-11.21h.63c5-.25,11.16-.56,17.35-.64C428.85,194.28,428.77,198.62,428.72,203.51Zm.3-14.3c-6.26.08-12.47.39-17.5.64h-.77L409,190c-2.11.1-4.06.19-5.83.25l-2,.05h-18a13.306,13.306,0,0,1,.06-1.57c.05-1.06.1-2.07.14-3.11h17.97l2-.07c1.76-.06,3.71-.15,5.83-.26h.56l1.3-.06h.14c5.57-.29,11.79-.6,18-.67-.06,1.41-.12,2.73-.18,3.94.01.18.01.5.01.71Zm.28-6.31c-6.19.07-12.4.38-18,.66.15-3.15.28-6.24.41-9.2,5.58.28,11.75.58,17.91.64C429.52,177.82,429.41,180.48,429.3,182.9Zm.64-15.81c-6.51-.05-12.95-.37-17.91-.62q.21-6,.36-11.35c5.22-.32,11.61-.66,17.95-.74C430.23,158.69,430.09,163,429.94,167.09Zm.44-14.32c-6.25.07-12.57.42-17.95.74l-2,.12h-.63l-5.19.31-2,.1c-2,.1-3.72.17-5.18.17-3.51,0-7.8-.05-12.79-.19,0-1.59.08-3.17.11-4.68,5.08.14,9.24.21,12.63.18,1.46,0,3.29-.07,5.34-.18l2-.11,4.64-.28,1.18-.07,2-.12c5.7-.34,11.88-.67,17.95-.74-.03,1.6-.07,3.17-.11,4.75Zm.14-6.31c-6.09.07-12.26.39-17.95.73.07-4.3.12-8.29.11-11.89,6.47,0,12.48,0,17.95-.26,0,3.64-.04,7.49-.11,11.42ZM410.7,135.29c0,3.63,0,7.66-.12,12l-1.28.08-4.54.27c.09-4.53.13-8.7.13-12.43V133.6c0-1.64,0-3.2-.05-4.67v-1.61a118.128,118.128,0,0,0-.82-12.59c1.94,0,3.89,0,5.85-.06q.59,4.62.78,12.71v1.61c0,1.48,0,3,.05,4.68C410.69,134.22,410.7,134.73,410.7,135.29Zm19.84-8.17c-5.67.24-11.8.31-18,.29q-.18-8.07-.77-12.74c6.14,0,12.26,0,17.95.26a115.788,115.788,0,0,1,.82,12.19Zm-1-13.81c-5.69-.22-11.78-.27-17.94-.24h-2l-5.85.07h-2c-5.16.09-10.23.21-15,.33l-2.86.07a4.457,4.457,0,0,0-.07-.51c-.2-1.21-.35-2.61-.48-4.17l3.22-.07q7.64-.2,14.69-.32h2l5.83-.08h2q9.705-.075,18,.18C429.17,110.32,429.33,111.91,429.54,113.31Zm-.6-6.32q-8.26-.27-18-.19c-.2-3.16-.28-6.76-.29-10.49l18-.15c.01,3.84.09,7.53.29,10.84Zm-27.77-.07q-7,.12-14.63.32l-3.28.08c-.2-3.21-.29-6.91-.3-10.77l17.92-.16C400.9,100.1,401,103.7,401.17,106.92Zm-55.45.74-18,.06c-.22-3.15-.31-6.81-.33-10.64l18-.17c.04,3.81.13,7.5.33,10.75Zm-55.5.21h-3.11l-14.22.06h-.63c-.21-3-.31-6.6-.34-10.32l18-.17c0,3.71.08,7.28.3,10.43Zm-55.46.21H223.64c-1.92,0-4.24.07-6.81.19-.24-3.15-.36-6.83-.38-10.7,3.54.22,6.55.37,8.91.38h9c.09,3.58.19,7.05.4,10.13ZM188.68,96.41c6,0,12.34.25,18,.57,0,4.22.14,8.28.41,11.77-5.35.25-11.73.49-17.92.42C188.82,105.55,188.69,101.08,188.68,96.41Zm19.95.69,4.16.25,1.67.1c0,3.94.14,7.7.39,10.91,0,.55.08,1.08.13,1.6.12,1.22.25,2.34.42,3.33.06.4.12.89.17,1.34s.14,1,.19,1.6c.28,2.67.46,5.91.56,9.65l-4.48-.21-1.36-.07c-.1-3.5-.27-6.59-.52-9.09-.06-.56-.12-1.09-.19-1.59s-.09-.7-.14-1c-.18-1.09-.33-2.32-.46-3.65,0-.52-.09-1-.13-1.6-.26-3.44-.38-7.43-.41-11.57Zm-18.56,20c6,0,12.21-.21,17.9-.49.26,2.44.42,5.46.53,8.89-5.7-.28-11.9-.54-18-.51q-.13-4.45-.43-7.89Zm.49,9.48c6.07,0,12.28.25,18,.53l2,.1,1.17.06,4.66.21,2,.09c2.06.07,3.8.12,5.24.14h12.73c0,1.5.06,3.06.07,4.67H223.68c-1.52,0-3.3-.05-5.22-.13l-2-.08-5.08-.24h-.75l-2-.1c-5.38-.27-11.74-.54-18-.52C190.63,129.66,190.6,128.08,190.56,126.58Zm.1,6.32c6.32,0,12.75.25,18,.51,0,3.67,0,7.58-.09,11.58-5.36.32-11.74.64-18,.67.07-4.53.11-8.81.09-12.76Zm19.85,13.58v-1.61c.06-3.92.09-7.76.08-11.36h.61l5.22.24q0,5.06-.08,10.73v1.6c0,1.55-.06,3.12-.1,4.71v1.61c-.1,4-.22,8.13-.37,12.34l-5.81-.05c.14-3.89.26-7.91.36-11.93v-1.61c.02-1.53.06-3.15.09-4.67Zm-20.12,7.08c6.05,0,12.22-.31,18-.65-.1,4-.22,8-.36,11.82-6.52,0-12.52.09-18,.36.15-3.92.27-7.78.36-11.53ZM190,166.68q8.16-.39,18-.35h9.82c5.69.08,11.67.22,18,.38-.06,1.59-.12,3.16-.17,4.68-5.67-.14-11.78-.3-18-.39h-2c-1.93,0-3.87,0-5.81-.05h-2c-6.24,0-12.36.1-18,.39C189.87,169.82,189.93,168.24,190,166.68Zm-.24,6.33c5.62-.29,11.76-.39,18-.39-.18,4.71-.37,9-.53,12.7-6.24,0-12.37-.13-17.95-.44.14-3.95.31-7.88.46-11.88Zm19.37,13.92a12.622,12.622,0,0,1,.07-1.61c.17-3.66.35-8,.54-12.7h5.81c-.16,4.2-.34,8.42-.52,12.62a10.788,10.788,0,0,1-.08,1.61,17.368,17.368,0,0,0-.07,1.8c0,.88-.08,1.86-.11,2.88,0,.52,0,1.05-.05,1.6-.09,3.46-.16,7.6-.2,12.19l-.92-.06-4.89-.29c0-4.42.1-8.43.19-11.8,0-.56,0-1.08.05-1.6,0-1.1.07-2.15.11-3.09,0-.48.03-1,.05-1.55Zm-20.17,5.84c5.43.3,11.43.42,17.95.43-.09,3.35-.15,7.32-.19,11.69-5.81-.32-12-.57-18-.53.06-4.36.13-8.29.22-11.59ZM188.73,206c6,0,12.14.22,18,.55l2,.11,4.75.29,1.06.06,2,.12c3.56.22,6.65.38,8.94.39,2.56,0,5.6,0,9-.09v4.68c-3.42.08-6.45.12-9,.1-2.36,0-5.41-.17-8.93-.38l-2-.12-1.48-.09-4.34-.26-2-.11c-5.62-.31-11.92-.57-18-.53C188.71,209.05,188.72,207.48,188.73,206Zm0,6.3c6,0,12.33.24,18,.55v11.78c-5.39.26-11.78.48-17.94.4-.1-4.44-.1-8.72-.09-12.78Zm19.94,12.23V212.97l4.13.25,1.69.1v28.35l-1-.05-1.66-.09-3.15-.15c0-3,0-6-.05-8.94v-6.3Zm-19.9,8.41c6,.08,12.18-.14,17.94-.41v8.75c-5.76-.27-11.92-.48-17.93-.4Zm.07,9.53c6-.08,12.18.14,17.94.41l2,.1,3,.15,1.71.09,1.15.06,2,.1c2.75.14,5.16.23,7.07.19h10.9v4.68H223.69c-1.92,0-4.3-.08-7-.2l-2-.09-3.21-.16-2.61-.13-2-.1c-5.51-.26-11.82-.49-17.93-.41-.1-1.59-.12-3.16-.13-4.74Zm.06,6.29c6.08-.07,12.41.17,17.93.43,0,4.1.07,8.08.12,11.84-5.61.3-11.9.54-17.91.48-.04-4.08-.13-8.37-.17-12.8Zm27.72.9c2.74.12,5.11.2,7,.2h10.93c0,3.51.07,6.93.1,10.2-3,0-5.5-.08-7.39-.07-2.7,0-6.36.21-10.57.47-.03-3.46-.06-7.12-.1-10.85Zm55.53.34h17.99c0,3.77.07,7.43.11,10.91-6.09,0-12.13-.08-18-.16-.06-3.43-.1-7.06-.13-10.75Zm55.49.23,18,.06c0,3,.06,5.92.09,8.73-2.87.16-5.61.34-8.13.54-3.12.27-6.41.48-9.82.66-.1-3.22-.14-6.6-.17-10.04Zm55.52.4,3.39.08q7.58.19,14.58.32,0,3.72.08,7.27c-5.91-.07-12-.1-18-.1q-.04-3.74-.08-7.62Zm45.81,8.16c-5.49-.13-11.56-.26-18-.36,0-2.37-.05-4.8-.08-7.29,6.46,0,12.46,0,18-.19-.01,2.63.02,5.25.05,7.79Zm-20-.39-5.82-.08c0-2.36-.05-4.78-.07-7.27v-7.87c0-4.14-.06-8.34-.08-12.5l5.81-.07c0,4.2.05,8.45.09,12.64v1.61c0,1.57,0,3.13.05,4.67v1.6c-.02,2.43.05,4.87.05,7.22ZM428.78,243c-5.72.2-11.85.25-18,.21,0-4.19-.07-8.45-.09-12.67,6.11,0,12.24,0,18,.2C428.72,234.82,428.75,238.94,428.78,243Zm-.09-13.87c-5.72-.2-11.82-.24-18-.2h-2l-5.81.08h-2c-4.78.09-9.47.21-13.89.32l-4.08.11v-4.69l3.83-.1q7.34-.18,14.13-.32h2l5.82-.08h2c6.48,0,12.49,0,18,.16C428.68,226,428.68,227.55,428.69,229.13Zm-20-6.46-5.81.08V202.23c.05-3.92.11-7.42.2-10.38q2.65-.09,5.83-.26c-.1,3.08-.17,6.8-.21,11v7.91c0,3.85,0,7.95.01,12.17Zm-27.44-32.34v1.6c-.09,3-.16,6.48-.2,10.42l-5.82.19c0-4,.11-7.56.2-10.59,0-.55,0-1.09.05-1.6s0-1.26.07-1.83c.05-1,.09-1.9.13-2.86,0-.53.05-1.07.08-1.6.16-3.51.31-6.94.45-10.21H382c-.14,3.27-.29,6.68-.45,10.18,0,.53-.05,1.07-.07,1.61l-.15,3c-.02.56-.04,1.13-.06,1.69Zm28.06-6.67c-2.12.11-4.08.21-5.84.27.16-3.41.31-6.75.44-9.93a14.176,14.176,0,0,1,.06-1.6c.07-1.58.13-3.17.19-4.69a14.176,14.176,0,0,1,.06-1.6c.13-3.68.24-7.2.34-10.53l5.26-.31h.56c-.09,3.51-.21,7.23-.35,11.13a14.9,14.9,0,0,1-.06,1.6c-.06,1.52-.12,3.1-.19,4.69a14.353,14.353,0,0,1-.06,1.6c-.1,2.99-.24,6.15-.39,9.37ZM382.67,154v1.61c-.09,3.27-.2,6.74-.33,10.36h-5.82c.13-3.68.25-7.21.34-10.53v-1.61c0-1.6.08-3.17.11-4.69v-1.6c.09-4.73.13-9,.12-12.9l5.81.13c0,3.88,0,8.22-.12,13v1.61C382.75,150.83,382.71,152.41,382.67,154Zm20.1-6.24c-2.08.11-3.93.19-5.38.19-3.39,0-7.53-.06-12.59-.19.08-4.73.13-9.07.12-13h1.61q8.55.21,16.37.35c.01,3.89-.04,8.07-.13,12.66Zm.12-14.18c-5.19-.08-10.61-.2-16.29-.34h-1.69l-2-.05-5.81-.13-2-.05c-3.92-.07-7.63-.13-11-.13h-6.91c0-1.63,0-3.19-.07-4.69h7c3.4,0,7.08.05,11,.13h2l5.82.14,2,.05h1.89c5.1.13,10.55.26,16.1.36-.06,1.52-.04,3.13-.04,4.72Zm-.08-6.28c-5.6-.09-11-.22-16-.35h-2q-.18-7.27-.69-11.72l2.68-.07c4.7-.11,9.86-.24,15.18-.33a115.613,115.613,0,0,1,.83,12.48ZM375,126.69c-3.87-.08-7.54-.13-10.93-.13h-7c-.12-4.32-.34-8.07-.67-11h7.68c3.18,0,6.61,0,10.21-.11A107.3,107.3,0,0,1,375,126.69Zm-28.45-11.14c.36,2.83.59,6.6.71,11l-18-.06c-.11-4.25-.32-8-.65-10.87Zm-27.05,10.9-18-.08c-.12-4.15-.32-7.77-.64-10.66l17.91-.07a98.267,98.267,0,0,1,.76,10.81Zm-55.5-.24-17.93-.07c-.1-4-.29-7.41-.58-10.21l17.85-.06C263.67,118.59,263.88,122.13,264,126.21Zm-46.25-10.06c2.3-.09,4.29-.15,5.86-.17h12c.31,2.69.51,6.15.62,10.15H223.54q-2.16,0-5.28-.15C218.21,122.17,218,118.87,217.75,116.15Zm19.91-.19h5.84c.29,2.78.48,6.23.59,10.2v1.61c0,1.5.06,3.05.07,4.67v1.61c0,3.29,0,6.8-.08,10.49l-5.82-.19c0-3.56.08-7,.07-10.32v-1.61c0-1.61,0-3.17-.06-4.67v-1.61c-.12-4.01-.27-7.47-.61-10.14Zm-19.24,17.92c1.91.07,3.69.12,5.21.12h12.76c0,3.28,0,6.73-.07,10.28-4.22-.12-7.89-.18-11-.14-1.9,0-4.3.12-7,.26C218.41,140.71,218.43,137.18,218.42,133.88Zm-.1,12.13c2.72-.15,5.13-.26,7-.27,3.08,0,6.74,0,10.94.13l2,.06,5.82.19,2,.07,5.27.18h1l11.67.4c0,1.55-.06,3.12-.09,4.69l-11.83-.41h-.89l-5.23-.18-2-.07-5.82-.19-2-.05c-4.18-.12-7.79-.17-10.81-.14-1.88,0-4.35.12-7.17.29.08-1.59.11-3.15.14-4.71Zm-.14,6.31c2.86-.16,5.36-.28,7.23-.29,3,0,6.59,0,10.75.14-.11,4.39-.24,8.78-.39,13-6.29-.16-12.27-.3-18-.38Q218,158.42,218.18,152.32Zm-.66,20.37c6.29.09,12.43.24,17.95.38-.17,4.36-.34,8.38-.5,11.82-5.55.14-11.69.29-18,.37.21-4.18.38-8.39.55-12.57Zm-.6,14.18c6.18-.08,12.29-.23,18-.37h1.96l5.83-.14,2-.05c5-.11,9.73-.19,14-.19h4c0,.83-.07,1.64-.11,2.4s-.06,1.48-.08,2.29H258.7c-4.29,0-9.1.09-14.19.2h-2l-5.82.14H234.7q-9.435.24-18,.36c0-1,.06-2,.1-2.8.07-.58.1-1.21.12-1.84Zm-.23,6.28q8.52-.12,18-.36c-.1,3.67-.16,8.07-.2,13-3.43.08-6.46.12-9,.1-2.26,0-5.45-.18-8.95-.39-.01-4.67.05-8.86.15-12.35Zm19.74,14.18v-1.61c0-4.91.11-9.32.21-13l5.83-.15c-.11,3.63-.18,8-.22,13v18.32H236.4V212.03c.01-1.61.02-3.18.03-4.7Zm-20,6.06c3.51.21,6.54.36,8.91.37,2.61,0,5.64,0,9-.09v10.22h-10.7c-2,0-4.55.09-7.2.21,0-3.67,0-7.27.01-10.71Zm0,12.32c2.65-.12,5.17-.21,7.19-.21h20.57l18-.05v4.69l-18,.06H223.6c-1.92,0-4.36.07-7.14.2,0-1.58-.01-3.14-.01-4.69Zm0,6.29c2.77-.13,5.2-.22,7.11-.21H234.4q0,5.07.06,10.13H223.59c-1.88,0-4.29-.07-7.06-.2-.02-3.23-.04-6.48-.06-9.72Zm27.76-.23,18-.06c0,3.43,0,6.88.06,10.31l-18-.08c.02-3.37,0-6.78-.02-10.17Zm55.52-.2,17.93-.06c0,3.58,0,7.18.07,10.74l-17.94-.07c.02-3.52,0-7.08-.02-10.61Zm55.48-.17h8.87c2.85,0,5.92,0,9.08-.1,0,3.72.05,7.47.08,11.17-3.21-.05-6.3-.09-9.16-.09h-8.8c.01-3.65-.01-7.32-.03-10.98ZM401,243.09c-5-.09-9.78-.2-14.18-.31l-3.79-.1c0-3.84-.06-7.73-.08-11.59L387,231c4.33-.11,9-.23,13.91-.32C401,234.8,401,239,401,243.09Zm-20-.46-5.81-.12c0-3.73-.06-7.5-.08-11.24V210.44l5.82-.19v20.9c.07,3.85.07,7.67.13,11.48Zm19.85-19.85q-6.82.12-14.19.32l-3.78.09v-13c5.75-.18,10.58-.29,14.41-.25,1,0,2.24,0,3.56.1.05,4.04.05,8.33.06,12.74Zm0-14.34c-1.31-.06-2.53-.1-3.55-.1-3.85-.05-8.68.06-14.43.24l-2,.06-5.82.2-2,.07h-.68l-1.78.07c-4.8.17-10,.35-15.47.52v-4.7c5.36-.16,10.46-.34,15.18-.51h.47l2.28-.08,2-.07L381,204l2-.07c5.72-.17,10.56-.28,14.44-.24,1,0,2.24.05,3.53.1.03,1.47-.03,3.04-.04,4.65Zm-27.72-5.83-2.37.09h-.48c-4.69.17-9.75.34-15.08.51.05-4.25.13-8,.23-11.19l17.9-.07c-.01,3.05-.08,6.64-.12,10.66Zm.25-12.26-17.89.08H327.74c0-.61.05-1.22.08-1.78,0-1,.08-1.94.13-2.91h27.78l17.89-.07c0,.93-.08,1.84-.13,2.79.02.59-.01,1.23-.03,1.89Zm.28-6.28-17.9.07c.15-3.45.3-6.91.43-10.36l17.92.06c-.06,3.28-.21,6.71-.37,10.23ZM402,172.33c-1,0-1.9,0-2.72-.05H374.22l-17.91-.06c.06-1.57.11-3.13.17-4.68l17.93.06h27.76C402.14,169.16,402.07,170.75,402,172.33ZM374.49,166H356.57c.13-3.78.25-7.51.35-11.14l13.39.45h1.2l3.33.11C374.74,158.7,374.63,162.25,374.49,166Zm.39-12.19-3.29-.11h-1.2L357,153.16l-2-.06-5.81-.16-2-.06q-8.57-.23-18-.37c0-1.59.07-3.15.1-4.69q9.4.13,18,.37l2,.06,5.82.16,2,.06,13.5.45,4.43.15c-.04,1.51-.12,3.09-.16,4.69Zm.14-6.29-4.3-.15-13.63-.45c.08-4.37.12-8.55.11-12.42h6.9c3.39,0,7.11.06,11,.14.05,3.79.01,8.1-.1,12.83Zm-27.71-.88q-8.58-.22-18-.37c.07-4.16.11-8.15.1-11.85l18,.06c.01,3.81-.03,7.91-.1,12.11Zm-45.63-12.33,18,.08c0,3.74,0,7.71-.09,11.77H301.63c.03-4.26.06-8.22.05-11.9Zm-9.88,11.65q-9.4-.15-18-.4c.06-4,.09-7.81.08-11.36h17.96c.06,3.73.02,7.68-.04,11.71ZM246.18,134l17.94.08c0,3.52,0,7.26-.07,11.1l-11.61-.4h-1l-5.33-.18Q246.2,139.02,246.18,134Zm19.92.08h5.83c0,3.53,0,7.33-.08,11.31v1.6c0,1.54-.06,3.1-.1,4.69v1.6q-.15,6-.37,12.28H265.5c.14-4.05.27-8.25.37-12.45v-1.6c0-1.57.07-3.13.1-4.69v-1.6c.12-3.8.15-7.56.13-11.11Zm-28,18.12,5.82.18q-.17,6.32-.4,13c0,.53,0,1.06-.05,1.6q-.09,2.33-.18,4.68l-.06,1.61c-.15,3.8-.31,7.62-.48,11.43l-5.83.14c.16-3.42.33-7.41.5-11.71l.06-1.61q.09-2.29.18-4.68c0-.53,0-1.07.05-1.6.19-4.24.29-8.63.43-13.01Zm26.53,33.84c0-.53.05-1,.07-1.6.14-3.25.3-7,.46-11H271c-.15,3.64-.3,7.3-.46,11,0,.53-.05,1.06-.07,1.6,0,.88-.08,1.76-.11,2.63,0,.64-.06,1.34-.08,2.06,0,.5,0,1.05-.05,1.6-.11,3.45-.18,7.63-.22,12.3l-5.82.18c0-4.73.11-9,.21-12.47,0-.55,0-1.1.05-1.6,0-.79.06-1.54.09-2.24s.09-1.58.13-2.43Zm-20.2,6.49c5.1-.11,9.94-.2,14.23-.2h3.74c-.1,3.52-.17,7.78-.22,12.53l-10.06.34h-1.25l-6.66.22c.08-4.85.15-9.24.26-12.86Zm-.23,14.54,6.75-.23h1.17l10-.34,2-.06,5.82-.18,2-.06c5.69-.16,11.71-.3,18-.41v4.7c-6.27.1-12.29.25-18,.41l-2,.06-5.82.17-2,.07-9.77.32h-1.21l-7,.24c.08-1.58.09-3.14.1-4.66Zm0,6.29,7.08-.24h1.21l9.69-.32v11l-18,.06Zm27.77-.9c5.68-.16,11.7-.31,18-.41v11.63h-3.31l-14.66.05V212.49Zm45.69,11.13-17.94.06V211.91c3.82,0,7.69-.06,11.67-.06h6.27c-.01,3.77-.01,7.71,0,11.77Zm9.8-11.85q9.39-.14,18-.37V223.5l-18,.05c-.02-4.04-.02-8.01,0-11.78Zm45.69,11.64c-3.18.05-6.25.1-9,.1h-8.89V211.09c5.51-.17,10.74-.35,15.57-.52l1.78-.07h.59c-.06,4.1-.06,8.5-.05,12.91Zm-19.93.11H347.4V203.41c0-4.31.12-8.16.22-11.39h5.82c-.1,3.17-.18,7-.22,11.24v7.9c0,3.95-.01,8.1,0,12.36Zm-27.4-33a15.085,15.085,0,0,1-.06,1.6c-.11,3.31-.18,7.28-.23,11.74l-5.82.07c.05-4.47.12-8.46.23-11.78,0-.55,0-1.1.05-1.61,0-.71.06-1.41.09-2,0-.83.08-1.72.12-2.65a12.861,12.861,0,0,1,.07-1.6c.14-3.15.29-6.74.45-10.62h5.81c-.14,3.52-.29,7.06-.44,10.58a12.237,12.237,0,0,1-.07,1.6c0,.95-.08,1.9-.13,2.84-.02.62-.05,1.25-.07,1.89Zm28-6.4H348c.14-3.1.29-6.62.44-10.41a12.237,12.237,0,0,1,.07-1.6c0-1.53.11-3.1.17-4.69l.06-1.6c.13-3.69.25-7.51.35-11.33l5.81.16c-.1,3.65-.21,7.39-.35,11.19l-.06,1.6c0,1.56-.11,3.12-.17,4.69a12.314,12.314,0,0,1-.07,1.6c-.1,3.53-.25,6.99-.4,10.45Zm-24.68-30q9.4.13,18,.37c-.1,3.85-.22,7.68-.35,11.38H328.82c.18-4.02.25-7.93.35-11.73ZM319,165.76l-18-.06q.21-6,.36-11.78c3.27,0,6.58.05,10,.05h8C319.28,158,319.16,161.94,319,165.76ZM273.67,153.4q8.535.24,18,.4c-.1,4-.23,8-.36,11.87h-18C273.44,161.46,273.57,157.37,273.67,153.4ZM245.49,167c4.72.11,9.2.18,13.21.18h14.54l18,.05c-.06,1.59-.12,3.16-.17,4.69l-18-.05H258.7c-4.08,0-8.62-.08-13.38-.18C245.38,170.14,245.43,168.58,245.49,167ZM273,173.51l18,.05c-.15,4-.31,7.63-.46,10.84h-18C272.71,180.81,272.86,177.15,273,173.51Zm-.52,12.54,18-.05h9.82l18-.07c0,.9-.08,1.77-.11,2.58,0,.66-.07,1.37-.09,2.11l-18,.07h-9.83l-18,.05c0-.69.05-1.37.08-2Zm-.25,6.29,18-.05c-.1,3.36-.17,7.4-.21,11.89-6.27.11-12.29.25-18,.41.04-4.66.11-8.81.21-12.25Zm27.76-.09,18-.07c-.1,3.33-.18,7.32-.22,11.78h-6.33c-4,0-7.82,0-11.62.06.01-4.45.08-8.45.18-11.77Zm18.29-8-18,.07c.16-3.59.31-7.19.45-10.77l18,.06c-.15,3.93-.31,7.52-.45,10.68Zm-24.67-30.46,5.82.07c-.1,3.84-.22,7.78-.36,11.79l-.06,1.6c-.05,1.56-.11,3.12-.17,4.69a12.237,12.237,0,0,1-.07,1.6c-.14,3.59-.29,7.2-.44,10.79H292.5c.15-3.21.3-6.87.46-10.83a14.443,14.443,0,0,1,.06-1.6c.06-1.53.12-3.09.18-4.69l.06-1.6c.13-3.79.25-7.78.35-11.78ZM321,167.37h25.78c-.05,1.6-.11,3.16-.17,4.69H318.83l-18-.06.18-4.69,18,.06Zm25,16.81H328.04c.15-3.52.3-7.05.44-10.56h17.97C346.33,177.55,346.18,181.08,346,184.18Zm-18.29,8h18c-.11,3.24-.18,7.11-.23,11.44q-8.58.23-18,.36c.08-4.57.16-8.54.27-11.84Zm-2.27,18.05-5.82.06h-8.28c-4,0-7.85,0-11.66.06v-4.69c3.8,0,7.66-.06,11.63-.06h8.31l5.81-.06h2q9.4-.12,18-.36v4.69q-8.58.22-18,.37Zm-27.74,13.5h-5.82V204.17c0-4.49.11-8.51.21-11.87h5.82c-.1,3.33-.17,7.33-.21,11.81V212c.03,3.71.03,7.65.04,11.69Zm-35-39.22h-4c-4.24,0-9,.08-13.92.19.16-3.78.32-7.57.47-11.35,4.79.1,9.34.18,13.45.18h4.52c-.16,3.98-.32,7.7-.47,10.94Zm-16.81-32,5.19.18h.88l11.88.41c-.11,4.22-.24,8.44-.38,12.51H258.7c-4,0-8.45-.07-13.15-.18.15-4.43.29-8.75.39-12.95Zm47.81-4.94,5.82.07h2c3.22,0,6.49.05,9.84.05h8.12c0,1.56-.06,3.12-.1,4.69H299.44l-5.81-.07h-2q-9.4-.15-18-.4c0-1.59.07-3.15.1-4.69q8.535.24,18,.4Zm27.88-13.2h5.83c0,3.68,0,7.66-.1,11.82v1.6c0,1.54-.07,3.1-.11,4.69v1.6c-.1,3.81-.22,7.73-.36,11.71h-5.82c.14-3.82.26-7.78.36-11.75v-1.6c0-1.57.07-3.13.1-4.69v-1.6c.13-4.09.16-8.06.15-11.81Zm33.6,95.46h-9.79l-18,.05V225.2l18-.06H364.1c2.8,0,5.88-.05,9.06-.1v4.69c-3.17.06-6.22.1-9.07.1Zm-9.72,12.55-18-.06c0-3.59-.05-7.21-.07-10.82l18-.05c.07,3.61.09,7.27.12,10.9Zm-20-.07h-5.81c0-3.57-.05-7.18-.07-10.76V211.9l5.81-.06v19.69c.11,3.55.14,7.17.16,10.75ZM299.74,230H271.98v-4.69h27.77l17.93-.06v4.69ZM290,242.14h-4.88l-13.09-.06c0-3.45,0-6.93-.06-10.39H290Zm-19.95-.09h-5.82c0-3.43-.05-6.89-.06-10.33V212.74l5.82-.17V231.7c.01,3.43.01,6.91.08,10.35Zm-6-114.23h27.8c0,1.51.06,3.07.07,4.69H264.14l-17.94-.07c0-1.62,0-3.18-.06-4.67Zm9.13-12h17.95c.34,2.76.55,6.38.67,10.57H273.84c-.16-4.19-.36-7.72-.67-10.56Zm19.91-.08h5.85c.32,2.87.53,6.48.65,10.65v1.6c0,1.5.06,3.06.07,4.68v1.61c0,3.66,0,7.62-.1,11.75l-5.82-.07c.07-4,.1-8,.08-11.71v-1.6c0-1.62,0-3.18-.07-4.69v-1.6c-.12-4.2-.34-7.82-.67-10.61Zm26.48,12.3h9.82l18,.06c0,1.5.05,3.07.06,4.69l-18-.06h-9.82l-18-.08c0-1.62,0-3.18-.07-4.69Zm29-12.51h5.84c.34,2.94.56,6.68.68,11v1.6c0,1.51.05,3.07.06,4.7v1.6c0,3.84,0,8-.11,12.36l-5.82-.16c.07-4.22.11-8.34.1-12.22v-1.6c0-1.61,0-3.18-.07-4.69v-1.6c-.1-4.34-.32-8.11-.67-10.98Zm36,40.14c5,.14,9.31.22,12.86.17,1.45,0,3.19-.07,5.12-.16-.09,3.27-.21,6.74-.34,10.35h-18c.2-3.64.31-7.09.4-10.35ZM401.5,184H383.54c.16-3.5.31-6.91.44-10.17h15.31c.8,0,1.7,0,2.66.05Q401.74,178.8,401.5,184Zm-18.3,7.93h17.93c-.09,2.93-.15,6.38-.19,10.24-1.29,0-2.5-.09-3.54-.1-3.9,0-8.73.07-14.44.24C383.05,198.37,383.11,194.87,383.2,191.93Zm-.09,57h-2l-5.82-.13h-2c-3.25-.06-6.36-.1-9.22-.1h-8.74c0-1.55,0-3.12-.05-4.69h8.79c2.86,0,6,0,9.17.09h2l5.82.13h2l3.67.09c4.54.11,9.37.23,14.3.32v4.68q-7-.13-14.48-.32Zm-9.69,9.22c-6.22.06-12.27.18-18,.36,0-2.68-.06-5.46-.09-8.3h8.73c2.86,0,6,0,9.23.1.07,2.69.1,5.35.13,7.89Zm-19.95.43q-3,.11-5.81.24c0-2.78-.06-5.67-.09-8.63V242.3c0-3.62-.05-7.29-.07-10.93h5.82c0,3.65,0,7.32.07,11v7.89c.02,2.86.05,5.66.08,8.37Zm-25.87-10h-9.82l-17.94-.07v-4.69l17.93.07h9.82l18,.06v4.69Zm-9.67,12c-5.82.19-11.84.3-17.94.34,0-3.46-.08-7.1-.11-10.85l17.94.07C317.85,253.75,317.89,257.24,317.93,260.58Zm-19.93.36h-5.82c0-3.48-.07-7.14-.11-10.91v-7.89c0-3.5-.05-7-.07-10.55h5.82c0,3.53,0,7.08.07,10.59v7.89c.04,3.75.11,7.4.11,10.87Zm-25.9-12.59h-9.82l-18-.07V243.6l18,.06h9.82l13.07.06h4.9v4.69H278.65Zm-9.67,12.26-15-.33-3-.07c0-3.32-.07-6.79-.1-10.37l18,.07C262.36,253.6,262.39,257.19,262.43,260.61Zm-20-.44-5.82-.12c0-3.28-.07-6.71-.1-10.23v-7.9c0-3.36-.05-6.76-.06-10.13h5.81c0,3.39,0,6.79.06,10.17v7.9c.08,3.54.12,7,.15,10.31Zm-7.58-150.49h9.83l17.88-.07c.14,1.67.3,3.19.51,4.51v.18l-17.83.07H223.55c-1.62,0-3.67.08-6,.17-.06-.5-.12-1-.19-1.47-.16-1-.29-2-.41-3.21,2.56-.11,4.84-.19,6.66-.19,2.3.03,6.21.03,11.28.01Zm9.32-11.83,17.92-.15c0,3.66.13,7.18.33,10.28l-17.89.07c-.18-3.05-.29-6.52-.32-10.2Zm19.91-.16,5.82-.06c0,3.71.13,7.26.33,10.32,0,.55.08,1.08.13,1.6.12,1.37.26,2.63.43,3.72.05.29.09.65.13,1,.08.52.16,1,.22,1.6.31,2.82.52,6.35.63,10.41h-5.83c-.11-4.07-.32-7.61-.65-10.36-.06-.57-.13-1.1-.21-1.6l-.06-.38c-.2-1.26-.36-2.71-.49-4.3-.05-.52-.08-1.06-.12-1.61-.16-3.15-.26-6.68-.29-10.34Zm26.21,11.78h9.83l17.94-.07c.14,1.73.31,3.32.53,4.68l-17.9.07H272.94a7.49,7.49,0,0,0-.16-1.17c-.16-1-.3-2.22-.41-3.52h.51l14.22-.06Zm9.35-12.12,18-.17c0,3.76.12,7.38.32,10.58l-18,.07c-.16-3.1-.26-6.7-.28-10.48Zm19.95-.19h5.82c0,3.81.12,7.47.33,10.63,0,.55.07,1.08.12,1.6.12,1.46.27,2.79.45,3.94a6.257,6.257,0,0,0,.1.74c.08.52.16,1,.22,1.6.34,2.91.55,6.6.67,10.86h-5.83c-.12-4.28-.34-8-.68-10.82-.07-.56-.14-1.1-.22-1.59v-.16c-.21-1.32-.38-2.85-.51-4.53,0-.52-.08-1-.11-1.6-.2-3.27-.29-6.9-.32-10.67Zm26.21,12.1h18.3c2.94,0,6.14,0,9.49-.1.13,1.73.29,3.31.5,4.68-3.52.07-6.88.11-10,.11H346.34l-17.9.06a7.415,7.415,0,0,0-.13-1c-.17-1.09-.32-2.36-.43-3.74Zm9.36-12.44,18-.17c0,3.85.11,7.59.31,10.88-3.31.06-6.47.1-9.38.1h-8.58c-.2-3.2-.3-6.93-.31-10.81Zm19.95-.19,5.82-.06c0,3.86.11,7.57.31,10.79,0,.55.07,1.08.11,1.6.13,1.61.29,3.07.49,4.33v.35c.08.5.15,1,.22,1.6q.51,4.38.69,11.63l-5.81-.14q-.19-7.16-.72-11.36c-.06-.52-.12-1-.2-1.49v-.11c-.21-1.36-.38-2.94-.52-4.68,0-.52-.07-1-.11-1.6-.13-3.28-.22-7.01-.24-10.86Zm35.55,114c5.64.35,11.81.7,18,.83v11.4c-5.51-.18-11.51-.22-18-.17.03-4.2.03-8.26.04-12.09Zm27.79,20.68c8.71.69,15.52,2,18.36,4.18.74.58.84,1,.84,1.39s-.1.82-.85,1.4c-2.83,2.21-9.61,3.49-18.27,4.2.01-3.74-.02-7.48-.04-11.2Zm.14,17.51-2,.14c-1.86.13-3.79.23-5.81.32l-2,.06q-8.22.27-18,.18v-4.67c6.15,0,12.25,0,18-.21l2-.08c2-.09,4-.19,5.82-.32l2-.16c9.22-.75,16.47-2.16,19.65-4.65a3,3,0,0,0,0-5.09c-3.19-2.49-10.48-3.89-19.75-4.64v-4.74c11.28.87,19.5,2.65,23.81,6a7.66,7.66,0,0,1,3.14,5.34,2.33,2.33,0,0,1,.08.57,2,2,0,0,1-.06.48,7.76,7.76,0,0,1-3.16,5.44c-4.31,3.33-12.48,5.12-23.68,6Zm.18,16.52c0-1.53,0-3.1-.05-4.71,7.87.23,13.49.43,15.44.5a3.23,3.23,0,0,1,2,.76,2.06,2.06,0,0,1,.76,1.69,2.77,2.77,0,0,1-2.94,2.23h-.11c-.79-.06-6.48-.26-15.06-.5Zm-7.78,1.4v-1.61q0-2.28-.06-4.71v-1.6c0-2.57-.06-5.23-.09-8,2-.08,4-.19,5.82-.31,0,2.88.06,5.7.09,8.43v1.6c0,1.61,0,3.18.06,4.7v1.61c.16,12.79.32,21.9.33,22.16a2.12,2.12,0,0,1-.82,1.67,3.29,3.29,0,0,1-2.05.71,2.71,2.71,0,0,1-2.95-2.31c.04-.26-.12-9.46-.32-22.37Zm-27.77-.52,5.82.08c.17,13.1.33,22.49.34,22.75a2.1,2.1,0,0,1-.83,1.67,3.24,3.24,0,0,1-2,.71,2.71,2.71,0,0,1-2.95-2.31c0-.3-.17-9.75-.34-22.93Zm-20-1.72v-4.72c6,0,12.06,0,18,.1h2L409,260h2c6.41.1,12.48.23,18,.37,0,1.61,0,3.18.06,4.7-5.46-.12-11.56-.25-18-.35h-2l-5.82-.08h-2c-5.9-.14-11.95-.17-17.96-.17Zm-7.78,1.63v-1.6q0-2.29-.06-4.71v-1.6c0-2.53,0-5.13-.08-7.79l5.82.13q0,3.91.08,7.63v1.6q0,2.42.06,4.71v1.6c.17,13.2.33,22.68.34,22.95a2.12,2.12,0,0,1-.82,1.67,3.29,3.29,0,0,1-2,.71c-1.64-.06-2.93-1-3-2.31.06-.3-.11-9.8-.28-23.02Zm-27.75.68c1.88-.09,3.81-.18,5.82-.25.16,13,.32,22.23.33,22.49a2.1,2.1,0,0,1-.83,1.67,3.24,3.24,0,0,1-2,.71c-1.64,0-2.93-1-2.95-2.31.02-.29-.14-9.47-.31-22.34Zm-20-.3c0-1.52,0-3.1-.05-4.7,3.47-.19,6.83-.41,10-.67,2.47-.21,5.14-.38,7.95-.53l2-.1q2.82-.15,5.81-.25l2-.07c5.68-.18,11.73-.3,18-.36,0,1.62,0,3.18.05,4.72-6.24.05-12.3.16-18,.35l-2,.06c-2,.07-3.94.16-5.82.25l-2,.1c-2.63.14-5.12.3-7.41.49-3.22.25-6.76.49-10.43.68Zm-7.69,1.9v-1.6c0-1.51,0-3.09-.05-4.69v-1.6c0-3.32-.08-6.79-.11-10.37h5.81c0,3.48.07,6.87.11,10.1v1.6c0,1.61,0,3.19.06,4.7v1.6c.15,12.09.3,20.6.31,20.85a2.1,2.1,0,0,1-.83,1.67,3.24,3.24,0,0,1-2,.71,2.71,2.71,0,0,1-2.95-2.31C320.32,288.84,320.17,280.41,320,268.41Zm-27.73.43h5.81c.14,11.19.27,19.17.29,20.16a2.67,2.67,0,0,1-2.87,2.41c-1.65,0-2.93-1-2.95-2.31.01-.26-.13-8.49-.27-20.26Zm-20-1.77c0-1.52,0-3.08-.06-4.69,5.85.08,11.89.15,18,.16H300c6.09,0,12.12-.15,17.94-.33,0,1.6,0,3.17.06,4.69-5.83.18-11.86.29-17.95.33h-9.8c-6.07-.01-12.11-.07-17.95-.16Zm-7.79,1.47v-1.6c0-1.52,0-3.09-.05-4.7v-1.6c0-3.42-.07-7-.11-10.72h5.82c0,3.74.07,7.35.11,10.8v1.61c0,1.61,0,3.17.05,4.69v1.6c.14,11.29.27,19.35.29,20.35a2.67,2.67,0,0,1-2.87,2.41c-1.65,0-2.93-1-2.95-2.31.03-.23-.11-8.6-.26-20.53Zm-27.77-.6,5.82.12c.15,11.58.28,19.91.3,20.93A2.67,2.67,0,0,1,240,291.4a2.749,2.749,0,0,1-3-2.31c0-.26-.11-8.9-.26-21.15Zm-20-1.22c0-1.53,0-3.08-.05-4.7,4.28-.26,7.92-.46,10.56-.47,1.89,0,4.44,0,7.4.07h2l5.82.11,2,.05,2.82.06,15.15.33c0,1.61,0,3.18.05,4.69-5.42-.1-10.56-.22-15.25-.33l-2.54-.06h-.18l-2-.05-5.82-.13h-2c-3-.06-5.54-.08-7.42-.06-2.51.02-6.25.23-10.48.49ZM209,268.78v-1.6c0-1.52,0-3.08-.06-4.7v-1.6c0-3.71-.08-7.62-.11-11.65l2.44.13,3.38.16c0,3.81.07,7.5.11,11v1.61c0,1.62,0,3.18.06,4.7v1.6c.14,11.39.27,19.54.29,20.55a2.67,2.67,0,0,1-2.87,2.41c-1.65,0-2.93-1-2.95-2.31C209.28,288.84,209.14,280.58,209,268.78Zm-27.69.33q2.85.18,5.82.24c.15,11.46.29,19.43.3,19.67a2.1,2.1,0,0,1-.83,1.67,3.24,3.24,0,0,1-2,.71,2.71,2.71,0,0,1-3-2.31c0-.25-.15-8.35-.3-19.98ZM179,242.89v4.72c-6,.57-11,1.69-13.75,3.76a4.76,4.76,0,0,0-2.11,4,4.27,4.27,0,0,0,2,3.61c2.74,2.06,7.89,3.16,14.06,3.7.65.06,1.31.11,2,.15q2.82.19,5.82.26h2c6,.05,12.23-.19,17.9-.49,0,1.62,0,3.18.06,4.7-5.85.31-12,.55-17.9.5h-2c-2,0-3.93-.11-5.82-.23-.68,0-1.33-.1-2-.16-7.65-.64-14.21-2.08-18.08-5a8.67,8.67,0,0,1-3.83-7,9.1,9.1,0,0,1,4-7.39C165.17,245,171.6,243.56,179,242.89Zm.19,18.15c-5.65-.5-10.31-1.48-12.69-3.26a2.82,2.82,0,0,1-1.33-2.44,3.28,3.28,0,0,1,1.48-2.81c2.39-1.81,6.94-2.81,12.41-3.34.06,4.1.1,8.08.15,11.81Zm1.73-28.46c1.9.13,3.84.23,5.81.28l.06,8v7.89c0,4.4.09,8.67.14,12.69-2,0-4-.11-5.82-.24,0-3.86-.09-8-.13-12.17v-7.89c.02-2.85.02-5.71-.04-8.56Zm-2-26.22v4.72c-6,.53-11,1.61-13.7,3.62a4.43,4.43,0,0,0-2,3.74,4.71,4.71,0,0,0,2.09,3.93c2.7,2,7.69,3.16,13.63,3.73.65.07,1.32.11,2,.16,1.87.14,3.82.24,5.81.29h2c6.11.09,12.43-.14,17.95-.41v4.7c-5.76.27-11.94.49-17.94.42h-2c-2,0-3.93-.14-5.82-.27l-2-.17c-7.4-.67-13.8-2.13-17.63-5a9.09,9.09,0,0,1-3.93-7.35,8.83,8.83,0,0,1,3.88-7.18c3.82-2.89,10.23-4.29,17.68-4.93Zm0,18.13c-5.42-.53-9.93-1.52-12.26-3.29a3.23,3.23,0,0,1-1.46-2.76,3,3,0,0,1,1.37-2.56c2.37-1.77,6.88-2.74,12.35-3.22-.02,3.79-.02,7.76-.01,11.83Zm2.24-32.29c1.86.18,3.77.34,5.81.47-.1,3.32-.16,7.29-.2,11.71v20.56c-2-.05-3.95-.14-5.82-.28V204.62c.05-4.72.1-8.94.2-12.42Zm-1-24.79q-.09,2.43-.18,4.77c-7.14.81-12.67,2.14-15.34,4.22a3,3,0,0,0,0,5.1c2.6,2,7.9,3.34,14.77,4.17l2,.22c1.84.19,3.78.34,5.8.47l2,.13c5.59.3,11.69.43,17.94.44a11.414,11.414,0,0,1-.07,1.54c0,.95-.08,2-.11,3.14-6.54,0-12.55-.12-17.95-.41l-2-.11c-2-.13-3.95-.29-5.8-.47-.67-.07-1.34-.13-2-.21-8.63-1-15-2.72-18.62-5.54a7.68,7.68,0,0,1-3.14-5.34,2.46,2.46,0,0,1-.08-.58,2,2,0,0,1,.06-.48A7.76,7.76,0,0,1,160.6,173c3.75-2.9,10.47-4.62,19.57-5.59Zm-.68,16.66c-6.32-.76-11.17-1.94-13.45-3.72-.75-.58-.85-1-.85-1.4s.1-.82.84-1.4c2.34-1.82,7.36-3,13.89-3.76-.14,3.74-.28,7.21-.42,10.28Zm3.1-30.67c1.91.09,3.85.14,5.82.16-.1,3.78-.22,7.67-.36,11.63l-.06,1.58c-.05,1.58-.11,3.15-.17,4.74a12.314,12.314,0,0,1-.07,1.61q-.23,5.82-.48,11.65-3-.2-5.8-.48c.14-3.18.29-6.8.45-10.71L182,172q.09-2.34.18-4.77l.06-1.6c.12-4,.25-8.12.35-12.23Zm-1.81-26.48c0,1.51.06,3.09.07,4.72-6.78.5-12.57,1.63-15.56,3.89a4.71,4.71,0,0,0-2.09,3.93,4.45,4.45,0,0,0,2,3.77c3,2.22,8.74,3.3,15.52,3.76.66,0,1.31.09,2,.12,1.89.09,3.84.13,5.82.15h2c6.16,0,12.47-.33,18-.66,0,1.56-.06,3.13-.1,4.71-5.77.34-12,.64-18,.66h-2c-2,0-3.92-.07-5.82-.16-.66,0-1.33-.06-2-.11-8.17-.53-15.25-2-19.37-5a8.86,8.86,0,0,1-3.9-7.21,9.07,9.07,0,0,1,3.93-7.35c4.18-3.14,11.33-4.63,19.51-5.22Zm0,18.47c-6.31-.42-11.6-1.4-14.2-3.34a3,3,0,0,1-1.39-2.59,3.25,3.25,0,0,1,1.46-2.77c2.61-2,7.93-3,14.21-3.45.03,3.84,0,7.94-.07,12.15Zm1.45-28.53q2.88.17,5.85.21.31,3.44.45,7.94c0,.53,0,1,.05,1.6,0,1.49.06,3.07.08,4.7v1.61c0,3.94,0,8.21-.09,12.73-2,0-3.93-.06-5.82-.15.07-4.3.11-8.48.09-12.39V131.5c0-1.63,0-3.2-.08-4.7v-1.6c-.14-3.2-.29-6.01-.52-8.34Zm-3.31-26.33v4.72c-6,.52-11,1.6-13.65,3.61a4.44,4.44,0,0,0-2,3.77,4.72,4.72,0,0,0,2.09,3.93c2.78,2.1,8,3.23,14.14,3.78.65.06,1.33.1,2,.15,1.89.13,3.85.21,5.86.26h2c6.12.06,12.42-.18,17.89-.44.13,1.37.28,2.64.47,3.76a6.1,6.1,0,0,0,.13.9c-5.7.28-11.86.53-17.87.49h-2c-2,0-3.95-.11-5.86-.23l-2-.13c-7.87-.62-14.71-2.1-18.73-5.14a9.09,9.09,0,0,1-3.93-7.35,8.85,8.85,0,0,1,3.9-7.21c3.75-2.83,10.14-4.25,17.57-4.87Zm.37,18.18c-5.59-.52-10.25-1.51-12.64-3.32a3.25,3.25,0,0,1-1.46-2.76,3,3,0,0,1,1.39-2.6c2.37-1.76,6.86-2.73,12.31-3.21.03,4.26.12,8.36.41,11.89Zm7.47-20.16v7.88c0,4.63.15,9.07.45,12.71-2,0-4-.14-5.85-.27-.28-3.59-.4-7.82-.42-12.21V88.78c.2-11.62.87-22.31.92-23.1a2.7,2.7,0,0,1,2.9-2.23v-.8l.16.8a2.61,2.61,0,0,1,2.75,2.46c-.02.2-.66,10.95-.9,22.64Zm27.74,1-1-.06-4.86-.29c.2-11.78.87-22.71.93-23.51a2.7,2.7,0,0,1,2.9-2.23v-.8l.16.8a2.61,2.61,0,0,1,2.75,2.46c.03.19-.67,11.55-.87,23.62Zm19.92,2.09v4.7h-9c-2.36,0-5.42-.17-8.94-.38l-2-.12-1.34-.09-4.48-.27-2-.11c-5.64-.32-11.93-.59-18-.55V90.11c5.95,0,12.13.23,17.95.56l2,.11,4.67.29,1.15.07,2,.12c3.59.21,6.68.38,9,.39H227ZM242.26,90v7.9c0,3.66.14,7.16.36,10.19h-5.83c-.21-3.06-.32-6.54-.35-10.16v-7.9c.17-12.08.88-23.51.93-24.33a2.72,2.72,0,0,1,2.91-2.23v-.8l.15.8a2.6,2.6,0,0,1,2.75,2.46C243.16,66.11,242.44,77.74,242.26,90ZM270,89.74l-5.83.05c.18-12,.85-23.29.89-24.11A2.71,2.71,0,0,1,268,63.45v-.8l.14.8a3.32,3.32,0,0,1,2,.77,2.11,2.11,0,0,1,.75,1.69C270.84,66.11,270.16,77.6,270,89.74Zm19.93,1.42v4.69l-18,.17h-9.82l-17.93.15v-4.7l17.92-.15h2l5.82-.06h2Zm7.83-1.68v7.89c0,3.76.12,7.36.33,10.47h-5.83c-.2-3.14-.3-6.72-.33-10.43V89.52c.19-11.9.85-23.05.89-23.86a2.71,2.71,0,0,1,2.91-2.23v-.8l.14.8a3.27,3.27,0,0,1,2,.77,2.05,2.05,0,0,1,.75,1.69c-.02.22-.69,11.55-.88,23.59Zm27.76-.27H319.7c.19-11.8.84-22.79.88-23.59a2.71,2.71,0,0,1,2.91-2.23v-.8l.14.8a3.32,3.32,0,0,1,2,.77,2.11,2.11,0,0,1,.75,1.69c-.02.25-.68,11.42-.88,23.36Zm19.93,1.41v4.69l-18,.17h-9.82l-18,.17V90.96l18-.17h9.82Zm7.84-1.68v7.89c0,3.88.11,7.6.32,10.81h-5.82c-.2-3.25-.3-6.94-.32-10.77V88.98c.2-11.7.84-22.52.88-23.32a2.71,2.71,0,0,1,2.91-2.23v-.8l.14.8a3.27,3.27,0,0,1,2,.77,2.05,2.05,0,0,1,.75,1.69c-.03.21-.68,11.21-.88,23.05ZM381,88.68h-5.82c.2-11.59.83-22.26.88-23a2.7,2.7,0,0,1,2.9-2.23v-.8l.14.8a3.32,3.32,0,0,1,2,.77,2.11,2.11,0,0,1,.75,1.69C381.88,66.1,381.24,76.94,381,88.68Zm19.89,1.42v4.69L383,95h-2l-5.82.06h-2l-18,.18v-4.7l18-.17h2l5.83-.06h2Zm7.84-1.67v7.9c0,3.72.1,7.32.29,10.48-1.9,0-3.85,0-5.82.08-.19-3.21-.28-6.81-.29-10.51v-7.9c.21-11.5.86-22,.91-22.8a2.72,2.72,0,0,1,2.91-2.23v-.8l.15.8a2.6,2.6,0,0,1,2.75,2.46c.01.19-.63,10.88-.87,22.52Zm27.77-.21h-5.83c.21-11.42.86-21.8.91-22.58a2.7,2.7,0,0,1,2.9-2.23v-.8l.16.8a2.61,2.61,0,0,1,2.75,2.46c.01.23-.64,10.79-.86,22.35Zm1.91,6.28h-9.82l-18,.15V89.96l18-.15h9.83c8.78,0,16-.09,20.89-.09a2.4,2.4,0,1,1,0,4.69c-4.85-.01-12.05.03-20.87.09Zm-1.67,12.88c0,.55.08,1.08.12,1.6.13,1.6.3,3.06.51,4.31a1.217,1.217,0,0,0,.06.46q.1.77.21,1.62c.34,3,.56,6.81.67,11.29q-2.79.23-5.82.37a118.838,118.838,0,0,0-.74-12,7.817,7.817,0,0,0-.15-1.11,3.167,3.167,0,0,0-.08-.51c-.21-1.39-.38-3-.51-4.73,0-.52-.08-1.06-.11-1.6-.2-3.32-.29-7.06-.3-10.91h5.82c.04,3.96.13,7.83.35,11.21Zm2.92,8.15c8.12.73,14.44,2,17.15,4.11.75.59.85,1,.85,1.4s-.1.82-.85,1.4c-2.63,2.06-8.7,3.32-16.52,4-.08-4.24-.29-7.96-.6-10.91Zm.72,17.31-2,.16c-1.85.14-3.8.26-5.82.36-.66,0-1.3.07-2,.09-5.46.22-11.47.28-18,.25,0-1.64,0-3.2-.05-4.68,6.18,0,12.29-.05,18-.29l2-.09c2-.11,3.95-.23,5.81-.38l2-.17c8.37-.79,14.9-2.17,17.88-4.5a3,3,0,0,0,0-5.1c-3.09-2.4-10-3.8-18.75-4.58a5.536,5.536,0,0,0-.11-.83c-.19-1.15-.35-2.49-.48-4,11.07.89,19.13,2.68,23.39,6a7.64,7.64,0,0,1,3.14,5.34,2.33,2.33,0,0,1,.08.57,2,2,0,0,1-.06.48,7.76,7.76,0,0,1-3.16,5.44c-4.04,3.23-11.55,5.01-21.84,5.93Zm-2.09,13.7v1.59c0,1.54-.06,3.12-.1,4.71v1.6c-.11,4.08-.25,8.28-.4,12.54-1.91.07-3.86.1-5.82.11.15-4.12.28-8.42.4-12.73v-1.61c0-1.57.07-3.14.1-4.7v-1.6c.07-4,.11-7.84.1-11.51,2-.09,4-.21,5.83-.36.05,3.73,0,7.76-.08,11.96Zm1.81,8c7.18.35,13.33,1.32,16.19,3.46a3,3,0,0,1,1.37,2.55,3.22,3.22,0,0,1-1.46,2.76c-2.92,2.21-9.22,3.22-16.5,3.61.19-4.23.3-8.37.43-12.4Zm-2.62,18.79c-1.92.07-3.86.1-5.82.1h-2c-6.15-.06-12.34-.36-17.91-.64.06-1.59.12-3.17.18-4.69,5.19.26,11.54.57,17.91.62h2c2,0,3.91,0,5.82-.11.67,0,1.33-.05,2-.09,7.78-.4,14.58-1.52,17.91-4a4.71,4.71,0,0,0,2.09-3.93,4.42,4.42,0,0,0-2-3.73c-3.26-2.43-9.85-3.52-17.5-3.89,0-1.59.08-3.15.11-4.69,9,.44,16.91,1.83,21.34,5.14a8.8,8.8,0,0,1,3.88,7.17,9.06,9.06,0,0,1-3.93,7.35c-4.58,3.46-12.81,4.9-22.07,5.36Zm-.4,9.67c0,.53-.05,1.06-.07,1.59-.06,1.38-.12,2.75-.19,4.12v.58a14.538,14.538,0,0,1-.06,1.58c-.12,3.45-.2,7.77-.24,12.67H430.7c0-4.92.12-9.28.24-12.75a13.651,13.651,0,0,1,.06-1.59v-.68c0-1.23.11-2.59.18-4a12.468,12.468,0,0,1,.07-1.6c.1-2.42.22-5.08.33-7.89,2,0,3.9,0,5.82-.1Zm1.64,8c7.7.34,14.39,1.34,17.48,3.68a3.22,3.22,0,0,1,1.46,2.75A3,3,0,0,1,456.3,200c-3.08,2.3-9.93,3.25-17.79,3.52.05-4.89.13-9.17.24-12.59Zm22.82-.91a9.05,9.05,0,0,1,3.93,7.34,8.86,8.86,0,0,1-3.89,7.21c-4.74,3.53-13.4,4.89-23.14,5.22-.66,0-1.32,0-2,.05h-7.82c-6.15-.13-12.34-.49-18-.84v-4.7c5.28.33,11.61.7,18,.83h7.82l2-.07c8.35-.29,15.66-1.34,19.15-3.94a4.44,4.44,0,0,0,2-3.77,4.71,4.71,0,0,0-2.09-3.92c-3.45-2.61-10.64-3.72-18.77-4.08v-.61l.18-4.11c9.56.37,18,1.79,22.66,5.3Z" fill="#12263f"/>
    <text id="Trama" transform="translate(68.51 143.17)" fill="#12263f" font-size="21" font-family="Roboto-Bold, Roboto" font-weight="700"><tspan x="0" y="0" letter-spacing="-0.03em">T</tspan><tspan y="0" letter-spacing="-0.01em">r</tspan><tspan y="0">ama</tspan></text>
    <text id="Urdimbre" transform="translate(252.29 48.11)" fill="#12263f" font-size="21" font-family="Roboto-Bold, Roboto" font-weight="700"><tspan x="0" y="0">Urdimbre</tspan></text>
    <path id="Path_100883" data-name="Path 100883" d="M210.8,58.45c.71-5.65.79-13.08-.49-18.38l6.43,7,9.42,1.27C221.08,50.33,215,54.63,210.8,58.45Z" fill="#ffd54f"/>
    <path id="Path_100884" data-name="Path 100884" d="M215.46,50.29c1-1,1.76-16.12,27.82-13.65" fill="none" stroke="#ffd54f" stroke-linecap="round" stroke-linejoin="round" stroke-width="2"/>
    <path id="Path_100885" data-name="Path 100885" d="M148.5,101.31c-4.93-2.85-10.88-7.3-14.32-11.53l1.67,9.36-4.7,8.26C135.8,104.57,142.9,102.36,148.5,101.31Z" fill="#ffd54f"/>
    <path id="Path_100886" data-name="Path 100886" d="M139.18,100.07c-1.4.16-30.69-5.07-47.69,18.93" fill="none" stroke="#ffd54f" stroke-linecap="round" stroke-linejoin="round" stroke-width="2"/>
  </g>
</svg>
