<svg id="t4-i8" xmlns="http://www.w3.org/2000/svg" width="1088" height="348.37" viewBox="0 0 1088 348.37">
  <g id="Illustration">
    <rect id="Rectangle_5251" data-name="Rectangle 5251" width="1088" height="348.37" fill="#fff4d3"/>
    <circle id="Ellipse_4001" data-name="Ellipse 4001" cx="52.54" cy="52.54" r="52.54" transform="translate(926.51 202.39)" fill="#d8ffeb"/>
    <circle id="Ellipse_4002" data-name="Ellipse 4002" cx="55.64" cy="55.64" r="55.64" transform="translate(923.41 199.29)" fill="none" stroke="#1f8551" stroke-miterlimit="10" stroke-width="2"/>
    <circle id="Ellipse_4003" data-name="Ellipse 4003" cx="83.5" cy="83.5" r="83.5" transform="translate(460.07 90.75)" fill="#7b1fa2"/>
    <circle id="Ellipse_4004" data-name="Ellipse 4004" cx="88.43" cy="88.43" r="88.43" transform="translate(455.14 85.82)" fill="none" stroke="#7b1fa2" stroke-miterlimit="10" stroke-width="2.5"/>
    <circle id="Ellipse_4005" data-name="Ellipse 4005" cx="91.93" cy="91.93" r="91.93" transform="translate(451.64 82.32)" fill="none" stroke="#7b1fa2" stroke-miterlimit="10" stroke-width="1"/>
    <circle id="Ellipse_4006" data-name="Ellipse 4006" cx="55.17" cy="55.17" r="55.17" transform="translate(270.19 119.08)" fill="#ffe8e8"/>
    <circle id="Ellipse_4007" data-name="Ellipse 4007" cx="58.43" cy="58.43" r="58.43" transform="translate(266.93 115.82)" fill="none" stroke="#e863c9" stroke-miterlimit="10" stroke-width="2"/>
    <circle id="Ellipse_4008" data-name="Ellipse 4008" cx="63.19" cy="63.19" r="63.19" transform="translate(45.33 191.74)" fill="#ffe8e8"/>
    <circle id="Ellipse_4009" data-name="Ellipse 4009" cx="66.92" cy="66.92" r="66.92" transform="translate(41.6 188.01)" fill="none" stroke="#e863c9" stroke-miterlimit="10" stroke-width="2"/>
    <circle id="Ellipse_4010" data-name="Ellipse 4010" cx="63.19" cy="63.19" r="63.19" transform="translate(45.33 30.24)" fill="#ffe8e8"/>
    <circle id="Ellipse_4011" data-name="Ellipse 4011" cx="66.92" cy="66.92" r="66.92" transform="translate(41.6 26.51)" fill="none" stroke="#e863c9" stroke-miterlimit="10" stroke-width="2"/>
    <path id="Path_103353" data-name="Path 103353" d="M197.13,89.71c-4.35-4.09-11.47-8.06-17.24-10.45,5.93-2,13.33-5.38,18-9.14L194,79.78Z" fill="#ffd54f"/>
    <path id="Path_103354" data-name="Path 103354" d="M192.89,79.83S250,83.59,271,134.24" fill="none" stroke="#ffd54f" stroke-linecap="round" stroke-linejoin="round" stroke-width="4"/>
    <path id="Path_103355" data-name="Path 103355" d="M197.13,258.66c-4.35,4.09-11.47,8.06-17.24,10.45,5.93,1.95,13.33,5.38,18,9.13L194,268.58Z" fill="#ffd54f"/>
    <path id="Path_103356" data-name="Path 103356" d="M192.89,268.53S250,264.78,271,214.12" fill="none" stroke="#ffd54f" stroke-linecap="round" stroke-linejoin="round" stroke-width="4"/>
    <circle id="Ellipse_4012" data-name="Ellipse 4012" cx="55.17" cy="55.17" r="55.17" transform="translate(707.04 119.08)" fill="#d8ffeb"/>
    <circle id="Ellipse_4013" data-name="Ellipse 4013" cx="58.43" cy="58.43" r="58.43" transform="translate(703.78 115.82)" fill="none" stroke="#1f8551" stroke-miterlimit="10" stroke-width="2"/>
    <circle id="Ellipse_4014" data-name="Ellipse 4014" cx="52.54" cy="52.54" r="52.54" transform="translate(926.51 40.89)" fill="#d8ffeb"/>
    <circle id="Ellipse_4015" data-name="Ellipse 4015" cx="55.64" cy="55.64" r="55.64" transform="translate(923.41 37.79)" fill="none" stroke="#1f8551" stroke-miterlimit="10" stroke-width="2"/>
    <path id="Path_103357" data-name="Path 103357" d="M900.8,242.07c5.3,2.74,13.23,4.62,19.43,5.34-5.17,3.49-11.34,8.81-14.78,13.69l1.12-10.35Z" fill="#ffd54f"/>
    <path id="Path_103358" data-name="Path 103358" d="M907.57,250.41s-56,12-90-31" fill="none" stroke="#ffd54f" stroke-linecap="round" stroke-linejoin="round" stroke-width="4"/>
    <path id="Path_103359" data-name="Path 103359" d="M900.8,106.44c5.3-2.74,13.23-4.62,19.43-5.34-5.17-3.49-11.34-8.81-14.78-13.69l1.12,10.35Z" fill="#ffd54f"/>
    <path id="Path_103360" data-name="Path 103360" d="M907.57,98.1s-56-12-90,31" fill="none" stroke="#ffd54f" stroke-linecap="round" stroke-linejoin="round" stroke-width="4"/>
    <path id="Path_103361" data-name="Path 103361" d="M405.59,164.46c-4.47,3.95-11.71,7.69-17.55,9.9,5.86,2.13,13.15,5.79,17.67,9.69l-3.6-9.77Z" fill="#ffd54f"/>
    <line id="Line_188" data-name="Line 188" x2="46" transform="translate(400.1 174.25)" fill="none" stroke="#ffd54f" stroke-linecap="round" stroke-linejoin="round" stroke-width="4"/>
    <path id="Path_103362" data-name="Path 103362" d="M681.55,184.48c4.48-3.95,11.71-7.7,17.55-9.9-5.86-2.14-13.14-5.8-17.66-9.69l3.6,9.77Z" fill="#ffd54f"/>
    <line id="Line_189" data-name="Line 189" x1="46" transform="translate(641.04 174.68)" fill="none" stroke="#ffd54f" stroke-linecap="round" stroke-linejoin="round" stroke-width="4"/>
    <g id="Group">
      <text id="Tejido" transform="translate(512.29 167.48)" fill="#fff" font-size="22" font-family="Roboto-Black, Roboto" font-weight="800"><tspan x="0" y="0">Tejido</tspan></text>
      <text id="de_pun" data-name="de pun" transform="translate(500.26 193.88)" fill="#fff" font-size="22" font-family="Roboto-Black, Roboto" font-weight="800"><tspan x="0" y="0">de pun</tspan></text>
      <text id="t" transform="translate(567.3 193.88)" fill="#fff" font-size="22" font-family="Roboto-Black, Roboto" font-weight="800" letter-spacing="-0.01em"><tspan x="0" y="0">t</tspan></text>
      <text id="o" transform="translate(574.52 193.88)" fill="#fff" font-size="22" font-family="Roboto-Black, Roboto" font-weight="800"><tspan x="0" y="0">o</tspan></text>
    </g>
    <text id="Por_trama" data-name="Por trama" transform="translate(280.92 180.1)" fill="#12263f" font-size="20" font-family="Roboto-Bold, Roboto" font-weight="700"><tspan x="0" y="0" letter-spacing="-0.01em">P</tspan><tspan y="0">or t</tspan><tspan y="0" letter-spacing="-0.01em">r</tspan><tspan y="0">ama</tspan></text>
    <g id="Group-2" data-name="Group">
      <text id="Sencillo" transform="translate(72.58 89.95)" fill="#12263f" font-size="20" font-family="Roboto-Bold, Roboto" font-weight="700"><tspan x="0" y="0">Sencillo</tspan></text>
      <text id="_Jersey_Lacoste_" data-name="(Jersey, Lacoste)" transform="translate(52.01 109.95)" fill="#12263f" font-size="15" font-family="Roboto-Regular, Roboto" letter-spacing="-0.01em"><tspan x="0" y="0">(Jersey, Lacoste)</tspan></text>
    </g>
    <g id="Group-3" data-name="Group">
      <text id="Doble" transform="translate(82.72 241.45)" fill="#12263f" font-size="20" font-family="Roboto-Bold, Roboto" font-weight="700"><tspan x="0" y="0">Doble</tspan></text>
      <text id="_Rib_o_reso" data-name="(Rib o reso" transform="translate(54.07 261.45)" fill="#12263f" font-size="15" font-family="Roboto-Regular, Roboto" letter-spacing="-0.01em"><tspan x="0" y="0">(Rib o reso</tspan></text>
      <text id="r" transform="translate(124.96 261.45)" fill="#12263f" font-size="15" font-family="Roboto-Regular, Roboto" letter-spacing="0.02em"><tspan x="0" y="0">r</tspan></text>
      <text id="tado_" data-name="tado," transform="translate(130.33 261.45)" fill="#12263f" font-size="15" font-family="Roboto-Regular, Roboto" letter-spacing="-0.01em"><tspan x="0" y="0">tado,</tspan></text>
      <text id="interlock_piqué_" data-name="interlock, piqué)" transform="translate(56.08 281.45)" fill="#12263f" font-size="15" font-family="Roboto-Regular, Roboto" letter-spacing="-0.01em"><tspan x="0" y="0">interlock, piqué)</tspan></text>
    </g>
    <g id="Group-4" data-name="Group">
      <text id="P" transform="translate(746.52 168.1)" fill="#12263f" font-size="20" font-family="Roboto-Bold, Roboto" font-weight="700" letter-spacing="-0.01em"><tspan x="0" y="0">P</tspan></text>
      <text id="or" transform="translate(759.29 168.1)" fill="#12263f" font-size="20" font-family="Roboto-Bold, Roboto" font-weight="700"><tspan x="0" y="0">or</tspan></text>
      <text id="urdimbre" transform="translate(721.34 192.1)" fill="#12263f" font-size="20" font-family="Roboto-Bold, Roboto" font-weight="700"><tspan x="0" y="0">urdimbre</tspan></text>
    </g>
    <text id="Tricot" transform="translate(952.64 99.28)" fill="#12263f" font-size="20" font-family="Roboto-Bold, Roboto" font-weight="700"><tspan x="0" y="0" letter-spacing="-0.03em">T</tspan><tspan y="0">ricot</tspan></text>
    <text id="Raschell" transform="translate(940.65 260.78)" fill="#12263f" font-size="20" font-family="Roboto-Bold, Roboto" font-weight="700"><tspan x="0" y="0">Raschell</tspan></text>
  </g>
</svg>
