<svg xmlns="http://www.w3.org/2000/svg" width="1088" height="360" viewBox="0 0 1088 360">
  <g id="t6-i8" transform="translate(-7648.571 -3775.397)">
    <rect id="Rectangle_5252" data-name="Rectangle 5252" width="1088" height="360" transform="translate(7648.571 3775.397)" fill="#fff4d3"/>
    <g id="Group_53649" data-name="Group 53649">
      <text id="Ancho_de_la_tela_Sentido_de_hilo_trama" data-name="Ancho de la tela
Sentido de hilo
trama" transform="translate(7803.07 3934.274)" fill="#12263f" font-size="18" font-family="Roboto-Bold, Roboto" font-weight="700"><tspan x="-64.692" y="0">Ancho de la tela</tspan><tspan x="-60.341" y="21.6">Sentido de hilo</tspan><tspan x="-23.634" y="43.2">trama</tspan></text>
      <path id="Path_103363" data-name="Path 103363" d="M7913.329,3802.437c-1.616,4.59-4.408,10.3-7.409,13.857l7.591-2.89,7.686,2.636C7918.079,3812.582,7915.1,3806.971,7913.329,3802.437Z" fill="#e863c9"/>
      <g id="Group_53644" data-name="Group 53644">
        <rect id="Rectangle_5253" data-name="Rectangle 5253" width="363.369" height="287.452" transform="translate(7933.884 3802.879)" fill="#fff" stroke="#ffd54f" stroke-miterlimit="10" stroke-width="3"/>
        <g id="Group_53643" data-name="Group 53643">
          <path id="Path_103364" data-name="Path 103364" d="M8078.224,3880.456V3851.2l73.181-15.813c0,5.85,8.759,12.67,12.6,16.883,3.878,4.245,14.609,16.08,14.609,28.182,0,12.136-10.731,23.971-14.609,28.183-3.845,4.212-12.6,11.066-12.6,16.916l-73.181-15.846Z" fill="#cbeaff" stroke="#2898e2" stroke-linecap="round" stroke-linejoin="round" stroke-width="1"/>
          <rect id="Rectangle_5254" data-name="Rectangle 5254" width="27.414" height="9.16" transform="translate(7953.157 3872.7)" fill="#cbeaff" stroke="#2898e2" stroke-linecap="round" stroke-linejoin="round" stroke-width="1"/>
          <path id="Path_103365" data-name="Path 103365" d="M8177.348,3985.765h43.995v13.941a4.958,4.958,0,0,1-4.946,4.948h-34.067a4.987,4.987,0,0,1-4.981-4.948Z" fill="#cbeaff" stroke="#2898e2" stroke-linecap="round" stroke-linejoin="round" stroke-width="1"/>
          <rect id="Rectangle_5255" data-name="Rectangle 5255" width="25.876" height="8.425" transform="translate(7991.77 3938.861)" fill="#cbeaff" stroke="#2898e2" stroke-linecap="round" stroke-linejoin="round" stroke-width="1"/>
          <path id="Path_103366" data-name="Path 103366" d="M7947.641,3947.486h5.851v-4.513h23.569v14.141h-29.419Z" fill="#cbeaff" stroke="#2898e2" stroke-linecap="round" stroke-linejoin="round" stroke-width="1"/>
          <path id="Path_103367" data-name="Path 103367" d="M8119.578,4031.533c-18.588,0-18.019,11.266-18.019,11.266l-26.879-9.06,4.112-16.682,40.786.334,40.787-.334,4.112,16.682-26.879,9.06s.568-11.266-18.02-11.266Z" fill="#cbeaff" stroke="#2898e2" stroke-linecap="round" stroke-linejoin="round" stroke-width="1"/>
          <path id="Path_103368" data-name="Path 103368" d="M8097.915,4032.4l-3.51-2.675,51.652.033" fill="#cbeaff" stroke="#2898e2" stroke-linecap="round" stroke-linejoin="round" stroke-width="1"/>
          <line id="Line_190" data-name="Line 190" y2="14.141" transform="translate(8119.578 4017.391)" fill="#cbeaff" stroke="#2898e2" stroke-linecap="round" stroke-linejoin="round" stroke-width="0.75" stroke-dasharray="2"/>
          <path id="Path_103369" data-name="Path 103369" d="M8115.2,4064.028c-18.555,0-18.02,11.3-18.02,11.3l-26.879-9.06,4.112-16.716,40.787.335,40.819-.335,4.079,16.716-26.879,9.06s.569-11.3-18.019-11.3Z" fill="#cbeaff" stroke="#2898e2" stroke-linecap="round" stroke-linejoin="round" stroke-width="1"/>
          <path id="Path_103370" data-name="Path 103370" d="M8093.535,4064.9l-3.51-2.641h51.651" fill="#cbeaff" stroke="#2898e2" stroke-linecap="round" stroke-linejoin="round" stroke-width="1"/>
          <line id="Line_191" data-name="Line 191" y2="14.141" transform="translate(8115.199 4049.887)" fill="#cbeaff" stroke="#2898e2" stroke-linecap="round" stroke-linejoin="round" stroke-width="0.75" stroke-dasharray="2"/>
          <path id="Path_103371" data-name="Path 103371" d="M8177.348,3984.963h43.995v-13.908a4.965,4.965,0,0,0-4.946-4.981h-34.067a4.994,4.994,0,0,0-4.981,4.981Z" fill="#cbeaff" stroke="#2898e2" stroke-linecap="round" stroke-linejoin="round" stroke-width="1"/>
          <path id="Path_103372" data-name="Path 103372" d="M8169.892,4027.053h42.625v13.506a4.838,4.838,0,0,1-4.814,4.814h-33a4.838,4.838,0,0,1-4.815-4.814Z" fill="#cbeaff" stroke="#2898e2" stroke-linecap="round" stroke-linejoin="round" stroke-width="1"/>
          <path id="Path_103373" data-name="Path 103373" d="M8169.892,4026.317h42.625v-13.506A4.837,4.837,0,0,0,8207.7,4008h-33a4.837,4.837,0,0,0-4.815,4.814Z" fill="#cbeaff" stroke="#2898e2" stroke-linecap="round" stroke-linejoin="round" stroke-width="1"/>
          <path id="Path_103374" data-name="Path 103374" d="M8178.584,4017.96l-2.039-1.538H8206.3" fill="#cbeaff" stroke="#2898e2" stroke-linecap="round" stroke-linejoin="round" stroke-width="1"/>
          <path id="Path_103375" data-name="Path 103375" d="M8189.183,4032.068l1.538-2.006v10.631" fill="#cbeaff" stroke="#2898e2" stroke-linecap="round" stroke-linejoin="round" stroke-width="1"/>
          <path id="Path_103376" data-name="Path 103376" d="M8197.908,3992.284l1.538-2.039v10.631" fill="#cbeaff" stroke="#2898e2" stroke-linecap="round" stroke-linejoin="round" stroke-width="1"/>
          <path id="Path_103377" data-name="Path 103377" d="M8188.246,3978.31l-2.006-1.538h29.754" fill="#cbeaff" stroke="#2898e2" stroke-linecap="round" stroke-linejoin="round" stroke-width="1"/>
          <path id="Path_103378" data-name="Path 103378" d="M8096.511,3968.715l-4.346-3.31,63.687.033" fill="#cbeaff" stroke="#2898e2" stroke-linecap="round" stroke-linejoin="round" stroke-width="1"/>
          <path id="Path_103379" data-name="Path 103379" d="M8173.67,3966.074V3936.22l-73.214-16.147c0,5.95-8.726,12.937-12.6,17.25-3.845,4.313-14.576,16.382-14.576,28.751,0,12.336,10.731,24.405,14.576,28.718,3.878,4.312,12.6,11.3,12.6,17.25l73.214-16.114Z" fill="#cbeaff" stroke="#2898e2" stroke-linecap="round" stroke-linejoin="round" stroke-width="1"/>
          <path id="Path_103380" data-name="Path 103380" d="M8097.112,3968.715l-4.279-2.674,62.583.033" fill="#cbeaff" stroke="#2898e2" stroke-linecap="round" stroke-linejoin="round" stroke-width="1"/>
          <path id="Path_103381" data-name="Path 103381" d="M8084.275,3814.3l24.3.568,4.313,14.275-4.313,15.345-24.3-.535Z" fill="#cbeaff" stroke="#2898e2" stroke-linecap="round" stroke-linejoin="round" stroke-width="1"/>
          <path id="Path_103382" data-name="Path 103382" d="M8091.5,3830.945l-2.006-1.538h18.253" fill="#cbeaff" stroke="#2898e2" stroke-linecap="round" stroke-linejoin="round" stroke-width="1"/>
          <path id="Path_103383" data-name="Path 103383" d="M7945.6,3831.546s6.319-2.875,8.759-7.388c2.407-4.547,1.638-11.735,1.638-11.735h125.168s2,16.382-3.544,26.779c-5.516,10.364-12.035,16.248-11.6,27.949a331.485,331.485,0,0,0-36.273-2.407c-17.451,0-38.914,4.179-38.914,4.179s.669-8.826-14.141-12.27c-14.811-3.41-21.8,4.413-21.8,4.413Z" fill="#cbeaff" stroke="#2898e2" stroke-linecap="round" stroke-linejoin="round" stroke-width="1"/>
          <path id="Path_103384" data-name="Path 103384" d="M8048.9,3839l5.416,2.675h-79.834" fill="#cbeaff" stroke="#2898e2" stroke-linecap="round" stroke-linejoin="round" stroke-width="1"/>
          <path id="Path_103385" data-name="Path 103385" d="M7943.127,3914.824s6.319,2.875,8.726,7.422c2.44,4.513,1.672,11.7,1.672,11.7h125.167s1.972-16.348-3.544-26.746-12.035-16.247-11.6-27.982a327.774,327.774,0,0,1-36.273,2.441c-17.484,0-38.914-4.212-38.914-4.212s.669,8.859-14.175,12.269c-14.81,3.443-21.764-4.413-21.764-4.413Z" fill="#cbeaff" stroke="#2898e2" stroke-linecap="round" stroke-linejoin="round" stroke-width="1"/>
          <path id="Path_103386" data-name="Path 103386" d="M8047.7,3902.387l5.449,2.641h-79.867" fill="#cbeaff" stroke="#2898e2" stroke-linecap="round" stroke-linejoin="round" stroke-width="1"/>
          <path id="Path_103387" data-name="Path 103387" d="M7960.144,3879.554l-2.04-1.538,18.287.033" fill="#cbeaff" stroke="#2898e2" stroke-linecap="round" stroke-linejoin="round" stroke-width="1"/>
          <path id="Path_103388" data-name="Path 103388" d="M8071.27,4014.65c0-4.547.033-14.676.836-20.427.769-5.75-3.21-15.579-8.191-23.87a45.993,45.993,0,0,1-6.018-14.977c-44.9,1.672-74.418-8.291-74.418-8.291s-.1,10.6-9.06,15.579-28.483,2.273-28.483,2.273l-.6,49.713.6,49.679s19.524-2.708,28.483,2.273,9.06,15.579,9.06,15.579,29.52-9.962,74.418-8.291a45.993,45.993,0,0,1,6.018-14.977c4.981-8.291,8.96-18.12,8.191-23.87-.8-5.75-.836-15.88-.836-20.393Z" fill="#cbeaff" stroke="#2898e2" stroke-linecap="round" stroke-linejoin="round" stroke-width="1"/>
          <path id="Path_103389" data-name="Path 103389" d="M7956.1,3952.334l-2.006-1.538h18.253" fill="#cbeaff" stroke="#2898e2" stroke-linecap="round" stroke-linejoin="round" stroke-width="1"/>
          <path id="Path_103390" data-name="Path 103390" d="M7997.888,3944.478l-2.006-1.538h18.253" fill="#cbeaff" stroke="#2898e2" stroke-linecap="round" stroke-linejoin="round" stroke-width="1"/>
          <path id="Path_103391" data-name="Path 103391" d="M8054.654,3946.216h-5.85v4.547h-23.569v-14.141h29.419Z" fill="#cbeaff" stroke="#2898e2" stroke-linecap="round" stroke-linejoin="round" stroke-width="1"/>
          <path id="Path_103392" data-name="Path 103392" d="M8046.2,3941.4l2.006,1.538h-18.253" fill="#cbeaff" stroke="#2898e2" stroke-linecap="round" stroke-linejoin="round" stroke-width="1"/>
          <g id="Group_53642" data-name="Group 53642">
            <path id="Path_103393" data-name="Path 103393" d="M8101.057,3883.064l-4.346-3.243,63.72.033" fill="#cbeaff"/>
            <path id="Path_103394" data-name="Path 103394" d="M8101.058,3883.618a.555.555,0,0,1-.332-.11l-4.347-3.243a.554.554,0,0,1,.332-1h0l63.72.033a.554.554,0,1,1,0,1.109h0l-62.049-.033,3.007,2.244a.554.554,0,0,1-.331,1Z" fill="#2898e2"/>
          </g>
          <path id="Path_103395" data-name="Path 103395" d="M8203.157,4072.52c-17.953,0-36.307,3.978-36.307,3.978l-3.276-9.829s15.044-4.212,39.583-4.212,39.582,4.212,39.582,4.212l-3.276,9.829s-18.32-3.978-36.306-3.978Z" fill="#cbeaff" stroke="#2898e2" stroke-linecap="round" stroke-linejoin="round" stroke-width="1"/>
          <path id="Path_103396" data-name="Path 103396" d="M8207.2,4055.47a238.629,238.629,0,0,1-40.017-3.979l-3.611,6.787s16.582,4.179,43.628,4.179,43.628-4.179,43.628-4.179l-3.611-6.787a238.62,238.62,0,0,1-40.017,3.979Z" fill="#cbeaff" stroke="#2898e2" stroke-linecap="round" stroke-linejoin="round" stroke-width="1"/>
          <path id="Path_103397" data-name="Path 103397" d="M8183.7,4071.049l-3.009-1.538h44.463" fill="#cbeaff" stroke="#2898e2" stroke-linecap="round" stroke-linejoin="round" stroke-width="1"/>
          <path id="Path_103398" data-name="Path 103398" d="M8186.909,4058.646l-3.009-1.538h44.464" fill="#cbeaff" stroke="#2898e2" stroke-linecap="round" stroke-linejoin="round" stroke-width="1"/>
          <path id="Path_103399" data-name="Path 103399" d="M8156.587,3830.677c-17.953,0-36.307,3.978-36.307,3.978l-3.276-9.828s15.044-4.213,39.583-4.213,39.583,4.213,39.583,4.213l-3.277,9.828s-18.354-3.978-36.306-3.978Z" fill="#cbeaff" stroke="#2898e2" stroke-linecap="round" stroke-linejoin="round" stroke-width="1"/>
          <path id="Path_103400" data-name="Path 103400" d="M8160.632,3813.594a240.058,240.058,0,0,1-40.017-3.945L8117,3816.4s16.582,4.212,43.628,4.212,43.595-4.212,43.595-4.212l-3.577-6.753a240.611,240.611,0,0,1-40.018,3.945Z" fill="#cbeaff" stroke="#2898e2" stroke-linecap="round" stroke-linejoin="round" stroke-width="1"/>
          <path id="Path_103401" data-name="Path 103401" d="M8137.13,3829.206l-3.009-1.538h44.463" fill="#cbeaff" stroke="#2898e2" stroke-linecap="round" stroke-linejoin="round" stroke-width="1"/>
          <path id="Path_103402" data-name="Path 103402" d="M8140.339,3816.8l-3.042-1.538h44.5" fill="#cbeaff" stroke="#2898e2" stroke-linecap="round" stroke-linejoin="round" stroke-width="1"/>
          <path id="Path_103403" data-name="Path 103403" d="M8074.68,4035.344a1.6,1.6,0,1,0,0-3.209,1.6,1.6,0,1,0,0,3.209Z" fill="#7a279f" fill-rule="evenodd"/>
          <path id="Path_103404" data-name="Path 103404" d="M8119.578,4032.736a1.2,1.2,0,1,0-1.2-1.2,1.2,1.2,0,0,0,1.2,1.2Z" fill="#7a279f" fill-rule="evenodd"/>
          <path id="Path_103405" data-name="Path 103405" d="M8101.559,4044.4a1.6,1.6,0,0,0,1.6-1.6,1.627,1.627,0,0,0-1.6-1.6,1.605,1.605,0,0,0-1.6,1.6,1.584,1.584,0,0,0,1.6,1.6Z" fill="#7a279f" fill-rule="evenodd"/>
          <path id="Path_103406" data-name="Path 103406" d="M8078.792,4018.662a1.6,1.6,0,0,0,1.571-1.605,1.588,1.588,0,1,0-3.176,0,1.606,1.606,0,0,0,1.6,1.605Z" fill="#7a279f" fill-rule="evenodd"/>
          <path id="Path_103407" data-name="Path 103407" d="M8119.578,4019a1.627,1.627,0,0,0,1.6-1.6,1.6,1.6,0,0,0-3.209,0,1.626,1.626,0,0,0,1.6,1.6Z" fill="#7a279f" fill-rule="evenodd"/>
          <path id="Path_103408" data-name="Path 103408" d="M8160.365,4018.662a1.605,1.605,0,0,0,1.6-1.605,1.584,1.584,0,0,0-1.6-1.6,1.605,1.605,0,0,0-1.605,1.6,1.628,1.628,0,0,0,1.605,1.605Z" fill="#7a279f" fill-rule="evenodd"/>
          <path id="Path_103409" data-name="Path 103409" d="M8164.477,4035.344a1.6,1.6,0,0,0,0-3.209,1.6,1.6,0,1,0,0,3.209Z" fill="#7a279f" fill-rule="evenodd"/>
          <path id="Path_103410" data-name="Path 103410" d="M8137.6,4044.4a1.6,1.6,0,0,0,1.6-1.6,1.6,1.6,0,1,0-3.209,0,1.605,1.605,0,0,0,1.6,1.6Z" fill="#7a279f" fill-rule="evenodd"/>
          <path id="Path_103411" data-name="Path 103411" d="M8077.388,4023.977a1.2,1.2,0,1,0-1.237-1.2,1.22,1.22,0,0,0,1.237,1.2Z" fill="#7a279f" fill-rule="evenodd"/>
          <path id="Path_103412" data-name="Path 103412" d="M8161.6,4023.977a1.2,1.2,0,1,0-1.2-1.2,1.227,1.227,0,0,0,1.2,1.2Z" fill="#7a279f" fill-rule="evenodd"/>
          <path id="Path_103413" data-name="Path 103413" d="M8070.3,4067.873a1.605,1.605,0,0,0,1.6-1.6,1.584,1.584,0,0,0-1.6-1.6,1.6,1.6,0,0,0-1.6,1.6,1.627,1.627,0,0,0,1.6,1.6Z" fill="#7a279f" fill-rule="evenodd"/>
          <path id="Path_103414" data-name="Path 103414" d="M8115.2,4065.265a1.22,1.22,0,1,0-1.2-1.237,1.227,1.227,0,0,0,1.2,1.237Z" fill="#7a279f" fill-rule="evenodd"/>
          <path id="Path_103415" data-name="Path 103415" d="M8097.179,4076.933a1.606,1.606,0,0,0,1.6-1.605,1.584,1.584,0,0,0-1.6-1.6,1.6,1.6,0,0,0-1.6,1.6,1.627,1.627,0,0,0,1.6,1.605Z" fill="#7a279f" fill-rule="evenodd"/>
          <path id="Path_103416" data-name="Path 103416" d="M8074.412,4051.157a1.6,1.6,0,0,0,1.6-1.6,1.626,1.626,0,0,0-1.6-1.6,1.6,1.6,0,0,0-1.6,1.6,1.584,1.584,0,0,0,1.6,1.6Z" fill="#7a279f" fill-rule="evenodd"/>
          <path id="Path_103417" data-name="Path 103417" d="M8115.2,4051.491a1.584,1.584,0,0,0,1.6-1.6,1.6,1.6,0,0,0-1.6-1.6,1.627,1.627,0,0,0-1.6,1.6,1.605,1.605,0,0,0,1.6,1.6Z" fill="#7a279f" fill-rule="evenodd"/>
          <path id="Path_103418" data-name="Path 103418" d="M8156.018,4051.157a1.6,1.6,0,0,0,1.6-1.6,1.626,1.626,0,0,0-1.6-1.6,1.6,1.6,0,0,0-1.6,1.6,1.584,1.584,0,0,0,1.6,1.6Z" fill="#7a279f" fill-rule="evenodd"/>
          <path id="Path_103419" data-name="Path 103419" d="M8160.1,4067.873a1.628,1.628,0,0,0,1.6-1.6,1.6,1.6,0,0,0-3.21,0,1.628,1.628,0,0,0,1.6,1.6Z" fill="#7a279f" fill-rule="evenodd"/>
          <path id="Path_103420" data-name="Path 103420" d="M8133.218,4076.933a1.606,1.606,0,0,0,1.605-1.605,1.585,1.585,0,0,0-1.605-1.6,1.6,1.6,0,0,0-1.6,1.6,1.627,1.627,0,0,0,1.6,1.605Z" fill="#7a279f" fill-rule="evenodd"/>
          <path id="Path_103421" data-name="Path 103421" d="M8073.008,4056.473a1.2,1.2,0,1,0-1.2-1.2,1.2,1.2,0,0,0,1.2,1.2Z" fill="#7a279f" fill-rule="evenodd"/>
          <path id="Path_103422" data-name="Path 103422" d="M8157.255,4056.473a1.2,1.2,0,1,0-1.2-1.2,1.2,1.2,0,0,0,1.2,1.2Z" fill="#7a279f" fill-rule="evenodd"/>
          <path id="Path_103423" data-name="Path 103423" d="M8177.348,3987.37a1.605,1.605,0,0,0,1.6-1.605,1.584,1.584,0,0,0-1.6-1.6,1.6,1.6,0,0,0-1.6,1.6,1.627,1.627,0,0,0,1.6,1.605Z" fill="#7a279f" fill-rule="evenodd"/>
          <path id="Path_103424" data-name="Path 103424" d="M8221.343,3987.37a1.606,1.606,0,0,0,1.605-1.605,1.584,1.584,0,0,0-1.605-1.6,1.6,1.6,0,0,0-1.6,1.6,1.627,1.627,0,0,0,1.6,1.605Z" fill="#7a279f" fill-rule="evenodd"/>
          <path id="Path_103425" data-name="Path 103425" d="M8182.329,4005.857a1.2,1.2,0,1,0-1.2-1.2,1.2,1.2,0,0,0,1.2,1.2Z" fill="#7a279f" fill-rule="evenodd"/>
          <path id="Path_103426" data-name="Path 103426" d="M8177.348,4000.91a1.2,1.2,0,1,0-1.2-1.2,1.2,1.2,0,0,0,1.2,1.2Z" fill="#7a279f" fill-rule="evenodd"/>
          <path id="Path_103427" data-name="Path 103427" d="M8216.4,4005.857a1.2,1.2,0,1,0-1.2-1.2,1.2,1.2,0,0,0,1.2,1.2Z" fill="#7a279f" fill-rule="evenodd"/>
          <path id="Path_103428" data-name="Path 103428" d="M8221.343,4000.91a1.2,1.2,0,1,0-1.2-1.2,1.228,1.228,0,0,0,1.2,1.2Z" fill="#7a279f" fill-rule="evenodd"/>
          <path id="Path_103429" data-name="Path 103429" d="M8182.329,3967.278a1.2,1.2,0,1,0-1.2-1.2,1.2,1.2,0,0,0,1.2,1.2Z" fill="#7a279f" fill-rule="evenodd"/>
          <path id="Path_103430" data-name="Path 103430" d="M8177.348,3972.259a1.221,1.221,0,1,0-1.2-1.2,1.22,1.22,0,0,0,1.2,1.2Z" fill="#7a279f" fill-rule="evenodd"/>
          <path id="Path_103431" data-name="Path 103431" d="M8216.4,3967.278a1.2,1.2,0,1,0-1.2-1.2,1.2,1.2,0,0,0,1.2,1.2Z" fill="#7a279f" fill-rule="evenodd"/>
          <path id="Path_103432" data-name="Path 103432" d="M8221.343,3972.259a1.221,1.221,0,1,0-1.2-1.2,1.25,1.25,0,0,0,1.2,1.2Z" fill="#7a279f" fill-rule="evenodd"/>
          <path id="Path_103433" data-name="Path 103433" d="M8169.892,4028.624a1.555,1.555,0,1,0-1.571-1.571,1.563,1.563,0,0,0,1.571,1.571Z" fill="#7a279f" fill-rule="evenodd"/>
          <path id="Path_103434" data-name="Path 103434" d="M8212.518,4028.624a1.555,1.555,0,1,0-1.571-1.571,1.562,1.562,0,0,0,1.571,1.571Z" fill="#7a279f" fill-rule="evenodd"/>
          <path id="Path_103435" data-name="Path 103435" d="M8174.707,4046.543a1.17,1.17,0,0,0,0-2.34,1.17,1.17,0,0,0,0,2.34Z" fill="#7a279f" fill-rule="evenodd"/>
          <path id="Path_103436" data-name="Path 103436" d="M8169.892,4041.729a1.17,1.17,0,1,0-1.17-1.17,1.185,1.185,0,0,0,1.17,1.17Z" fill="#7a279f" fill-rule="evenodd"/>
          <path id="Path_103437" data-name="Path 103437" d="M8207.7,4046.543a1.17,1.17,0,0,0,0-2.34,1.17,1.17,0,0,0,0,2.34Z" fill="#7a279f" fill-rule="evenodd"/>
          <path id="Path_103438" data-name="Path 103438" d="M8212.518,4041.729a1.17,1.17,0,1,0,0-2.34,1.17,1.17,0,1,0,0,2.34Z" fill="#7a279f" fill-rule="evenodd"/>
          <path id="Path_103439" data-name="Path 103439" d="M8174.707,4009.167a1.17,1.17,0,0,0,0-2.34,1.17,1.17,0,0,0,0,2.34Z" fill="#7a279f" fill-rule="evenodd"/>
          <path id="Path_103440" data-name="Path 103440" d="M8169.892,4013.981a1.17,1.17,0,1,0-1.17-1.17,1.185,1.185,0,0,0,1.17,1.17Z" fill="#7a279f" fill-rule="evenodd"/>
          <path id="Path_103441" data-name="Path 103441" d="M8207.7,4009.167a1.17,1.17,0,0,0,0-2.34,1.17,1.17,0,0,0,0,2.34Z" fill="#7a279f" fill-rule="evenodd"/>
          <path id="Path_103442" data-name="Path 103442" d="M8212.518,4013.981a1.17,1.17,0,1,0,0-2.34,1.17,1.17,0,1,0,0,2.34Z" fill="#7a279f" fill-rule="evenodd"/>
          <path id="Path_103443" data-name="Path 103443" d="M8173.67,3937.825a1.628,1.628,0,0,0,1.6-1.6,1.605,1.605,0,0,0-1.6-1.6,1.584,1.584,0,0,0-1.6,1.6,1.605,1.605,0,0,0,1.6,1.6Z" fill="#7a279f" fill-rule="evenodd"/>
          <path id="Path_103444" data-name="Path 103444" d="M8100.456,3921.677a1.6,1.6,0,0,0,1.6-1.6,1.584,1.584,0,0,0-1.6-1.6,1.6,1.6,0,0,0-1.6,1.6,1.626,1.626,0,0,0,1.6,1.6Z" fill="#7a279f" fill-rule="evenodd"/>
          <path id="Path_103445" data-name="Path 103445" d="M8100.456,4013.647a1.584,1.584,0,0,0,1.6-1.6,1.6,1.6,0,0,0-1.6-1.6,1.626,1.626,0,0,0-1.6,1.6,1.6,1.6,0,0,0,1.6,1.6Z" fill="#7a279f" fill-rule="evenodd"/>
          <path id="Path_103446" data-name="Path 103446" d="M8173.67,3997.5a1.588,1.588,0,1,0-1.6-1.572,1.577,1.577,0,0,0,1.6,1.572Z" fill="#7a279f" fill-rule="evenodd"/>
          <path id="Path_103447" data-name="Path 103447" d="M8173.67,3966.074a1.22,1.22,0,1,0-1.2-1.237,1.227,1.227,0,0,0,1.2,1.237Z" fill="#7a279f" fill-rule="evenodd"/>
          <path id="Path_103448" data-name="Path 103448" d="M8073.276,3967.278a1.221,1.221,0,1,0-1.2-1.2,1.221,1.221,0,0,0,1.2,1.2Z" fill="#7a279f" fill-rule="evenodd"/>
          <path id="Path_103449" data-name="Path 103449" d="M8085.177,3941.6a1.2,1.2,0,1,0-1.2-1.2,1.2,1.2,0,0,0,1.2,1.2Z" fill="#7a279f" fill-rule="evenodd"/>
          <path id="Path_103450" data-name="Path 103450" d="M8080.564,3986.9a1.2,1.2,0,1,0-1.2-1.2,1.2,1.2,0,0,0,1.2,1.2Z" fill="#7a279f" fill-rule="evenodd"/>
          <path id="Path_103451" data-name="Path 103451" d="M8096.644,4005.222a1.22,1.22,0,1,0-1.237-1.237,1.25,1.25,0,0,0,1.237,1.237Z" fill="#7a279f" fill-rule="evenodd"/>
          <path id="Path_103452" data-name="Path 103452" d="M8096.577,3929.4a1.2,1.2,0,1,0-1.2-1.2,1.2,1.2,0,0,0,1.2,1.2Z" fill="#7a279f" fill-rule="evenodd"/>
          <path id="Path_103453" data-name="Path 103453" d="M8124.025,3926.458a1.2,1.2,0,1,0-1.2-1.2,1.2,1.2,0,0,0,1.2,1.2Z" fill="#7a279f" fill-rule="evenodd"/>
          <path id="Path_103454" data-name="Path 103454" d="M8124.225,4008.031a1.2,1.2,0,1,0-1.2-1.2,1.2,1.2,0,0,0,1.2,1.2Z" fill="#7a279f" fill-rule="evenodd"/>
          <path id="Path_103455" data-name="Path 103455" d="M8173.67,3977.775a1.2,1.2,0,1,0-1.2-1.2,1.2,1.2,0,0,0,1.2,1.2Z" fill="#7a279f" fill-rule="evenodd"/>
          <path id="Path_103456" data-name="Path 103456" d="M8173.67,3947.921a1.2,1.2,0,1,0-1.2-1.2,1.2,1.2,0,0,0,1.2,1.2Z" fill="#7a279f" fill-rule="evenodd"/>
          <path id="Path_103457" data-name="Path 103457" d="M8084.275,3845.554a1.627,1.627,0,0,0,1.6-1.6,1.6,1.6,0,0,0-1.6-1.6,1.584,1.584,0,0,0-1.6,1.6,1.605,1.605,0,0,0,1.6,1.6Z" fill="#7a279f" fill-rule="evenodd"/>
          <path id="Path_103458" data-name="Path 103458" d="M8108.579,3846.089a1.584,1.584,0,0,0,1.6-1.605,1.606,1.606,0,0,0-1.6-1.6,1.627,1.627,0,0,0-1.6,1.6,1.6,1.6,0,0,0,1.6,1.605Z" fill="#7a279f" fill-rule="evenodd"/>
          <path id="Path_103459" data-name="Path 103459" d="M8084.275,3815.9a1.588,1.588,0,1,0,0-3.176,1.588,1.588,0,1,0,0,3.176Z" fill="#7a279f" fill-rule="evenodd"/>
          <path id="Path_103460" data-name="Path 103460" d="M8108.579,3816.469a1.6,1.6,0,0,0,0-3.21,1.6,1.6,0,0,0,0,3.21Z" fill="#7a279f" fill-rule="evenodd"/>
          <path id="Path_103461" data-name="Path 103461" d="M8112.892,3830.744a1.605,1.605,0,0,0,1.6-1.6,1.585,1.585,0,0,0-1.6-1.6,1.606,1.606,0,0,0-1.6,1.6,1.628,1.628,0,0,0,1.6,1.6Z" fill="#7a279f" fill-rule="evenodd"/>
          <path id="Path_103462" data-name="Path 103462" d="M8081.166,3814.028a1.584,1.584,0,0,0,1.6-1.6,1.6,1.6,0,0,0-1.6-1.6,1.626,1.626,0,0,0-1.6,1.6,1.6,1.6,0,0,0,1.6,1.6Z" fill="#7a279f" fill-rule="evenodd"/>
          <path id="Path_103463" data-name="Path 103463" d="M8066.021,3868.755a1.584,1.584,0,0,0,1.6-1.6,1.6,1.6,0,0,0-1.6-1.6,1.627,1.627,0,0,0-1.6,1.6,1.605,1.605,0,0,0,1.6,1.6Z" fill="#7a279f" fill-rule="evenodd"/>
          <path id="Path_103464" data-name="Path 103464" d="M7990.834,3870.527a1.584,1.584,0,0,0,1.6-1.6,1.6,1.6,0,0,0-1.6-1.6,1.627,1.627,0,0,0-1.6,1.6,1.605,1.605,0,0,0,1.6,1.6Z" fill="#7a279f" fill-rule="evenodd"/>
          <path id="Path_103465" data-name="Path 103465" d="M7954.9,3862.671a1.588,1.588,0,1,0-1.6-1.6,1.6,1.6,0,0,0,1.6,1.6Z" fill="#7a279f" fill-rule="evenodd"/>
          <path id="Path_103466" data-name="Path 103466" d="M7945.6,3833.151a1.584,1.584,0,0,0,1.6-1.6,1.6,1.6,0,0,0-1.6-1.6,1.626,1.626,0,0,0-1.6,1.6,1.6,1.6,0,0,0,1.6,1.6Z" fill="#7a279f" fill-rule="evenodd"/>
          <path id="Path_103467" data-name="Path 103467" d="M7956,3814.028a1.584,1.584,0,0,0,1.6-1.6,1.6,1.6,0,0,0-1.6-1.6,1.626,1.626,0,0,0-1.6,1.6,1.6,1.6,0,0,0,1.6,1.6Z" fill="#7a279f" fill-rule="evenodd"/>
          <path id="Path_103468" data-name="Path 103468" d="M8066.422,3862.571a1.221,1.221,0,1,0-1.2-1.237,1.228,1.228,0,0,0,1.2,1.237Z" fill="#7a279f" fill-rule="evenodd"/>
          <path id="Path_103469" data-name="Path 103469" d="M8081.5,3821.383a1.2,1.2,0,1,0-1.2-1.2,1.227,1.227,0,0,0,1.2,1.2Z" fill="#7a279f" fill-rule="evenodd"/>
          <path id="Path_103470" data-name="Path 103470" d="M8078.591,3838.366a1.2,1.2,0,1,0-1.2-1.2,1.2,1.2,0,0,0,1.2,1.2Z" fill="#7a279f" fill-rule="evenodd"/>
          <path id="Path_103471" data-name="Path 103471" d="M7967.432,3857.021a1.2,1.2,0,1,0-1.2-1.2,1.2,1.2,0,0,0,1.2,1.2Z" fill="#7a279f" fill-rule="evenodd"/>
          <path id="Path_103472" data-name="Path 103472" d="M7982.175,3859.629a1.2,1.2,0,1,0-1.2-1.2,1.2,1.2,0,0,0,1.2,1.2Z" fill="#7a279f" fill-rule="evenodd"/>
          <path id="Path_103473" data-name="Path 103473" d="M7954.36,3825.361a1.2,1.2,0,1,0-1.2-1.2,1.2,1.2,0,0,0,1.2,1.2Z" fill="#7a279f" fill-rule="evenodd"/>
          <path id="Path_103474" data-name="Path 103474" d="M8078.692,3935.551a1.6,1.6,0,0,0,1.6-1.6,1.626,1.626,0,0,0-1.6-1.6,1.6,1.6,0,0,0-1.6,1.6,1.584,1.584,0,0,0,1.6,1.6Z" fill="#7a279f" fill-rule="evenodd"/>
          <path id="Path_103475" data-name="Path 103475" d="M8063.547,3880.824a1.605,1.605,0,0,0,1.6-1.6,1.627,1.627,0,0,0-1.6-1.6,1.6,1.6,0,0,0-1.6,1.6,1.584,1.584,0,0,0,1.6,1.6Z" fill="#7a279f" fill-rule="evenodd"/>
          <path id="Path_103476" data-name="Path 103476" d="M7988.36,3879.052a1.605,1.605,0,0,0,1.6-1.6,1.627,1.627,0,0,0-1.6-1.6,1.6,1.6,0,0,0-1.6,1.6,1.584,1.584,0,0,0,1.6,1.6Z" fill="#7a279f" fill-rule="evenodd"/>
          <path id="Path_103477" data-name="Path 103477" d="M7952.421,3886.909a1.6,1.6,0,0,0,0-3.21,1.6,1.6,0,0,0,0,3.21Z" fill="#7a279f" fill-rule="evenodd"/>
          <path id="Path_103478" data-name="Path 103478" d="M7943.127,3916.429a1.6,1.6,0,1,0-1.6-1.6,1.627,1.627,0,0,0,1.6,1.6Z" fill="#7a279f" fill-rule="evenodd"/>
          <path id="Path_103479" data-name="Path 103479" d="M7953.525,3935.551a1.6,1.6,0,0,0,1.6-1.6,1.6,1.6,0,1,0-3.209,0,1.6,1.6,0,0,0,1.6,1.6Z" fill="#7a279f" fill-rule="evenodd"/>
          <path id="Path_103480" data-name="Path 103480" d="M8063.915,3886.24a1.2,1.2,0,1,0-1.2-1.2,1.227,1.227,0,0,0,1.2,1.2Z" fill="#7a279f" fill-rule="evenodd"/>
          <path id="Path_103481" data-name="Path 103481" d="M8079.026,3927.427a1.22,1.22,0,1,0-1.2-1.2,1.22,1.22,0,0,0,1.2,1.2Z" fill="#7a279f" fill-rule="evenodd"/>
          <path id="Path_103482" data-name="Path 103482" d="M8076.117,3910.411a1.2,1.2,0,1,0-1.237-1.2,1.22,1.22,0,0,0,1.237,1.2Z" fill="#7a279f" fill-rule="evenodd"/>
          <path id="Path_103483" data-name="Path 103483" d="M7964.958,3891.79a1.2,1.2,0,1,0-1.237-1.2,1.221,1.221,0,0,0,1.237,1.2Z" fill="#7a279f" fill-rule="evenodd"/>
          <path id="Path_103484" data-name="Path 103484" d="M7979.668,3889.148a1.2,1.2,0,1,0-1.2-1.2,1.226,1.226,0,0,0,1.2,1.2Z" fill="#7a279f" fill-rule="evenodd"/>
          <path id="Path_103485" data-name="Path 103485" d="M7951.853,3923.449a1.2,1.2,0,1,0-1.2-1.2,1.2,1.2,0,0,0,1.2,1.2Z" fill="#7a279f" fill-rule="evenodd"/>
          <path id="Path_103486" data-name="Path 103486" d="M7953.123,3883.632a1.6,1.6,0,0,0,1.6-1.6,1.6,1.6,0,1,0-3.209,0,1.6,1.6,0,0,0,1.6,1.6Z" fill="#7a279f" fill-rule="evenodd"/>
          <path id="Path_103487" data-name="Path 103487" d="M7953.123,3874.472a1.626,1.626,0,0,0,1.6-1.6,1.6,1.6,0,0,0-3.209,0,1.626,1.626,0,0,0,1.6,1.6Z" fill="#7a279f" fill-rule="evenodd"/>
          <path id="Path_103488" data-name="Path 103488" d="M7980.537,3874.472a1.6,1.6,0,0,0,1.6-1.6,1.584,1.584,0,0,0-1.6-1.6,1.605,1.605,0,0,0-1.6,1.6,1.627,1.627,0,0,0,1.6,1.6Z" fill="#7a279f" fill-rule="evenodd"/>
          <path id="Path_103489" data-name="Path 103489" d="M7980.537,3883.632a1.584,1.584,0,0,0,1.6-1.6,1.6,1.6,0,0,0-1.6-1.6,1.627,1.627,0,0,0-1.6,1.6,1.605,1.605,0,0,0,1.6,1.6Z" fill="#7a279f" fill-rule="evenodd"/>
          <path id="Path_103490" data-name="Path 103490" d="M7947.641,3958.719a1.6,1.6,0,0,0,0-3.209,1.6,1.6,0,1,0,0,3.209Z" fill="#7a279f" fill-rule="evenodd"/>
          <path id="Path_103491" data-name="Path 103491" d="M7953.491,3949.091a1.584,1.584,0,0,0,1.6-1.6,1.6,1.6,0,0,0-1.6-1.6,1.627,1.627,0,0,0-1.6,1.6,1.605,1.605,0,0,0,1.6,1.6Z" fill="#7a279f" fill-rule="evenodd"/>
          <path id="Path_103492" data-name="Path 103492" d="M7977.06,3944.578a1.628,1.628,0,0,0,1.6-1.6,1.605,1.605,0,0,0-1.6-1.6,1.584,1.584,0,0,0-1.6,1.6,1.605,1.605,0,0,0,1.6,1.6Z" fill="#7a279f" fill-rule="evenodd"/>
          <path id="Path_103493" data-name="Path 103493" d="M7977.06,3958.719a1.6,1.6,0,1,0,0-3.209,1.6,1.6,0,0,0,0,3.209Z" fill="#7a279f" fill-rule="evenodd"/>
          <path id="Path_103494" data-name="Path 103494" d="M7947.641,3948.69a1.2,1.2,0,1,0-1.2-1.2,1.2,1.2,0,0,0,1.2,1.2Z" fill="#7a279f" fill-rule="evenodd"/>
          <path id="Path_103495" data-name="Path 103495" d="M7953.491,3944.177a1.2,1.2,0,1,0-1.2-1.2,1.227,1.227,0,0,0,1.2,1.2Z" fill="#7a279f" fill-rule="evenodd"/>
          <path id="Path_103496" data-name="Path 103496" d="M7945.936,3966.542a1.6,1.6,0,1,0-1.6-1.6,1.626,1.626,0,0,0,1.6,1.6Z" fill="#7a279f" fill-rule="evenodd"/>
          <path id="Path_103497" data-name="Path 103497" d="M7983.479,3948.69a1.628,1.628,0,0,0,1.6-1.6,1.605,1.605,0,0,0-1.6-1.6,1.584,1.584,0,0,0-1.6,1.6,1.605,1.605,0,0,0,1.6,1.6Z" fill="#7a279f" fill-rule="evenodd"/>
          <path id="Path_103498" data-name="Path 103498" d="M7972.614,3964.7a1.2,1.2,0,1,0-1.2-1.2,1.2,1.2,0,0,0,1.2,1.2Z" fill="#7a279f" fill-rule="evenodd"/>
          <path id="Path_103499" data-name="Path 103499" d="M7959.308,3966.876a1.22,1.22,0,1,0-1.2-1.236,1.227,1.227,0,0,0,1.2,1.236Z" fill="#7a279f" fill-rule="evenodd"/>
          <path id="Path_103500" data-name="Path 103500" d="M7995.247,3951.364a1.2,1.2,0,1,0-1.2-1.2,1.2,1.2,0,0,0,1.2,1.2Z" fill="#7a279f" fill-rule="evenodd"/>
          <path id="Path_103501" data-name="Path 103501" d="M7991.77,3940.466a1.605,1.605,0,0,0,1.6-1.6,1.628,1.628,0,0,0-1.6-1.6,1.605,1.605,0,0,0-1.6,1.6,1.584,1.584,0,0,0,1.6,1.6Z" fill="#7a279f" fill-rule="evenodd"/>
          <path id="Path_103502" data-name="Path 103502" d="M7991.77,3948.89a1.627,1.627,0,0,0,1.6-1.6,1.605,1.605,0,0,0-1.6-1.6,1.584,1.584,0,0,0-1.6,1.6,1.6,1.6,0,0,0,1.6,1.6Z" fill="#7a279f" fill-rule="evenodd"/>
          <path id="Path_103503" data-name="Path 103503" d="M8017.646,3940.466a1.605,1.605,0,0,0,1.6-1.6,1.628,1.628,0,0,0-1.6-1.6,1.605,1.605,0,0,0-1.6,1.6,1.584,1.584,0,0,0,1.6,1.6Z" fill="#7a279f" fill-rule="evenodd"/>
          <path id="Path_103504" data-name="Path 103504" d="M8017.646,3948.89a1.627,1.627,0,0,0,1.6-1.6,1.605,1.605,0,0,0-1.6-1.6,1.584,1.584,0,0,0-1.6,1.6,1.6,1.6,0,0,0,1.6,1.6Z" fill="#7a279f" fill-rule="evenodd"/>
          <path id="Path_103505" data-name="Path 103505" d="M8054.654,3938.226a1.627,1.627,0,0,0,1.6-1.6,1.6,1.6,0,1,0-3.209,0,1.627,1.627,0,0,0,1.6,1.6Z" fill="#7a279f" fill-rule="evenodd"/>
          <path id="Path_103506" data-name="Path 103506" d="M8048.8,3947.821a1.588,1.588,0,1,0,0-3.176,1.588,1.588,0,1,0,0,3.176Z" fill="#7a279f" fill-rule="evenodd"/>
          <path id="Path_103507" data-name="Path 103507" d="M8025.235,3952.367a1.6,1.6,0,1,0,0-3.209,1.6,1.6,0,1,0,0,3.209Z" fill="#7a279f" fill-rule="evenodd"/>
          <path id="Path_103508" data-name="Path 103508" d="M8025.235,3938.226a1.605,1.605,0,0,0,1.6-1.6,1.584,1.584,0,0,0-1.6-1.6,1.606,1.606,0,0,0-1.6,1.6,1.628,1.628,0,0,0,1.6,1.6Z" fill="#7a279f" fill-rule="evenodd"/>
          <path id="Path_103509" data-name="Path 103509" d="M8054.654,3947.453a1.221,1.221,0,1,0-1.2-1.237,1.227,1.227,0,0,0,1.2,1.237Z" fill="#7a279f" fill-rule="evenodd"/>
          <path id="Path_103510" data-name="Path 103510" d="M8048.8,3951.966a1.2,1.2,0,1,0-1.2-1.2,1.2,1.2,0,0,0,1.2,1.2Z" fill="#7a279f" fill-rule="evenodd"/>
          <path id="Path_103511" data-name="Path 103511" d="M8078.224,3852.775a1.571,1.571,0,1,0-1.6-1.571,1.6,1.6,0,0,0,1.6,1.571Z" fill="#7a279f" fill-rule="evenodd"/>
          <path id="Path_103512" data-name="Path 103512" d="M8151.4,3836.962a1.571,1.571,0,1,0,0-3.142,1.571,1.571,0,1,0,0,3.142Z" fill="#7a279f" fill-rule="evenodd"/>
          <path id="Path_103513" data-name="Path 103513" d="M8151.4,3927.127a1.572,1.572,0,1,0,0-3.143,1.572,1.572,0,1,0,0,3.143Z" fill="#7a279f" fill-rule="evenodd"/>
          <path id="Path_103514" data-name="Path 103514" d="M8078.224,3911.28a1.6,1.6,0,0,0,1.6-1.571,1.6,1.6,0,0,0-3.209,0,1.6,1.6,0,0,0,1.6,1.571Z" fill="#7a279f" fill-rule="evenodd"/>
          <path id="Path_103515" data-name="Path 103515" d="M8078.224,3880.456a1.187,1.187,0,1,0-1.2-1.17,1.192,1.192,0,0,0,1.2,1.17Z" fill="#7a279f" fill-rule="evenodd"/>
          <path id="Path_103516" data-name="Path 103516" d="M8178.618,3881.66a1.187,1.187,0,1,0-1.2-1.2,1.2,1.2,0,0,0,1.2,1.2Z" fill="#7a279f" fill-rule="evenodd"/>
          <path id="Path_103517" data-name="Path 103517" d="M8166.717,3856.486a1.187,1.187,0,1,0-1.2-1.17,1.192,1.192,0,0,0,1.2,1.17Z" fill="#7a279f" fill-rule="evenodd"/>
          <path id="Path_103518" data-name="Path 103518" d="M8171.3,3900.883a1.187,1.187,0,1,0-1.2-1.17,1.223,1.223,0,0,0,1.2,1.17Z" fill="#7a279f" fill-rule="evenodd"/>
          <path id="Path_103519" data-name="Path 103519" d="M8155.25,3918.836a1.187,1.187,0,1,0-1.2-1.171,1.192,1.192,0,0,0,1.2,1.171Z" fill="#7a279f" fill-rule="evenodd"/>
          <path id="Path_103520" data-name="Path 103520" d="M8155.316,3844.518a1.171,1.171,0,1,0-1.2-1.17,1.192,1.192,0,0,0,1.2,1.17Z" fill="#7a279f" fill-rule="evenodd"/>
          <path id="Path_103521" data-name="Path 103521" d="M8127.869,3841.643a1.192,1.192,0,0,0,1.2-1.171,1.2,1.2,0,0,0-2.407,0,1.192,1.192,0,0,0,1.2,1.171Z" fill="#7a279f" fill-rule="evenodd"/>
          <path id="Path_103522" data-name="Path 103522" d="M8127.669,3921.61a1.187,1.187,0,1,0-1.2-1.2,1.2,1.2,0,0,0,1.2,1.2Z" fill="#7a279f" fill-rule="evenodd"/>
          <path id="Path_103523" data-name="Path 103523" d="M8078.224,3891.957a1.187,1.187,0,1,0-1.2-1.2,1.2,1.2,0,0,0,1.2,1.2Z" fill="#7a279f" fill-rule="evenodd"/>
          <path id="Path_103524" data-name="Path 103524" d="M8078.224,3862.671a1.191,1.191,0,0,0,1.2-1.17,1.2,1.2,0,0,0-2.407,0,1.192,1.192,0,0,0,1.2,1.17Z" fill="#7a279f" fill-rule="evenodd"/>
          <path id="Path_103525" data-name="Path 103525" d="M8043.054,3956.747a1.221,1.221,0,1,0-1.2-1.237,1.228,1.228,0,0,0,1.2,1.237Z" fill="#7a279f" fill-rule="evenodd"/>
          <path id="Path_103526" data-name="Path 103526" d="M8057.9,3956.981a1.627,1.627,0,0,0,1.6-1.6,1.6,1.6,0,0,0-1.6-1.6,1.584,1.584,0,0,0-1.6,1.6,1.605,1.605,0,0,0,1.6,1.6Z" fill="#7a279f" fill-rule="evenodd"/>
          <path id="Path_103527" data-name="Path 103527" d="M8069.465,3982.623a1.2,1.2,0,1,0-1.2-1.2,1.2,1.2,0,0,0,1.2,1.2Z" fill="#7a279f" fill-rule="evenodd"/>
          <path id="Path_103528" data-name="Path 103528" d="M8071.47,4003.852a1.2,1.2,0,1,0-1.2-1.2,1.2,1.2,0,0,0,1.2,1.2Z" fill="#7a279f" fill-rule="evenodd"/>
          <path id="Path_103529" data-name="Path 103529" d="M7945.468,4004.086a1.2,1.2,0,1,0-1.2-1.2,1.2,1.2,0,0,0,1.2,1.2Z" fill="#7a279f" fill-rule="evenodd"/>
          <path id="Path_103530" data-name="Path 103530" d="M7945.936,4065.934a1.6,1.6,0,0,0,1.6-1.6,1.6,1.6,0,1,0-3.209,0,1.6,1.6,0,0,0,1.6,1.6Z" fill="#7a279f" fill-rule="evenodd"/>
          <path id="Path_103531" data-name="Path 103531" d="M7983.479,4083.786a1.605,1.605,0,0,0,1.6-1.6,1.627,1.627,0,0,0-1.6-1.6,1.6,1.6,0,0,0-1.6,1.6,1.584,1.584,0,0,0,1.6,1.6Z" fill="#7a279f" fill-rule="evenodd"/>
          <path id="Path_103532" data-name="Path 103532" d="M7972.614,4066.97a1.2,1.2,0,1,0-1.2-1.2,1.2,1.2,0,0,0,1.2,1.2Z" fill="#7a279f" fill-rule="evenodd"/>
          <path id="Path_103533" data-name="Path 103533" d="M7959.308,4064.83a1.2,1.2,0,1,0-1.2-1.2,1.2,1.2,0,0,0,1.2,1.2Z" fill="#7a279f" fill-rule="evenodd"/>
          <path id="Path_103534" data-name="Path 103534" d="M7995.247,4080.309a1.2,1.2,0,1,0-1.2-1.2,1.2,1.2,0,0,0,1.2,1.2Z" fill="#7a279f" fill-rule="evenodd"/>
          <path id="Path_103535" data-name="Path 103535" d="M8043.054,4074.96a1.2,1.2,0,1,0-1.2-1.2,1.2,1.2,0,0,0,1.2,1.2Z" fill="#7a279f" fill-rule="evenodd"/>
          <path id="Path_103536" data-name="Path 103536" d="M8057.9,4075.5a1.6,1.6,0,0,0,1.6-1.605,1.626,1.626,0,0,0-1.6-1.6,1.6,1.6,0,0,0-1.6,1.6,1.584,1.584,0,0,0,1.6,1.605Z" fill="#7a279f" fill-rule="evenodd"/>
          <path id="Path_103537" data-name="Path 103537" d="M8069.465,4049.051a1.2,1.2,0,1,0-1.2-1.2,1.2,1.2,0,0,0,1.2,1.2Z" fill="#7a279f" fill-rule="evenodd"/>
          <path id="Path_103538" data-name="Path 103538" d="M8071.47,4027.855a1.22,1.22,0,1,0-1.2-1.237,1.227,1.227,0,0,0,1.2,1.237Z" fill="#7a279f" fill-rule="evenodd"/>
          <path id="Path_103539" data-name="Path 103539" d="M7945.468,4027.588a1.2,1.2,0,1,0-1.2-1.2,1.2,1.2,0,0,0,1.2,1.2Z" fill="#7a279f" fill-rule="evenodd"/>
          <path id="Path_103540" data-name="Path 103540" d="M8163.574,4059.448a1.185,1.185,0,0,0,1.17-1.17,1.17,1.17,0,1,0-2.34,0,1.185,1.185,0,0,0,1.17,1.17Z" fill="#7a279f" fill-rule="evenodd"/>
          <path id="Path_103541" data-name="Path 103541" d="M8167.185,4052.661a1.17,1.17,0,1,0-1.171-1.17,1.184,1.184,0,0,0,1.171,1.17Z" fill="#7a279f" fill-rule="evenodd"/>
          <path id="Path_103542" data-name="Path 103542" d="M8203.157,4063.627a1.163,1.163,0,0,0,1.17-1.17,1.17,1.17,0,0,0-2.34,0,1.163,1.163,0,0,0,1.17,1.17Z" fill="#7a279f" fill-rule="evenodd"/>
          <path id="Path_103543" data-name="Path 103543" d="M8203.157,4073.69a1.17,1.17,0,1,0-1.17-1.17,1.185,1.185,0,0,0,1.17,1.17Z" fill="#7a279f" fill-rule="evenodd"/>
          <path id="Path_103544" data-name="Path 103544" d="M8186.909,4074.592a1.163,1.163,0,0,0,1.17-1.17,1.17,1.17,0,1,0-2.34,0,1.163,1.163,0,0,0,1.17,1.17Z" fill="#7a279f" fill-rule="evenodd"/>
          <path id="Path_103545" data-name="Path 103545" d="M8163.574,4067.839a1.17,1.17,0,1,0-1.17-1.17,1.185,1.185,0,0,0,1.17,1.17Z" fill="#7a279f" fill-rule="evenodd"/>
          <path id="Path_103546" data-name="Path 103546" d="M8166.85,4077.668a1.185,1.185,0,0,0,1.17-1.17,1.17,1.17,0,1,0-2.34,0,1.184,1.184,0,0,0,1.17,1.17Z" fill="#7a279f" fill-rule="evenodd"/>
          <path id="Path_103547" data-name="Path 103547" d="M8240.633,4077.668a1.162,1.162,0,0,0,1.17-1.17,1.142,1.142,0,0,0-1.17-1.17,1.163,1.163,0,0,0-1.17,1.17,1.185,1.185,0,0,0,1.17,1.17Z" fill="#7a279f" fill-rule="evenodd"/>
          <path id="Path_103548" data-name="Path 103548" d="M8242.739,4067.839a1.17,1.17,0,1,0-1.17-1.17,1.185,1.185,0,0,0,1.17,1.17Z" fill="#7a279f" fill-rule="evenodd"/>
          <path id="Path_103549" data-name="Path 103549" d="M8250.83,4059.448a1.185,1.185,0,0,0,1.17-1.17,1.163,1.163,0,0,0-1.17-1.17,1.142,1.142,0,0,0-1.17,1.17,1.162,1.162,0,0,0,1.17,1.17Z" fill="#7a279f" fill-rule="evenodd"/>
          <path id="Path_103550" data-name="Path 103550" d="M8247.219,4052.661a1.17,1.17,0,0,0,0-2.34,1.17,1.17,0,0,0,0,2.34Z" fill="#7a279f" fill-rule="evenodd"/>
          <path id="Path_103551" data-name="Path 103551" d="M8207.2,4056.64a1.185,1.185,0,0,0,1.17-1.17,1.17,1.17,0,0,0-2.34,0,1.185,1.185,0,0,0,1.17,1.17Z" fill="#7a279f" fill-rule="evenodd"/>
          <path id="Path_103552" data-name="Path 103552" d="M8219.471,4074.726a1.17,1.17,0,1,0-1.17-1.17,1.184,1.184,0,0,0,1.17,1.17Z" fill="#7a279f" fill-rule="evenodd"/>
          <path id="Path_103553" data-name="Path 103553" d="M8227.829,4062.791a1.17,1.17,0,1,0-1.17-1.17,1.185,1.185,0,0,0,1.17,1.17Z" fill="#7a279f" fill-rule="evenodd"/>
          <path id="Path_103554" data-name="Path 103554" d="M8225.288,4055.7a1.171,1.171,0,1,0-1.17-1.17,1.184,1.184,0,0,0,1.17,1.17Z" fill="#7a279f" fill-rule="evenodd"/>
          <path id="Path_103555" data-name="Path 103555" d="M8189.751,4055.771a1.171,1.171,0,1,0-1.17-1.171,1.184,1.184,0,0,0,1.17,1.171Z" fill="#7a279f" fill-rule="evenodd"/>
          <path id="Path_103556" data-name="Path 103556" d="M8169.826,4060.685a1.17,1.17,0,1,0-1.17-1.17,1.185,1.185,0,0,0,1.17,1.17Z" fill="#7a279f" fill-rule="evenodd"/>
          <path id="Path_103557" data-name="Path 103557" d="M8181.059,4064.83a1.17,1.17,0,0,0,0-2.34,1.17,1.17,0,1,0,0,2.34Z" fill="#7a279f" fill-rule="evenodd"/>
          <path id="Path_103558" data-name="Path 103558" d="M8117,3817.572a1.154,1.154,0,1,0-1.17-1.17,1.163,1.163,0,0,0,1.17,1.17Z" fill="#7a279f" fill-rule="evenodd"/>
          <path id="Path_103559" data-name="Path 103559" d="M8120.615,3810.819a1.17,1.17,0,1,0-1.17-1.17,1.185,1.185,0,0,0,1.17,1.17Z" fill="#7a279f" fill-rule="evenodd"/>
          <path id="Path_103560" data-name="Path 103560" d="M8156.587,3821.784a1.17,1.17,0,1,0-1.17-1.17,1.184,1.184,0,0,0,1.17,1.17Z" fill="#7a279f" fill-rule="evenodd"/>
          <path id="Path_103561" data-name="Path 103561" d="M8156.587,3831.847a1.17,1.17,0,1,0-1.17-1.17,1.184,1.184,0,0,0,1.17,1.17Z" fill="#7a279f" fill-rule="evenodd"/>
          <path id="Path_103562" data-name="Path 103562" d="M8140.339,3832.75a1.17,1.17,0,0,0,0-2.34,1.17,1.17,0,0,0,0,2.34Z" fill="#7a279f" fill-rule="evenodd"/>
          <path id="Path_103563" data-name="Path 103563" d="M8117,3826a1.171,1.171,0,1,0-1.17-1.17A1.185,1.185,0,0,0,8117,3826Z" fill="#7a279f" fill-rule="evenodd"/>
          <path id="Path_103564" data-name="Path 103564" d="M8120.28,3835.825a1.183,1.183,0,0,0,1.17-1.17,1.17,1.17,0,0,0-2.34,0,1.184,1.184,0,0,0,1.17,1.17Z" fill="#7a279f" fill-rule="evenodd"/>
          <path id="Path_103565" data-name="Path 103565" d="M8194.063,3835.825a1.183,1.183,0,0,0,1.17-1.17,1.17,1.17,0,0,0-2.341,0,1.184,1.184,0,0,0,1.171,1.17Z" fill="#7a279f" fill-rule="evenodd"/>
          <path id="Path_103566" data-name="Path 103566" d="M8196.17,3826a1.171,1.171,0,1,0-1.171-1.17,1.185,1.185,0,0,0,1.171,1.17Z" fill="#7a279f" fill-rule="evenodd"/>
          <path id="Path_103567" data-name="Path 103567" d="M8204.227,3817.572a1.154,1.154,0,1,0,0-2.307,1.154,1.154,0,1,0,0,2.307Z" fill="#7a279f" fill-rule="evenodd"/>
          <path id="Path_103568" data-name="Path 103568" d="M8200.649,3810.819a1.17,1.17,0,1,0-1.171-1.17,1.156,1.156,0,0,0,1.171,1.17Z" fill="#7a279f" fill-rule="evenodd"/>
          <path id="Path_103569" data-name="Path 103569" d="M8160.632,3814.764a1.154,1.154,0,1,0,0-2.307,1.154,1.154,0,1,0,0,2.307Z" fill="#7a279f" fill-rule="evenodd"/>
          <path id="Path_103570" data-name="Path 103570" d="M8172.9,3832.883a1.17,1.17,0,0,0,0-2.34,1.17,1.17,0,0,0,0,2.34Z" fill="#7a279f" fill-rule="evenodd"/>
          <path id="Path_103571" data-name="Path 103571" d="M8181.259,3820.948a1.17,1.17,0,1,0-1.17-1.17,1.184,1.184,0,0,0,1.17,1.17Z" fill="#7a279f" fill-rule="evenodd"/>
          <path id="Path_103572" data-name="Path 103572" d="M8178.718,3813.861a1.17,1.17,0,1,0-1.17-1.17,1.184,1.184,0,0,0,1.17,1.17Z" fill="#7a279f" fill-rule="evenodd"/>
          <path id="Path_103573" data-name="Path 103573" d="M8143.181,3813.928a1.185,1.185,0,0,0,1.17-1.17,1.163,1.163,0,0,0-1.17-1.17,1.142,1.142,0,0,0-1.17,1.17,1.162,1.162,0,0,0,1.17,1.17Z" fill="#7a279f" fill-rule="evenodd"/>
          <path id="Path_103574" data-name="Path 103574" d="M8123.256,3818.842a1.17,1.17,0,1,0-1.17-1.17,1.184,1.184,0,0,0,1.17,1.17Z" fill="#7a279f" fill-rule="evenodd"/>
          <path id="Path_103575" data-name="Path 103575" d="M8134.489,3822.988a1.17,1.17,0,1,0,0-2.34,1.17,1.17,0,0,0,0,2.34Z" fill="#7a279f" fill-rule="evenodd"/>
          <path id="Path_103576" data-name="Path 103576" d="M8049.317,4010.177l3.51,2.675-83.5-.033" fill="#cbeaff" stroke="#2898e2" stroke-linecap="round" stroke-linejoin="round" stroke-width="1"/>
          <line id="Line_192" data-name="Line 192" x2="126.194" transform="translate(7945.155 4014.621)" fill="#cbeaff" stroke="#2898e2" stroke-linecap="round" stroke-linejoin="round" stroke-width="0.75" stroke-dasharray="2"/>
          <path id="Path_103577" data-name="Path 103577" d="M8071.27,4016.255a1.628,1.628,0,0,0,1.6-1.6,1.605,1.605,0,0,0-1.6-1.6,1.584,1.584,0,0,0-1.6,1.6,1.605,1.605,0,0,0,1.6,1.6Z" fill="#7a279f" fill-rule="evenodd"/>
          <path id="Path_103578" data-name="Path 103578" d="M7945.334,4016.255a1.628,1.628,0,0,0,1.6-1.6,1.605,1.605,0,0,0-1.6-1.6,1.584,1.584,0,0,0-1.6,1.6,1.605,1.605,0,0,0,1.6,1.6Z" fill="#7a279f" fill-rule="evenodd"/>
        </g>
      </g>
      <g id="Group_53645" data-name="Group 53645">
        <line id="Line_193" data-name="Line 193" y2="282.871" transform="translate(7913.396 3809.178)" fill="#ffe8e8"/>
        <rect id="Rectangle_5256" data-name="Rectangle 5256" width="3.436" height="282.871" transform="translate(7911.678 3809.178)" fill="#e863c9"/>
      </g>
      <text id="Orillo_de_la_tela" data-name="Orillo de la tela" transform="translate(8342.514 4095.536)" fill="#12263f" font-size="16" font-family="Roboto-Bold, Roboto" font-weight="700"><tspan x="0" y="0">Orillo de la tela</tspan></text>
      <path id="Path_103579" data-name="Path 103579" d="M8307.466,4090.306c4.265,1.5,9.567,4.095,12.872,6.882l-2.684-7.051L8320.1,4083A45.063,45.063,0,0,1,8307.466,4090.306Z" fill="#2898e2"/>
      <g id="Group_53646" data-name="Group 53646">
        <line id="Line_194" data-name="Line 194" x2="22.749" transform="translate(8313.728 4090.244)" fill="#2898e2"/>
        <rect id="Rectangle_5257" data-name="Rectangle 5257" width="22.749" height="3.191" transform="translate(8313.728 4088.649)" fill="#2898e2"/>
      </g>
      <text id="Orillo_de_la_tela-2" data-name="Orillo de la tela" transform="translate(8342.514 3808.536)" fill="#12263f" font-size="16" font-family="Roboto-Bold, Roboto" font-weight="700"><tspan x="0" y="0">Orillo de la tela</tspan></text>
      <path id="Path_103580" data-name="Path 103580" d="M8307.466,3803.306c4.265,1.5,9.567,4.095,12.872,6.882l-2.684-7.051L8320.1,3796A45.063,45.063,0,0,1,8307.466,3803.306Z" fill="#2898e2"/>
      <g id="Group_53647" data-name="Group 53647">
        <line id="Line_195" data-name="Line 195" x2="22.749" transform="translate(8313.728 3803.244)" fill="#2898e2"/>
        <rect id="Rectangle_5258" data-name="Rectangle 5258" width="22.749" height="3.191" transform="translate(8313.728 3801.649)" fill="#2898e2"/>
      </g>
      <path id="Path_103581" data-name="Path 103581" d="M8298.21,4108.079c-4.591-1.616-10.3-4.409-13.857-7.41l2.89,7.592-2.635,7.686C8288.064,4112.828,8293.676,4109.847,8298.21,4108.079Z" fill="#e863c9"/>
      <g id="Group_53648" data-name="Group 53648">
        <line id="Line_196" data-name="Line 196" x1="359.589" transform="translate(7931.88 4108.145)" fill="#ffe8e8"/>
        <rect id="Rectangle_5259" data-name="Rectangle 5259" width="359.589" height="3.436" transform="translate(7931.88 4106.427)" fill="#e863c9"/>
      </g>
      <rect id="Rectangle_5260" data-name="Rectangle 5260" width="324" height="50" transform="translate(8341.71 3995.639)" fill="#cbeaff" stroke="#2898e2" stroke-linecap="round" stroke-linejoin="round" stroke-width="1"/>
      <rect id="Rectangle_5261" data-name="Rectangle 5261" width="167.276" height="85.949" transform="translate(7719.433 3907.639)" fill="none" stroke="#12263f" stroke-linecap="round" stroke-linejoin="round" stroke-width="2"/>
      <text id="Hilo_de_tela_-_sentido_de_hilo_de_urdimbre_Metros_de_tela:_consumo_largo_de_trazo" data-name="Hilo de tela - sentido de hilo de urdimbre
Metros de tela: consumo, largo de trazo" transform="translate(8357.607 4015.715)" fill="#12263f" font-size="16" font-family="Roboto-Bold, Roboto" font-weight="700"><tspan x="0" y="0">Hilo de tela - sentido de hilo de urdimbre</tspan><tspan x="0" y="19.2">Metros de tela: consumo, largo de trazo</tspan></text>
    </g>
  </g>
</svg>
