<svg xmlns="http://www.w3.org/2000/svg" width="1088" height="360" viewBox="0 0 1088 360">
  <g id="t6-i9" transform="translate(-7648.571 -4174.397)">
    <rect id="Rectangle_5262" data-name="Rectangle 5262" width="1088" height="360" transform="translate(7648.571 4174.397)" fill="#fff4d3"/>
    <g id="Group_53659" data-name="Group 53659">
      <text id="Lomo_o_doblez_de_tela" data-name="Lomo o doblez de tela" transform="translate(8383.619 4494.536)" fill="#12263f" font-size="16" font-family="Roboto-Bold, Roboto" font-weight="700"><tspan x="0" y="0">Lomo o doblez de tela</tspan></text>
      <path id="Path_103582" data-name="Path 103582" d="M8348.571,4489.306c4.264,1.5,9.566,4.095,12.871,6.882l-2.685-7.051,2.448-7.139A45.064,45.064,0,0,1,8348.571,4489.306Z" fill="#2898e2"/>
      <g id="Group_53651" data-name="Group 53651">
        <line id="Line_197" data-name="Line 197" x2="22.749" transform="translate(8354.833 4489.244)" fill="#2898e2"/>
        <rect id="Rectangle_5263" data-name="Rectangle 5263" width="22.749" height="3.191" transform="translate(8354.833 4487.648)" fill="#2898e2"/>
      </g>
      <text id="Orillo_de_la_tela" data-name="Orillo de la tela" transform="translate(8383.619 4207.536)" fill="#12263f" font-size="16" font-family="Roboto-Bold, Roboto" font-weight="700"><tspan x="0" y="0">Orillo de la tela</tspan></text>
      <path id="Path_103583" data-name="Path 103583" d="M8348.571,4202.306c4.264,1.5,9.566,4.095,12.871,6.882l-2.685-7.051,2.448-7.139A45.064,45.064,0,0,1,8348.571,4202.306Z" fill="#2898e2"/>
      <g id="Group_53652" data-name="Group 53652">
        <line id="Line_198" data-name="Line 198" x2="22.749" transform="translate(8354.833 4202.244)" fill="#2898e2"/>
        <rect id="Rectangle_5264" data-name="Rectangle 5264" width="22.749" height="3.191" transform="translate(8354.833 4200.648)" fill="#2898e2"/>
      </g>
      <rect id="Rectangle_5265" data-name="Rectangle 5265" width="324" height="50" transform="translate(8382.604 4394.714)" fill="#cbeaff" stroke="#2898e2" stroke-linecap="round" stroke-linejoin="round" stroke-width="1"/>
      <text id="Hilo_de_tela_-_sentido_de_hilo_de_urdimbre_Metros_de_tela:_consumo_largo_de_trazo" data-name="Hilo de tela - sentido de hilo de urdimbre
Metros de tela: consumo, largo de trazo" transform="translate(8398.651 4414.79)" fill="#12263f" font-size="16" font-family="Roboto-Bold, Roboto" font-weight="700"><tspan x="0" y="0">Hilo de tela - sentido de hilo de urdimbre</tspan><tspan x="0" y="19.2">Metros de tela: consumo, largo de trazo</tspan></text>
      <text id="Mitad_ancho_de_tela_sentido_de_hilo_trama" data-name="Mitad ancho
de tela sentido
de hilo trama" transform="translate(7762.178 4335.089)" fill="#12263f" font-size="16" font-family="Roboto-Bold, Roboto" font-weight="700"><tspan x="-44.563" y="0">Mitad ancho</tspan><tspan x="-53.027" y="19.2">de tela sentido</tspan><tspan x="-47.066" y="38.4">de hilo trama</tspan></text>
      <g id="Group_53654" data-name="Group 53654">
        <path id="Path_103584" data-name="Path 103584" d="M7872.434,4201.437c-1.616,4.59-4.409,10.3-7.409,13.857l7.591-2.89,7.686,2.636C7877.184,4211.582,7874.2,4205.971,7872.434,4201.437Z" fill="#e863c9"/>
        <g id="Group_53653" data-name="Group 53653">
          <line id="Line_199" data-name="Line 199" y2="282.871" transform="translate(7872.5 4208.178)" fill="#ffe8e8"/>
          <rect id="Rectangle_5266" data-name="Rectangle 5266" width="3.436" height="282.871" transform="translate(7870.783 4208.178)" fill="#e863c9"/>
        </g>
      </g>
      <g id="Group_53656" data-name="Group 53656">
        <path id="Path_103585" data-name="Path 103585" d="M8336.314,4507.079c-4.591-1.616-10.3-4.409-13.856-7.41l2.889,7.592-2.635,7.686C8326.169,4511.828,8331.781,4508.847,8336.314,4507.079Z" fill="#e863c9"/>
        <g id="Group_53655" data-name="Group 53655">
          <line id="Line_200" data-name="Line 200" x1="438.589" transform="translate(7890.985 4507.145)" fill="#ffe8e8"/>
          <rect id="Rectangle_5267" data-name="Rectangle 5267" width="438.589" height="3.436" transform="translate(7890.985 4505.427)" fill="#e863c9"/>
        </g>
      </g>
      <rect id="Rectangle_5268" data-name="Rectangle 5268" width="167.276" height="85.949" transform="translate(7678.538 4306.639)" fill="none" stroke="#12263f" stroke-linecap="round" stroke-linejoin="round" stroke-width="2"/>
      <g id="Group_53658" data-name="Group 53658">
        <rect id="Rectangle_5269" data-name="Rectangle 5269" width="442.902" height="289.117" transform="translate(7892.989 4200.214)" fill="#fff" stroke="#ffd54f" stroke-miterlimit="10" stroke-width="3"/>
        <g id="Group_53657" data-name="Group 53657">
          <path id="Path_103586" data-name="Path 103586" d="M7920.03,4267.457c0,.192,5.363,27.579-19.008,35l18.769,51.805s46.012-22.024,69.76,12.5c0,0,37.346-4.453,72.824-4.453a619.17,619.17,0,0,1,69.377,4.357s-1.149-15.8,7.086-27.866c8.235-12.017,21.067-23.748,21.067-71.579Z" fill="#cbeaff" stroke="#2898e2" stroke-linecap="round" stroke-linejoin="round" stroke-width="1"/>
          <path id="Path_103587" data-name="Path 103587" d="M7897.335,4484.877h242.748s3.974-32.271-2.681-57.934-25.185-32.127-24.036-51.47c0,0-102.317,5.841-142.2-11.252,0,0-.67,21.881-21.546,29.159-20.923,7.277-50.368,2.537-50.368,2.537Z" fill="#cbeaff" stroke="#2898e2" stroke-linecap="round" stroke-linejoin="round" stroke-width="1"/>
          <path id="Path_103588" data-name="Path 103588" d="M8328.057,4369.344v-47.209l-140-28.967s-1.58,18.673-18.05,30.4-33.851,28.009-33.851,49.267c0,21.211,17.38,37.49,33.851,49.22s18.05,30.4,18.05,30.4l140-28.967Z" fill="#cbeaff" stroke="#2898e2" stroke-linecap="round" stroke-linejoin="round" stroke-width="1"/>
          <path id="Path_103589" data-name="Path 103589" d="M8063.859,4213.019l7.948,29.445-50.656,15.178s-1.436-19.918-32.941-19.918-32.941,19.918-32.941,19.918l-50.656-15.178,7.9-29.445Z" fill="#cbeaff" stroke="#2898e2" stroke-linecap="round" stroke-linejoin="round" stroke-width="1"/>
          <path id="Path_103590" data-name="Path 103590" d="M7948.518,4239.113l-8.475-4.261h97.578" fill="none" stroke="#2898e2" stroke-linecap="round" stroke-linejoin="round" stroke-width="1"/>
          <line id="Line_201" data-name="Line 201" y1="24.706" transform="translate(7988.21 4213.019)" fill="#cbeaff" stroke="#2898e2" stroke-linecap="round" stroke-linejoin="round" stroke-width="0.75" stroke-dasharray="2"/>
          <path id="Path_103591" data-name="Path 103591" d="M8102.546,4315.768l8.475,4.261H7955.987" fill="none" stroke="#2898e2" stroke-linecap="round" stroke-linejoin="round" stroke-width="1"/>
          <path id="Path_103592" data-name="Path 103592" d="M8145.637,4227.765c35.814,0,67.318,9.816,67.318,9.816l7.9-20.11s-49.221-6.511-75.218-6.511c-25.951,0-75.218,6.511-75.218,6.511l7.948,20.11s31.5-9.816,67.27-9.816Z" fill="#cbeaff" stroke="#2898e2" stroke-linecap="round" stroke-linejoin="round" stroke-width="1"/>
          <line id="Line_202" data-name="Line 202" y2="16.806" transform="translate(8145.637 4210.96)" fill="#cbeaff" stroke="#2898e2" stroke-linecap="round" stroke-linejoin="round" stroke-width="0.75" stroke-dasharray="2"/>
          <path id="Path_103593" data-name="Path 103593" d="M8110.925,4227.43l-8.475-4.261h87" fill="none" stroke="#2898e2" stroke-linecap="round" stroke-linejoin="round" stroke-width="1"/>
          <path id="Path_103594" data-name="Path 103594" d="M8161.485,4237.485h48.933l7.612,26.381-7.612,26.381h-48.933Z" fill="#cbeaff" stroke="#2898e2" stroke-linecap="round" stroke-linejoin="round" stroke-width="1"/>
          <path id="Path_103595" data-name="Path 103595" d="M8179.583,4377.1l-8.475-4.261h123.336" fill="none" stroke="#2898e2" stroke-linecap="round" stroke-linejoin="round" stroke-width="1"/>
          <rect id="Rectangle_5270" data-name="Rectangle 5270" width="48.597" height="14.747" transform="translate(8273.188 4437.429)" fill="#cbeaff" stroke="#2898e2" stroke-linecap="round" stroke-linejoin="round" stroke-width="1"/>
          <path id="Path_103596" data-name="Path 103596" d="M8234.692,4476.259c17.906,0,48.215-2.538,58.844-5.076,10.581-2.537,22.934-5.7,22.934-5.7s-.287-8.236-12.975-9.672c-12.64-1.436-14.892,7.421-68.8,7.421s-56.114-8.857-68.8-7.421c-12.64,1.436-12.975,9.672-12.975,9.672s12.352,3.16,22.982,5.7c10.581,2.538,40.936,5.076,58.8,5.076Z" fill="#cbeaff" stroke="#2898e2" stroke-linecap="round" stroke-linejoin="round" stroke-width="1"/>
          <line id="Line_203" data-name="Line 203" y2="13.023" transform="translate(8234.692 4463.235)" fill="#cbeaff" stroke="#2898e2" stroke-linecap="round" stroke-linejoin="round" stroke-width="0.75" stroke-dasharray="2"/>
          <path id="Path_103597" data-name="Path 103597" d="M8196.916,4471.087l-8.475-4.261h92.167" fill="none" stroke="#2898e2" stroke-linecap="round" stroke-linejoin="round" stroke-width="1"/>
          <path id="Path_103598" data-name="Path 103598" d="M8289.705,4447.579l-8.475-4.261h31.84" fill="#cbeaff" stroke="#2898e2" stroke-linecap="round" stroke-linejoin="round" stroke-width="1"/>
          <path id="Path_103599" data-name="Path 103599" d="M7909.209,4361.109h13.311v-6.416h41.846V4379.4h-55.157Z" fill="#cbeaff" stroke="#2898e2" stroke-linecap="round" stroke-linejoin="round" stroke-width="1"/>
          <path id="Path_103600" data-name="Path 103600" d="M7923.286,4368.817l-3.831-1.963h35" fill="#cbeaff" stroke="#2898e2" stroke-linecap="round" stroke-linejoin="round" stroke-width="1"/>
          <path id="Path_103601" data-name="Path 103601" d="M8227.941,4259.174h90.875v21.259a11.577,11.577,0,0,1-11.539,11.539h-67.8a11.576,11.576,0,0,1-11.539-11.539Z" fill="#cbeaff" stroke="#2898e2" stroke-linecap="round" stroke-linejoin="round" stroke-width="1"/>
          <path id="Path_103602" data-name="Path 103602" d="M8225.547,4255.392h90.923v-21.211a11.626,11.626,0,0,0-11.587-11.586h-67.749a11.626,11.626,0,0,0-11.587,11.586Z" fill="#cbeaff" stroke="#2898e2" stroke-linecap="round" stroke-linejoin="round" stroke-width="1"/>
          <path id="Path_103603" data-name="Path 103603" d="M8177.62,4265.83l-6.033-3.064h34.377" fill="none" stroke="#2898e2" stroke-linecap="round" stroke-linejoin="round" stroke-width="1"/>
          <path id="Path_103604" data-name="Path 103604" d="M8249.583,4241.65l-6.081-3.064h54.008" fill="none" stroke="#2898e2" stroke-linecap="round" stroke-linejoin="round" stroke-width="1"/>
          <path id="Path_103605" data-name="Path 103605" d="M8270.314,4270.187l3.064-6.033v21.689" fill="none" stroke="#2898e2" stroke-linecap="round" stroke-linejoin="round" stroke-width="1"/>
          <path id="Path_103606" data-name="Path 103606" d="M7912.513,4215.317a2.33,2.33,0,0,0,2.3-2.3,2.3,2.3,0,1,0-4.6,0,2.33,2.33,0,0,0,2.3,2.3Z" fill="#7a279f" fill-rule="evenodd"/>
          <path id="Path_103607" data-name="Path 103607" d="M7904.613,4244.763a2.331,2.331,0,0,0,2.3-2.3,2.3,2.3,0,0,0-2.3-2.3,2.269,2.269,0,0,0-2.3,2.3,2.3,2.3,0,0,0,2.3,2.3Z" fill="#7a279f" fill-rule="evenodd"/>
          <path id="Path_103608" data-name="Path 103608" d="M7955.269,4259.94a2.3,2.3,0,0,0,2.3-2.3,2.329,2.329,0,0,0-2.3-2.3,2.3,2.3,0,0,0-2.3,2.3,2.269,2.269,0,0,0,2.3,2.3Z" fill="#7a279f" fill-rule="evenodd"/>
          <path id="Path_103609" data-name="Path 103609" d="M7988.21,4240.023a2.33,2.33,0,0,0,2.3-2.3,2.3,2.3,0,0,0-2.3-2.3,2.269,2.269,0,0,0-2.3,2.3,2.3,2.3,0,0,0,2.3,2.3Z" fill="#7a279f" fill-rule="evenodd"/>
          <path id="Path_103610" data-name="Path 103610" d="M7988.21,4215.317a2.329,2.329,0,0,0,2.3-2.3,2.3,2.3,0,0,0-2.3-2.3,2.269,2.269,0,0,0-2.3,2.3,2.3,2.3,0,0,0,2.3,2.3Z" fill="#7a279f" fill-rule="evenodd"/>
          <path id="Path_103611" data-name="Path 103611" d="M8021.151,4259.94a2.3,2.3,0,0,0,2.3-2.3,2.33,2.33,0,0,0-2.3-2.3,2.3,2.3,0,0,0-2.3,2.3,2.268,2.268,0,0,0,2.3,2.3Z" fill="#7a279f" fill-rule="evenodd"/>
          <path id="Path_103612" data-name="Path 103612" d="M8071.807,4244.763a2.331,2.331,0,0,0,2.3-2.3,2.3,2.3,0,0,0-2.3-2.3,2.269,2.269,0,0,0-2.3,2.3,2.3,2.3,0,0,0,2.3,2.3Z" fill="#7a279f" fill-rule="evenodd"/>
          <path id="Path_103613" data-name="Path 103613" d="M8063.859,4215.317a2.3,2.3,0,0,0,2.3-2.3,2.269,2.269,0,0,0-2.3-2.3,2.3,2.3,0,0,0-2.3,2.3,2.329,2.329,0,0,0,2.3,2.3Z" fill="#7a279f" fill-rule="evenodd"/>
          <path id="Path_103614" data-name="Path 103614" d="M7920.03,4269.708a2.275,2.275,0,1,0-2.3-2.251,2.258,2.258,0,0,0,2.3,2.251Z" fill="#7a279f" fill-rule="evenodd"/>
          <path id="Path_103615" data-name="Path 103615" d="M7901.022,4304.755a2.3,2.3,0,0,0,2.3-2.3,2.329,2.329,0,0,0-2.3-2.3,2.3,2.3,0,0,0-2.3,2.3,2.268,2.268,0,0,0,2.3,2.3Z" fill="#7a279f" fill-rule="evenodd"/>
          <path id="Path_103616" data-name="Path 103616" d="M7919.791,4356.561a2.33,2.33,0,0,0,2.3-2.3,2.3,2.3,0,0,0-2.3-2.3,2.269,2.269,0,0,0-2.3,2.3,2.3,2.3,0,0,0,2.3,2.3Z" fill="#7a279f" fill-rule="evenodd"/>
          <path id="Path_103617" data-name="Path 103617" d="M7989.551,4369.057a2.3,2.3,0,1,0,0-4.6,2.3,2.3,0,0,0,0,4.6Z" fill="#7a279f" fill-rule="evenodd"/>
          <path id="Path_103618" data-name="Path 103618" d="M8131.752,4368.961a2.3,2.3,0,0,0,2.3-2.3,2.329,2.329,0,0,0-2.3-2.3,2.3,2.3,0,0,0-2.3,2.3,2.268,2.268,0,0,0,2.3,2.3Z" fill="#7a279f" fill-rule="evenodd"/>
          <path id="Path_103619" data-name="Path 103619" d="M8159.9,4269.516a2.268,2.268,0,0,0,2.3-2.3,2.3,2.3,0,0,0-2.3-2.3,2.33,2.33,0,0,0-2.3,2.3,2.3,2.3,0,0,0,2.3,2.3Z" fill="#7a279f" fill-rule="evenodd"/>
          <path id="Path_103620" data-name="Path 103620" d="M7959.914,4249.981a2.33,2.33,0,0,0,2.3-2.3,2.3,2.3,0,1,0-4.6,0,2.33,2.33,0,0,0,2.3,2.3Z" fill="#7a279f" fill-rule="evenodd"/>
          <path id="Path_103621" data-name="Path 103621" d="M7909.976,4224.7a2.274,2.274,0,1,0-2.3-2.3,2.3,2.3,0,0,0,2.3,2.3Z" fill="#7a279f" fill-rule="evenodd"/>
          <path id="Path_103622" data-name="Path 103622" d="M7966.09,4244.236a1.645,1.645,0,0,0,1.628-1.628,1.6,1.6,0,1,0-3.208,0,1.636,1.636,0,0,0,1.58,1.628Z" fill="#7a279f" fill-rule="evenodd"/>
          <path id="Path_103623" data-name="Path 103623" d="M8016.507,4249.981a2.3,2.3,0,0,0,2.3-2.3,2.269,2.269,0,0,0-2.3-2.3,2.3,2.3,0,0,0-2.3,2.3,2.33,2.33,0,0,0,2.3,2.3Z" fill="#7a279f" fill-rule="evenodd"/>
          <path id="Path_103624" data-name="Path 103624" d="M8010.33,4244.236a1.645,1.645,0,0,0,1.628-1.628,1.628,1.628,0,0,0-3.256,0,1.645,1.645,0,0,0,1.628,1.628Z" fill="#7a279f" fill-rule="evenodd"/>
          <path id="Path_103625" data-name="Path 103625" d="M8066.493,4224.7a2.274,2.274,0,1,0-2.3-2.3,2.258,2.258,0,0,0,2.3,2.3Z" fill="#7a279f" fill-rule="evenodd"/>
          <path id="Path_103626" data-name="Path 103626" d="M8145.637,4213.258a2.3,2.3,0,0,0,0-4.6,2.3,2.3,0,1,0,0,4.6Z" fill="#7a279f" fill-rule="evenodd"/>
          <path id="Path_103627" data-name="Path 103627" d="M8145.637,4230.064a2.3,2.3,0,0,0,2.3-2.3,2.269,2.269,0,0,0-2.3-2.3,2.3,2.3,0,0,0-2.3,2.3,2.331,2.331,0,0,0,2.3,2.3Z" fill="#7a279f" fill-rule="evenodd"/>
          <path id="Path_103628" data-name="Path 103628" d="M8070.419,4219.77a2.3,2.3,0,0,0,2.3-2.3,2.269,2.269,0,0,0-2.3-2.3,2.3,2.3,0,0,0-2.3,2.3,2.33,2.33,0,0,0,2.3,2.3Z" fill="#7a279f" fill-rule="evenodd"/>
          <path id="Path_103629" data-name="Path 103629" d="M8078.367,4239.879a2.33,2.33,0,0,0,2.3-2.3,2.3,2.3,0,0,0-2.3-2.3,2.269,2.269,0,0,0-2.3,2.3,2.3,2.3,0,0,0,2.3,2.3Z" fill="#7a279f" fill-rule="evenodd"/>
          <path id="Path_103630" data-name="Path 103630" d="M8220.855,4219.77a2.3,2.3,0,0,0,2.3-2.3,2.269,2.269,0,0,0-2.3-2.3,2.3,2.3,0,0,0-2.3,2.3,2.331,2.331,0,0,0,2.3,2.3Z" fill="#7a279f" fill-rule="evenodd"/>
          <path id="Path_103631" data-name="Path 103631" d="M8212.955,4239.879a2.329,2.329,0,0,0,2.3-2.3,2.3,2.3,0,0,0-2.3-2.3,2.269,2.269,0,0,0-2.3,2.3,2.3,2.3,0,0,0,2.3,2.3Z" fill="#7a279f" fill-rule="evenodd"/>
          <path id="Path_103632" data-name="Path 103632" d="M8182.6,4214.886a1.724,1.724,0,1,0-1.724-1.724,1.717,1.717,0,0,0,1.724,1.724Z" fill="#7a279f" fill-rule="evenodd"/>
          <path id="Path_103633" data-name="Path 103633" d="M8175.945,4231.6a1.724,1.724,0,1,0-1.724-1.724,1.717,1.717,0,0,0,1.724,1.724Z" fill="#7a279f" fill-rule="evenodd"/>
          <path id="Path_103634" data-name="Path 103634" d="M8107.525,4214.886a1.724,1.724,0,1,0-1.723-1.724,1.717,1.717,0,0,0,1.723,1.724Z" fill="#7a279f" fill-rule="evenodd"/>
          <path id="Path_103635" data-name="Path 103635" d="M8115.617,4231.6a1.724,1.724,0,1,0-1.724-1.724,1.716,1.716,0,0,0,1.724,1.724Z" fill="#7a279f" fill-rule="evenodd"/>
          <path id="Path_103636" data-name="Path 103636" d="M8140.131,4229.537a1.724,1.724,0,1,0-1.724-1.724,1.717,1.717,0,0,0,1.724,1.724Z" fill="#7a279f" fill-rule="evenodd"/>
          <path id="Path_103637" data-name="Path 103637" d="M8151.143,4229.537a1.724,1.724,0,1,0-1.724-1.724,1.717,1.717,0,0,0,1.724,1.724Z" fill="#7a279f" fill-rule="evenodd"/>
          <path id="Path_103638" data-name="Path 103638" d="M8161.485,4239.783a2.3,2.3,0,0,0,2.3-2.3,2.33,2.33,0,0,0-2.3-2.3,2.3,2.3,0,0,0-2.3,2.3,2.268,2.268,0,0,0,2.3,2.3Z" fill="#7a279f" fill-rule="evenodd"/>
          <path id="Path_103639" data-name="Path 103639" d="M8210.418,4239.783a2.3,2.3,0,0,0,2.3-2.3,2.33,2.33,0,0,0-2.3-2.3,2.3,2.3,0,0,0-2.3,2.3,2.269,2.269,0,0,0,2.3,2.3Z" fill="#7a279f" fill-rule="evenodd"/>
          <path id="Path_103640" data-name="Path 103640" d="M8218.03,4266.165a2.259,2.259,0,0,0,2.251-2.3,2.275,2.275,0,1,0-2.251,2.3Z" fill="#7a279f" fill-rule="evenodd"/>
          <path id="Path_103641" data-name="Path 103641" d="M8210.418,4292.546a2.33,2.33,0,0,0,2.3-2.3,2.3,2.3,0,0,0-2.3-2.3,2.269,2.269,0,0,0-2.3,2.3,2.3,2.3,0,0,0,2.3,2.3Z" fill="#7a279f" fill-rule="evenodd"/>
          <path id="Path_103642" data-name="Path 103642" d="M8161.485,4292.546a2.33,2.33,0,0,0,2.3-2.3,2.3,2.3,0,0,0-2.3-2.3,2.268,2.268,0,0,0-2.3,2.3,2.3,2.3,0,0,0,2.3,2.3Z" fill="#7a279f" fill-rule="evenodd"/>
          <path id="Path_103643" data-name="Path 103643" d="M8168.906,4239.256a1.747,1.747,0,1,0-1.723-1.771,1.757,1.757,0,0,0,1.723,1.771Z" fill="#7a279f" fill-rule="evenodd"/>
          <path id="Path_103644" data-name="Path 103644" d="M8168.763,4291.972a1.724,1.724,0,1,0-1.724-1.724,1.717,1.717,0,0,0,1.724,1.724Z" fill="#7a279f" fill-rule="evenodd"/>
          <path id="Path_103645" data-name="Path 103645" d="M8159.57,4281.773a1.723,1.723,0,1,0-1.724-1.723,1.717,1.717,0,0,0,1.724,1.723Z" fill="#7a279f" fill-rule="evenodd"/>
          <path id="Path_103646" data-name="Path 103646" d="M8154.3,4313.134a1.723,1.723,0,1,0-1.724-1.724,1.716,1.716,0,0,0,1.724,1.724Z" fill="#7a279f" fill-rule="evenodd"/>
          <path id="Path_103647" data-name="Path 103647" d="M8188.058,4295.467a2.3,2.3,0,0,0,0-4.6,2.3,2.3,0,1,0,0,4.6Z" fill="#7a279f" fill-rule="evenodd"/>
          <path id="Path_103648" data-name="Path 103648" d="M8328.057,4324.434a2.3,2.3,0,0,0,2.3-2.3,2.3,2.3,0,0,0-4.6,0,2.3,2.3,0,0,0,2.3,2.3Z" fill="#7a279f" fill-rule="evenodd"/>
          <path id="Path_103649" data-name="Path 103649" d="M8328.057,4425.794a2.33,2.33,0,0,0,2.3-2.3,2.3,2.3,0,1,0-4.6,0,2.329,2.329,0,0,0,2.3,2.3Z" fill="#7a279f" fill-rule="evenodd"/>
          <path id="Path_103650" data-name="Path 103650" d="M8328.057,4375.138a2.331,2.331,0,0,0,2.3-2.3,2.3,2.3,0,0,0-4.6,0,2.331,2.331,0,0,0,2.3,2.3Z" fill="#7a279f" fill-rule="evenodd"/>
          <path id="Path_103651" data-name="Path 103651" d="M8188.058,4454.761a2.269,2.269,0,0,0,2.3-2.3,2.3,2.3,0,0,0-2.3-2.3,2.331,2.331,0,0,0-2.3,2.3,2.3,2.3,0,0,0,2.3,2.3Z" fill="#7a279f" fill-rule="evenodd"/>
          <path id="Path_103652" data-name="Path 103652" d="M8150.329,4342.293a1.724,1.724,0,1,0-1.723-1.724,1.717,1.717,0,0,0,1.723,1.724Z" fill="#7a279f" fill-rule="evenodd"/>
          <path id="Path_103653" data-name="Path 103653" d="M8137.4,4364.748a1.748,1.748,0,1,0-1.724-1.772,1.758,1.758,0,0,0,1.724,1.772Z" fill="#7a279f" fill-rule="evenodd"/>
          <path id="Path_103654" data-name="Path 103654" d="M8141.567,4394.672a1.723,1.723,0,1,0-1.723-1.723,1.716,1.716,0,0,0,1.723,1.723Z" fill="#7a279f" fill-rule="evenodd"/>
          <path id="Path_103655" data-name="Path 103655" d="M8162.826,4418.373a1.724,1.724,0,1,0-1.724-1.724,1.716,1.716,0,0,0,1.724,1.724Z" fill="#7a279f" fill-rule="evenodd"/>
          <path id="Path_103656" data-name="Path 103656" d="M8321.785,4439.727a2.3,2.3,0,0,0,0-4.6,2.3,2.3,0,1,0,0,4.6Z" fill="#7a279f" fill-rule="evenodd"/>
          <path id="Path_103657" data-name="Path 103657" d="M8321.785,4454.474a2.3,2.3,0,0,0,2.3-2.3,2.269,2.269,0,0,0-2.3-2.3,2.3,2.3,0,0,0-2.3,2.3,2.331,2.331,0,0,0,2.3,2.3Z" fill="#7a279f" fill-rule="evenodd"/>
          <path id="Path_103658" data-name="Path 103658" d="M8273.187,4454.474a2.331,2.331,0,0,0,2.3-2.3,2.3,2.3,0,0,0-4.6,0,2.331,2.331,0,0,0,2.3,2.3Z" fill="#7a279f" fill-rule="evenodd"/>
          <path id="Path_103659" data-name="Path 103659" d="M8273.187,4439.727a2.3,2.3,0,1,0-2.3-2.3,2.331,2.331,0,0,0,2.3,2.3Z" fill="#7a279f" fill-rule="evenodd"/>
          <path id="Path_103660" data-name="Path 103660" d="M8231.484,4445.185a1.724,1.724,0,1,0-1.724-1.724,1.758,1.758,0,0,0,1.724,1.724Z" fill="#7a279f" fill-rule="evenodd"/>
          <path id="Path_103661" data-name="Path 103661" d="M8152.915,4467.784a2.33,2.33,0,0,0,2.3-2.3,2.3,2.3,0,0,0-4.6,0,2.331,2.331,0,0,0,2.3,2.3Z" fill="#7a279f" fill-rule="evenodd"/>
          <path id="Path_103662" data-name="Path 103662" d="M8234.692,4478.509a2.275,2.275,0,1,0,0-4.549,2.275,2.275,0,1,0,0,4.549Z" fill="#7a279f" fill-rule="evenodd"/>
          <path id="Path_103663" data-name="Path 103663" d="M8234.692,4465.534a2.27,2.27,0,0,0,2.3-2.3,2.3,2.3,0,0,0-2.3-2.3,2.331,2.331,0,0,0-2.3,2.3,2.3,2.3,0,0,0,2.3,2.3Z" fill="#7a279f" fill-rule="evenodd"/>
          <path id="Path_103664" data-name="Path 103664" d="M8316.47,4467.784a2.3,2.3,0,0,0,2.3-2.3,2.268,2.268,0,0,0-2.3-2.3,2.3,2.3,0,0,0-2.3,2.3,2.33,2.33,0,0,0,2.3,2.3Z" fill="#7a279f" fill-rule="evenodd"/>
          <path id="Path_103665" data-name="Path 103665" d="M8203.284,4463.666a1.748,1.748,0,1,0-1.725-1.771,1.757,1.757,0,0,0,1.725,1.771Z" fill="#7a279f" fill-rule="evenodd"/>
          <path id="Path_103666" data-name="Path 103666" d="M8202.948,4476.4a1.723,1.723,0,1,0-1.724-1.723,1.716,1.716,0,0,0,1.724,1.723Z" fill="#7a279f" fill-rule="evenodd"/>
          <path id="Path_103667" data-name="Path 103667" d="M8165.89,4457.538a1.724,1.724,0,1,0-1.724-1.724,1.717,1.717,0,0,0,1.724,1.724Z" fill="#7a279f" fill-rule="evenodd"/>
          <path id="Path_103668" data-name="Path 103668" d="M8162.874,4469.7a1.724,1.724,0,1,0-1.724-1.724,1.758,1.758,0,0,0,1.724,1.724Z" fill="#7a279f" fill-rule="evenodd"/>
          <path id="Path_103669" data-name="Path 103669" d="M8264.282,4463.81a1.724,1.724,0,1,0-1.725-1.724,1.716,1.716,0,0,0,1.725,1.724Z" fill="#7a279f" fill-rule="evenodd"/>
          <path id="Path_103670" data-name="Path 103670" d="M8265.622,4476.5a1.748,1.748,0,1,0-1.723-1.724,1.747,1.747,0,0,0,1.723,1.724Z" fill="#7a279f" fill-rule="evenodd"/>
          <path id="Path_103671" data-name="Path 103671" d="M8302.2,4457.442a1.748,1.748,0,1,0-1.725-1.724,1.747,1.747,0,0,0,1.725,1.724Z" fill="#7a279f" fill-rule="evenodd"/>
          <path id="Path_103672" data-name="Path 103672" d="M8305.027,4470.082a1.724,1.724,0,1,0-1.725-1.724,1.717,1.717,0,0,0,1.725,1.724Z" fill="#7a279f" fill-rule="evenodd"/>
          <path id="Path_103673" data-name="Path 103673" d="M8140.083,4487.175a2.268,2.268,0,0,0,2.3-2.3,2.274,2.274,0,1,0-4.548,0,2.258,2.258,0,0,0,2.25,2.3Z" fill="#7a279f" fill-rule="evenodd"/>
          <path id="Path_103674" data-name="Path 103674" d="M8141.184,4458.208a1.748,1.748,0,1,0-1.723-1.724,1.748,1.748,0,0,0,1.723,1.724Z" fill="#7a279f" fill-rule="evenodd"/>
          <path id="Path_103675" data-name="Path 103675" d="M8114.18,4385.623a1.748,1.748,0,1,0-1.723-1.771,1.757,1.757,0,0,0,1.723,1.771Z" fill="#7a279f" fill-rule="evenodd"/>
          <path id="Path_103676" data-name="Path 103676" d="M8113.366,4377.771a2.3,2.3,0,1,0,0-4.6,2.3,2.3,0,1,0,0,4.6Z" fill="#7a279f" fill-rule="evenodd"/>
          <path id="Path_103677" data-name="Path 103677" d="M7971.165,4366.519a2.3,2.3,0,0,0,2.3-2.3,2.33,2.33,0,0,0-2.3-2.3,2.3,2.3,0,0,0-2.3,2.3,2.268,2.268,0,0,0,2.3,2.3Z" fill="#7a279f" fill-rule="evenodd"/>
          <path id="Path_103678" data-name="Path 103678" d="M7899.251,4398.215a2.33,2.33,0,0,0,2.3-2.3,2.3,2.3,0,0,0-4.6,0,2.33,2.33,0,0,0,2.3,2.3Z" fill="#7a279f" fill-rule="evenodd"/>
          <path id="Path_103679" data-name="Path 103679" d="M7897.335,4487.175a2.269,2.269,0,0,0,2.3-2.3,2.275,2.275,0,1,0-4.549,0,2.258,2.258,0,0,0,2.25,2.3Z" fill="#7a279f" fill-rule="evenodd"/>
          <path id="Path_103680" data-name="Path 103680" d="M7965.515,4382.846a1.724,1.724,0,1,0-1.723-1.723,1.716,1.716,0,0,0,1.723,1.723Z" fill="#7a279f" fill-rule="evenodd"/>
          <path id="Path_103681" data-name="Path 103681" d="M7926.3,4399.029a1.723,1.723,0,1,0-1.723-1.723,1.716,1.716,0,0,0,1.723,1.723Z" fill="#7a279f" fill-rule="evenodd"/>
          <path id="Path_103682" data-name="Path 103682" d="M7897.862,4475.253a1.724,1.724,0,1,0-1.771-1.724,1.748,1.748,0,0,0,1.771,1.724Z" fill="#7a279f" fill-rule="evenodd"/>
          <path id="Path_103683" data-name="Path 103683" d="M7964.366,4356.991a2.3,2.3,0,0,0,2.3-2.3,2.269,2.269,0,0,0-2.3-2.3,2.3,2.3,0,0,0-2.3,2.3,2.33,2.33,0,0,0,2.3,2.3Z" fill="#7a279f" fill-rule="evenodd"/>
          <path id="Path_103684" data-name="Path 103684" d="M7964.366,4381.7a2.3,2.3,0,0,0,2.3-2.3,2.268,2.268,0,0,0-2.3-2.3,2.3,2.3,0,0,0-2.3,2.3,2.33,2.33,0,0,0,2.3,2.3Z" fill="#7a279f" fill-rule="evenodd"/>
          <path id="Path_103685" data-name="Path 103685" d="M7922.52,4363.359a2.274,2.274,0,1,0,0-4.548,2.274,2.274,0,1,0,0,4.548Z" fill="#7a279f" fill-rule="evenodd"/>
          <path id="Path_103686" data-name="Path 103686" d="M7909.209,4363.359a2.274,2.274,0,1,0-2.3-2.25,2.258,2.258,0,0,0,2.3,2.25Z" fill="#7a279f" fill-rule="evenodd"/>
          <path id="Path_103687" data-name="Path 103687" d="M7909.209,4381.7a2.33,2.33,0,0,0,2.3-2.3,2.3,2.3,0,0,0-2.3-2.3,2.269,2.269,0,0,0-2.3,2.3,2.3,2.3,0,0,0,2.3,2.3Z" fill="#7a279f" fill-rule="evenodd"/>
          <path id="Path_103688" data-name="Path 103688" d="M7947.8,4349.139a1.724,1.724,0,1,0-1.724-1.723,1.717,1.717,0,0,0,1.724,1.723Z" fill="#7a279f" fill-rule="evenodd"/>
          <path id="Path_103689" data-name="Path 103689" d="M7972.6,4353.64a1.724,1.724,0,1,0-1.724-1.724,1.717,1.717,0,0,0,1.724,1.724Z" fill="#7a279f" fill-rule="evenodd"/>
          <path id="Path_103690" data-name="Path 103690" d="M8225.547,4257.69a2.3,2.3,0,1,0,0-4.6,2.3,2.3,0,0,0,0,4.6Z" fill="#7a279f" fill-rule="evenodd"/>
          <path id="Path_103691" data-name="Path 103691" d="M8316.47,4257.69a2.3,2.3,0,0,0,0-4.6,2.3,2.3,0,0,0,0,4.6Z" fill="#7a279f" fill-rule="evenodd"/>
          <path id="Path_103692" data-name="Path 103692" d="M8227.941,4261.472a2.3,2.3,0,0,0,2.3-2.3,2.331,2.331,0,0,0-2.3-2.3,2.3,2.3,0,0,0-2.3,2.3,2.27,2.27,0,0,0,2.3,2.3Z" fill="#7a279f" fill-rule="evenodd"/>
          <path id="Path_103693" data-name="Path 103693" d="M8318.816,4261.472a2.268,2.268,0,0,0,2.3-2.3,2.3,2.3,0,0,0-2.3-2.3,2.33,2.33,0,0,0-2.3,2.3,2.3,2.3,0,0,0,2.3,2.3Z" fill="#7a279f" fill-rule="evenodd"/>
          <path id="Path_103694" data-name="Path 103694" d="M8307.277,4294.27a2.3,2.3,0,0,0,0-4.6,2.3,2.3,0,1,0,0,4.6Z" fill="#7a279f" fill-rule="evenodd"/>
          <path id="Path_103695" data-name="Path 103695" d="M8239.48,4294.27a2.3,2.3,0,1,0,0-4.6,2.3,2.3,0,1,0,0,4.6Z" fill="#7a279f" fill-rule="evenodd"/>
          <path id="Path_103696" data-name="Path 103696" d="M8228.037,4283.784a1.757,1.757,0,0,0,1.724-1.771,1.724,1.724,0,1,0-3.447,0,1.758,1.758,0,0,0,1.724,1.771Z" fill="#7a279f" fill-rule="evenodd"/>
          <path id="Path_103697" data-name="Path 103697" d="M8225.739,4233.846a1.724,1.724,0,1,0-1.725-1.724,1.716,1.716,0,0,0,1.725,1.724Z" fill="#7a279f" fill-rule="evenodd"/>
          <path id="Path_103698" data-name="Path 103698" d="M8235.363,4224.462a1.723,1.723,0,1,0-1.725-1.724,1.716,1.716,0,0,0,1.725,1.724Z" fill="#7a279f" fill-rule="evenodd"/>
          <path id="Path_103699" data-name="Path 103699" d="M8304.883,4224.318a1.723,1.723,0,1,0-1.723-1.723,1.717,1.717,0,0,0,1.723,1.723Z" fill="#7a279f" fill-rule="evenodd"/>
          <path id="Path_103700" data-name="Path 103700" d="M8316.47,4235.9a1.724,1.724,0,1,0-1.771-1.724,1.748,1.748,0,0,0,1.771,1.724Z" fill="#7a279f" fill-rule="evenodd"/>
          <path id="Path_103701" data-name="Path 103701" d="M8318.816,4280.433a1.748,1.748,0,1,0-1.725-1.772,1.758,1.758,0,0,0,1.725,1.772Z" fill="#7a279f" fill-rule="evenodd"/>
        </g>
      </g>
    </g>
  </g>
</svg>
