<svg xmlns="http://www.w3.org/2000/svg" width="536" height="440.795" viewBox="0 0 536 440.795">
  <g id="banner-principal" transform="translate(0.002 0.004)">
    <g id="Capa_2" data-name="Capa 2" transform="translate(-0.002 -0.004)">
      <g id="Illustration">
        <path id="Path_101663" data-name="Path 101663" d="M1071.23,379s60.251,11.245,41.717,29.206S1072.669,383.852,1071.23,379Z" transform="translate(-616.478 -218.108)" fill="#744eb8"/>
        <path id="Path_101664" data-name="Path 101664" d="M1103,347.779s64.951-24.1,67.672-6.4S1113.316,350.738,1103,347.779Z" transform="translate(-634.761 -192.72)" fill="#744eb8"/>
        <path id="Path_101665" data-name="Path 101665" d="M1092.24,294.293s48.322-54.053,58.85-39.518S1102.993,291.8,1092.24,294.293Z" transform="translate(-628.569 -145.19)" fill="#744eb8"/>
        <path id="Path_101666" data-name="Path 101666" d="M1064.068,283.2s49.931-47.826,27.8-52.737S1063.8,277.861,1064.068,283.2Z" transform="translate(-612.351 -132.438)" fill="#744eb8"/>
        <path id="Path_101667" data-name="Path 101667" d="M1013.577,278.582s27.806-60.315,6.308-56.91S1011.467,273.912,1013.577,278.582Z" transform="translate(-579.923 -127.488)" fill="#744eb8"/>
        <path id="Path_101668" data-name="Path 101668" d="M985.19,365.216a1.819,1.819,0,0,0,.628,3.583l34.988-6.1a1.808,1.808,0,1,0-.624-3.562Z" transform="translate(-566.097 -206.655)" fill="#744eb8"/>
        <path id="Path_101669" data-name="Path 101669" d="M161.81,655.977a1.77,1.77,0,1,1-2.832,2.123l-34.746-46.2a1.774,1.774,0,0,1,2.844-2.122Z" transform="translate(-71.29 -350.504)" fill="#744eb8"/>
        <path id="Path_101670" data-name="Path 101670" d="M45.329,525.842S16.721,465,2.317,476.65,45.329,525.842,45.329,525.842Z" transform="translate(0.002 -273.45)" fill="#744eb8"/>
        <path id="Path_101671" data-name="Path 101671" d="M95.725,503.408s2.933-69.2-15.342-66.81S95.725,503.408,95.725,503.408Z" transform="translate(-43.127 -251.22)" fill="#744eb8"/>
        <path id="Path_101672" data-name="Path 101672" d="M54.778,602.9s-47.669-34.144-48.2-8.8S54.778,602.9,54.778,602.9Z" transform="translate(-3.78 -336.507)" fill="#744eb8"/>
        <path id="Path_101673" data-name="Path 101673" d="M94.418,660.483s-49.129-12.6-43.266,12.74,43.266-12.735,43.266-12.735Z" transform="translate(-29.157 -378.295)" fill="#744eb8"/>
        <path id="Path_101674" data-name="Path 101674" d="M163.63,595.457s16.132-53.064,32-35.472S163.63,595.457,163.63,595.457Z" transform="translate(-94.166 -320.205)" fill="#744eb8"/>
        <path id="Path_101675" data-name="Path 101675" d="M139.832,539.5s-.781-65.341,15.469-53.608S139.832,539.5,139.832,539.5Z" transform="translate(-80.467 -278.809)" fill="#744eb8"/>
        <path id="Path_101676" data-name="Path 101676" d="M145.332,702.956s-12.022,48.717-32.424,29.253S143.578,700.638,145.332,702.956Z" transform="translate(-62.211 -404.377)" fill="#a72bdb"/>
        <path id="Path_101677" data-name="Path 101677" d="M790.7,150.542s-38.206-42.583-43.538-19.082S786.128,151.752,790.7,150.542Z" transform="translate(-429.723 -71.581)" fill="#744eb8"/>
        <path id="Path_101678" data-name="Path 101678" d="M803.076,76.023S790.765,12.528,775.33,18.96,795.719,69.231,803.076,76.023Z" transform="translate(-443.992 -10.646)" fill="#744eb8"/>
        <path id="Path_101679" data-name="Path 101679" d="M853.818,66.128S873.46,1.356,856.759.019,850.587,56.343,853.818,66.128Z" transform="translate(-487.763 0.004)" fill="#744eb8"/>
        <path id="Path_101680" data-name="Path 101680" d="M872.85,112.14s13.894-63.032,28.553-47.77S877.235,109.758,872.85,112.14Z" transform="translate(-502.313 -35.671)" fill="#744eb8"/>
        <path id="Path_101681" data-name="Path 101681" d="M892.88,164.56S927.474,113.109,935.2,131.9,897.626,163.974,892.88,164.56Z" transform="translate(-513.84 -73.53)" fill="#744eb8"/>
        <path id="Path_101682" data-name="Path 101682" d="M874.536,206.8a1.7,1.7,0,1,1-3.163,1.24l-12.12-30.858a1.7,1.7,0,1,1,3.146-1.231Z" transform="translate(-494.379 -100.539)" fill="#744eb8"/>
        <path id="Path_101683" data-name="Path 101683" d="M124.607,499.9c-21.132,0-55.611-1.575-74.54-35.608s-2.882-98.351,62.3-98.351c0,0-15.571-78.9,66.759-108.077,0,0-1.112-80.785,90.133-107.805s150.757,47.015,161.052,73.768c0,0,98.466,35.659,98.466,138.328S426.86,499.9,344.623,499.9Z" transform="translate(-24.54 -82.993)" fill="#fff"/>
        <path id="Path_101684" data-name="Path 101684" d="M10.173,734.031a1.448,1.448,0,0,1-1.18,1.7A1.477,1.477,0,0,1,7.26,734.6c0-.072-4.827-23.17,7.1-45.78s34.513-33.494,34.577-33.536a1.5,1.5,0,0,1,1.987.633,1.418,1.418,0,0,1-.654,1.932c-.059.03-21.824,10.536-33.282,32.263S10.151,733.984,10.173,734.031Z" transform="translate(-3.622 -377.013)" fill="#fff"/>
        <path id="Path_101685" data-name="Path 101685" d="M236.251,434.159a1.5,1.5,0,0,1-1.957.717,1.414,1.414,0,0,1-.734-1.9c0-.038,6.567-14.48,31.537-27.169a1.486,1.486,0,0,1,1.987.611,1.409,1.409,0,0,1-.62,1.931c-24.044,12.213-30.191,25.764-30.213,25.8Z" transform="translate(-134.334 -233.439)" fill="#fff"/>
        <path id="Path_101686" data-name="Path 101686" d="M1069.395,358.2a1.418,1.418,0,0,1-.475-1.983,1.5,1.5,0,0,1,2.042-.458c.072.042,23.845,14.247,38.206,39.981a1.422,1.422,0,0,1-.6,1.949,1.5,1.5,0,0,1-2.008-.582c-14.009-25.046-37.1-38.864-37.175-38.907Z" transform="translate(-615.02 -204.604)" fill="#fff"/>
        <path id="Path_101687" data-name="Path 101687" d="M340.892,405.249a2.229,2.229,0,1,0-2.292-2.224A2.267,2.267,0,0,0,340.892,405.249Z" transform="translate(-194.859 -230.649)" fill="#fff"/>
        <path id="Path_101688" data-name="Path 101688" d="M1045.656,341.215a2.547,2.547,0,1,0-2.606-2.547A2.577,2.577,0,0,0,1045.656,341.215Z" transform="translate(-600.261 -193.432)" fill="#fff"/>
        <path id="Path_101689" data-name="Path 101689" d="M332.981,246.908a1.452,1.452,0,0,1-1.426,1.482A1.473,1.473,0,0,1,330.031,247c0-.106-1.409-33.77,23.981-64.182,25.314-30.327,63.193-41.369,63.3-41.4a1.473,1.473,0,0,1,1.838.959,1.422,1.422,0,0,1-.976,1.787c-.106.03-37.124,10.817-61.873,40.469C331.623,214.182,332.981,246.789,332.981,246.908Z" transform="translate(-189.92 -81.346)" fill="#fff"/>
        <path id="Path_101690" data-name="Path 101690" d="M566.135,132.519a2.229,2.229,0,1,0-2.305-2.229,2.267,2.267,0,0,0,2.305,2.229Z" transform="translate(-324.476 -73.697)" fill="#fff"/>
        <rect id="Rectangle_5126" data-name="Rectangle 5126" width="9.628" height="101.488" transform="translate(193.821 296.821)" fill="#d2bff4"/>
        <rect id="Rectangle_5127" data-name="Rectangle 5127" width="8.278" height="101.488" transform="translate(222.314 286.629)" fill="#d2bff4"/>
        <rect id="Rectangle_5128" data-name="Rectangle 5128" width="8.363" height="101.48" transform="translate(290.763 298.736)" fill="#d2bff4"/>
        <rect id="Rectangle_5129" data-name="Rectangle 5129" width="8.087" height="205.121" transform="translate(318.101 184.911)" fill="#d2bff4"/>
        <rect id="Rectangle_5130" data-name="Rectangle 5130" width="44.26" height="15.21" transform="translate(277.034 189.313)" fill="#d2bff4"/>
        <path id="Path_101691" data-name="Path 101691" d="M729.24,670.03h9.479v3.587l-8.049,5.247Z" transform="translate(-419.667 -385.592)" fill="#d2bff4"/>
        <rect id="Rectangle_5131" data-name="Rectangle 5131" width="36.776" height="16.115" transform="translate(193.821 286.629)" fill="#d2bff4"/>
        <path id="Path_101692" data-name="Path 101692" d="M825.039,878.545h95.409a6.344,6.344,0,0,0,5.633-4.33l1.511-5.005c.717-2.386-.65-4.33-3.023-4.33H829.161a6.326,6.326,0,0,0-5.633,4.33l-1.516,5.005C821.3,876.6,822.653,878.545,825.039,878.545Z" transform="translate(-472.947 -497.725)" fill="#d2bff4"/>
        <g id="Group_53297" data-name="Group 53297" transform="translate(425.322 271.47)">
          <path id="Path_101693" data-name="Path 101693" d="M1024.446,686.86s16.416-35.54.208-32.526S1022.45,684.317,1024.446,686.86Z" transform="translate(-1010.548 -647.925)" fill="#d2bff4"/>
          <path id="Path_101694" data-name="Path 101694" d="M1053.57,673.553s36.572-24.927,28.353-32.883S1055.837,667.092,1053.57,673.553Z" transform="translate(-1031.637 -639.482)" fill="#d2bff4"/>
          <path id="Path_101695" data-name="Path 101695" d="M1056.89,704.789s46.021-5.188,42.341-16.042S1062.162,700.111,1056.89,704.789Z" transform="translate(-1033.547 -666.134)" fill="#d2bff4"/>
          <path id="Path_101696" data-name="Path 101696" d="M1044.45,740.289s43.368-8.329,37.748,5.013S1047.129,742.4,1044.45,740.289Z" transform="translate(-1026.388 -696.017)" fill="#d2bff4"/>
          <path id="Path_101697" data-name="Path 101697" d="M1028.31,765.64s41.7,7.811,31.974,17.753S1029.961,768.463,1028.31,765.64Z" transform="translate(-1017.1 -712.084)" fill="#d2bff4"/>
          <path id="Path_101698" data-name="Path 101698" d="M1003.842,752.654a1.163,1.163,0,0,1-1.634-1.651l16.11-15.97a1.163,1.163,0,0,1,1.639,0,1.146,1.146,0,0,1,0,1.639Z" transform="translate(-1001.903 -694.276)" fill="#d2bff4"/>
        </g>
        <path id="Path_101699" data-name="Path 101699" d="M931.2,705.129l-37.824-34.177V579.63h-6.767v91.5l-37.629,34a2.208,2.208,0,0,0-.17,3.154,2.293,2.293,0,0,0,3.167.17l38.109-34.424L928.2,708.461a2.292,2.292,0,0,0,3.167-.17,2.186,2.186,0,0,0-.17-3.163Z" transform="translate(-488.143 -333.568)" fill="#185d7e"/>
        <path id="Path_101700" data-name="Path 101700" d="M882.153,286.23s-.115,9.259.743,17.706,2.662,25.8,2.373,32.828h0c1.617-3.129,3.2-5.986,4.513-8.6,0-.051.365-9.361-.964-15.762s-3.141-13.338-2.738-17.014c-1.3-3.078-2.649-6.181-3.927-9.152Z" transform="translate(-507.664 -164.72)" fill="#fec362"/>
        <path id="Path_101701" data-name="Path 101701" d="M468.05,379.169s11.216-18.831,18.543-25.271,11.661-9.144,33.622-12.973,28.82,6.211,31.371,8.915,22.694,35.341,29.291,55.713L565.9,417.646,561.456,419s-2.072.123-2.466,1,.395,7.556.395,7.556l-.709,7.675-58.315-.565s-8.592-19.528-11.462-32.586l-18.785-19.494Z" transform="translate(-269.356 -195.701)" fill="#36755b"/>
        <path id="Path_101702" data-name="Path 101702" d="M171.16,986.55H469.491c6.656,0,13.746-5.451,15.741-12.107l4.245-14.009c2-6.656-1.8-12.094-8.461-12.094H182.685c-6.652,0-13.741,5.438-15.749,12.094l-4.224,14.009C160.7,981.1,164.5,986.55,171.16,986.55Z" transform="translate(-93.329 -545.755)" fill="#d2bff4"/>
        <g id="Group_53298" data-name="Group 53298" transform="translate(29.71 333.431)">
          <path id="Path_101703" data-name="Path 101703" d="M106.457,842.069s-28.65-33.337-35.689-23.48S106.457,842.069,106.457,842.069Z" transform="translate(-69.985 -803.468)" fill="#d2bff4"/>
          <path id="Path_101704" data-name="Path 101704" d="M140.9,822.772s-9.615-41.428-20.033-37S140.9,822.772,140.9,822.772Z" transform="translate(-98.017 -785.44)" fill="#d2bff4"/>
          <path id="Path_101705" data-name="Path 101705" d="M126.373,887.925s-35.99-13.185-31.9,2.874S126.373,887.925,126.373,887.925Z" transform="translate(-83.89 -841.488)" fill="#d2bff4"/>
          <path id="Path_101706" data-name="Path 101706" d="M177.118,835.731s-11.2-38.525.348-34.25S177.118,835.731,177.118,835.731Z" transform="translate(-128.832 -794.481)" fill="#d2bff4"/>
          <path id="Path_101707" data-name="Path 101707" d="M192.854,895.108a1.2,1.2,0,1,1-1.448,1.915l-18.042-13.928a1.195,1.195,0,0,1,1.452-1.9Z" transform="translate(-129.209 -840.405)" fill="#d2bff4"/>
        </g>
        <g id="Group_53299" data-name="Group 53299" transform="translate(112.771 199.55)">
          <path id="Path_101708" data-name="Path 101708" d="M284.739,508.062s-11.789-26.32-18.059-21.425S284.739,508.062,284.739,508.062Z" transform="translate(-265.647 -479.253)" fill="#d2bff4"/>
          <path id="Path_101709" data-name="Path 101709" d="M306.54,498.845s1.8-29.644-6.049-28.761S306.54,498.845,306.54,498.845Z" transform="translate(-284.316 -470.064)" fill="#d2bff4"/>
          <path id="Path_101710" data-name="Path 101710" d="M288.155,541.2s-20.173-15.015-20.593-4.143S288.155,541.2,288.155,541.2Z" transform="translate(-266.745 -506.343)" fill="#d2bff4"/>
          <path id="Path_101711" data-name="Path 101711" d="M324.63,514.711s.174-28.018,7.06-22.86S324.63,514.711,324.63,514.711Z" transform="translate(-299.591 -482.238)" fill="#d2bff4"/>
          <path id="Path_101712" data-name="Path 101712" d="M327.685,556.444a1.1,1.1,0,1,1-1.774,1.274l-9.318-12.9a1.1,1.1,0,1,1,1.775-1.274Z" transform="translate(-294.818 -512.05)" fill="#d2bff4"/>
          <path id="Path_101713" data-name="Path 101713" d="M303.466,564.085s-19.867-5.026-17.469,5.2S303.466,564.085,303.466,564.085Z" transform="translate(-277.243 -523.461)" fill="#d2bff4"/>
        </g>
        <rect id="Rectangle_5132" data-name="Rectangle 5132" width="281.452" height="23.56" transform="translate(97.698 252.035)" fill="#d07353"/>
        <rect id="Rectangle_5133" data-name="Rectangle 5133" width="8.04" height="131.094" transform="translate(150.151 275.596)" fill="#d07353"/>
        <rect id="Rectangle_5134" data-name="Rectangle 5134" width="8.04" height="158.636" transform="translate(103.111 275.596)" fill="#d07353"/>
        <rect id="Rectangle_5135" data-name="Rectangle 5135" width="8.04" height="158.636" transform="translate(319.052 275.596)" fill="#d07353"/>
        <rect id="Rectangle_5136" data-name="Rectangle 5136" width="8.04" height="132.126" transform="translate(369.68 275.596)" fill="#d07353"/>
        <path id="Path_101714" data-name="Path 101714" d="M870.83,675.465,878.866,664V649.2H870.83Z" transform="translate(-501.15 -373.604)" fill="#ab5f44"/>
        <path id="Path_101715" data-name="Path 101715" d="M751.57,675.465,759.61,664V649.2h-8.04Z" transform="translate(-432.518 -373.604)" fill="#ab5f44"/>
        <path id="Path_101716" data-name="Path 101716" d="M353.7,675.465,361.74,664V649.2H353.7Z" transform="translate(-203.549 -373.604)" fill="#ab5f44"/>
        <path id="Path_101717" data-name="Path 101717" d="M242.9,675.465,250.936,664V649.2H242.9Z" transform="translate(-139.785 -373.604)" fill="#ab5f44"/>
        <path id="Path_101718" data-name="Path 101718" d="M485.324,473.888h23.467V439.015a6.864,6.864,0,0,0-6.847-6.835H400.234a8.783,8.783,0,0,0-8.762,8.749v47.21H384.71v12.608h45.211v-8.066h.4V460.194h55Z" transform="translate(-221.395 -248.712)" fill="#b96bc5"/>
        <path id="Path_101719" data-name="Path 101719" d="M494.572,499.49h23.467V488.079c-19.1-14.378-69.794-17.83-95.736,5.4s-21.179,32.866-21.179,32.866h38.036v-8.066h.4V485.8h55.013Z" transform="translate(-230.643 -274.314)" fill="#9c5aa6"/>
        <rect id="Rectangle_5137" data-name="Rectangle 5137" width="2.348" height="14.259" transform="translate(278.452 225.176)" fill="#f7ecbf"/>
        <rect id="Rectangle_5138" data-name="Rectangle 5138" width="6.389" height="28.493" transform="translate(163.689 204.273)" fill="#b96bc5"/>
        <rect id="Rectangle_5139" data-name="Rectangle 5139" width="3.243" height="28.493" transform="translate(166.834 204.273)" fill="#9c5aa6"/>
        <rect id="Rectangle_5140" data-name="Rectangle 5140" width="5.345" height="23.166" transform="translate(192.798 160.302)" fill="#93433a"/>
        <path id="Path_101720" data-name="Path 101720" d="M458.262,400.81h-5.345a.921.921,0,0,1-.917-.93V382.267a.921.921,0,0,1,.913-.917h5.345a.921.921,0,0,1,.913.917V399.88a.921.921,0,0,1-.913.917Z" transform="translate(-260.119 -219.46)" fill="#ffe095"/>
        <path id="Path_101721" data-name="Path 101721" d="M419.79,799.2s-11.059,4.3-25-.637-13.695-9.471-11.937-11.78,10.188-5.094,15.682-5.969a128.289,128.289,0,0,0-.4-20.614c-1.121-12.421-5.485-47.851-6.448-60.587s-1.83-41.471-1.83-41.471,5.489-6.4,10.9-8.974H518.884l-7.955,23.382a191.5,191.5,0,0,1-29.457,19.574s9.076,27.377,12.107,36.139,8.991,26.991,10.9,29.457,2.623,3.107,3.188,6.61,3.659,27.7,1.35,32.318-15.2,4.139-18.305,3.744-3.821-2.793-2.547-7.327,4.381-6.44,3.821-16.39-2.636-10.829-5.659-14.094-18.708-26.422-27.593-42.188-17.52-33.426-17.52-33.426-.072-6.525,7.242-19.341c0,0-21.166,6.44-30.96,11.7,0,0,6.206,2.547,6.368,23.076s-8.749,63.359-8.749,64.632,2.229,9.076,3.5,16.246a102.471,102.471,0,0,1,1.193,15.919Z" transform="translate(-219.843 -373.587)" fill="#08435f"/>
        <path id="Path_101722" data-name="Path 101722" d="M648.522,897.09a17.443,17.443,0,0,0,1.634,3.307c.65.849,1.167,1.482,1.575,2.084a117.815,117.815,0,0,1,1.384,13.826c0,5.081.242,14.523-2.033,16.594s-7.242,2.033-10.227,1.155-2.369-1.167-5.705-1.6c1.363-2.853,2.912-5.824,2.517-13.1-.289-5.141-.989-7.858-2-9.734h0a104.418,104.418,0,0,0,12.854-12.527Z" transform="translate(-365.52 -516.262)" fill="#f6925a"/>
        <path id="Path_101723" data-name="Path 101723" d="M394.27,943.9a53.012,53.012,0,0,1,11.322-3.26,112.778,112.778,0,0,0,.106-12.791h0a50.466,50.466,0,0,0,8.427-.038c5-.395,8.023-.951,8.023-.951,0,1.273,2.229,9.076,3.5,16.246.348,1.936.59,3.995.773,5.969C413.174,940.5,394.3,943.9,394.27,943.9Z" transform="translate(-226.896 -533.394)" fill="#f6925a"/>
        <path id="Path_101724" data-name="Path 101724" d="M360.14,470v11.462s-.085,4.067,2.789,5.57,8.834,2.309,8.915-1.588-.4-12.574-.4-12.574,1.808,1.949,3.744,1.227,1.757-3.693.242-5.68-5.3-4.623-8.435-4.623-6.792,1.817-6.847,6.211Z" transform="translate(-207.255 -266.903)" fill="#f6925a"/>
        <path id="Path_101725" data-name="Path 101725" d="M538.75,346.381c4.729-1.936,11.288-3.562,22.151-5.451a44.959,44.959,0,0,1,16.212-.229c-.229,3.49-2.819,20.075-18.967,20.075A19.327,19.327,0,0,1,538.75,346.381Z" transform="translate(-310.043 -195.707)" fill="#f6925a"/>
        <path id="Path_101726" data-name="Path 101726" d="M539.986,271.18a7.991,7.991,0,0,0,5.812,4.377c4.466.947,14.081-.425,20.529-8.915,0,0-1.889-.492-2.288-1.274a3.945,3.945,0,0,1-.081-3.43,51.712,51.712,0,0,0,5.413-11.818c1.346-5.026,2.793-14.009-3.74-19.816,0,0,4.3-2.708,4.3-7.726s-4.61-10.108-10.664-10.108-10.587,4.691-12.094,6.843-2.547,6.211-.166,7.968c0,0-6.767,3.26-10.579,7.713s-7.569,9.471-.484,15.524c0,0-.709,7.556,1.673,12.816s4.61,7.217,4.61,7.217S538.976,271.482,539.986,271.18Z" transform="translate(-306.129 -122.272)" fill="#d86b2c"/>
        <path id="Path_101727" data-name="Path 101727" d="M541.216,302.053s-.709,7.556,1.673,12.816,4.61,7.217,4.61,7.217c5.357,4.636,12.625,2.623,14.535.556s3.744-11.555,1.987-14.179-8.121-3.655-12.489-4.449-10.316-1.974-10.316-1.974Z" transform="translate(-311.405 -173.818)" fill="#f6925a"/>
        <path id="Path_101728" data-name="Path 101728" d="M691.234,578.05s.276,2.781,3.4,6.644h-13.3l6.041-6.24Z" transform="translate(-392.096 -332.658)" fill="none" stroke="#221f20" stroke-miterlimit="10" stroke-width="0.57"/>
        <path id="Path_101729" data-name="Path 101729" d="M700.51,493.312c1.745.662,3.4,3.922,3.175,8.545s-2.781,9.866-4.453,11.462-2.152,1.554-1.91,2.5,1.7,2.466-.123,5.451-7.93,9-13.487,10.524l-3.791-6.257s.768-2.284-.2-3.32-1.745.756-1.745.756h-1.91a27.272,27.272,0,0,1,0-5.285c.314-2.021,2.742-3.5,3.821-3.982s1.673-2.95,1.469-4.139-1.4-5.175.034-9.157,10-9.989,19.1-7.1Z" transform="translate(-388.988 -283.457)" fill="#f6925a"/>
        <path id="Path_101730" data-name="Path 101730" d="M704.942,535.181a.9.9,0,0,0-.34.662h0a17.928,17.928,0,0,0-6.907-4.054,15.83,15.83,0,0,0-9.025-.425,8.49,8.49,0,0,1,6.232-3.307c4.105-.208,8.1,3.247,10.04,7.132Z" transform="translate(-396.32 -303.883)" fill="#d86b2c"/>
        <path id="Path_101731" data-name="Path 101731" d="M564.485,261.043a50.6,50.6,0,0,0,4.886-10.952c1.358-5.018,2.793-14.009-3.74-19.816,0,0,4.3-2.708,4.3-7.726s-4.61-10.108-10.664-10.108-10.587,4.691-12.094,6.843-2.547,6.211-.166,7.968c0,0-6.767,3.26-10.579,7.713s-7.569,9.471-.484,15.524a14.4,14.4,0,0,0,8.8,2.768c5.379-.072,9.912-1.953,11.814-3.625s3.863-4.534,5.056-3.464,5.268,6.907,2.874,14.858Z" transform="translate(-306.129 -122.255)" fill="#0d2a4c"/>
        <rect id="Rectangle_5141" data-name="Rectangle 5141" width="28.171" height="12.625" transform="translate(150.707 417.736)" fill="#b96bc5"/>
        <path id="Path_101732" data-name="Path 101732" d="M431.4,992.151,421.36,984.03v12.621l10.035-1.791Z" transform="translate(-242.486 -566.294)" fill="#9c5aa6"/>
        <path id="Path_101733" data-name="Path 101733" d="M471,649.07s9.764,10.613,30.565,16.556c19.748,5.642,35.324,9.989,38.631,22.075l21.62-12.311-18.649-23.773-41.5-2.492Z" transform="translate(-271.053 -373.529)" fill="#06374f"/>
        <path id="Path_101734" data-name="Path 101734" d="M475.4,562.4l81.9.794s31.923,49.592,31.923,73.466-31.2,34.386-41.551,36.449-16,2.547-15.919-.157,9.386-17.664,9.386-28.341,1.274-18.938-15.113-24.027S483.2,609.122,472.058,594,465.848,567.613,475.4,562.4Z" transform="translate(-267.985 -323.652)" fill="#ffe095"/>
        <path id="Path_101735" data-name="Path 101735" d="M571.718,584.2c.144.229.276.458.424.7l-53.034,43.3c-14.009-4.513-29.372-10.7-37.408-21.115Z" transform="translate(-277.211 -336.198)" fill="#fec362"/>
        <path id="Path_101736" data-name="Path 101736" d="M682.974,748.6a37.8,37.8,0,0,1-10.532,11.576c-10.133,1.155-26.137,2.165-38.172-.964,2.059-4.992,3.9-10.613,3.9-15.355,0-3.222.119-6.232-.17-9h0Z" transform="translate(-365.013 -422.9)" fill="#fec362"/>
        <path id="Path_101737" data-name="Path 101737" d="M899.739,351.257h28.71s5.867-12.426,5.867-39.675-18.288-44.5-18.288-55.187,17.248-41.577,17.248-49.5-20.012-9.832-23.115-12.935-2.242-14.238-4.394-14.238H893.7c-2.165,0-1.3,11.135-4.406,14.238s-23.1,4.984-23.1,12.935,17.248,38.8,17.248,49.5-18.292,27.941-18.292,55.187,5.88,39.675,5.88,39.675Z" transform="translate(-497.881 -103.425)" fill="#08435f"/>
        <path id="Path_101738" data-name="Path 101738" d="M907.71,372.694h28.71s5.867-12.426,5.867-39.675S924,288.522,924,277.832s17.248-41.577,17.248-49.5c0-6.533-13.546-8.97-20.079-11.36h0c7.552,18.373,2.479,42.676-1.668,57.683s-3.439,23.467-5.175,45-11.211,31.414-21.043,39.751A161.047,161.047,0,0,0,879,372.694Z" transform="translate(-505.852 -124.862)" fill="#06374f"/>
        <path id="Path_101739" data-name="Path 101739" d="M945.311,417.34l3.052,3.923s12.816-8.749,18.5-22.385.8-24.97-6.036-32.934c-5.094-5.986-2.076-21.565.849-26.91s10.706-25.7,11.734-40.015a117.39,117.39,0,0,0-2.933-35.528c-2.072-8.461-4.746-19.061-5.094-30.1s.233-12.871.233-12.871c-.951-.3-1.876-.573-2.764-.849h0s.365,6.559.887,14.068,3.3,26.269,3.961,32.688,2,19.481.955,26.388-5,18.449-9.832,30.692-6.206,18.462-5.684,24.668,1.2,11.886,7.926,19.88,4.148,16.556,2.844,21.735-6.835,21.162-18.619,27.551Z" transform="translate(-544.001 -126.415)" fill="#ffe095"/>
        <path id="Path_101740" data-name="Path 101740" d="M455.4,412.693a5.828,5.828,0,0,1-3.4-1.316v5.531a.921.921,0,0,0,.913.917h5.345a.921.921,0,0,0,.917-.917V410.94A5.947,5.947,0,0,1,455.4,412.693Z" transform="translate(-260.119 -236.489)" fill="#fec362"/>
        <path id="Path_101741" data-name="Path 101741" d="M514.33,623.425a13.49,13.49,0,0,0-2.547-7.641,6.95,6.95,0,0,0-3.112-2.2,9.308,9.308,0,0,0-4.7-.144c-2.891.5-6.283,1.872-8.915-.14-2.19-1.7-2.972-4.708-3.893-7.166-.514-1.354-1.019-2.972-2.233-3.884-1.333-.981-3.23-.709-4.784-.654a45.818,45.818,0,0,0-9.225,1.074,18.572,18.572,0,0,0-7.217,3.315c.127.425.272.849.424,1.3a15.156,15.156,0,0,1,4.742-2.683,32.371,32.371,0,0,1,8.732-1.6c1.469-.1,2.942-.166,4.415-.178a3.265,3.265,0,0,1,2.335.59,5.293,5.293,0,0,1,1.146,1.936c1.053,2.5,1.7,5.281,3.354,7.476A6.962,6.962,0,0,0,495.9,615.2a8.556,8.556,0,0,0,4.462.263c2.853-.446,6.062-1.821,8.813-.263,2.212,1.273,3.192,3.846,3.634,6.219a28.832,28.832,0,0,1-.216,9.411,54.507,54.507,0,0,1-1.613,7.319l1.21.386c.454-1.537.849-3.09,1.159-4.67A40.191,40.191,0,0,0,514.33,623.425Z" transform="translate(-269.16 -346.165)" fill="#fff"/>
        <path id="Path_101742" data-name="Path 101742" d="M565.439,569.483a10.12,10.12,0,0,0,1.864,5.094,8.583,8.583,0,0,0,4.67,3.065,19.615,19.615,0,0,0,5.99.463,22.714,22.714,0,0,0,6.763-1.125c3.774-1.367,6.627-4.292,8.864-7.535,1.312-1.9,2.42-3.935,3.545-5.943H595.69c-.59,1.061-1.189,2.123-1.813,3.163-1.893,3.154-4.207,6.253-7.433,8.142a15.155,15.155,0,0,1-5.854,1.851,29,29,0,0,1-6.007.161,9.27,9.27,0,0,1-5.145-1.825,7.811,7.811,0,0,1-2.513-4.372,13,13,0,0,1,.743-7.42h-1.346A14.657,14.657,0,0,0,565.439,569.483Z" transform="translate(-325.376 -324.112)" fill="#fff"/>
        <path id="Path_101743" data-name="Path 101743" d="M661.662,607.776a14.65,14.65,0,0,0-2.029,4.916,21.951,21.951,0,0,1-1.673,5.544,10.839,10.839,0,0,1-2.827,3.265c-2.437,1.931-5.438,3.069-8.274,4.279-1.435.615-2.87,1.248-4.245,2a8.407,8.407,0,0,0-2.123,1.46,4.042,4.042,0,0,0-1.066,2.424c-.395,3.54,1.4,7.06,3.778,9.564,2.679,2.819,6.279,4.5,9.908,5.744,3.986,1.358,8.1,2.42,12.188,3.4a85.893,85.893,0,0,0,23.212,2.806q-.115-.624-.242-1.273a80.208,80.208,0,0,1-19.345-2.021c-4.126-.887-8.21-1.978-12.26-3.154-3.681-1.074-7.4-2.309-10.52-4.606a13.041,13.041,0,0,1-5.412-8.405,6.422,6.422,0,0,1,.072-2.577,3.414,3.414,0,0,1,1.724-1.872,35.288,35.288,0,0,1,4.075-2.021,51.6,51.6,0,0,0,8.172-3.952,12.455,12.455,0,0,0,5.349-7.191,49.238,49.238,0,0,1,1.469-5.565,12.574,12.574,0,0,1,2.632-3.956,19.682,19.682,0,0,1,3.4-2.776L667,602.69c-.679.45-1.346.921-1.982,1.435A16.491,16.491,0,0,0,661.662,607.776Z" transform="translate(-367.949 -346.838)" fill="#fff"/>
        <path id="Path_101744" data-name="Path 101744" d="M662.326,774.369a9.114,9.114,0,0,0-3.613-4.13c-1.893-1.057-4.114-1.023-6.215-.968a36.976,36.976,0,0,0-12.574,2.173c-.144.509-.293,1.019-.454,1.524a30.319,30.319,0,0,1,9.98-2.271,30.915,30.915,0,0,1,6.329-.076,6.44,6.44,0,0,1,4.521,2.789,14.727,14.727,0,0,1,2.186,9.993,16.744,16.744,0,0,1-1.142,4.419c.531-.221,1.066-.45,1.6-.692A17.236,17.236,0,0,0,662.326,774.369Z" transform="translate(-368.006 -442.69)" fill="#fff"/>
        <path id="Path_101745" data-name="Path 101745" d="M722.011,795a12.165,12.165,0,0,1-1.159,3.265c-.424.713-1.125,1.677-2.055,1.388-.785-.246-1.121.981-.34,1.227,1.745.548,3.133-1.1,3.77-2.522a14.432,14.432,0,0,0,1.346-6.075,9.781,9.781,0,0,0-.4-2.573c-.357.3-.713.6-1.078.9A10.438,10.438,0,0,1,722.011,795Z" transform="translate(-413.207 -454.466)" fill="#fff"/>
        <path id="Path_101746" data-name="Path 101746" d="M725.725,748.383c-3.541-1.741-7.756-3.26-11.674-1.842a5.285,5.285,0,0,0-2.377,1.528,4.474,4.474,0,0,0-.9,2.649,9.185,9.185,0,0,0,1.163,4.585c1.511,2.912,3.986,5.213,5.362,8.2a8.871,8.871,0,0,1,.62,1.936c.365-.3.722-.594,1.078-.9a21.812,21.812,0,0,0-3.821-6.605,20.07,20.07,0,0,1-2.509-4.041c-.594-1.409-1.044-3.4-.187-4.78A3.91,3.91,0,0,1,714.9,747.6a8.852,8.852,0,0,1,2.908-.335,16.558,16.558,0,0,1,5.888,1.575c1.7.747,3.32,1.63,4.941,2.522.153-.4.289-.811.424-1.227C727.975,749.534,726.867,748.961,725.725,748.383Z" transform="translate(-409.037 -429.301)" fill="#fff"/>
      </g>
    </g>
  </g>
</svg>
