<svg xmlns="http://www.w3.org/2000/svg" width="90.18" height="92.384" viewBox="0 0 90.18 92.384">
  <g id="t1-ic6" transform="translate(-8026.5 -1263.212)">
    <circle id="Ellipse_3968" data-name="Ellipse 3968" cx="45.09" cy="45.09" r="45.09" transform="translate(8026.5 1265.417)" fill="#7b1fa2"/>
    <g id="Group_53370" data-name="Group 53370" transform="translate(8035.356 1263.212)">
      <path id="Path_101854" data-name="Path 101854" d="M8125.926,1423.646a18.5,18.5,0,0,1,1.017-4.627,15.593,15.593,0,0,1,1.813-3.505,22.078,22.078,0,0,1,2.1-2.664l3.7,3.649a18.1,18.1,0,0,0-1.5,1.9,10.722,10.722,0,0,0-1.247,2.391,11.314,11.314,0,0,0-.56,2.178Z" transform="translate(-8116.521 -1385.366)" fill="#ebb610"/>
      <path id="Path_101855" data-name="Path 101855" d="M8129.008,1486l3.3,1.923a35.177,35.177,0,0,0,3.733,10.487c1.768,3.455,3.5,6.619,5.222,9.517.04.072.089.152.129.224q2.339,3.945,4.679,7.257l-1.216,1.979-3.178.792q-1.938-2.775-3.872-5.952c-1.024-1.662-2.052-3.435-3.083-5.28-1.091-1.953-2.177-4.007-3.285-6.169a40.943,40.943,0,0,1-4.217-11.759Z" transform="translate(-8117.58 -1445.081)" fill="#ebb610"/>
      <path id="Path_101856" data-name="Path 101856" d="M8102.108,1486.045c-2.426-4.675-7.089-11.795-12.214-13.128a3.089,3.089,0,0,0-.444-.091,6.8,6.8,0,0,0-5.088,1.094,10.912,10.912,0,0,0-1.024.712c-3.641,2.83-4.36,5.969-2.2,9.572a18.246,18.246,0,0,0,10.727,7.644l3.083,5.279c-5.81.731-14.447-3.9-18.245-10.261-3.549-5.9-2.3-11.859,3.456-16.336a15.191,15.191,0,0,1,3.967-2.266,11.107,11.107,0,0,1,5.325-.682,10.626,10.626,0,0,1,1.765.32c5.274,1.382,9.6,6.325,12.564,10.794.324.49.638.972.924,1.446Z" transform="translate(-8074.718 -1429.984)" fill="#ffd54f"/>
      <path id="Path_101857" data-name="Path 101857" d="M8138.8,1293.261c-5.265-4.84-7.573-10.9-5.154-13.536,1.228-1.335,3.43-1.529,5.991-.774l11.773-12.808a9.068,9.068,0,0,1,13.353,12.274l-11.774,12.808c.966,2.489.959,4.7-.269,6.034C8150.3,1299.891,8144.061,1298.1,8138.8,1293.261Z" transform="translate(-8122.037 -1263.212)" fill="#ea3065"/>
      <path id="Path_101858" data-name="Path 101858" d="M8314.266,1470.938c-2.953-1.159-5.331-6.232-5.593-12.419s1.684-11.441,4.529-12.845a1.239,1.239,0,0,1,1.643.515,4.625,4.625,0,0,0,2.03,1.7,9.757,9.757,0,0,0,4.865,1l15.026-.633a9.068,9.068,0,0,1,.762,18.12l-15.026.633a9.745,9.745,0,0,0-4.764,1.406,4.626,4.626,0,0,0-1.88,1.869A1.239,1.239,0,0,1,8314.266,1470.938Z" transform="translate(-8265.684 -1412.055)" fill="#ea3065"/>
      <g id="Group_53369" data-name="Group 53369" transform="translate(30.058 3.442)">
        <path id="Path_101859" data-name="Path 101859" d="M8247.947,1285.6a1.3,1.3,0,0,1-1.83.077,3.695,3.695,0,0,0-5.5.236,1.3,1.3,0,1,1-1.9-1.758,6.246,6.246,0,0,1,9.152-.385A1.3,1.3,0,0,1,8247.947,1285.6Z" transform="translate(-8238.374 -1281.954)" fill="#f54e7e"/>
        <path id="Path_101860" data-name="Path 101860" d="M8397.066,1484.108a1.294,1.294,0,0,1-1.162.849l-9.061.382a1.3,1.3,0,0,1-.108-2.589l9.061-.381a1.295,1.295,0,0,1,1.271,1.739Z" transform="translate(-8358.493 -1445.559)" fill="#f54e7e"/>
        <path id="Path_101861" data-name="Path 101861" d="M8468.252,1484.9a1.3,1.3,0,0,1-2.589.109,1.187,1.187,0,0,0-1.36-1.24,1.3,1.3,0,0,1-.1-2.589,4.124,4.124,0,0,1,2.884,1.028A3.727,3.727,0,0,1,8468.252,1484.9Z" transform="translate(-8421.726 -1444.585)" fill="#f54e7e"/>
      </g>
      <path id="Path_101862" data-name="Path 101862" d="M8236.39,1625.859c1.4.656,2.813,1.248,4.119,1.78l1.353.557c2.23.942,4.687,2.672,4.93,4.743a4.824,4.824,0,0,1-2.488,4.945,7.479,7.479,0,0,1-6.352-.191,22.423,22.423,0,0,1-7.345-6.365l-4.5,2.655c2.479,3.141,5.705,6.6,9.7,8.421a12.617,12.617,0,0,0,10.839.094,9.926,9.926,0,0,0,5.286-10.151c-.422-3.7-3.365-6.946-8.068-8.93l-1.381-.565c-.961-.391-1.866-.783-2.744-1.168Z" transform="translate(-8198.302 -1555.845)" fill="#ffd54f"/>
      <path id="Path_101863" data-name="Path 101863" d="M8239.352,1512.962c-4.227.215-9.579,1.118-12.782,4.086a2.025,2.025,0,0,0-.2.2,8.532,8.532,0,0,0-2.595,5.9c-.017.23-.017.478-.015.725a12.7,12.7,0,0,0,5.118,9.86l2.2-1.743,1.02-2.335a8.142,8.142,0,0,1-2.594-3.246,7.385,7.385,0,0,1-.572-2.69,3.928,3.928,0,0,1,.2-1.4,3.371,3.371,0,0,1,.966-1.471c2.047-1.9,6.3-2.548,9.888-2.7Z" transform="translate(-8196.384 -1467.091)" fill="#ffd54f"/>
      <path id="Path_101864" data-name="Path 101864" d="M8203.566,1614.239l-.7-.958a2.593,2.593,0,0,1,1.048-3.895c2.6-1.18,6.5-3.822,10.619-9.734a2.6,2.6,0,0,1,3.23-.872c.387.182.806.371,1.233.551a2.591,2.591,0,0,1,1.056,3.983c-2.918,3.746-8.255,9.841-13.431,11.811A2.618,2.618,0,0,1,8203.566,1614.239Z" transform="translate(-8178.928 -1536.948)" fill="#ebb610"/>
    </g>
  </g>
</svg>
