<svg xmlns="http://www.w3.org/2000/svg" width="90.18" height="90.18" viewBox="0 0 90.18 90.18">
  <g id="t1-ic9" transform="translate(-5450.787 -723.861)">
    <circle id="Ellipse_3972" data-name="Ellipse 3972" cx="45.09" cy="45.09" r="45.09" transform="translate(5450.787 723.861)" fill="#7b1fa2"/>
    <g id="Group_53394" data-name="Group 53394" transform="translate(5459.743 727.864)">
      <path id="Path_101899" data-name="Path 101899" d="M5633.445,953.486l-42.321-45.9-1.5-.437-5.3,5.625,44.89,43.763A45.13,45.13,0,0,0,5633.445,953.486Z" transform="translate(-5568.761 -877.492)" fill="#c5e2f2"/>
      <path id="Path_101900" data-name="Path 101900" d="M5597.738,914.763l-6.614-7.172-1.5-.437-5.3,5.625,9.533,9.293A13.8,13.8,0,0,1,5597.738,914.763Z" transform="translate(-5568.761 -877.492)" fill="#acd1e5"/>
      <path id="Path_101901" data-name="Path 101901" d="M5733.563,884.314l-24.588-56.809-7.414,4.052,28.152,56.42A44.656,44.656,0,0,0,5733.563,884.314Z" transform="translate(-5664.459 -812.472)" fill="#c5e2f2"/>
      <path id="Path_101902" data-name="Path 101902" d="M5514.955,802.617c6.365-1.828,14.6-5.5,24.491-10.92,8.109-4.444,13.935-7.038,17.315-7.708,2.33-.462,2.8.027,3.35.594.7.721.438,2.657.1,4.155-.83,3.667-3.177,9.336-6.977,16.851a105.883,105.883,0,0,0-9.242,25.481q1.6-.3,3.187-.719a105.3,105.3,0,0,1,8.678-23.436c9.032-17.862,8.4-22.27,6.371-24.373-2.389-2.476-5.687-3.563-24.192,6.577-22.6,12.388-32.866,13.5-34.933,10.41-1.454-2.176-.062-5.834,1.363-8.52a59.138,59.138,0,0,1,5.986-8.684l.031-.039c10.7-13.374,15.645-21.863,15.123-25.954-.045-.351-.084-.7-.124-1.036-.3-2.594-.6-5.276-3.058-7.161s-6.686-2.641-13.71-2.452a1.469,1.469,0,0,0,.079,2.938c6.134-.165,10.008.438,11.843,1.846,1.4,1.073,1.633,2.584,1.927,5.162.041.352.081.711.127,1.075.187,1.456-.854,6.686-14.5,23.746l-.032.039c-3.176,3.971-11.613,14.518-7.5,20.673C5502.756,804.3,5507.433,804.778,5514.955,802.617Z" transform="translate(-5499.549 -745.656)" fill="#ffd54f"/>
      <rect id="Rectangle_5171" data-name="Rectangle 5171" width="11.979" height="17.46" rx="5.989" transform="matrix(0.72, -0.694, 0.694, 0.72, 4.142, 26.193)" fill="#c5e2f2"/>
      <path id="Path_101903" data-name="Path 101903" d="M5529.954,855.959c3.325-1.194,7.923.276,8.569,2.43a5.941,5.941,0,0,0,5.995,3.384l.748-.721a2.15,2.15,0,0,0,.057-3.042l-9.127-9.476a2.152,2.152,0,0,0-3.042-.057l-5.528,5.325a2.143,2.143,0,0,0-.656,1.464A2.924,2.924,0,0,0,5529.954,855.959Z" transform="translate(-5521.933 -829.1)" fill="#def2fe"/>
      <path id="Path_101904" data-name="Path 101904" d="M5562,879.777l-1.885-1.957a.735.735,0,0,0-.083-.106l-3.72-3.862a.747.747,0,0,0-1.057-.02l-2.311,2.226a.747.747,0,0,0-.02,1.057l1.885,1.957a.775.775,0,0,0,.083.106l3.72,3.862a.747.747,0,0,0,1.057.02l2.311-2.226A.748.748,0,0,0,5562,879.777Z" transform="translate(-5542.952 -850.12)" fill="#acd1e5"/>
      <path id="Path_101905" data-name="Path 101905" d="M5713.477,838.327l-4.671-10.757-7.409,4.06,5.268,10.527A17.808,17.808,0,0,1,5713.477,838.327Z" transform="translate(-5664.324 -812.525)" fill="#acd1e5"/>
      <circle id="Ellipse_3973" data-name="Ellipse 3973" cx="10.193" cy="10.193" r="10.193" transform="translate(28.294 1.748)" fill="#ea3065"/>
      <g id="Group_53393" data-name="Group 53393" transform="translate(0 21.688)">
        <path id="Path_101906" data-name="Path 101906" d="M5757.947,974.212c-.06.378-.134.753-.213,1.1-.83,3.667-3.177,9.336-6.977,16.851a105.861,105.861,0,0,0-9.242,25.481q1.6-.3,3.187-.719a105.32,105.32,0,0,1,8.678-23.436c4.4-8.709,6.509-14.219,7.276-17.823A10.761,10.761,0,0,0,5757.947,974.212Z" transform="translate(-5697.074 -953.922)" fill="#ebb610"/>
        <path id="Path_101907" data-name="Path 101907" d="M5551.616,882.078c-1.223-.411-2.548-.912-3.947-1.49-2.649,1.223-5.818,2.836-9.636,4.928-22.6,12.388-32.866,13.5-34.933,10.41-1.454-2.176-.062-5.834,1.363-8.52a59.136,59.136,0,0,1,5.986-8.684l.031-.04a169.765,169.765,0,0,0,10.173-13.856,10.874,10.874,0,0,0-2.8-1.087c-2.161,3.314-5.254,7.592-9.666,13.107l-.032.039c-3.176,3.97-11.613,14.518-7.5,20.673,2.1,3.139,6.774,3.614,14.3,1.454,6.365-1.828,14.6-5.5,24.491-10.92A128.472,128.472,0,0,1,5551.616,882.078Z" transform="translate(-5499.549 -863.74)" fill="#ebb610"/>
      </g>
      <path id="Path_101908" data-name="Path 101908" d="M5712.131,1028.719l-4.292,5.412,22.206,21.649a45.165,45.165,0,0,0,4.222-3.055Z" transform="translate(-5669.583 -976.73)" fill="#c5e2f2"/>
      <path id="Path_101909" data-name="Path 101909" d="M5747.369,925.514l4.759,9.538,6.328-2.524-4.579-10.58Z" transform="translate(-5701.853 -889.569)" fill="#c5e2f2"/>
      <path id="Path_101910" data-name="Path 101910" d="M5549.986,898.633l4.372,4.558-1.577,3.6-4.964-5.154Z" transform="translate(-5538.952 -870.536)" fill="#c5e2f2"/>
      <path id="Path_101911" data-name="Path 101911" d="M5669.792,802.526a10.194,10.194,0,0,0,4.54-12.784c-1.888,2.288-3.81,6.541-5.275,8.442-2.4,3.118-5.256-1.855-10.821-3.771-1.96-.675-2.9.107-3.29,1.4a10.192,10.192,0,0,0,14.845,6.71Z" transform="translate(-5626.406 -781.645)" fill="#c92051"/>
      <path id="Path_101912" data-name="Path 101912" d="M5665.337,761.526c1.142,2.083,6.4.556,7.989-1.9a28.22,28.22,0,0,1,2.22-3.117,10.191,10.191,0,0,0-13.748,3.52C5663.235,760.143,5664.78,760.509,5665.337,761.526Z" transform="translate(-5631.999 -753.421)" fill="#f54e7e"/>
    </g>
  </g>
</svg>
