<svg xmlns="http://www.w3.org/2000/svg" xmlns:xlink="http://www.w3.org/1999/xlink" width="90.18" height="94.221" viewBox="0 0 90.18 94.221">
  <defs>
    <clipPath id="clip-path">
      <path id="Path_101884" data-name="Path 101884" d="M9143.714,1545.214a45.093,45.093,0,0,0,89.734,0Z" transform="translate(-9143.714 -1545.214)" fill="none"/>
    </clipPath>
  </defs>
  <g id="t1-ic8" transform="translate(-9142.5 -1253.212)">
    <circle id="Ellipse_3969" data-name="Ellipse 3969" cx="45.09" cy="45.09" r="45.09" transform="translate(9142.5 1257.253)" fill="#7b1fa2"/>
    <g id="Group_53383" data-name="Group 53383" transform="translate(9142.723 1306.843)">
      <g id="Group_53382" data-name="Group 53382" transform="translate(0 0)" clip-path="url(#clip-path)">
        <g id="Group_53381" data-name="Group 53381" transform="translate(4.277 6.274)">
          <path id="Path_101877" data-name="Path 101877" d="M9248.181,1645.634a1.389,1.389,0,0,1-1.389,1.388h-4.227l-74.177.009a1.39,1.39,0,0,1-1.389-1.388c0-8.651,3.512-14.74,10.735-18.618a1.165,1.165,0,0,1,.145-.067l7.908-3.145.095-.033,1.371-.429c1.2-.376,2.025-.64,3.051-1.007l4.392-2.71,20.167-.009,5.565,0,4.329,2.721c1.023.367,1.968.624,3.169,1,.449.141.907.283,1.369.429a.73.73,0,0,1,.093.033l7.909,3.143c.05.02.1.042.144.067,7.227,3.878,10.739,9.967,10.739,18.62Z" transform="translate(-9167 -1612.232)" fill="#ffe8e8"/>
          <path id="Path_101878" data-name="Path 101878" d="M9343.529,1586.767l-5.014.711-7.885,1.116-12.834-1.816,2.855-1.762a7.743,7.743,0,0,0,1.072-4.238,1.388,1.388,0,0,1,1.386-1.388l12.617-.013,2.538,0h0a1.39,1.39,0,0,1,1.388,1.388,7.742,7.742,0,0,0,1.075,4.248Z" transform="translate(-9290.101 -1579.375)" fill="#ffe6c7"/>
          <path id="Path_101879" data-name="Path 101879" d="M9423.227,1586.767l-5.015.711a12.292,12.292,0,0,1-2.787-8.1l2.537,0h0a1.39,1.39,0,0,1,1.389,1.388,7.742,7.742,0,0,0,1.075,4.248Z" transform="translate(-9369.798 -1579.375)" fill="#f9c193"/>
          <g id="Group_53380" data-name="Group 53380" transform="translate(23.304 3.996)">
            <path id="Path_101880" data-name="Path 101880" d="M9460.916,1645.634a1.389,1.389,0,0,1-1.389,1.388H9455.3c-.1-21.244-20.771-17.776-27.7-27.4l5.565,0,4.329,2.721c1.023.367,1.968.624,3.169,1q.674.211,1.369.429a.789.789,0,0,1,.093.033l7.909,3.143c.05.02.1.042.145.067C9457.4,1630.892,9460.916,1636.981,9460.916,1645.634Z" transform="translate(-9403.04 -1616.228)" fill="#e863c9"/>
            <g id="Group_53378" data-name="Group 53378">
              <path id="Path_101881" data-name="Path 101881" d="M9293.884,1607.249s4.144-2.766,5.617-5.584a.972.972,0,0,1,1.365-.394l10.244,5.084-4.116,8.833a.928.928,0,0,1-1.474.288A65.294,65.294,0,0,0,9293.884,1607.249Z" transform="translate(-9293.884 -1601.132)" fill="#e863c9"/>
              <path id="Path_101882" data-name="Path 101882" d="M9404.9,1607.248q-1.969,1.147-3.584,2.186a56.473,56.473,0,0,0-8.053,6.041.929.929,0,0,1-1.476-.289l-4.116-8.832,6.479-3.215,3.767-1.869a.973.973,0,0,1,1.365.394c1.474,2.817,5.618,5.584,5.618,5.584Z" transform="translate(-9370.446 -1601.131)" fill="#e863c9"/>
            </g>
            <g id="Group_53379" data-name="Group 53379" transform="translate(15.798 16.31)">
              <circle id="Ellipse_3970" data-name="Ellipse 3970" cx="1.388" cy="1.388" r="1.388" transform="translate(0 6.844)" fill="#e863c9"/>
              <circle id="Ellipse_3971" data-name="Ellipse 3971" cx="1.388" cy="1.388" r="1.388" transform="translate(0.002)" fill="#e863c9"/>
            </g>
          </g>
          <path id="Path_101883" data-name="Path 101883" d="M9433.693,1607.248q-1.969,1.147-3.584,2.186c-3.048-1.518-5.658-3.372-7.166-6.295l3.767-1.869a.973.973,0,0,1,1.365.394c1.474,2.817,5.618,5.584,5.618,5.584Z" transform="translate(-9375.936 -1597.135)" fill="#d145b1"/>
        </g>
      </g>
    </g>
    <g id="Group_53391" data-name="Group 53391" transform="translate(9156.556 1253.212)">
      <g id="Group_53390" data-name="Group 53390">
        <g id="Group_53389" data-name="Group 53389">
          <path id="Path_101885" data-name="Path 101885" d="M9299.551,1262.852c-6.546-6.3-16.314-9.626-28.249-9.628q-1.343-.028-2.628.009h-.024c-7.418.224-13.388,2.127-17.835,5.681a21.79,21.79,0,0,0-4.435,4.8l14.188,15.12c2.789-1.929,6.215-1.956,10.459-.081l.994,1.807,14.594,26.521a1.385,1.385,0,0,0,1.217.718c.368,0,.732-.011,1.1-.031a18.732,18.732,0,0,0,13.829-7.51,27.349,27.349,0,0,0,5.451-16.771,28.329,28.329,0,0,0-8.657-20.638Z" transform="translate(-9241.356 -1253.212)" fill="#666"/>
          <path id="Path_101886" data-name="Path 101886" d="M9407.295,1283.49a27.343,27.343,0,0,1-5.451,16.771,18.732,18.732,0,0,1-13.829,7.51,21.677,21.677,0,0,0,10.128-7.51,27.349,27.349,0,0,0,5.451-16.771,28.329,28.329,0,0,0-8.657-20.638c-6.348-6.105-15.729-9.422-27.176-9.619q1.285-.039,2.628-.009c11.935,0,21.7,3.332,28.25,9.628A28.332,28.332,0,0,1,9407.295,1283.49Z" transform="translate(-9340.443 -1253.212)" fill="#4d4d4d"/>
          <path id="Path_101887" data-name="Path 101887" d="M9487.068,1440.318a6.012,6.012,0,0,0-2.174.4,1.39,1.39,0,0,0-.884,1.184l-.669,8.35a1.388,1.388,0,0,0,.683,1.31,6.035,6.035,0,1,0,3.044-11.247Z" transform="translate(-9434.792 -1405.953)" fill="#f9c193"/>
          <path id="Path_101888" data-name="Path 101888" d="M9312.964,1377.774v7.831a32.664,32.664,0,0,1-1.042,8.253,28.164,28.164,0,0,1-5.065,10.376c-4.017,5.086-9.384,7.889-15.116,7.889-9.421,0-17.409-7.592-20.182-18.248a32.314,32.314,0,0,1-.833-4.514v0q-.146-1.3-.19-2.632a1.4,1.4,0,0,1,.029-.337c1.837-8.569,5.038-14.05,9.52-16.282,3.324-1.656,7.271-1.5,11.74.457a42.547,42.547,0,0,1,6.271-1.425c5.165-.753,9.074-.215,11.619,1.6,2.156,1.538,3.25,3.907,3.25,7.033Z" transform="translate(-9261.074 -1347.577)" fill="#ffe6c7"/>
          <path id="Path_101889" data-name="Path 101889" d="M9316.476,1474.047a28.164,28.164,0,0,1-5.065,10.376c-4.017,5.086-9.385,7.889-15.116,7.889a18.163,18.163,0,0,1-11.105-3.891h0a26.273,26.273,0,0,1-9.074-14.357,89.918,89.918,0,0,1,20.289-7,1.378,1.378,0,0,1,.521,0,78.049,78.049,0,0,1,19.553,6.983Z" transform="translate(-9265.628 -1427.766)" fill="#ffe6c7"/>
          <path id="Path_101890" data-name="Path 101890" d="M9356.818,1505.2a28.151,28.151,0,0,1-5.066,10.376c-4.016,5.086-9.383,7.889-15.115,7.889a18.165,18.165,0,0,1-11.105-3.891C9344.441,1525.593,9356.67,1505.446,9356.818,1505.2Z" transform="translate(-9305.971 -1458.915)" fill="#f9c193"/>
          <path id="Path_101891" data-name="Path 101891" d="M9312.96,1377.775v3.7c0-3.126-1.094-5.494-3.25-7.032-2.545-1.818-6.454-2.356-11.62-1.6a42.614,42.614,0,0,0-6.271,1.425c-4.468-1.96-8.415-2.114-11.739-.457-4.352,2.168-7.5,7.4-9.358,15.547q-.146-1.3-.19-2.632a1.4,1.4,0,0,1,.029-.337c1.836-8.569,5.038-14.048,9.52-16.281,3.324-1.657,7.271-1.5,11.739.457a42.622,42.622,0,0,1,6.271-1.425c5.166-.754,9.075-.215,11.62,1.6C9311.866,1372.281,9312.96,1374.649,9312.96,1377.775Z" transform="translate(-9261.071 -1347.578)" fill="#f9c193"/>
          <g id="Group_53388" data-name="Group 53388" transform="translate(9.362 27.689)">
            <path id="Path_101892" data-name="Path 101892" d="M9311.67,1406.5a83.252,83.252,0,0,0-40.729,0,1.248,1.248,0,0,0-.941,1.209v9.2a3.755,3.755,0,0,0,3,3.668l10.071,2.039a3.691,3.691,0,0,0,.74.074,3.77,3.77,0,0,0,2.506-.952l4.162-3.723a1.278,1.278,0,0,1,1.662,0l4.161,3.722a3.782,3.782,0,0,0,3.25.879l10.066-2.04a3.754,3.754,0,0,0,3-3.668v-9.2a1.248,1.248,0,0,0-.94-1.209Z" transform="translate(-9270 -1403.97)" fill="#a6dff5"/>
            <path id="Path_101893" data-name="Path 101893" d="M9390.992,1421.734a3.782,3.782,0,0,0,3.25.879l10.066-2.04a3.754,3.754,0,0,0,3-3.668v-9.2a1.248,1.248,0,0,0-.94-1.209A83.061,83.061,0,0,0,9386,1403.97v13.735a1.242,1.242,0,0,1,.831.307Z" transform="translate(-9364.694 -1403.97)" fill="#7bd2f5"/>
            <path id="Path_101894" data-name="Path 101894" d="M9302.4,1417.574a80.734,80.734,0,0,0-18.809,2.216v8.22a1.252,1.252,0,0,0,1,1.223l10.071,2.04a1.273,1.273,0,0,0,1.082-.294l4.161-3.722a3.842,3.842,0,0,1,4.993,0l4.161,3.722a1.265,1.265,0,0,0,1.086.293l10.066-2.038a1.253,1.253,0,0,0,1-1.223v-8.22a80.722,80.722,0,0,0-18.809-2.217Z" transform="translate(-9281.097 -1415.075)" fill="#e1f9ff"/>
            <path id="Path_101895" data-name="Path 101895" d="M9392.657,1430.979a1.265,1.265,0,0,0,1.086.293l10.066-2.038a1.253,1.253,0,0,0,1-1.223v-8.22a80.728,80.728,0,0,0-18.809-2.217v8.762a3.739,3.739,0,0,1,2.5.921Z" transform="translate(-9364.694 -1415.075)" fill="#c4f4ff"/>
            <g id="Group_53385" data-name="Group 53385" transform="translate(10.07 4.988)">
              <g id="Group_53384" data-name="Group 53384">
                <path id="Path_101896" data-name="Path 101896" d="M9325.516,1438.486a1.249,1.249,0,0,1-.559-1.675l2.5-4.993a1.249,1.249,0,0,1,2.233,1.117l-2.5,4.993A1.249,1.249,0,0,1,9325.516,1438.486Z" transform="translate(-9324.825 -1431.129)" fill="#a6dff5"/>
              </g>
            </g>
            <g id="Group_53387" data-name="Group 53387" transform="translate(27.547 4.988)">
              <g id="Group_53386" data-name="Group 53386">
                <path id="Path_101897" data-name="Path 101897" d="M9420.673,1438.486a1.249,1.249,0,0,1-.559-1.675l2.5-4.993a1.249,1.249,0,0,1,2.233,1.117l-2.5,4.993A1.249,1.249,0,0,1,9420.673,1438.486Z" transform="translate(-9419.982 -1431.129)" fill="#a6dff5"/>
              </g>
            </g>
          </g>
          <path id="Path_101898" data-name="Path 101898" d="M9249.694,1300.537c-17.258-2.815-18.734,13.6-19.776,25.527-.323,3.684-.42,7.234-.42,10.176a1.4,1.4,0,0,1-2.535.82,44.256,44.256,0,0,1-6.188-13.6.031.031,0,0,1,0-.009,75.8,75.8,0,0,1-1.684-18.411c.327-6.911,2-12.625,4.964-16.987a21.8,21.8,0,0,1,4.435-4.8s8.327-1.386,14.546,2.7c3.705,2.436,6.661,6.811,6.661,14.583Z" transform="translate(-9219.028 -1277.551)" fill="#4d4d4d"/>
        </g>
      </g>
    </g>
  </g>
</svg>
