<svg xmlns="http://www.w3.org/2000/svg" xmlns:xlink="http://www.w3.org/1999/xlink" width="90.179" height="94.22" viewBox="0 0 90.179 94.22">
  <defs>
    <clipPath id="clip-path">
      <path id="Path_101843" data-name="Path 101843" d="M8600.714,1545.214a45.092,45.092,0,0,0,89.733,0Z" transform="translate(-8600.714 -1545.214)" fill="none"/>
    </clipPath>
  </defs>
  <g id="t1-ic21" transform="translate(-8599.5 -1253.212)">
    <circle id="Ellipse_3965" data-name="Ellipse 3965" cx="45.09" cy="45.09" r="45.09" transform="translate(8599.5 1257.253)" fill="#7b1fa2"/>
    <g id="Group_53343" data-name="Group 53343" transform="translate(8599.724 1306.842)">
      <g id="Group_53342" data-name="Group 53342" transform="translate(0 0)" clip-path="url(#clip-path)">
        <g id="Group_53341" data-name="Group 53341" transform="translate(4.277 6.274)">
          <path id="Path_101836" data-name="Path 101836" d="M8705.181,1645.634a1.389,1.389,0,0,1-1.389,1.388h-4.229l-74.175.009a1.39,1.39,0,0,1-1.39-1.388c0-8.651,3.513-14.74,10.735-18.618a1.384,1.384,0,0,1,.145-.067l7.908-3.145.1-.033,1.371-.429c1.2-.376,2.024-.64,3.05-1.007l4.393-2.71,20.166-.009,5.565,0,4.33,2.721c1.023.367,1.968.624,3.168,1,.449.141.907.283,1.37.429a.774.774,0,0,1,.092.033l7.91,3.143c.049.02.1.042.144.066,7.227,3.877,10.739,9.967,10.739,18.62Z" transform="translate(-8623.999 -1612.231)" fill="#ffe8e8"/>
          <path id="Path_101837" data-name="Path 101837" d="M8800.529,1586.767l-5.014.71-7.886,1.116-12.834-1.816,2.856-1.762a7.758,7.758,0,0,0,1.071-4.238,1.388,1.388,0,0,1,1.387-1.388l12.617-.013,2.537,0h0a1.39,1.39,0,0,1,1.389,1.388,7.741,7.741,0,0,0,1.076,4.248Z" transform="translate(-8747.1 -1579.375)" fill="#ffe6c7"/>
          <path id="Path_101838" data-name="Path 101838" d="M8880.226,1586.767l-5.014.71a12.286,12.286,0,0,1-2.788-8.1l2.537,0h0a1.39,1.39,0,0,1,1.389,1.388,7.749,7.749,0,0,0,1.075,4.248Z" transform="translate(-8826.798 -1579.375)" fill="#f9c193"/>
          <g id="Group_53340" data-name="Group 53340" transform="translate(23.304 3.996)">
            <path id="Path_101839" data-name="Path 101839" d="M8917.916,1645.634a1.39,1.39,0,0,1-1.39,1.388H8912.3c-.1-21.244-20.771-17.776-27.7-27.4l5.565,0,4.328,2.721c1.024.367,1.968.624,3.169,1q.675.211,1.369.429a.8.8,0,0,1,.094.033l7.908,3.143c.05.02.1.042.145.066C8914.4,1630.892,8917.916,1636.981,8917.916,1645.634Z" transform="translate(-8860.039 -1616.227)" fill="#e863c9"/>
            <g id="Group_53338" data-name="Group 53338">
              <path id="Path_101840" data-name="Path 101840" d="M8750.884,1607.249s4.143-2.766,5.617-5.584a.972.972,0,0,1,1.365-.394l10.243,5.084-4.116,8.833a.927.927,0,0,1-1.473.288A65.3,65.3,0,0,0,8750.884,1607.249Z" transform="translate(-8750.884 -1601.132)" fill="#e863c9"/>
              <path id="Path_101841" data-name="Path 101841" d="M8861.9,1607.248q-1.967,1.147-3.581,2.186a56.471,56.471,0,0,0-8.055,6.041.928.928,0,0,1-1.475-.289l-4.116-8.832,6.478-3.215,3.766-1.87a.975.975,0,0,1,1.367.394c1.473,2.817,5.616,5.584,5.616,5.584Z" transform="translate(-8827.446 -1601.131)" fill="#e863c9"/>
            </g>
            <g id="Group_53339" data-name="Group 53339" transform="translate(15.798 16.31)">
              <circle id="Ellipse_3966" data-name="Ellipse 3966" cx="1.388" cy="1.388" r="1.388" transform="translate(0 6.844)" fill="#e863c9"/>
              <circle id="Ellipse_3967" data-name="Ellipse 3967" cx="1.388" cy="1.388" r="1.388" transform="translate(0.002)" fill="#e863c9"/>
            </g>
          </g>
          <path id="Path_101842" data-name="Path 101842" d="M8890.693,1607.248q-1.969,1.147-3.584,2.186c-3.049-1.518-5.658-3.372-7.167-6.295l3.767-1.87a.973.973,0,0,1,1.365.394c1.475,2.817,5.619,5.584,5.619,5.584Z" transform="translate(-8832.934 -1597.135)" fill="#d145b1"/>
        </g>
      </g>
    </g>
    <g id="Group_53348" data-name="Group 53348" transform="translate(8613.557 1253.212)">
      <g id="Group_53345" data-name="Group 53345" transform="translate(0 0)">
        <g id="Group_53344" data-name="Group 53344">
          <path id="Path_101844" data-name="Path 101844" d="M8756.553,1262.852c-6.547-6.3-16.317-9.626-28.25-9.628q-1.343-.028-2.628.009h-.025c-7.417.224-13.387,2.127-17.834,5.681a21.814,21.814,0,0,0-4.436,4.8l14.188,15.12c2.79-1.929,6.216-1.956,10.459-.081l1,1.807,14.595,26.521a1.381,1.381,0,0,0,1.214.718c.368,0,.734-.011,1.1-.031a18.731,18.731,0,0,0,13.829-7.51,27.343,27.343,0,0,0,5.451-16.771,28.339,28.339,0,0,0-8.655-20.638Z" transform="translate(-8698.356 -1253.212)" fill="#666"/>
          <path id="Path_101845" data-name="Path 101845" d="M8864.295,1283.49a27.353,27.353,0,0,1-5.45,16.771,18.739,18.739,0,0,1-13.83,7.51,21.687,21.687,0,0,0,10.128-7.51,27.347,27.347,0,0,0,5.45-16.771,28.332,28.332,0,0,0-8.656-20.638c-6.349-6.1-15.729-9.422-27.177-9.618q1.286-.039,2.629-.009c11.935,0,21.7,3.332,28.249,9.628A28.333,28.333,0,0,1,8864.295,1283.49Z" transform="translate(-8797.443 -1253.212)" fill="#4d4d4d"/>
          <path id="Path_101846" data-name="Path 101846" d="M8944.067,1440.318a6.012,6.012,0,0,0-2.174.4,1.387,1.387,0,0,0-.883,1.184l-.671,8.35a1.39,1.39,0,0,0,.684,1.31,6.035,6.035,0,1,0,3.044-11.247Z" transform="translate(-8891.792 -1405.953)" fill="#f9c193"/>
          <path id="Path_101847" data-name="Path 101847" d="M8769.963,1377.774v7.831a32.75,32.75,0,0,1-1.041,8.253,28.183,28.183,0,0,1-5.066,10.376c-4.017,5.086-9.384,7.888-15.116,7.888-9.42,0-17.408-7.592-20.182-18.247a32.181,32.181,0,0,1-.833-4.514v0q-.146-1.3-.19-2.632a1.4,1.4,0,0,1,.03-.337c1.836-8.569,5.038-14.05,9.518-16.282,3.324-1.656,7.273-1.5,11.741.457a42.579,42.579,0,0,1,6.271-1.425c5.165-.754,9.073-.215,11.619,1.6,2.157,1.538,3.25,3.907,3.25,7.033Z" transform="translate(-8718.073 -1347.577)" fill="#ffe6c7"/>
          <path id="Path_101848" data-name="Path 101848" d="M8773.474,1474.047a28.135,28.135,0,0,1-5.065,10.376c-4.016,5.086-9.383,7.888-15.115,7.888a18.162,18.162,0,0,1-11.1-3.891h0a26.26,26.26,0,0,1-9.073-14.357,89.867,89.867,0,0,1,20.288-7,1.378,1.378,0,0,1,.521,0,78.006,78.006,0,0,1,19.552,6.983Z" transform="translate(-8722.628 -1427.766)" fill="#e1f9ff"/>
          <path id="Path_101849" data-name="Path 101849" d="M8769.96,1377.775v3.7c0-3.127-1.094-5.494-3.251-7.033-2.545-1.818-6.453-2.356-11.619-1.6a42.6,42.6,0,0,0-6.271,1.425c-4.468-1.96-8.416-2.114-11.74-.457-4.351,2.168-7.5,7.4-9.357,15.547q-.146-1.3-.19-2.632a1.348,1.348,0,0,1,.029-.337c1.836-8.569,5.039-14.048,9.519-16.281,3.324-1.657,7.272-1.5,11.74.457a42.643,42.643,0,0,1,6.271-1.425c5.166-.754,9.074-.215,11.619,1.6C8768.866,1372.281,8769.96,1374.649,8769.96,1377.775Z" transform="translate(-8718.07 -1347.578)" fill="#f9c193"/>
          <path id="Path_101850" data-name="Path 101850" d="M8706.693,1300.537c-17.257-2.815-18.734,13.6-19.775,25.527-.324,3.684-.421,7.234-.42,10.176a1.4,1.4,0,0,1-2.535.82,44.23,44.23,0,0,1-6.188-13.6.032.032,0,0,1,0-.009,75.8,75.8,0,0,1-1.685-18.41c.328-6.911,2-12.625,4.965-16.987a21.819,21.819,0,0,1,4.434-4.8s8.327-1.386,14.546,2.7c3.706,2.436,6.661,6.811,6.661,14.583Z" transform="translate(-8676.027 -1277.551)" fill="#4d4d4d"/>
        </g>
      </g>
      <g id="Group_53347" data-name="Group 53347" transform="translate(19.561 46.281)">
        <g id="Group_53346" data-name="Group 53346" transform="translate(5.154 0.809)">
          <path id="Path_101851" data-name="Path 101851" d="M8824.459,1545.558a52.786,52.786,0,0,1-8.033,0,1.388,1.388,0,1,0-.254,2.765c.109.01,1.863.167,4.314.167,1.26,0,2.7-.042,4.2-.166a1.388,1.388,0,1,0-.23-2.767Z" transform="translate(-8814.116 -1538.949)" fill="#a6dff5"/>
          <path id="Path_101852" data-name="Path 101852" d="M8823.225,1510.872a1.39,1.39,0,0,0-1.5-1.269,63.152,63.152,0,0,1-9.623,0,1.388,1.388,0,0,0-.251,2.765c.128.012,2.208.2,5.114.2,1.5,0,3.209-.049,4.989-.2a1.387,1.387,0,0,0,1.269-1.5Z" transform="translate(-8810.591 -1509.598)" fill="#a6dff5"/>
        </g>
        <path id="Path_101853" data-name="Path 101853" d="M8813.817,1505.2a28.165,28.165,0,0,1-5.065,10.376c-4.018,5.086-9.384,7.888-15.116,7.888a18.165,18.165,0,0,1-11.105-3.891C8801.441,1525.592,8813.67,1505.446,8813.817,1505.2Z" transform="translate(-8782.53 -1505.196)" fill="#a6dff5"/>
      </g>
    </g>
  </g>
</svg>
