<svg xmlns="http://www.w3.org/2000/svg" width="90.18" height="90.18" viewBox="0 0 90.18 90.18">
  <g id="t1-ic1" transform="translate(-6143.143 -1253.214)">
    <g id="Group_53318" data-name="Group 53318" transform="translate(6151.239 1258.596)">
      <path id="Path_101770" data-name="Path 101770" d="M6194.6,1358.938l60.31,4.308a36.99,36.99,0,1,0-60.31-4.308Z" transform="translate(-6189.286 -1299.504)" fill="#7b1fa2"/>
      <path id="Path_101771" data-name="Path 101771" d="M6293.477,1695.592a37.02,37.02,0,0,0,37.429,0Z" transform="translate(-6275.196 -1623.36)" fill="#f54e7e"/>
      <path id="Path_101772" data-name="Path 101772" d="M6309.2,1700.55a3.418,3.418,0,0,1-.57-3.469,2.232,2.232,0,0,0-.012-1.489h-15.139A36.774,36.774,0,0,0,6309.2,1700.55Z" transform="translate(-6275.196 -1623.36)" fill="#c92051"/>
      <path id="Path_101773" data-name="Path 101773" d="M6269.507,1563.493h31.249v4.128h-31.249Z" transform="translate(-6255.432 -1514.437)" fill="#e80054"/>
      <path id="Path_101774" data-name="Path 101774" d="M6493.035,1431.649l-16.936,9.777a9.579,9.579,0,0,1,1.061,4.349,3.9,3.9,0,0,1-3,3.811l-.428.1c.058.028,1.6,1.9,6.022,2.851a2.357,2.357,0,0,1,1.879,2.216c.007,1.03-1.149,2.268-2.982,2.26h-3.238v.477a1.4,1.4,0,0,1,1.387,1.533,1.434,1.434,0,0,1-1.438,1.255h-1.217v.477a1.522,1.522,0,0,1,.626,2.907l-1,.456h1.877a3.082,3.082,0,0,1,1.661.487l13.331-7.7Z" transform="translate(-6423.824 -1405.725)" fill="#e9efff"/>
      <path id="Path_101775" data-name="Path 101775" d="M6478.849,1575.4h-3.238v.477a1.4,1.4,0,0,1,1.387,1.533,1.434,1.434,0,0,1-1.438,1.255h-1.217v.477a1.522,1.522,0,0,1,.626,2.907l-1,.456h1.877a3.082,3.082,0,0,1,1.662.487l2.491-1.438v-6.332a3.631,3.631,0,0,1-1.152.177Z" transform="translate(-6424.024 -1524.105)" fill="#bec8f7"/>
      <path id="Path_101776" data-name="Path 101776" d="M6477.16,1481.684a3.9,3.9,0,0,1-3,3.811l-.428.1c.058.028,1.6,1.9,6.022,2.851l.05.012V1475.2l-3.7,2.137a9.586,9.586,0,0,1,1.061,4.349Z" transform="translate(-6423.824 -1441.633)" fill="#bec8f7"/>
      <g id="Group_53304" data-name="Group 53304" transform="translate(38.338 4.368)">
        <path id="Path_101777" data-name="Path 101777" d="M6409.273,1315.962l-1.436-5.688a1.193,1.193,0,0,1,2.314-.584l1.436,5.689a1.193,1.193,0,1,1-2.314.584Z" transform="translate(-6407.8 -1308.788)" fill="#ea3065"/>
      </g>
      <g id="Group_53305" data-name="Group 53305" transform="translate(28.333 0.398)">
        <path id="Path_101778" data-name="Path 101778" d="M6356.875,1288.544h-4.908a1.193,1.193,0,1,1,0-2.387h4.908a1.193,1.193,0,1,1,0,2.387Z" transform="translate(-6350.774 -1286.157)" fill="#ea3065"/>
      </g>
      <path id="Path_101779" data-name="Path 101779" d="M6388.507,1404.668a12.351,12.351,0,0,1,10.939,6.878l16.724-9.655.654-6.9h-36.261l.917,9.68h7.026Z" transform="translate(-6347.004 -1375.496)" fill="#f54e7e"/>
      <path id="Path_101780" data-name="Path 101780" d="M6380.563,1394.989l.917,9.68h7.026a12.351,12.351,0,0,1,10.939,6.878l3.534-2.041v-2.761c0-8.466,3.146-11,4.973-11.757Z" transform="translate(-6347.004 -1375.497)" fill="#c92051"/>
      <path id="Path_101781" data-name="Path 101781" d="M6464.631,1572.958l-13.773,7.952a3.1,3.1,0,0,1-1.111,5.926l-1.178.058,1.108.4a2.237,2.237,0,0,1,.821,3.64,10.777,10.777,0,0,1-7.883,3.385h-.483v.239h11.2a37.178,37.178,0,0,0,10.066-8.578Z" transform="translate(-6397.771 -1522.242)" fill="#f54e7e"/>
      <path id="Path_101782" data-name="Path 101782" d="M6453.747,1608.775l-2.889,1.668a3.1,3.1,0,0,1-1.111,5.926l-1.178.058,1.108.4a2.237,2.237,0,0,1,.821,3.639,10.777,10.777,0,0,1-7.883,3.385h-.483v.239h11.2a37.044,37.044,0,0,0,3.227-2.111,6.42,6.42,0,0,1-2.81-5.368s0-3.212,0-7.841Z" transform="translate(-6397.771 -1551.775)" fill="#c92051"/>
      <g id="Group_53306" data-name="Group 53306" transform="translate(34.027 10.9)">
        <path id="Path_101783" data-name="Path 101783" d="M6418.113,1350.788a5.205,5.205,0,0,0-5.17-4.774H6388.4a5.206,5.206,0,0,0-5.171,4.774Z" transform="translate(-6383.233 -1346.014)" fill="#e9efff"/>
      </g>
      <path id="Path_101784" data-name="Path 101784" d="M6405.029,1346.015H6388.4a5.206,5.206,0,0,0-5.171,4.774h21.818c-2.411-.541-2.488-4.243-.022-4.774Z" transform="translate(-6349.206 -1335.115)" fill="#d3dcfb"/>
      <g id="Group_53307" data-name="Group 53307" transform="translate(31.108 15.355)">
        <path id="Path_101785" data-name="Path 101785" d="M6405.606,1375.705h-36.868a2.148,2.148,0,0,1,0-4.3h36.868a2.148,2.148,0,1,1,0,4.3Z" transform="translate(-6366.591 -1371.409)" fill="#d3dcfb"/>
      </g>
      <path id="Path_101786" data-name="Path 101786" d="M6389.058,1373.557a2.148,2.148,0,0,1,2.148-2.148h-22.467a2.148,2.148,0,0,0,0,4.3h22.467A2.148,2.148,0,0,1,6389.058,1373.557Z" transform="translate(-6335.483 -1356.054)" fill="#bec8f7"/>
      <g id="Group_53308" data-name="Group 53308" transform="translate(37.373 23.02)">
        <path id="Path_101787" data-name="Path 101787" d="M6411.623,1417.481h-8.128a1.193,1.193,0,1,1,0-2.387h8.128a1.193,1.193,0,1,1,0,2.387Z" transform="translate(-6402.301 -1415.094)" fill="#ea3065"/>
      </g>
      <path id="Path_101788" data-name="Path 101788" d="M6283.458,1652.559h-19.012L6264,1653a2.528,2.528,0,0,1-3.577,0l-.445-.445h-18.489a37.159,37.159,0,0,0,9.27,7.638h26.416a11.08,11.08,0,0,0,8.056-3.459A2.468,2.468,0,0,0,6283.458,1652.559Z" transform="translate(-6232.332 -1587.877)" fill="#fcad6d"/>
      <path id="Path_101789" data-name="Path 101789" d="M6264.139,1654.06a2.366,2.366,0,0,0,.035-.975,2.526,2.526,0,0,1-3.487-.081l-.445-.445h-18.363l-.07.062a37.156,37.156,0,0,0,9.214,7.575h15.02a2.428,2.428,0,0,0-.617-1.008,5.215,5.215,0,0,1-1.286-5.128Z" transform="translate(-6232.593 -1587.877)" fill="#fd995b"/>
      <path id="Path_101790" data-name="Path 101790" d="M6245.472,1598.549a9.081,9.081,0,0,0-4.048-2.342h-6.592a1.761,1.761,0,1,0,0,3.522h11.277a1.744,1.744,0,0,0,.476-.068Z" transform="translate(-6225.388 -1541.412)" fill="#ff9100"/>
      <path id="Path_101791" data-name="Path 101791" d="M6420.854,1596.207h-6.592a9.084,9.084,0,0,0-4.048,2.342l-1.113,1.113a1.749,1.749,0,0,0,.476.068h11.277a1.761,1.761,0,0,0,0-3.522Z" transform="translate(-6370.535 -1541.412)" fill="#ffb332"/>
      <path id="Path_101792" data-name="Path 101792" d="M6223.575,1622.058h18.507l-6.683-6.683h-13.186a3.34,3.34,0,0,0-2.621,1.276A37.151,37.151,0,0,0,6223.575,1622.058Z" transform="translate(-6214.275 -1557.217)" fill="#823c26"/>
      <path id="Path_101793" data-name="Path 101793" d="M6391.291,1615.375H6378.1l-6.684,6.683h19.869a3.341,3.341,0,1,0,0-6.683Z" transform="translate(-6339.466 -1557.217)" fill="#a05838"/>
      <g id="Group_53309" data-name="Group 53309" transform="translate(17.152 46.104)">
        <path id="Path_101794" data-name="Path 101794" d="M6306.3,1549.849c-3.262,0-3.264-3.182-6.525-3.182s-3.264,3.182-6.525,3.182c-3.152,0-3.259-2.97-6.2-3.171v3.506a1.915,1.915,0,0,0,1.91,1.91h21a1.915,1.915,0,0,0,1.909-1.91v-3.41c-2.342.55-2.661,3.075-5.567,3.075Z" transform="translate(-6287.045 -1546.667)" fill="#ff7186"/>
      </g>
      <path id="Path_101795" data-name="Path 101795" d="M6296.408,1551.818a2.743,2.743,0,0,1-.624-2.045.71.71,0,0,0-.24-.563l-.024-.022a3.674,3.674,0,0,1-2.271.716c-3.151,0-3.259-2.97-6.2-3.171v3.506a1.915,1.915,0,0,0,1.91,1.91h7.634A.648.648,0,0,0,6296.408,1551.818Z" transform="translate(-6269.894 -1500.617)" fill="#ff4155"/>
      <g id="Group_53310" data-name="Group 53310" transform="translate(4.74 46.104)">
        <path id="Path_101796" data-name="Path 101796" d="M6221.872,1549.849a3.908,3.908,0,0,1-1.367-.229c-1.457,1.518-2.952,2.518-4.2,2.464v.008h10.5a1.915,1.915,0,0,0,1.91-1.91v-3.506c-.1-.007-.209-.011-.32-.011C6225.133,1546.666,6225.133,1549.849,6221.872,1549.849Z" transform="translate(-6216.303 -1546.666)" fill="#ff4155"/>
      </g>
      <g id="Group_53311" data-name="Group 53311" transform="translate(41.974 46.104)">
        <path id="Path_101797" data-name="Path 101797" d="M6441.376,1552.088c-1.208-.008-2.623-1.029-4-2.468a3.9,3.9,0,0,1-1.366.229c-3.262,0-3.262-3.182-6.523-3.182a4.149,4.149,0,0,0-.956.107v3.41a1.915,1.915,0,0,0,1.91,1.91h10.939Z" transform="translate(-6428.527 -1546.667)" fill="#ff4155"/>
      </g>
      <g id="Group_53312" data-name="Group 53312" transform="translate(32.842 0)">
        <path id="Path_101798" data-name="Path 101798" d="M6383.165,1291.043a1.592,1.592,0,0,1-1.542-1.2,3.663,3.663,0,0,0-3.555-2.769,1.591,1.591,0,1,1,0-3.182,6.842,6.842,0,0,1,6.641,5.172,1.593,1.593,0,0,1-1.544,1.981Z" transform="translate(-6376.477 -1283.889)" fill="#c92051"/>
      </g>
      <path id="Path_101799" data-name="Path 101799" d="M6203.326,1549.783a6.931,6.931,0,0,0-2.186-.395,2.614,2.614,0,0,0-2.069,2.448c-.014,2.086,3.83,4.226,7.38.345-1.351-.5-1.99-1.691-3.126-2.4Z" transform="translate(-6197.355 -1502.808)" fill="#24b55e"/>
      <path id="Path_101800" data-name="Path 101800" d="M6481.188,1549.783a6.939,6.939,0,0,1,2.187-.395,2.614,2.614,0,0,1,2.068,2.448c.015,2.086-3.829,4.226-7.38.345,1.35-.5,1.99-1.691,3.125-2.4Z" transform="translate(-6427.398 -1502.808)" fill="#24b55e"/>
      <path id="Path_101801" data-name="Path 101801" d="M6271.623,1577.6h-43.361a1.667,1.667,0,0,0-1.675,1.47,1.636,1.636,0,0,0,1.625,1.795h5.486a9.082,9.082,0,0,1,6.421,2.66l7.841,7.841a2.768,2.768,0,0,0,3.915,0l7.84-7.841a9.082,9.082,0,0,1,6.421-2.66h5.436a1.667,1.667,0,0,0,1.676-1.47,1.637,1.637,0,0,0-1.625-1.8Z" transform="translate(-6220.036 -1526.067)" fill="#ffdd40"/>
      <path id="Path_101802" data-name="Path 101802" d="M6226.586,1579.066a1.637,1.637,0,0,0,1.625,1.795h5.486a9.081,9.081,0,0,1,6.422,2.66l7.84,7.841a2.768,2.768,0,0,0,3.915,0l4.3-4.3c-3.586,1.774-7.167-3.668-9.124-5.625a2.474,2.474,0,0,1-.412-3.316.7.7,0,0,0,.092-.525h-18.469a1.667,1.667,0,0,0-1.675,1.47Z" transform="translate(-6220.036 -1526.066)" fill="#ffb332"/>
      <path id="Path_101803" data-name="Path 101803" d="M6257.264,1534.053h-40.612c-1.646,1.8-5.79,2.69-5.79,2.69,3.262,0,3.262,3.182,6.524,3.182s3.261-3.182,6.523-3.182,3.262,3.182,6.523,3.182,3.264-3.182,6.526-3.182,3.264,3.182,6.525,3.182,3.262-3.182,6.524-3.182,3.261,3.182,6.522,3.182,3.262-3.182,6.523-3.182C6263.053,1536.744,6258.909,1535.854,6257.264,1534.053Z" transform="translate(-6207.076 -1490.162)" fill="#49d88b"/>
      <path id="Path_101804" data-name="Path 101804" d="M6210.861,1536.743c3.262,0,3.262,3.182,6.524,3.182s3.261-3.182,6.523-3.182,3.262,3.182,6.523,3.182a3.714,3.714,0,0,0,2.491-.884.72.72,0,0,0-.2-.287,2.65,2.65,0,0,1-.341-3.95.689.689,0,0,0,.065-.752h-15.8C6215.006,1535.854,6210.861,1536.743,6210.861,1536.743Z" transform="translate(-6207.076 -1490.162)" fill="#38c674"/>
      <path id="Path_101805" data-name="Path 101805" d="M6259.867,1448.8h-23.244c-6.14,0-12.072,4.977-12.072,11.117a4.158,4.158,0,0,0,4.158,4.158h39.071a4.158,4.158,0,0,0,4.159-4.158c0-6.14-5.933-11.117-12.072-11.117Z" transform="translate(-6218.364 -1419.868)" fill="#fcad6d"/>
      <path id="Path_101806" data-name="Path 101806" d="M6243.653,1463.63c-3.624-4.159-.022-8.306-.022-8.306l.44-3.287a2.2,2.2,0,0,1-.678-2.656,1.089,1.089,0,0,0,.1-.581h-6.872c-6.14,0-12.072,4.977-12.072,11.117a4.158,4.158,0,0,0,4.158,4.158h15.111a.684.684,0,0,0-.168-.447Z" transform="translate(-6218.364 -1419.868)" fill="#fd995b"/>
      <g id="Group_53313" data-name="Group 53313" transform="translate(40.04 32.17)">
        <path id="Path_101807" data-name="Path 101807" d="M6417.852,1470.185a1.193,1.193,0,0,1,0-1.688l.9-.9a1.193,1.193,0,0,1,1.688,1.688l-.9.9A1.193,1.193,0,0,1,6417.852,1470.185Z" transform="translate(-6417.502 -1467.247)" fill="#fcf0be"/>
      </g>
      <g id="Group_53314" data-name="Group 53314" transform="translate(31.916 32.17)">
        <path id="Path_101808" data-name="Path 101808" d="M6371.546,1470.185a1.194,1.194,0,0,1,0-1.688l.9-.9a1.193,1.193,0,0,1,1.688,1.688l-.9.9A1.194,1.194,0,0,1,6371.546,1470.185Z" transform="translate(-6371.196 -1467.247)" fill="#fcf0be"/>
      </g>
      <g id="Group_53315" data-name="Group 53315" transform="translate(23.791 32.17)">
        <path id="Path_101809" data-name="Path 101809" d="M6325.239,1470.185a1.193,1.193,0,0,1,0-1.688l.9-.9a1.194,1.194,0,0,1,1.688,1.688l-.9.9A1.194,1.194,0,0,1,6325.239,1470.185Z" transform="translate(-6324.89 -1467.247)" fill="#fcf0be"/>
      </g>
      <g id="Group_53316" data-name="Group 53316" transform="translate(15.667 32.17)">
        <path id="Path_101810" data-name="Path 101810" d="M6278.935,1470.185a1.193,1.193,0,0,1,0-1.688l.9-.9a1.193,1.193,0,1,1,1.688,1.688l-.9.9a1.193,1.193,0,0,1-1.687,0Z" transform="translate(-6278.585 -1467.247)" fill="#fcf0be"/>
      </g>
      <g id="Group_53317" data-name="Group 53317" transform="translate(32.842 0)">
        <path id="Path_101811" data-name="Path 101811" d="M6382.952,1285.935a6.838,6.838,0,0,0-4.883-2.046,1.591,1.591,0,1,0,0,3.182,3.659,3.659,0,0,1,2.6,1.084A1.857,1.857,0,0,1,6382.952,1285.935Z" transform="translate(-6376.477 -1283.889)" fill="#f54e7e"/>
      </g>
    </g>
    <path id="Path_101812" data-name="Path 101812" d="M6188.233,1253.214a45.09,45.09,0,1,0,45.09,45.09A45.09,45.09,0,0,0,6188.233,1253.214Zm0,86.12a41.03,41.03,0,1,1,41.029-41.03A41.03,41.03,0,0,1,6188.233,1339.334Z" fill="#ea3065"/>
    <rect id="Rectangle_5147" data-name="Rectangle 5147" width="88.025" height="3.722" transform="translate(6158.427 1265.867) rotate(45)" fill="#ea3065"/>
  </g>
</svg>
