<svg xmlns="http://www.w3.org/2000/svg" width="90.18" height="90.18" viewBox="0 0 90.18 90.18">
  <g id="t1-ic13" transform="translate(-8783.143 -674.214)">
    <circle id="Ellipse_3978" data-name="Ellipse 3978" cx="37.019" cy="37.019" r="37.019" transform="translate(8791.188 682.811)" fill="#7b1fa2"/>
    <g id="Group_53421" data-name="Group 53421" transform="translate(8792.993 692.288)">
      <path id="Path_101947" data-name="Path 101947" d="M9075.383,882.515l-9.965,4.984-7.655,3.828-17.62,8.81v-4.861l35.24-17.62v4.858Z" transform="translate(-9004.902 -860.037)" fill="#805333"/>
      <path id="Path_101948" data-name="Path 101948" d="M8874.525,895.848v4.861l-17.62-8.81-7.655-3.828-4.86-2.43-5.1-2.552v-4.253l.243-.486Z" transform="translate(-8839.286 -860.608)" fill="#cb8252"/>
      <path id="Path_101949" data-name="Path 101949" d="M9017.3,994.368v30.379l-4.86-2.43V991.938Z" transform="translate(-8982.06 -954.267)" fill="#af8066"/>
      <g id="Group_53419" data-name="Group 53419" transform="translate(4.861 25.032)">
        <path id="Path_101950" data-name="Path 101950" d="M9045,991.938v30.379l-4.86,2.43V994.368Z" transform="translate(-9009.764 -979.3)" fill="#59474e"/>
        <path id="Path_101951" data-name="Path 101951" d="M8871.852,922.336v26l-4.861,2.43V919.906Z" transform="translate(-8866.99 -919.906)" fill="#59474e"/>
      </g>
      <path id="Path_101952" data-name="Path 101952" d="M8844.39,907.913l-.243.486v30.379l-4.86-2.43V905.361Z" transform="translate(-8839.286 -882.881)" fill="#af8066"/>
      <path id="Path_101953" data-name="Path 101953" d="M8872.094,922.336l-.242.486v9.721l-4.861,2.43V920.392l.243-.486Z" transform="translate(-8862.13 -894.874)" fill="#59474e"/>
      <path id="Path_101954" data-name="Path 101954" d="M9217.014,905.958v30.379l-4.86,2.43V908.388l-.243-.486,5.1-2.554Z" transform="translate(-9146.534 -882.87)" fill="#59474e"/>
      <g id="Group_53420" data-name="Group 53420" transform="translate(60.515 25.032)">
        <path id="Path_101955" data-name="Path 101955" d="M9190.451,1030.031v11.544l-4.86-2.43v-6.683Z" transform="translate(-9185.348 -1010.71)" fill="#af8066"/>
        <path id="Path_101956" data-name="Path 101956" d="M9189.31,920.392V939.8l-.607,3.318-4.253.531V922.822l-.243-.486,4.86-2.43Z" transform="translate(-9184.206 -919.906)" fill="#af8066"/>
      </g>
      <path id="Path_101957" data-name="Path 101957" d="M8875.668,777.228l35.24,17.62-35.24,17.62-35-17.5Z" transform="translate(-8840.428 -777.228)" fill="#cbb292"/>
    </g>
    <path id="Path_101958" data-name="Path 101958" d="M8828.232,674.214a45.09,45.09,0,1,0,45.09,45.09A45.09,45.09,0,0,0,8828.232,674.214Zm0,86.12a41.03,41.03,0,1,1,41.03-41.03A41.029,41.029,0,0,1,8828.232,760.334Z" fill="#ea3065"/>
    <path id="Path_101959" data-name="Path 101959" d="M9041,799.214l1.579,13.334,11.755-6.316Zm2.807,3.86,5.614,2.955-4.949,2.659Z" transform="translate(-212.617 -103.069)" fill="#ebb610"/>
    <path id="Path_101960" data-name="Path 101960" d="M9041,797.214l1.579,13.334,11.755-6.316Zm2.807,3.86,5.614,2.955-4.949,2.659Z" transform="translate(-212.617 -101.42)" fill="#ffd54f"/>
    <path id="Path_101961" data-name="Path 101961" d="M9046.215,852.848s-2.457-2.807,2.631-4.211,6.843-1.053,8.6-3.684,2.105-3.509,5.438-3.86,1.579,2.983,4.913,4.386,5.438,1.228,5.789,6.842-4.881,11.483-3.405,15.216a61.858,61.858,0,0,1,2.353,7.417s-8.6,3.158-11.229,4.737-6.491,7.018-6.491,7.018-3.509-7.544-1.4-12.106,3.333-12.106,1.4-14.738S9048.671,856.533,9046.215,852.848Z" transform="translate(-216.428 -137.579)" fill="#e1f9ff"/>
    <path id="Path_101962" data-name="Path 101962" d="M9107.015,876.933c-.269-4.293-1.563-5.2-3.647-6.018,0,0,2.244,8.474-.037,11.106s-2.456,9.474-1.228,11.58-8.772,10-9.825,6.842,3.082-13.506-5.126-17.1a6.533,6.533,0,0,1,1.091,1.139c1.93,2.632.7,10.176-1.4,14.738s1.4,12.106,1.4,12.106,3.859-5.439,6.491-7.018,11.229-4.737,11.229-4.737a61.857,61.857,0,0,0-2.353-7.417C9102.135,888.415,9107.366,882.547,9107.015,876.933Z" transform="translate(-249.859 -162.19)" fill="#a6dff5"/>
    <g id="Group_53422" data-name="Group 53422" transform="translate(8815.29 699.481)">
      <path id="Path_101963" data-name="Path 101963" d="M8971.252,833.961a5.2,5.2,0,0,1-3.664-1.571c-.99-.949-1.37-1.756-1.161-2.468.448-1.529,3.617-2.152,6.682-2.755,1.139-.224,2.214-.435,3.152-.688.875-.235,1.345-.539,1.359-.879.022-.525-.946-1.773-7.689-4.225-.837-.3-1.228-.645-1.194-1.041.1-1.141,4.251-1.953,5.083-2.1l.063.345c-1.959.356-4.741,1.147-4.8,1.789-.008.1.069.356.965.681,5.452,1.983,7.969,3.435,7.92,4.57-.022.523-.552.916-1.618,1.2-.951.256-2.032.468-3.177.693-2.823.555-6.024,1.184-6.412,2.509-.166.566.193,1.278,1.067,2.116a4.817,4.817,0,0,0,3.554,1.472c2.844-.078,5.3-2.667,5.32-2.693l.256.239c-.1.111-2.572,2.721-5.564,2.8Z" transform="translate(-8966.371 -818.23)" fill="#fff"/>
    </g>
    <g id="Group_53423" data-name="Group 53423" transform="translate(8806.77 704.957)">
      <path id="Path_101964" data-name="Path 101964" d="M8922.626,849.758a6.3,6.3,0,0,1,3.838-.034c1.152.353,1.693.794,1.652,1.349-.088,1.193-2.968,2.59-5.753,3.942-1.034.5-2.012.977-2.85,1.438-.78.43-1.16.783-1.1,1.022.095.37,1.294.935,8.258.569.864-.045,1.313.07,1.368.354.16.817-3.616,2.646-4.374,3l-.137-.219c1.786-.844,4.262-2.24,4.171-2.7-.014-.069-.146-.224-1.069-.176-5.631.3-8.349.062-8.554-.737-.095-.368.322-.8,1.274-1.325.849-.467,1.831-.944,2.871-1.449,2.566-1.245,5.475-2.657,5.551-3.69.033-.442-.467-.823-1.485-1.135a5.871,5.871,0,0,0-3.71.069,10.248,10.248,0,0,0-4.47,3.484l-.3-.087a10.464,10.464,0,0,1,4.678-3.636Z" transform="translate(-8917.812 -849.442)" fill="#f7931e"/>
    </g>
    <rect id="Rectangle_5181" data-name="Rectangle 5181" width="88.025" height="3.722" transform="translate(8798.427 686.867) rotate(45)" fill="#ea3065"/>
    <rect id="Rectangle_5182" data-name="Rectangle 5182" width="13.911" height="1.987" transform="translate(8817.152 714.276) rotate(42.2)" fill="#ffd54f"/>
    <rect id="Rectangle_5183" data-name="Rectangle 5183" width="13.911" height="0.852" transform="translate(8816.771 714.696) rotate(42.2)" fill="#ebb610"/>
    <path id="Path_101965" data-name="Path 101965" d="M9029.58,955.69l.432,1.673-1.76-.117Z" transform="translate(-202.106 -232.092)" fill="#4d4d4d"/>
    <g id="Group_53425" data-name="Group 53425" transform="translate(8800.421 706.167)">
      <path id="Path_101966" data-name="Path 101966" d="M8908.85,861.734a1.7,1.7,0,0,1,.417.125,1.425,1.425,0,0,1,.31.19,2.031,2.031,0,0,1,.229.211l-.359.315a1.665,1.665,0,0,0-.164-.15.985.985,0,0,0-.21-.13,1.043,1.043,0,0,0-.2-.066Z" transform="translate(-8904.073 -860.787)" fill="#ebb610"/>
      <path id="Path_101967" data-name="Path 101967" d="M8893.118,861.822l-.2.29a3.246,3.246,0,0,0-.987.271q-.492.208-.908.414l-.021.01q-.376.188-.7.38l-.173-.125-.051-.3q.268-.159.572-.315c.159-.083.329-.165.5-.247s.383-.172.588-.259a3.765,3.765,0,0,1,1.107-.307Z" transform="translate(-8888.598 -860.707)" fill="#ebb610"/>
      <path id="Path_101968" data-name="Path 101968" d="M8894.3,858.809c.444-.191,1.13-.57,1.287-1.03a.282.282,0,0,0,.011-.04.624.624,0,0,0-.065-.474.975.975,0,0,0-.059-.1.607.607,0,0,0-.862-.267,1.677,1.677,0,0,0-.774.932l-.5.247a1.991,1.991,0,0,1,1.065-1.6,1.072,1.072,0,0,1,1.475.429,1.4,1.4,0,0,1,.181.379,1.028,1.028,0,0,1,.026.493,1,1,0,0,1-.042.159,2.251,2.251,0,0,1-1.075,1.079c-.047.026-.094.052-.139.075Z" transform="translate(-8891.281 -856.334)" fill="#ffd54f"/>
      <path id="Path_101969" data-name="Path 101969" d="M8910.269,863.6c.48-.45,1.052-.62,1.276-.38a.529.529,0,0,1,.03.555l1.095,1.167a.834.834,0,0,1-1.217,1.141l-1.094-1.167a.53.53,0,0,1-.552-.066C8909.582,864.61,8909.789,864.05,8910.269,863.6Z" transform="translate(-8904.788 -861.922)" fill="#ea3065"/>
      <path id="Path_101970" data-name="Path 101970" d="M8896.5,879.39a1.684,1.684,0,0,1,2.324.075.115.115,0,0,1-.059.147.424.424,0,0,0-.17.175.893.893,0,0,0-.125.439l-.045,1.382a.834.834,0,0,1-1.667-.054l.045-1.382a.9.9,0,0,0-.1-.446.424.424,0,0,0-.158-.185A.115.115,0,0,1,8896.5,879.39Z" transform="translate(-8893.883 -874.991)" fill="#ea3065"/>
      <g id="Group_53424" data-name="Group 53424" transform="translate(3.702 3.058)">
        <path id="Path_101971" data-name="Path 101971" d="M8923.827,874.637a.119.119,0,0,1,0-.168.34.34,0,0,0,.017-.506.119.119,0,0,1,.174-.162.573.573,0,0,1-.026.842A.12.12,0,0,1,8923.827,874.637Z" transform="translate(-8920.099 -873.762)" fill="#f54e7e"/>
        <path id="Path_101972" data-name="Path 101972" d="M8904.276,887.568a.118.118,0,0,1-.069-.112l.026-.833a.12.12,0,0,1,.123-.113.119.119,0,0,1,.115.121l-.026.834a.122.122,0,0,1-.038.083A.119.119,0,0,1,8904.276,887.568Z" transform="translate(-8903.947 -884.273)" fill="#f54e7e"/>
        <path id="Path_101973" data-name="Path 101973" d="M8902.841,894.436a.119.119,0,0,1,.008-.238.108.108,0,0,0,.089-.029.106.106,0,0,0,.034-.087.119.119,0,0,1,.238.009.383.383,0,0,1-.114.257A.342.342,0,0,1,8902.841,894.436Z" transform="translate(-8902.728 -890.423)" fill="#f54e7e"/>
      </g>
      <path id="Path_101974" data-name="Path 101974" d="M8883.3,870.8c-.07.124-.134.249-.191.365l-.061.12c-.1.2-.277.412-.469.42a.445.445,0,0,1-.437-.262.688.688,0,0,1,.061-.581,2.078,2.078,0,0,1,.634-.63l-.213-.431a2.578,2.578,0,0,0-.838.832,1.157,1.157,0,0,0-.082.993.911.911,0,0,0,.895.554,1.092,1.092,0,0,0,.874-.679l.061-.123c.043-.085.085-.166.126-.244Z" transform="translate(-8881.626 -867.437)" fill="#ffd54f"/>
      <path id="Path_101975" data-name="Path 101975" d="M8894.959,871.9a1.93,1.93,0,0,0-.288-1.2.183.183,0,0,0-.017-.02.786.786,0,0,0-.523-.278c-.021,0-.044,0-.066-.007a1.168,1.168,0,0,0-.939.4l.145.214.207.109a.75.75,0,0,1,.315-.216.682.682,0,0,1,.251-.034.361.361,0,0,1,.127.028.317.317,0,0,1,.129.1,1.566,1.566,0,0,1,.18.925Z" transform="translate(-8891.107 -867.93)" fill="#ffd54f"/>
      <path id="Path_101976" data-name="Path 101976" d="M8887.337,867.74l.093-.058a.239.239,0,0,1,.2-.022.236.236,0,0,1,.146.145,2.51,2.51,0,0,0,.82,1.04.238.238,0,0,1,.059.3c-.02.034-.04.071-.06.109a.238.238,0,0,1-.372.07,3.512,3.512,0,0,1-.991-1.312A.24.24,0,0,1,8887.337,867.74Z" transform="translate(-8886.242 -865.662)" fill="#ebb610"/>
    </g>
  </g>
</svg>
