<svg xmlns="http://www.w3.org/2000/svg" width="90.181" height="87.781" viewBox="0 0 90.181 87.781">
  <g id="t1-ic17" transform="translate(-8632.884 -2408.599)">
    <path id="Path_101984" data-name="Path 101984" d="M8736.548,2452.244A43.646,43.646,0,1,1,8692.9,2408.6,43.645,43.645,0,0,1,8736.548,2452.244Z" transform="translate(-13.484)" fill="#7b1fa2"/>
    <path id="Path_101985" data-name="Path 101985" d="M8652.544,2696.216a43.649,43.649,0,0,0,86.13,0Z" transform="translate(-16.191 -236.859)" fill="#7b1fa2"/>
    <path id="Path_101986" data-name="Path 101986" d="M8713.945,2696.212h-61.4a43.681,43.681,0,0,0,55.9,34.615C8693.382,2723.931,8695.587,2698.564,8713.945,2696.212Z" transform="translate(-16.191 -236.856)" fill="#7b1fa2"/>
    <path id="Path_101987" data-name="Path 101987" d="M8816.969,2516.162a51.289,51.289,0,0,1-22.3,16.067c4.264-.823,8.706-1.38,12.227-2.78a65.16,65.16,0,0,0,12.595-6.96,7.593,7.593,0,0,1,4.383-1.361C8821.507,2519.429,8819.146,2517.733,8816.969,2516.162Z" transform="translate(-133.236 -88.581)" fill="#ebb610"/>
    <path id="Path_101988" data-name="Path 101988" d="M8921.22,2500.085a3.889,3.889,0,0,1,5.5-.734l5.374,4.188a2.7,2.7,0,0,1,.51,3.735l-.833,1.124a7.593,7.593,0,0,0-5.414-1.769c-2.244-1.607-4.562-3.272-6.571-4.723C8920.325,2501.254,8920.8,2500.642,8921.22,2500.085Z" transform="translate(-236.274 -74.058)" fill="#c5e2f2"/>
    <path id="Path_101989" data-name="Path 101989" d="M8788.283,2561.849a43.684,43.684,0,0,0-1.75-12.266,16.417,16.417,0,0,1-19.791-1.042l-5.994-5.057a7.6,7.6,0,0,0-9.244-.431,65.069,65.069,0,0,1-12.595,6.96c-9.215,3.664-24.758,1.554-26.83,13.545,0,0,10.362,3.372,38.857,3.372,18.878,0,31.094-.837,37.191-1.4C8788.229,2564.314,8788.283,2563.088,8788.283,2561.849Z" transform="translate(-65.219 -109.604)" fill="#ebb610"/>
    <path id="Path_101990" data-name="Path 101990" d="M8722.908,2645.8c-6.1.564-18.312,1.4-37.191,1.4-28.494,0-38.856-3.372-38.856-3.372a51.9,51.9,0,0,1-12.139-4.663l-1.544,4.321a5.015,5.015,0,0,0,2.681,6.27,55.633,55.633,0,0,0,9.358,3.2c2.759.793,14.416,3.619,40.35,3.619,17.185,0,28.871-.7,35.466-1.268A43.455,43.455,0,0,0,8722.908,2645.8Z" transform="translate(0 -189.879)" fill="#c5e2f2"/>
    <path id="Path_101991" data-name="Path 101991" d="M8633.178,2643.489l1.544-4.321a51.9,51.9,0,0,0,12.139,4.663s3.938,1.281,13.629,2.263a2.4,2.4,0,0,0-1.469,2.017l-.419,5.193a2.4,2.4,0,0,0,.931,2.089,87.162,87.162,0,0,1-14.315-2.43,55.6,55.6,0,0,1-9.358-3.2A5.015,5.015,0,0,1,8633.178,2643.489Z" transform="translate(0 -189.879)" fill="#92b1c2"/>
    <path id="Path_101992" data-name="Path 101992" d="M8738.912,2550.012a65.058,65.058,0,0,0,12.594-6.96,7.606,7.606,0,0,1,9.245.431l2.252,1.9c-3.357,3.359-11.02,9.5-25.09,13.511-11.066,3.156-15.58,2.455-17.656,6.269a54.836,54.836,0,0,1-8.174-1.606C8714.154,2551.567,8729.7,2553.676,8738.912,2550.012Z" transform="translate(-65.222 -109.604)" fill="#ffd54f"/>
    <path id="Path_101993" data-name="Path 101993" d="M8916.6,2570.111a2.441,2.441,0,1,0,.894,3.334A2.44,2.44,0,0,0,8916.6,2570.111Z" transform="translate(-230.635 -132.739)" fill="#b0880c"/>
    <path id="Path_101994" data-name="Path 101994" d="M8876.256,2592.624a2.441,2.441,0,1,0,.893,3.334A2.441,2.441,0,0,0,8876.256,2592.624Z" transform="translate(-197.406 -151.279)" fill="#b0880c"/>
    <path id="Path_101995" data-name="Path 101995" d="M8833.49,2607.411a2.441,2.441,0,1,0,.894,3.334A2.441,2.441,0,0,0,8833.49,2607.411Z" transform="translate(-162.189 -163.457)" fill="#b0880c"/>
    <path id="Path_101996" data-name="Path 101996" d="M8788.7,2618.253a2.441,2.441,0,1,0,.894,3.334A2.441,2.441,0,0,0,8788.7,2618.253Z" transform="translate(-125.304 -172.385)" fill="#b0880c"/>
    <path id="Path_101997" data-name="Path 101997" d="M8664.76,2605.882c-4.651,1.49-8.379,4.026-9.321,9.478a51.9,51.9,0,0,1-12.139-4.663S8646.958,2601.23,8664.76,2605.882Z" transform="translate(-8.578 -161.408)" fill="#def2fe"/>
    <path id="Path_101998" data-name="Path 101998" d="M8892.231,2544.894l-5.608-6.735a1.548,1.548,0,0,1,2.379-1.98l5.607,6.735a1.547,1.547,0,0,1-2.378,1.98Z" transform="translate(-208.666 -104.606)" fill="#def2fe"/>
    <path id="Path_101999" data-name="Path 101999" d="M8859.688,2569.717l-3.747-6.057a1.547,1.547,0,1,1,2.632-1.628l3.746,6.057a1.547,1.547,0,1,1-2.631,1.628Z" transform="translate(-183.501 -125.751)" fill="#def2fe"/>
    <path id="Path_102000" data-name="Path 102000" d="M8824.33,2589.333l-2.045-4.769a1.547,1.547,0,0,1,2.845-1.219l2.044,4.769a1.547,1.547,0,0,1-2.844,1.219Z" transform="translate(-155.873 -143.134)" fill="#def2fe"/>
    <path id="Path_102001" data-name="Path 102001" d="M8786.2,2601.6l-.76-3.807a1.547,1.547,0,0,1,3.035-.6l.759,3.807a1.547,1.547,0,1,1-3.034.6Z" transform="translate(-125.605 -154.284)" fill="#def2fe"/>
    <path id="Path_102002" data-name="Path 102002" d="M8837.992,2611.706a51.3,51.3,0,0,1-11.277,25.063c3.281-2.844,6.851-5.549,9.2-8.521a65.1,65.1,0,0,0,7.427-12.324,7.585,7.585,0,0,1,3.116-3.37C8843.555,2612.267,8840.663,2611.978,8837.992,2611.706Z" transform="translate(-159.624 -167.263)" fill="#b0880c"/>
    <path id="Path_102003" data-name="Path 102003" d="M8833.164,2698.052a47.626,47.626,0,0,1-6.449,9.825c3.219-2.79,6.711-5.446,9.061-8.351A1.654,1.654,0,0,1,8833.164,2698.052Z" transform="translate(-159.624 -238.371)" fill="#b0880c"/>
    <path id="Path_102004" data-name="Path 102004" d="M8890.632,2584.654a3.89,3.89,0,0,1,4.4-3.389l6.748.94a2.7,2.7,0,0,1,2.309,2.98l-.159,1.39a7.593,7.593,0,0,0-5.572,1.175c-2.748-.27-5.588-.552-8.053-.8C8890.442,2586.113,8890.551,2585.344,8890.632,2584.654Z" transform="translate(-211.992 -142.163)" fill="#c5e2f2"/>
    <path id="Path_102005" data-name="Path 102005" d="M8844.319,2570.515a43.452,43.452,0,0,0-3.959-17.717,2.115,2.115,0,0,0-1.449,1.187l-.373.817a16.42,16.42,0,0,1-17.824,9.331l-7.72-1.382a7.6,7.6,0,0,0-8.222,4.249,65.08,65.08,0,0,1-7.427,12.325c-6.148,7.78-20.663,13.725-16.463,25.144,0,0,10.66-2.261,35.337-16.508C8829.468,2580.312,8838.652,2574.374,8844.319,2570.515Z" transform="translate(-121.262 -118.751)" fill="#ffd54f"/>
    <path id="Path_102006" data-name="Path 102006" d="M8829.4,2609.215a16.376,16.376,0,0,1-8.688.8l-7.72-1.382a7.6,7.6,0,0,0-8.221,4.249,65.141,65.141,0,0,1-7.428,12.325c-6.148,7.78-20.663,13.725-16.463,25.145.191-.1,15.086-2.994,54.683-28.2A8.023,8.023,0,0,1,8829.4,2609.215Z" transform="translate(-121.262 -164.633)" fill="#ebb610"/>
    <path id="Path_102007" data-name="Path 102007" d="M8786.284,2665.465a43.693,43.693,0,0,0,1.614-11.8c0-.161,0-.321-.006-.481-5.667,3.86-14.852,9.8-28.1,17.446-24.677,14.247-35.337,16.508-35.337,16.508a51.913,51.913,0,0,1-12.843,2.031l.822,4.514a5.015,5.015,0,0,0,5.457,4.089,55.608,55.608,0,0,0,9.707-1.9C8743.421,2691.936,8772.627,2674.326,8786.284,2665.465Z" transform="translate(-64.835 -201.424)" fill="#def2fe"/>
    <path id="Path_102008" data-name="Path 102008" d="M8759.792,2697.643c-24.677,14.247-35.337,16.508-35.337,16.508a51.913,51.913,0,0,1-12.843,2.031l.822,4.514a5.015,5.015,0,0,0,5.457,4.089,55.608,55.608,0,0,0,9.707-1.9c14.372-3.574,39.786-18.431,54.56-27.765q.36-.253.719-.481a5.305,5.305,0,0,1-3.8-8.649C8773.985,2689.229,8767.595,2693.139,8759.792,2697.643Z" transform="translate(-64.835 -228.434)" fill="#c5e2f2"/>
    <path id="Path_102009" data-name="Path 102009" d="M8740.777,2827.571a2.656,2.656,0,0,1-1.3-1.274l-2.429-5.064a2.6,2.6,0,0,1-.008-2.257c-8.639,3.859-12.582,4.7-12.582,4.7a51.919,51.919,0,0,1-12.843,2.031l.822,4.514a5.015,5.015,0,0,0,5.457,4.089,55.608,55.608,0,0,0,9.707-1.9A83.453,83.453,0,0,0,8740.777,2827.571Z" transform="translate(-64.835 -337.955)" fill="#92b1c2"/>
    <path id="Path_102010" data-name="Path 102010" d="M8797.346,2625.206a65.08,65.08,0,0,0,7.427-12.325,7.6,7.6,0,0,1,8.222-4.249l2.9.519c-1.228,4.588-4.793,13.736-14.973,24.246-8.006,8.267-12.265,9.917-12.156,14.258a54.974,54.974,0,0,1-7.882,2.7C8776.683,2638.931,8791.2,2632.986,8797.346,2625.206Z" transform="translate(-121.262 -164.633)" fill="#ffd54f"/>
    <path id="Path_102011" data-name="Path 102011" d="M8920.266,2655.627a2.44,2.44,0,1,1-2.44-2.44A2.441,2.441,0,0,1,8920.266,2655.627Z" transform="translate(-232.646 -201.424)" fill="#b0880c"/>
    <path id="Path_102012" data-name="Path 102012" d="M8896.578,2695.3a2.44,2.44,0,1,1-2.44-2.44A2.441,2.441,0,0,1,8896.578,2695.3Z" transform="translate(-213.139 -234.095)" fill="#b0880c"/>
    <path id="Path_102013" data-name="Path 102013" d="M8798.224,2696.641c0-.028,0-.054,0-.082-.287.389-.579.775-.88,1.155-6.148,7.78-20.663,13.725-16.463,25.145a54.974,54.974,0,0,0,7.882-2.7c-.108-4.341,4.15-5.991,12.157-14.258,1.7-1.752,3.205-3.464,4.555-5.126A4.812,4.812,0,0,1,8798.224,2696.641Z" transform="translate(-121.262 -237.141)" fill="#ffd54f"/>
    <path id="Path_102014" data-name="Path 102014" d="M8866.937,2729.488a2.44,2.44,0,1,1-2.44-2.441A2.44,2.44,0,0,1,8866.937,2729.488Z" transform="translate(-188.728 -262.249)" fill="#b0880c"/>
    <path id="Path_102015" data-name="Path 102015" d="M8833.572,2761.273a2.44,2.44,0,1,1-2.44-2.441A2.44,2.44,0,0,1,8833.572,2761.273Z" transform="translate(-161.252 -288.425)" fill="#b0880c"/>
    <path id="Path_102016" data-name="Path 102016" d="M8727.623,2772.664c-3.283,3.616-5.242,7.676-3.332,12.869a51.926,51.926,0,0,1-12.844,2.031S8709.882,2777.535,8727.623,2772.664Z" transform="translate(-64.67 -299.816)" fill="#def2fe"/>
    <path id="Path_102017" data-name="Path 102017" d="M8753.936,2772.664a31.587,31.587,0,0,0-10.573,4.787,4.966,4.966,0,0,1,4.674,4.884,11.471,11.471,0,0,0,.14,1.577,2.885,2.885,0,0,1-.764,2.437c1.953-.433,3.189-.816,3.189-.816C8748.692,2780.34,8750.652,2776.28,8753.936,2772.664Z" transform="translate(-90.982 -299.816)" fill="#c5e2f2"/>
    <path id="Path_102018" data-name="Path 102018" d="M8706.606,2605.881a31.592,31.592,0,0,0-11.55-1.141,4.965,4.965,0,0,1,1.605,6.567,11.575,11.575,0,0,0-.668,1.435,2.882,2.882,0,0,1-1.879,1.729c1.907.6,3.17.888,3.17.888C8698.228,2609.907,8701.955,2607.37,8706.606,2605.881Z" transform="translate(-50.425 -161.408)" fill="#c5e2f2"/>
    <path id="Path_102019" data-name="Path 102019" d="M8882.694,2646.4l-8.224-3.029a1.547,1.547,0,1,1,1.068-2.9l8.225,3.029a1.547,1.547,0,0,1-1.069,2.9Z" transform="translate(-198.117 -190.874)" fill="#def2fe"/>
    <path id="Path_102020" data-name="Path 102020" d="M8878.016,2643.051a1.755,1.755,0,0,1,1.44-1.136l-3.917-1.443a1.547,1.547,0,1,0-1.068,2.9l3.856,1.42A1.758,1.758,0,0,1,8878.016,2643.051Z" transform="translate(-198.117 -190.874)" fill="#92b1c2"/>
    <path id="Path_102021" data-name="Path 102021" d="M8866.925,2684.177l-6.273-3.372a1.547,1.547,0,1,1,1.464-2.725l6.273,3.371a1.547,1.547,0,0,1-1.464,2.726Z" transform="translate(-186.9 -221.77)" fill="#def2fe"/>
    <path id="Path_102022" data-name="Path 102022" d="M8863.891,2680.78a1.689,1.689,0,0,1,1.61-.884l-3.386-1.82a1.547,1.547,0,0,0-1.464,2.726l3.409,1.832A1.689,1.689,0,0,1,8863.891,2680.78Z" transform="translate(-186.9 -221.769)" fill="#92b1c2"/>
    <path id="Path_102023" data-name="Path 102023" d="M8846.112,2718.843l-4.154-3.108a1.547,1.547,0,1,1,1.854-2.478l4.154,3.108a1.547,1.547,0,1,1-1.854,2.478Z" transform="translate(-171.666 -250.638)" fill="#def2fe"/>
    <path id="Path_102024" data-name="Path 102024" d="M8844.654,2715.759a1.752,1.752,0,0,1,1.575-.694l-2.418-1.809a1.547,1.547,0,1,0-1.854,2.478l2.562,1.917A1.753,1.753,0,0,1,8844.654,2715.759Z" transform="translate(-171.666 -250.637)" fill="#92b1c2"/>
    <path id="Path_102025" data-name="Path 102025" d="M8819.223,2748.536l-2.561-2.917a1.547,1.547,0,1,1,2.325-2.041l2.562,2.918a1.547,1.547,0,0,1-2.326,2.041Z" transform="translate(-151.029 -275.428)" fill="#def2fe"/>
    <g id="Group_53429" data-name="Group 53429" transform="translate(8659.801 2431.016)">
      <path id="Path_102026" data-name="Path 102026" d="M8818.707,2745.605a1.722,1.722,0,0,1,1.811-.288l-1.528-1.741a1.547,1.547,0,1,0-2.325,2.041l1.518,1.73A1.72,1.72,0,0,1,8818.707,2745.605Z" transform="translate(-8810.831 -2706.443)" fill="#92b1c2"/>
      <path id="Path_102027" data-name="Path 102027" d="M8889.857,2539.65a1.753,1.753,0,0,1,1.815-.264l-2.671-3.208a1.547,1.547,0,0,0-2.378,1.98l2.63,3.159A1.752,1.752,0,0,1,8889.857,2539.65Z" transform="translate(-8868.467 -2535.621)" fill="#92b1c2"/>
      <path id="Path_102028" data-name="Path 102028" d="M8858.756,2565.26a1.688,1.688,0,0,1,1.836.04l-2.021-3.268a1.547,1.547,0,1,0-2.632,1.628l2.036,3.292A1.693,1.693,0,0,1,8858.756,2565.26Z" transform="translate(-8843.301 -2556.767)" fill="#92b1c2"/>
      <path id="Path_102029" data-name="Path 102029" d="M8824.609,2585.934a1.753,1.753,0,0,1,1.711.187l-1.189-2.776a1.547,1.547,0,1,0-2.844,1.219l1.26,2.941A1.753,1.753,0,0,1,8824.609,2585.934Z" transform="translate(-8815.675 -2574.15)" fill="#92b1c2"/>
      <path id="Path_102030" data-name="Path 102030" d="M8787.215,2598.806a1.722,1.722,0,0,1,1.712.656l-.452-2.272a1.547,1.547,0,0,0-3.035.6l.449,2.258A1.722,1.722,0,0,1,8787.215,2598.806Z" transform="translate(-8785.409 -2585.299)" fill="#92b1c2"/>
    </g>
  </g>
</svg>
