<svg xmlns="http://www.w3.org/2000/svg" width="90.18" height="90.18" viewBox="0 0 90.18 90.18">
  <g id="t1-ic23" transform="translate(-7970.143 -674.214)">
    <circle id="Ellipse_3985" data-name="Ellipse 3985" cx="37.019" cy="37.019" r="37.019" transform="translate(7978.188 682.811)" fill="#7b1fa2"/>
    <g id="Group_53447" data-name="Group 53447" transform="translate(7979.993 684.195)">
      <path id="Path_102088" data-name="Path 102088" d="M8061.435,915.468a36.687,36.687,0,0,0-35.148,26.186,41.63,41.63,0,0,0,7.42,9.032,27.765,27.765,0,0,1,55.477.5,41.662,41.662,0,0,0,7.583-8.9A36.686,36.686,0,0,0,8061.435,915.468Z" transform="translate(-8026.286 -883.122)" fill="#ebb610"/>
      <path id="Path_102089" data-name="Path 102089" d="M8061.293,920.806c15.19,0,28.036,10.877,32.292,25.844a41.591,41.591,0,0,0,3.18-4.362,36.682,36.682,0,0,0-70.48-.634,41.506,41.506,0,0,0,2.944,4.224C8033.7,931.311,8046.366,920.806,8061.293,920.806Z" transform="translate(-8026.286 -883.122)" fill="#ffd54f"/>
      <path id="Path_102090" data-name="Path 102090" d="M8122.582,731.1h-42.166a1.416,1.416,0,0,0-1.3.814l-4.459,9.953a1.278,1.278,0,0,0,.321,1.479l25.542,23.211a1.473,1.473,0,0,0,1.959,0l25.542-23.211a1.28,1.28,0,0,0,.321-1.479l-4.459-9.953A1.416,1.416,0,0,0,8122.582,731.1Z" transform="translate(-8066.078 -731.103)" fill="#4ad1de"/>
      <path id="Path_102091" data-name="Path 102091" d="M8111.541,797.277l-9.613,24.2a1.538,1.538,0,0,1-.425,0l-9.614-24.2h-17.082a1.313,1.313,0,0,0,.387.635l9.042,8.217,16.5,14.994a1.473,1.473,0,0,0,1.959,0l8.193-7.445,17.349-15.766a1.316,1.316,0,0,0,.387-.635Z" transform="translate(-8066.294 -785.667)" fill="#9ff4f8"/>
      <path id="Path_102092" data-name="Path 102092" d="M8171.248,901.339H8141.29l1.324-6.353a.98.98,0,0,1,.971-.764h25.369a.981.981,0,0,1,.971.764Z" transform="translate(-8121.113 -865.602)" fill="#ffd54f"/>
      <path id="Path_102093" data-name="Path 102093" d="M8151,894.221h-7.414a.98.98,0,0,0-.971.764l-1.324,6.353h7.414l1.324-6.353A.98.98,0,0,1,8151,894.221Z" transform="translate(-8121.113 -865.602)" fill="#ebb610"/>
      <path id="Path_102094" data-name="Path 102094" d="M8189.945,731.1h-15.9l-1.877,11.61h19.652Z" transform="translate(-8146.575 -731.103)" fill="#9ff4f8"/>
    </g>
    <path id="Path_102095" data-name="Path 102095" d="M8015.233,674.214a45.09,45.09,0,1,0,45.09,45.09A45.09,45.09,0,0,0,8015.233,674.214Zm0,86.12a41.03,41.03,0,1,1,41.03-41.03A41.03,41.03,0,0,1,8015.233,760.334Z" fill="#ea3065"/>
    <rect id="Rectangle_5194" data-name="Rectangle 5194" width="88.025" height="3.722" transform="translate(7985.427 686.867) rotate(45)" fill="#ea3065"/>
  </g>
</svg>
