<svg xmlns="http://www.w3.org/2000/svg" width="90.18" height="90.18" viewBox="0 0 90.18 90.18">
  <g id="t1-ic7" transform="translate(-7456.5 -1275.214)">
    <path id="Path_101865" data-name="Path 101865" d="M7456.5,1320.3a45.09,45.09,0,1,1,82.492,25.19c-2.122,3.146-14.824,1.614-17.651,4.125-5.883,5.231-2.955,13.34-10.981,14.922a45.13,45.13,0,0,1-53.86-44.238Z" transform="translate(0 0)" fill="#7b1fa2"/>
    <path id="Path_101866" data-name="Path 101866" d="M7709.546,1567.733l16.555,16.555a45.122,45.122,0,0,1-28.632,19.047l-11.762-11.762Z" transform="translate(-187.109 -238.793)" fill="#f0cfba"/>
    <path id="Path_101867" data-name="Path 101867" d="M7780,1567.733l16.555,16.555a45.255,45.255,0,0,1-7.459,8.52l-17.085-17.085Z" transform="translate(-257.558 -238.793)" fill="#ebb99a"/>
    <g id="Group_53376" data-name="Group 53376" transform="translate(7456.5 1275.605)">
      <g id="Group_53372" data-name="Group 53372" transform="translate(0 0)">
        <path id="Path_101868" data-name="Path 101868" d="M7460.254,1325.445a5.422,5.422,0,0,1,7.669-7.667l-9.471-9.47a6.662,6.662,0,0,1,9.42-9.423l-4.865-4.866a6.658,6.658,0,0,1-.04-9.382,6.772,6.772,0,0,1,9.545.044l4.036,4.036a6.661,6.661,0,1,1,9.42-9.421l21.964,21.961v-9.48a7.4,7.4,0,1,1,14.805,0v33.736c0,1.026,1.233,3.059,2.466,4.837q.157.227.314.447c1.12,1.576,2.152,2.85,2.152,2.85l.119,2.955-3.384,3.383-21.374,21.373-8.379-8.38h0c-.454-.14-.917-.26-1.383-.361h0a25.62,25.62,0,0,1-12.78-6.942l-20.231-20.231Z" transform="translate(-7456.5 -1277.344)" fill="#bababa"/>
      </g>
      <g id="Group_53373" data-name="Group 53373" transform="translate(2.963 38.845)">
        <path id="Path_101869" data-name="Path 101869" d="M7488.615,1501.544l-9.318-9.318a5.423,5.423,0,0,0-6.664-.792,5.421,5.421,0,0,1,8.458-1l11.113,11.113A2.538,2.538,0,0,1,7488.615,1501.544Z" transform="translate(-7472.633 -1488.842)" fill="#989da0"/>
      </g>
      <g id="Group_53374" data-name="Group 53374" transform="translate(0.965 0)">
        <path id="Path_101870" data-name="Path 101870" d="M7561.27,1279.3a6.665,6.665,0,0,1,9.423,0l21.962,21.963v2.183l-1.151,1.151-23.054-23.054a6.667,6.667,0,0,0-8.166-.987A6.655,6.655,0,0,1,7561.27,1279.3Z" transform="translate(-7542.188 -1277.346)" fill="#989da0"/>
        <path id="Path_101871" data-name="Path 101871" d="M7513.26,1328.949l-18.541-18.541a6.666,6.666,0,0,0-8.166-.987,6.664,6.664,0,0,1,10.409-1.256l20.784,20.784A3.172,3.172,0,0,1,7513.26,1328.949Z" transform="translate(-7482 -1300.912)" fill="#989da0"/>
        <path id="Path_101872" data-name="Path 101872" d="M7483.741,1402.028l-13.821-13.821a6.666,6.666,0,0,0-8.165-.987,6.664,6.664,0,0,1,10.408-1.256l16.064,16.064A3.172,3.172,0,0,1,7483.741,1402.028Z" transform="translate(-7461.755 -1364.422)" fill="#989da0"/>
      </g>
      <g id="Group_53375" data-name="Group 53375" transform="translate(56.257 7.032)">
        <path id="Path_101873" data-name="Path 101873" d="M7766.193,1365.92a7.722,7.722,0,0,1-2.262-5.462l3.688-37.426a7.4,7.4,0,0,0-4.819-6.94,7.4,7.4,0,0,1,9.979,6.94v33.735c0,2.051,4.932,8.134,4.932,8.134l1.537,1.537-6.269,6.269-6.787-6.787Z" transform="translate(-7762.801 -1315.629)" fill="#989da0"/>
      </g>
      <path id="Path_101874" data-name="Path 101874" d="M7714.3,1568.457c.025-.026.051-.051.077-.075,1.12,1.576,2.152,2.85,2.152,2.85l.119,2.955-24.757,24.757-4.039-4.039Z" transform="translate(-7645.361 -1514.928)" fill="#42454c"/>
      <path id="Path_101875" data-name="Path 101875" d="M7689.68,1602.4a2.856,2.856,0,0,0,4.039,0l26.65-26.65a2.856,2.856,0,0,0-4.039-4.039l-26.649,26.65A2.856,2.856,0,0,0,7689.68,1602.4Z" transform="translate(-7646.17 -1516.959)" fill="#bababa"/>
      <path id="Path_101876" data-name="Path 101876" d="M7813.577,1577.026a2.856,2.856,0,0,0-4.039,0l5.317-5.318a2.856,2.856,0,1,1,4.039,4.039l-5.318,5.318a2.856,2.856,0,0,0,0-4.038Z" transform="translate(-7744.697 -1516.959)" fill="#989da0"/>
    </g>
  </g>
</svg>
