<svg xmlns="http://www.w3.org/2000/svg" width="90.18" height="90.18" viewBox="0 0 90.18 90.18">
  <g id="t1-ic12" transform="translate(-7445.5 -1823.214)">
    <path id="Path_101936" data-name="Path 101936" d="M7462.923,1903.907a45.094,45.094,0,0,1,5.474-74.859,44.322,44.322,0,0,1,5.284-2.552,45.093,45.093,0,0,1,51.107,71.193,1.106,1.106,0,0,1-.839.383h-4.007a38.344,38.344,0,0,0-29.91,14.683,1.617,1.617,0,0,1-1.332.6,45.3,45.3,0,0,1-5.727-.6,1.671,1.671,0,0,1-.972-.541,23.633,23.633,0,0,0-16.114-7.954l-2.5-.171A.861.861,0,0,1,7462.923,1903.907Z" fill="#7b1fa2"/>
    <path id="Path_101937" data-name="Path 101937" d="M7606.258,2085.413a44.984,44.984,0,0,1-34.2,15.7c-.6,0-1.188-.015-1.779-.038l21.33-50.009Zm-61.871,6.213a44.873,44.873,0,0,0,20.015,8.84l-11.893-27.883Z" transform="translate(-81.47 -187.723)" fill="#ffd54f"/>
    <path id="Path_101938" data-name="Path 101938" d="M7574.307,2083.157c0,3.891-1.971,7.045-4.4,7.045s-4.4-3.155-4.4-7.045,1.971-7.045,4.4-7.045S7574.307,2079.266,7574.307,2083.157Zm34.875-29.943c-2.432,0-4.4,3.155-4.4,7.045s1.971,7.045,4.4,7.045,4.4-3.155,4.4-7.045S7611.613,2053.214,7609.181,2053.214Z" transform="translate(-98.864 -189.49)" fill="#fff0bd"/>
    <path id="Path_101939" data-name="Path 101939" d="M7574.307,1875.55v8.807a1.761,1.761,0,0,1-1.761,1.761h-5.284a1.761,1.761,0,0,1-1.761-1.761v-8.807a1.761,1.761,0,0,1,1.761-1.761V1844.4a44.9,44.9,0,0,1,5.284-2.552v31.945A1.761,1.761,0,0,1,7574.307,1875.55Zm37.34-24.659v-6.5a44.865,44.865,0,0,0-5.284-2.552v9.048a1.761,1.761,0,0,0-1.761,1.761v8.807a1.761,1.761,0,0,0,1.761,1.761h5.284a1.761,1.761,0,0,0,1.761-1.761v-8.807A1.761,1.761,0,0,0,7611.647,1850.891Z" transform="translate(-98.864 -15.348)" fill="#ea3065"/>
    <path id="Path_101940" data-name="Path 101940" d="M7632.244,1844.4v1.6a1.354,1.354,0,0,1-1.156,1.361,1.321,1.321,0,0,1-1.486-1.311v-3.038C7630.5,1843.442,7631.38,1843.906,7632.244,1844.4Zm-41.744,24.549a1.322,1.322,0,0,0,1.486,1.311,1.354,1.354,0,0,0,1.156-1.361v-27.052c-.895.362-1.777.749-2.642,1.166Z" transform="translate(-119.461 -15.348)" fill="#f54e7e"/>
    <path id="Path_101941" data-name="Path 101941" d="M7508.886,1976.054a1.761,1.761,0,0,1-1.761,1.761h-40.863a1.762,1.762,0,0,1-1.762-1.761,21.122,21.122,0,0,1,10.294-18.145,7.878,7.878,0,0,0,3.8-6.768v-1.507a3.522,3.522,0,0,1,3.522-3.523h9.159a3.522,3.522,0,0,1,3.522,3.523v1.507a7.877,7.877,0,0,0,3.8,6.768A21.122,21.122,0,0,1,7508.886,1976.054Zm28.808-41.042a7.878,7.878,0,0,1-3.8-6.768v-1.507a3.522,3.522,0,0,0-3.522-3.523h-9.159a3.522,3.522,0,0,0-3.522,3.523v1.507a7.877,7.877,0,0,1-3.8,6.768,21.123,21.123,0,0,0-10.294,18.145,1.761,1.761,0,0,0,1.762,1.761h40.862a1.761,1.761,0,0,0,1.762-1.761A21.122,21.122,0,0,0,7537.693,1935.011Z" transform="translate(-15.653 -82.387)" fill="#989da0"/>
    <path id="Path_101942" data-name="Path 101942" d="M7567.3,1974.292h-20.356a11.448,11.448,0,0,1-11.448-11.449v-.022a6.684,6.684,0,0,1,3.965-6.106,21.049,21.049,0,0,1,8.541-1.8h2.113a21.247,21.247,0,0,1,4.388.457,7.737,7.737,0,0,0,2.58,2.533A21.133,21.133,0,0,1,7567.3,1974.292Zm-23-21.136h5.38a3.574,3.574,0,0,0,3.588-3.2,3.523,3.523,0,0,0-3.508-3.843h-5.38a3.573,3.573,0,0,0-3.588,3.2A3.523,3.523,0,0,0,7544.307,1953.157Zm51.881-18.145a7.747,7.747,0,0,1-2.58-2.533,21.188,21.188,0,0,0-4.388-.458h-2.114a21.049,21.049,0,0,0-8.54,1.8,6.685,6.685,0,0,0-3.965,6.106v.022a11.448,11.448,0,0,0,11.448,11.449h20.356A21.13,21.13,0,0,0,7596.188,1935.011Zm-12.779-4.752h5.38a3.573,3.573,0,0,0,3.588-3.2,3.522,3.522,0,0,0-3.508-3.843h-5.38a3.574,3.574,0,0,0-3.588,3.2A3.523,3.523,0,0,0,7583.408,1930.259Z" transform="translate(-74.148 -82.387)" fill="#bababa"/>
  </g>
</svg>
