<svg id="t4-i1" xmlns="http://www.w3.org/2000/svg" width="1088" height="323" viewBox="0 0 1088 323">
  <g id="Illustration">
    <rect id="Rectangle_5250" data-name="Rectangle 5250" width="1088" height="323" fill="#fff4d3"/>
    <circle id="Ellipse_3986" data-name="Ellipse 3986" cx="52.54" cy="52.54" r="52.54" transform="translate(926.94 189.71)" fill="#d8ffeb"/>
    <circle id="Ellipse_3987" data-name="Ellipse 3987" cx="55.64" cy="55.64" r="55.64" transform="translate(923.84 186.61)" fill="none" stroke="#1f8551" stroke-miterlimit="10" stroke-width="2"/>
    <circle id="Ellipse_3988" data-name="Ellipse 3988" cx="83.5" cy="83.5" r="83.5" transform="translate(460.5 78.07)" fill="#7b1fa2"/>
    <circle id="Ellipse_3989" data-name="Ellipse 3989" cx="88.43" cy="88.43" r="88.43" transform="translate(455.57 73.14)" fill="none" stroke="#7b1fa2" stroke-miterlimit="10" stroke-width="2.5"/>
    <circle id="Ellipse_3990" data-name="Ellipse 3990" cx="91.93" cy="91.93" r="91.93" transform="translate(452.07 69.64)" fill="none" stroke="#7b1fa2" stroke-miterlimit="10" stroke-width="1"/>
    <circle id="Ellipse_3991" data-name="Ellipse 3991" cx="55.17" cy="55.17" r="55.17" transform="translate(270.62 106.4)" fill="#ffe8e8"/>
    <circle id="Ellipse_3992" data-name="Ellipse 3992" cx="58.43" cy="58.43" r="58.43" transform="translate(267.36 103.14)" fill="none" stroke="#e863c9" stroke-miterlimit="10" stroke-width="2"/>
    <circle id="Ellipse_3993" data-name="Ellipse 3993" cx="52.54" cy="52.54" r="52.54" transform="translate(56.41 28.21)" fill="#ffe8e8"/>
    <circle id="Ellipse_3994" data-name="Ellipse 3994" cx="55.64" cy="55.64" r="55.64" transform="translate(53.31 25.11)" fill="none" stroke="#e863c9" stroke-miterlimit="10" stroke-width="2"/>
    <circle id="Ellipse_3995" data-name="Ellipse 3995" cx="52.54" cy="52.54" r="52.54" transform="translate(56.41 189.71)" fill="#ffe8e8"/>
    <circle id="Ellipse_3996" data-name="Ellipse 3996" cx="55.64" cy="55.64" r="55.64" transform="translate(53.31 186.61)" fill="none" stroke="#e863c9" stroke-miterlimit="10" stroke-width="2"/>
    <g id="Group">
      <text id="Telas" transform="translate(301.04 155.42)" fill="#12263f" font-size="20" font-family="Roboto-Bold, Roboto" font-weight="700"><tspan x="0" y="0">Telas</tspan></text>
      <text id="tejidas" transform="translate(295.62 179.42)" fill="#12263f" font-size="20" font-family="Roboto-Bold, Roboto" font-weight="700"><tspan x="0" y="0">tejidas</tspan></text>
    </g>
    <g id="Group-2" data-name="Group">
      <text id="Tejido" transform="translate(80.82 74.59)" fill="#12263f" font-size="20" font-family="Roboto-Bold, Roboto" font-weight="700"><tspan x="0" y="0">Tejido</tspan></text>
      <text id="de_pun" data-name="de pun" transform="translate(69.71 98.59)" fill="#12263f" font-size="20" font-family="Roboto-Bold, Roboto" font-weight="700"><tspan x="0" y="0">de pun</tspan></text>
      <text id="t" transform="translate(130.42 98.59)" fill="#12263f" font-size="20" font-family="Roboto-Bold, Roboto" font-weight="700" letter-spacing="-0.01em"><tspan x="0" y="0">t</tspan></text>
      <text id="o" transform="translate(136.88 98.59)" fill="#12263f" font-size="20" font-family="Roboto-Bold, Roboto" font-weight="700"><tspan x="0" y="0">o</tspan></text>
    </g>
    <g id="Group-3" data-name="Group">
      <text id="Tejido-2" data-name="Tejido" transform="translate(80.82 236.09)" fill="#12263f" font-size="20" font-family="Roboto-Bold, Roboto" font-weight="700"><tspan x="0" y="0">Tejido</tspan></text>
      <text id="plano" transform="translate(84.05 260.09)" fill="#12263f" font-size="20" font-family="Roboto-Bold, Roboto" font-weight="700"><tspan x="0" y="0">plano</tspan></text>
    </g>
    <text id="Interl贸n" transform="translate(944.63 248.09)" fill="#12263f" font-size="20" font-family="Roboto-Bold, Roboto" font-weight="700"><tspan x="0" y="0">Interl贸n</tspan></text>
    <g id="Group-4" data-name="Group">
      <text id="Clasificaci贸n" transform="translate(479.58 154.8)" fill="#fff" font-size="22" font-family="Roboto-Black, Roboto" font-weight="800"><tspan x="0" y="0">Clasificaci贸n</tspan></text>
      <text id="de_los_tejidos" data-name="de los tejidos" transform="translate(477.75 181.2)" fill="#fff" font-size="22" font-family="Roboto-Black, Roboto" font-weight="800"><tspan x="0" y="0">de los tejidos</tspan></text>
    </g>
    <path id="Path_103343" data-name="Path 103343" d="M187.2,229.38c-5.3,2.75-13.23,4.62-19.43,5.34,5.17,3.5,11.34,8.82,14.78,13.7l-1.12-10.36Z" fill="#ffd54f"/>
    <path id="Path_103344" data-name="Path 103344" d="M180.43,237.72s56,12,90-31" fill="none" stroke="#ffd54f" stroke-linecap="round" stroke-linejoin="round" stroke-width="4"/>
    <path id="Path_103345" data-name="Path 103345" d="M187.2,93.76c-5.3-2.76-13.2-4.62-19.43-5.34,5.17-3.5,11.34-8.82,14.78-13.7l-1.12,10.36Z" fill="#ffd54f"/>
    <path id="Path_103346" data-name="Path 103346" d="M180.43,85.42s56-12,90,31" fill="none" stroke="#ffd54f" stroke-linecap="round" stroke-linejoin="round" stroke-width="4"/>
    <circle id="Ellipse_3997" data-name="Ellipse 3997" cx="55.17" cy="55.17" r="55.17" transform="translate(707.47 106.4)" fill="#d8ffeb"/>
    <circle id="Ellipse_3998" data-name="Ellipse 3998" cx="58.43" cy="58.43" r="58.43" transform="translate(704.21 103.14)" fill="none" stroke="#1f8551" stroke-miterlimit="10" stroke-width="2"/>
    <circle id="Ellipse_3999" data-name="Ellipse 3999" cx="52.54" cy="52.54" r="52.54" transform="translate(926.94 28.21)" fill="#d8ffeb"/>
    <circle id="Ellipse_4000" data-name="Ellipse 4000" cx="55.64" cy="55.64" r="55.64" transform="translate(923.84 25.11)" fill="none" stroke="#1f8551" stroke-miterlimit="10" stroke-width="2"/>
    <path id="Path_103347" data-name="Path 103347" d="M901.23,229.38c5.3,2.75,13.23,4.62,19.43,5.34-5.17,3.5-11.34,8.82-14.78,13.7L907,238.06Z" fill="#ffd54f"/>
    <path id="Path_103348" data-name="Path 103348" d="M908,237.72s-56,12-90-31" fill="none" stroke="#ffd54f" stroke-linecap="round" stroke-linejoin="round" stroke-width="4"/>
    <path id="Path_103349" data-name="Path 103349" d="M901.23,93.76c5.3-2.75,13.23-4.62,19.43-5.34-5.17-3.5-11.34-8.82-14.78-13.7L907,85.08Z" fill="#ffd54f"/>
    <path id="Path_103350" data-name="Path 103350" d="M908,85.42s-56-12-90,31" fill="none" stroke="#ffd54f" stroke-linecap="round" stroke-linejoin="round" stroke-width="4"/>
    <path id="Path_103351" data-name="Path 103351" d="M406,151.77c-4.48,4-11.71,7.7-17.55,9.91,5.86,2.13,13.15,5.79,17.67,9.69l-3.6-9.78Z" fill="#ffd54f"/>
    <line id="Line_186" data-name="Line 186" x2="46" transform="translate(400.53 161.57)" fill="none" stroke="#ffd54f" stroke-linecap="round" stroke-linejoin="round" stroke-width="4"/>
    <path id="Path_103352" data-name="Path 103352" d="M682,171.8c4.48-4,11.71-7.7,17.55-9.9-5.86-2.14-13.15-5.8-17.67-9.7l3.6,9.78Z" fill="#ffd54f"/>
    <line id="Line_187" data-name="Line 187" x1="46" transform="translate(641.47 162)" fill="none" stroke="#ffd54f" stroke-linecap="round" stroke-linejoin="round" stroke-width="4"/>
    <g id="Group-5" data-name="Group">
      <text id="Telas-2" data-name="Telas" transform="translate(737.89 155.42)" fill="#12263f" font-size="20" font-family="Roboto-Bold, Roboto" font-weight="700"><tspan x="0" y="0">Telas</tspan></text>
      <text id="no_tejidas" data-name="no tejidas" transform="translate(718.72 179.42)" fill="#12263f" font-size="20" font-family="Roboto-Bold, Roboto" font-weight="700"><tspan x="0" y="0">no tejidas</tspan></text>
    </g>
    <text id="Guatas" transform="translate(947.83 86.59)" fill="#12263f" font-size="20" font-family="Roboto-Bold, Roboto" font-weight="700"><tspan x="0" y="0">Guatas</tspan></text>
  </g>
</svg>
