<svg id="t4-i7" xmlns="http://www.w3.org/2000/svg" width="536" height="320" viewBox="0 0 536 320">
  <g id="Illustration">
    <rect id="Rectangle_5104" data-name="Rectangle 5104" width="536" height="320" rx="20" fill="#fff4d3"/>
    <text id="Punto_de_Urdimbre" data-name="Punto de
Urdimbre" transform="translate(353.67 152.63)" fill="#12263f" font-size="23.96" font-family="Roboto-Bold, Roboto" font-weight="700"><tspan x="0" y="0">Pun</tspan><tspan y="0" letter-spacing="-0.01em">t</tspan><tspan y="0">o de</tspan><tspan x="0" y="28.76">Urdimbre</tspan></text>
    <path id="Path_100852" data-name="Path 100852" d="M186.4,34.39l29.48,49.42s5.3,9.88,8.84,7.68l1.18-.55,3.54,3.3S226.49,97,224.72,97s-6.48.55-11.2-7.13L178.73,32.74h4.72Z" fill="#7b1fa2"/>
    <path id="Path_100853" data-name="Path 100853" d="M228.26,86.55l19.46-26.9,2.95,4.94L232.98,89.84Z" fill="#7b1fa2"/>
    <path id="Path_100854" data-name="Path 100854" d="M220.01,62.39l1.18-10.43-5.31-3.84L214.7,60.74l-.59,6.59-2.36,12.08,5.31,5.49,1.18-10.98,1.18-6.59Z" fill="#7b1fa2"/>
    <path id="Path_100855" data-name="Path 100855" d="M250.67,54.71l3.53,4.94s7.08-7.14,5.31-15.93A19.48,19.48,0,0,0,247.72,28.9s-15.33-4.9-25.95,4.94l-3.53,6-1.77,8.79-.06,4.57,4.19.92.58-3.3s0-13.73,10-17c0,0,14.74-4.39,20,4.39C251.26,38.23,257.74,45.92,250.67,54.71Z" fill="#7b1fa2"/>
    <path id="Path_100856" data-name="Path 100856" d="M214.91,91.45l-27.33,45.62-7.08,12.07s-7.08,9.34-14.74,1.65L169.3,147l1.18.55s2.35,2.74,5.3-1.1l19.46-31.85L210,89.85l3-.65Z" fill="#7b1fa2"/>
    <path id="Path_100857" data-name="Path 100857" d="M148.07,116.75l18.28,26.35-3.54,2.75-17.69-24.71Z" fill="#7b1fa2"/>
    <path id="Path_100858" data-name="Path 100858" d="M153.38,89.3A15.75,15.75,0,0,0,142.76,97c-3.54,6.59,1.77,14.28,1.77,14.28l-2.95,5.49s-7.66-8.79-5.3-18.67,14.15-13.2,14.15-13.2l1.18,1.65Z" fill="#7b1fa2"/>
    <path id="Path_100859" data-name="Path 100859" d="M156.91,83.81l3,5.49s8.26.55,11.2,6,5.9,32.94,5.9,32.94l1.77,13.18,4.69-6.94-4.69-35.34S175.78,85.45,156.91,83.81Z" fill="#7b1fa2"/>
    <path id="Path_100860" data-name="Path 100860" d="M185.81,147l28.89,47.77,4.72,7.68,3.53,2.2,1.77-1.1,1.77,1.1,2.95,1.65-.59,1.1s-4.72,4.39-10,1.09-23-35.69-23-35.69l-15-24.38,1.7-2.82,2.07-.25Z" fill="#7b1fa2"/>
    <path id="Path_100861" data-name="Path 100861" d="M228.26,199.66l19.46-27.45,2.95,4.94L232.98,202.4Z" fill="#7b1fa2"/>
    <path id="Path_100862" data-name="Path 100862" d="M251.26,167.26l2.94,5s6.49-8.24,5.31-15.38-5.31-13.73-14.74-15.92l-2.36,4.39,6.49,2.75,4.72,5.49.58,6.59-1.76,5.49Z" fill="#7b1fa2"/>
    <path id="Path_100863" data-name="Path 100863" d="M215.41,203.82l-33.73,56.24-2.95,3.84-4.72,2.2-4.71-.55-3.54-1.65,1.18-1.65,1.77-2.19,1.76-.55v1.1l2.95.54,2.36-1.64,34.2-56.56,3.54-1.13Z" fill="#7b1fa2"/>
    <path id="Path_100864" data-name="Path 100864" d="M185.81,258.96,207.03,293h-7.66l-18.7-32.36,1.39-2.7,3.16.47Z" fill="#7b1fa2"/>
    <path id="Path_100865" data-name="Path 100865" d="M166.35,255.11l-18.28-26.35-2.95,4.94,17.1,25.26Z" fill="#7b1fa2"/>
    <path id="Path_100866" data-name="Path 100866" d="M144.53,223.82s-5.14-7.14-2.27-14,11.12-8,11.12-8l-2.95-4.39a19.59,19.59,0,0,0-11.8,7.69c-4.71,6.59-2.94,15.92,3,23.06Z" fill="#7b1fa2"/>
    <path id="Path_100867" data-name="Path 100867" d="M172.24,201.85c4.13,4.4,5.9,7.14,7.08,15.38l4.13,30.24L178.73,254l-5.31-40.09s-.59-10.43-13.56-12.08l-3-4.94S168.12,197.46,172.24,201.85Z" fill="#7b1fa2"/>
    <path id="Path_100868" data-name="Path 100868" d="M225.46,150.91s-2.44,1.13-3.67,8-4.88,37.51-4.88,37.51h-1.22L212,189.55l2.44-17.05,2.44-17.05s3.66-7.95,4.88-9.09Z" fill="#7b1fa2"/>
    <path id="Path_100869" data-name="Path 100869" d="M226.68,142.95l6.1-2.27h4.88l1.22,1.13-2.44,3.41-7.32,2.28-2.44-3.41Z" fill="#7b1fa2"/>
    <path id="Path_100870" data-name="Path 100870" d="M305.83,48.5l1.07,1.78,2.45,4.06.85,1.4,5.33,8.83v-2.8L311,54.29c2.31-4.76,3.69-13.78-4.18-22l-.26-.24c-11.74-9.64-28.07-2.75-30-1l-.24.21-.08.06c-1.95,1.61-7.13,5.9-8.31,17l-3.48,27.54-9.6-15.92c1.62-2.35,2.66-3.87,2.78-4.05h0v-.05c2.69-4.11,5.47-14.31-3.34-23.54l-.26-.24c-7-5.72-15.55-5.62-21.78-4.22h-.15l-.12.06c-4.13,1-7.18,2.49-7.95,3.2l-.24.21-.08.06c-2,1.61-7.12,5.9-8.31,17L212,75.84,199,54.29c2.31-4.76,3.69-13.78-4.18-22l-.26-.24c-11.74-9.64-28.07-2.75-30-1l-.25.21-.07.06c-1.95,1.61-7.13,5.9-8.32,17l-3.47,27.54-11-18.2,1.21-1.77h0v-.05c2.69-4.11,5.47-14.31-3.34-23.54l-.26-.24c-11.74-9.64-28.07-2.75-30-1l-.24.21-.08.06c-2,1.61-7.12,5.9-8.31,17L97,75.84,82,51v2.8L96.71,78.15l1.22,2,2.19,3.63.74,1.23.26.43L102,86.9l.61,1v.07c.07.14.16.3.26.48a14,14,0,0,0,1.61,2.25,5.56,5.56,0,0,0,3.39,2.11A4.92,4.92,0,0,0,111.48,91a16.151,16.151,0,0,1,2.93,1.17l.46.39.13.11c-2.33,2.66-4.83,3.9-7.44,3.69a8.51,8.51,0,0,1-5-2.39,11.75,11.75,0,0,1-1.05-1.07,16.49,16.49,0,0,1-1.87-2.6c-.2-.34-.36-.63-.44-.8l-.28-.45L97.34,86.5,97,85.88l-.72-1.2-.31-.5L82,61.11v2.8L94.86,85.17a21.36,21.36,0,0,0-5.8,3.41l-.26.24c-7.88,8.24-6.5,17.26-4.19,22L82,115.12v2.81l3.39-5.63.85-1.41,2.45-4.06,1.07-1.77L98.3,91a18,18,0,0,0,2.42,3.27l-9.19,15.24-.82,1.35-2.13,3.54-.82,1.36L82,125.22V128l6.63-11c4.62,6.69,13.29,19.24,19.27,27.6-2.31,2-6.41,6.54-7.45,16.24L97,188.4,82,163.58v2.8l14.68,24.33,1.22,2,2.19,3.62.74,1.24.26.43.88,1.45.61,1v.07c.07.14.16.3.26.48a14,14,0,0,0,1.61,2.25,5.6,5.6,0,0,0,3.39,2.11,4.92,4.92,0,0,0,3.58-1.81,15.419,15.419,0,0,1,2.93,1.17l.46.39.13.11c-2.33,2.66-4.83,3.9-7.44,3.69a8.51,8.51,0,0,1-5-2.39,11.751,11.751,0,0,1-1.05-1.07,16.49,16.49,0,0,1-1.87-2.6c-.2-.34-.36-.63-.44-.8l-.28-.45-1.56-2.59-.37-.62-.72-1.2-.31-.5L82,173.67v2.8l12.83,21.26a21.321,21.321,0,0,0-5.8,3.4l-.26.24c-7.88,8.25-6.5,17.27-4.19,22L82,227.68v2.81l3.39-5.63.85-1.41,2.45-4.06,1.07-1.78,8.51-14.1a18,18,0,0,0,2.42,3.27L91.53,222l-.82,1.35-2.13,3.54-.82,1.36L82,237.77v2.8l6.63-11c4.62,6.7,13.29,19.24,19.27,27.61-2.31,2.05-6.41,6.54-7.45,16.23L98,293h1.49l2.45-19.44c1-9,4.63-13.22,6.83-15.22.38-.36.73-.64,1-.87l.07-.06h0l.3-.25a11.11,11.11,0,0,1,3-1.59c.43-.17.9-.35,1.4-.52,1-.32,2-.63,3.23-.9a31,31,0,0,1,4.21-.63h.12c.54,0,1.08-.07,1.64-.07h1.66l.1.86-1.26,2.1h0v.09a3.769,3.769,0,0,1-.26.48,26.107,26.107,0,0,0-3.86.35c-.53.09-1,.19-1.52.29s-1.19.29-1.73.45-1,.31-1.45.47a16.057,16.057,0,0,0-2.27,1,.379.379,0,0,0-.13.06l-.12.09h0l-.47.4-.29.24a11.408,11.408,0,0,0-1.07,1c-1.88,1.87-4.44,5.42-5.21,12.6L103.35,293h1.48l2.39-18.9c.7-6.53,2.92-9.84,4.63-11.62,2.5,2.94,5.24,4.43,8.18,4.43h.7a8.68,8.68,0,0,0,2.91-.76l9.87,16.37L126.16,293h1.76l6.41-9.16,2.15,3.58c-1.16,1.68-2.46,3.57-3.86,5.58h1.76l2.92-4.23,2.55,4.23h1.69l-3.34-5.53-.81-1.36-2.15-3.56-.82-1.35-9.5-15.76a13.86,13.86,0,0,0,2.88-2.5l9,14.88.82,1.35,2.13,3.54.82,1.35,5.39,8.94h1.69l-6.18-10.25,1.21-1.76h0v-.05c2.69-4.11,5.47-14.31-3.34-23.54l-.26-.24a21.151,21.151,0,0,0-5.53-3.29l11.34-18.8c5.15,7.44,12.05,17.36,16.73,23.84-2.24,2.54-4.93,6.94-5.75,14.52L153.43,293h1.48l2.46-19.44c.74-6.92,3.09-11,5.14-13.47.34-.41.68-.77,1-1.09.68-.68,1.27-1.17,1.7-1.53l.07-.06.31-.26a4.821,4.821,0,0,1,.8-.55c.36-.2.79-.43,1.31-.66a30.531,30.531,0,0,1,10.21-2.45l.1.82-1.26,2.1h0l-.05.09a7.233,7.233,0,0,1-.39.71A27.848,27.848,0,0,0,170,258.9a13.586,13.586,0,0,0-1.37.61h-.06a.31.31,0,0,0-.13.06.509.509,0,0,0-.13.09h0l-.46.4a16.581,16.581,0,0,0-2,1.84,12.747,12.747,0,0,0-.9,1.13c-1.55,2.12-3.13,5.46-3.71,10.84L158.77,293h1.49l2.39-18.9a21.122,21.122,0,0,1,3.28-10,9.7,9.7,0,0,0,6.57,2.78h.71c3.46-.28,6-2.59,7.65-4.63l10.3,17.07L181.59,293h1.76L192,280.67l2.14,3.55c-1.57,2.29-3.69,5.37-6.06,8.78h1.75c2-2.82,3.73-5.39,5.13-7.42l4.48,7.42h1.69l-5.27-8.73-.82-1.35-2.13-3.54-.81-1.35-10.29-17a18.058,18.058,0,0,0,1-1.7l.33-.55a15.751,15.751,0,0,1,2,.49l8.69,14.4,1.07,1.77,2.45,4.07.85,1.4L205.49,293h1.69L199,279.41c2.31-4.76,3.69-13.78-4.18-22l-.26-.24a21.64,21.64,0,0,0-8-4.13L200.7,229.6c4.94,7.18,14.54,21.06,20.5,29.32-2.24,2.54-4.93,6.94-5.74,14.52L213,293h1.49l2.45-19.44c.75-6.92,3.1-11,5.15-13.47a13.63,13.63,0,0,1,1-1.09,22.38,22.38,0,0,1,1.69-1.53l.08-.06.31-.26a4.42,4.42,0,0,1,.8-.55c.35-.2.79-.43,1.3-.66s1.17-.5,1.86-.75a32.171,32.171,0,0,1,3.77-1.07c.48-.1,1-.2,1.48-.28s1-.16,1.56-.22,1-.1,1.54-.14l.11.83-1.27,2.1h0v.09c-.11.23-.25.47-.4.72a26.768,26.768,0,0,0-3.39.67l-1.44.42c-.56.18-1.06.37-1.49.54a13.214,13.214,0,0,0-1.36.61h-.07a.38.38,0,0,0-.13.06l-.12.09h0l-.47.4a16.631,16.631,0,0,0-2,1.84,12.763,12.763,0,0,0-.91,1.13c-1.55,2.12-3.13,5.46-3.71,10.84L218.33,293h1.48l2.39-18.9c.53-4.9,1.9-8,3.28-10a9.74,9.74,0,0,0,6.58,2.78h.7a8.55,8.55,0,0,0,2.91-.76l11.24,18.64L241.14,293h1.76l4.83-6.89,2.16,3.59c-.73,1.05-1.49,2.16-2.29,3.3h1.76l1.35-1.95,1.18,1.95h1.68l-2-3.26-.82-1.35-2.16-3.58-.81-1.35-10.87-18a13.921,13.921,0,0,0,2.89-2.5l10.34,17.15.81,1.35,2.15,3.55.82,1.36,4,6.65h1.69l-4.8-8,2.78-4.05h0v-.05c2.69-4.11,5.47-14.31-3.34-23.54l-.26-.24a21.49,21.49,0,0,0-8-4.13l12.21-20.24c4.84,7,11.94,17.24,17.07,24.41-2.31,2.05-6.41,6.54-7.45,16.23L265.46,293H267l2.45-19.44c1-9,4.63-13.22,6.83-15.22.77,1.08,1.49,2.07,2.14,3l.05.06c-1.88,1.87-4.44,5.42-5.21,12.6l-2.45,19h1.48l2.39-18.9c.7-6.53,2.92-9.84,4.63-11.62,2.5,2.94,5.24,4.43,8.18,4.43h.7a10,10,0,0,0,5.86-2.71l9.14,15.15L293.62,293h1.76L304,280.67l2.15,3.55c-1.58,2.29-3.7,5.37-6.07,8.78h1.76l5.12-7.42,4.48,7.42h1.69l-5.27-8.73-.81-1.35-2.14-3.54L304.1,278l-9-14.92a18.2,18.2,0,0,0,2.39-3.33l8.34,13.84,1.07,1.77,2.45,4.07.85,1.4,5.33,8.83v-2.8L311,279.41c2.31-4.76,3.69-13.78-4.18-22l-.26-.24a21.149,21.149,0,0,0-5.53-3.29l14.49-24V227l-15.85,26.27h0l-.73,1.2-.65,1.08L297,257.73l-.56.92-.17.33a17.109,17.109,0,0,1-1.95,2.85,13.076,13.076,0,0,1-1,1.1,8.62,8.62,0,0,1-5.24,2.58c-2.71.22-5.3-1.13-7.7-4-.26-.31-.52-.64-.77-1a1.133,1.133,0,0,1-.1-.13c-.66-.89-1.38-1.89-2.17-3l-.82-1.16c-3.23-4.51-7.21-10.2-10.92-15.53-2.35-3.38-4.58-6.6-6.44-9.3l2.16-3.57,6.79,9.71-.1.06c.27.38.54.77.8,1.16,3.76,5.4,7.8,11.16,11,15.68l.8,1.11c.77,1.07,1.48,2.06,2.13,2.94l.07.08a14.487,14.487,0,0,0,.93,1.15c1.4,1.54,2.75,2.32,4,2.23a5.85,5.85,0,0,0,3.59-2.33A13.22,13.22,0,0,0,293,257.1v-.05h0l.6-1,.88-1.46.57-.94.74-1.23,1.88-3.12,1.23-2,16.61-27.54v-2.8l-16.9,28-3.48-27.54c-1.08-10-5.45-14.5-7.7-16.45,6-8.36,14.84-21.15,19.51-27.94l8.57,14.2v-2.8l-7.67-12.71-.81-1.35-2.14-3.54-.81-1.35-9-14.92a18.2,18.2,0,0,0,2.39-3.32l8.34,13.83,1.07,1.77,2.45,4.07.85,1.4,5.33,8.83v-2.8L311,166.85c2.31-4.76,3.69-13.78-4.18-22l-.26-.24a21.15,21.15,0,0,0-5.53-3.29l14.49-24v-2.8l-15.85,26.27v.05l-.73,1.19-.65,1.08L297,145.17l-.56.92c0,.09-.1.2-.17.33a17.11,17.11,0,0,1-1.95,2.85,11.7,11.7,0,0,1-1,1.1,8.69,8.69,0,0,1-5.24,2.59c-2.71.22-5.3-1.14-7.7-4l.4-.33.46-.4a14.1,14.1,0,0,1,2.53-1c1.4,1.55,2.75,2.32,4,2.23a5.85,5.85,0,0,0,3.59-2.33,13.529,13.529,0,0,0,1.67-2.5v-.06h0l.6-1,.88-1.46.57-.94.74-1.23,1.88-3.12,1.23-2,16.61-27.54v-2.8l-16.9,28-3.48-27.54c-1.08-10-5.45-14.5-7.7-16.45,6-8.36,14.84-21.15,19.51-27.94l8.57,14.2v-2.8l-7.67-12.71-.81-1.35-2.14-3.54L304.11,53,292.28,33.4a17.76,17.76,0,0,1,4.88.79ZM89.59,102.59a13.76,13.76,0,0,1,4.11-9.4,14,14,0,0,1,2.54-1.63Zm7.88-13.07a16.18,16.18,0,0,0-4.77,2.66l-.08.07c-4.34,4.61-4.85,9.21-4.35,12.53l-2.74,4.54c-1.86-4.58-2.52-12.38,4.34-19.56l.2-.18a19.79,19.79,0,0,1,5.51-3.21l1.9,3.15ZM89.59,215.15a13.76,13.76,0,0,1,4.11-9.4,14,14,0,0,1,2.54-1.63Zm7.88-13.07a16.18,16.18,0,0,0-4.77,2.66l-.08.07c-4.34,4.61-4.85,9.21-4.35,12.53l-2.74,4.54c-1.86-4.58-2.52-12.38,4.34-19.56l.2-.18a19.789,19.789,0,0,1,5.51-3.21l1.9,3.15Zm201.92,58a14.874,14.874,0,0,1,2.54,1.62,13.8,13.8,0,0,1,4.11,9.41Zm.93-5.1a20.169,20.169,0,0,1,5.24,3.11l.2.18c6.86,7.19,6.2,15,4.34,19.57l-2.74-4.54c.49-3.33,0-7.93-4.36-12.54l-.07-.07a16.21,16.21,0,0,0-4.51-2.55Zm-.93-107.46a14.869,14.869,0,0,1,2.54,1.62A13.82,13.82,0,0,1,306,158.6Zm.93-5.09a20.13,20.13,0,0,1,5.24,3.1l.2.18c6.86,7.19,6.2,15,4.34,19.57l-2.74-4.54c.49-3.33,0-7.93-4.36-12.54l-.07-.07a16.21,16.21,0,0,0-4.51-2.55ZM299.39,35a14.869,14.869,0,0,1,2.54,1.62A13.82,13.82,0,0,1,306,46ZM264.17,78.15l1.22,2,2.19,3.63.74,1.22.26.44.88,1.46.61,1v.07c.07.14.16.3.26.48a13.715,13.715,0,0,0,.9,1.37,9.8,9.8,0,0,0,2.29,2.3,4.55,4.55,0,0,0,1.33.61l.48.08A4.92,4.92,0,0,0,278.94,91a15.631,15.631,0,0,1,2.92,1.17l.47.39.12.11c-2.32,2.66-4.82,3.9-7.43,3.69a7.25,7.25,0,0,1-2-.49,7.531,7.531,0,0,1-1.31-.63,12.19,12.19,0,0,1-2.88-2.52c-.35-.42-.67-.83-1-1.22a8.03,8.03,0,0,1-.76-1.19c-.2-.34-.36-.64-.44-.81l-.28-.46L264.8,86.5l-.37-.63-.72-1.19-.31-.5L251.61,64.63l-.82-1.36-2.16-3.58-.81-1.35L233.17,34.06a27.379,27.379,0,0,1,4-.67l13,21.58.81,1.35,2.15,3.55.82,1.36Zm9,11.78a10.981,10.981,0,0,1,1.63.17l1.53.27,1,.22a3.23,3.23,0,0,1-1.67.88h-.17a2.54,2.54,0,0,1-1.21-.53,8,8,0,0,1-1.11-1.01Zm.38,114.79a4.271,4.271,0,0,0,1.33.6,4,4,0,0,0,.48.09,4.92,4.92,0,0,0,3.58-1.81,14.94,14.94,0,0,1,2.92,1.17l.47.39.12.11c-2.32,2.66-4.82,3.9-7.43,3.69a7.25,7.25,0,0,1-2-.49,8.33,8.33,0,0,1-1.31-.63,12.19,12.19,0,0,1-2.88-2.52c-.35-.42-.67-.83-1-1.23a8.531,8.531,0,0,1-.76-1.18c-.2-.34-.36-.64-.44-.81l-.28-.46-1.56-2.58-.37-.63-.72-1.19-.31-.5L251.6,177.19l-.82-1.36-2.16-3.58-.81-1.35-10.87-18a13.92,13.92,0,0,0,2.89-2.5l10.34,17.15.81,1.35,2.15,3.55.82,1.36,10.21,16.92,1.22,2,2.19,3.62.74,1.23.26.44.88,1.45.61,1v.07c.07.14.16.3.26.48a13.708,13.708,0,0,0,.9,1.37A10,10,0,0,0,273.55,204.72Zm-.38-2.24c.55.05,1.1.1,1.63.18l1.53.26,1,.23a3.13,3.13,0,0,1-1.67.87h-.17a2.54,2.54,0,0,1-1.21-.53,7.491,7.491,0,0,1-1.11-1.01Zm-19,21.71c-.11-.17-.23-.36-.34-.56-2.36-4.1-4.34-13.11,3.5-21.31l.2-.18a20.18,20.18,0,0,1,5.5-3.22l1.91,3.16a16.181,16.181,0,0,0-4.79,2.66l-.07.07c-6.95,7.39-4.07,14.75-3,16.88l.06.13L255,225.39l-.41-.58h0Zm-31.29-18.78a4.07,4.07,0,0,0,2.72-1,7.411,7.411,0,0,1,.84.41l.46.39a14.85,14.85,0,0,1,1.65,1.54,8,8,0,0,1-6,2.26c-3.07-.25-5.37-2.46-6.8-4.34a15.663,15.663,0,0,1-.9-1.31c-.2-.32-.36-.6-.49-.83l-.2-.38-.57-.94-1.27-2.1-.75-1.25-.64-1.07-.09-.15-15-24.88-.82-1.35-2.13-3.54-.81-1.35-10.29-17.05a18.058,18.058,0,0,0,1-1.7l.33-.55a17.666,17.666,0,0,1,2,.49l8.69,14.4,1.07,1.77,2.45,4.07.85,1.4,13.52,22.41,1.22,2,2.05,3.38.78,1.3.36.61.88,1.45.61,1v.07l.29.53a15,15,0,0,0,1,1.5C219.92,203.92,221.35,205.28,222.88,205.41Zm-1.7-2.43a26.523,26.523,0,0,1,2.82.77,1.92,1.92,0,0,1-1,.29,3.45,3.45,0,0,1-1.82-1.04Zm-16.45,1.76a.23.23,0,0,0-.07.07c-4.34,4.61-4.85,9.21-4.36,12.53l-2.74,4.54c-1.86-4.58-2.52-12.38,4.34-19.56l.2-.18a20.1,20.1,0,0,1,8-4l2,3.26-.5.09a17.547,17.547,0,0,0-2.05.59,16.31,16.31,0,0,0-4.82,2.66Zm3.54-.62-6.65,11a13.76,13.76,0,0,1,4.11-9.4,14.349,14.349,0,0,1,2.54-1.6Zm-45.42,1.2a3.18,3.18,0,0,0,3.2-1,6.343,6.343,0,0,1,.83.41l.47.39A15.8,15.8,0,0,1,169,206.7a8,8,0,0,1-6,2.26,7.17,7.17,0,0,1-2-.49,8.331,8.331,0,0,1-1.31-.63,12,12,0,0,1-2.88-2.52,13.642,13.642,0,0,1-.95-1.23,15.251,15.251,0,0,1-1-1.61c-.09-.15-.16-.29-.21-.38l-.57-.95-1.26-2.09-.75-1.25-.65-1.07-.09-.15L138.2,174.91l-.81-1.36L135.24,170l-.82-1.35-9.5-15.76a13.86,13.86,0,0,0,2.88-2.5l9,14.88.82,1.35,2.13,3.54.82,1.35,11.58,19.21,1.23,2,2,3.38.78,1.29.37.62.88,1.45.6,1v.07c.08.15.17.34.29.54a13.86,13.86,0,0,0,1,1.49,9.65,9.65,0,0,0,2.16,2.12,4.17,4.17,0,0,0,1.39.64ZM161.62,203l.83.19,1.45.41.55.17a2,2,0,0,1-.82.27h-.18a2.55,2.55,0,0,1-1.2-.53,5.914,5.914,0,0,1-.63-.51Zm-41.36-53.6a3,3,0,0,0,.77-.17,4.891,4.891,0,0,0,1.27-.68,10.63,10.63,0,0,0,2.45-2.68,11.239,11.239,0,0,0,.77-1.3v-.06h0l.6-1L127,142l.57-.94.74-1.23,1.88-3.12,1.23-2,10.21-16.93.82-1.35,2.14-3.56.82-1.35L156,94a13.08,13.08,0,0,0,2.93,2.43L147.81,114.9l-.82,1.35-2.16,3.58-.81,1.35-11.8,19.55v.05l-.72,1.19-.65,1.08-1.28,2.11-.56.93c0,.08-.1.2-.17.32-.19.35-.48.85-.86,1.42q-.4.6-.93,1.26a12.5,12.5,0,0,1-2.84,2.59,8.23,8.23,0,0,1-1.28.68,7.281,7.281,0,0,1-2.31.6c-2.7.22-5.3-1.14-7.7-4l.4-.33.46-.4a14.1,14.1,0,0,1,2.53-1C117.69,148.72,119,149.49,120.26,149.4Zm-2.43-2.69c.46-.12,1-.23,1.47-.34l1.53-.27c.68-.09,1.39-.17,2.13-.21a9.1,9.1,0,0,1-1.39,1.44,3.21,3.21,0,0,1-1.28.68h-.15a3.5,3.5,0,0,1-2.31-1.3Zm9-77.06.8-1.15-.1-.06,6.8-9.71,2.15,3.57c-1.85,2.69-4.09,5.92-6.44,9.3-3.8,5.47-7.89,11.31-11.16,15.87a14.721,14.721,0,0,0-3.38-1.7c3.28-4.58,7.5-10.53,11.33-16.12ZM114.09,85.26a32.74,32.74,0,0,0-11.24-1.68L107.22,49c.93-8.67,4.54-11.66,6.08-12.93l.46-.39a20.92,20.92,0,0,1,5.54-1.85L133.51,57.4,125.9,68.27a.57.57,0,0,0-.11.36C121.79,74.39,117.45,80.58,114.09,85.26ZM137.3,63.65l12.5,20.72a21.42,21.42,0,0,0-8.26,4.21l-.26.24c-8.82,9.23-6,19.43-3.34,23.54h0l2.78,4-9.6,15.92-3.48-27.54c-1.08-10-5.44-14.5-7.7-16.45C125.14,81.22,132.39,70.76,137.3,63.65Zm7.87,28.53-.07.07c-6.95,7.39-4.07,14.75-3,16.89.18.34.31.56.34.61l1.27,1.82-2.13,3.55-2-2.87h0l-.43-.61c-.11-.17-.23-.36-.34-.56-2.36-4.1-4.34-13.1,3.5-21.31l.19-.18a20.23,20.23,0,0,1,8-4l2,3.25a16.61,16.61,0,0,0-7.33,3.34Zm8.09-2.07v.06a18.259,18.259,0,0,0,1.72,2.7l-10.47,17.35L143.7,109c-.18-.3-4.87-8,2.48-15.84a15,15,0,0,1,7.08-3.05Zm9.94-.73a27.728,27.728,0,0,0-3-.62,10.19,10.19,0,0,1-.79-1.32v-.1l-1.27-2.09v-.28a14.36,14.36,0,0,1,1.61.13c.53.06,1.05.14,1.56.23s1,.18,1.48.28a29.669,29.669,0,0,1,3.76,1.07c.58.21,1.09.41,1.56.62a12.775,12.775,0,0,1,1.32.63,5.92,5.92,0,0,1,1.09.7c.08.08.19.17.31.27l.07.06c.38.31.89.74,1.47,1.3.32.31.65.66,1,1.06,2.1,2.41,4.59,6.56,5.36,13.73l3.72,29.43-3.1,5.13h-.11l-4.32-34.18c-.6-5.64-2.32-9-3.93-11.15-.32-.41-.63-.77-.93-1.09a17.17,17.17,0,0,0-1.7-1.56l-.47-.4h0l-.13-.09-.12-.06-.41-.2c-.36-.17-.84-.38-1.41-.59q-.51-.19-1.11-.39A8.453,8.453,0,0,0,163.2,89.38Zm1.25,1.81a2,2,0,0,1-.82.28h-.18a2.55,2.55,0,0,1-1.2-.53,5.911,5.911,0,0,1-.63-.53l.83.19,1.45.41Zm55.31-2.43a11.641,11.641,0,0,1-.8-1.32v-.1h0l-1.27-2.09v-.28a30.85,30.85,0,0,1,10,2.33,13.85,13.85,0,0,1,1.32.63,5.76,5.76,0,0,1,1.08.7l.32.27.07.06c.38.31.89.74,1.46,1.3.32.31.66.66,1,1.06,2.09,2.41,4.59,6.56,5.36,13.73l3.7,29.38-3.1,5.13h-.11l-4.31-34.18c-.61-5.64-2.32-9-3.94-11.15-.32-.41-.63-.77-.93-1.09a17.169,17.169,0,0,0-1.7-1.56l-.47-.4h0l-.12-.09-.13-.06-.4-.2c-.37-.17-.84-.38-1.42-.59a27.69,27.69,0,0,0-5.61-1.48ZM224,91.19a1.92,1.92,0,0,1-1,.29,3.45,3.45,0,0,1-1.83-1.06A29.141,29.141,0,0,1,224,91.19Zm32,77.06c-.39.58-1.08,1.58-2,2.87l-2.14-3.54,1.28-1.83c0-.05.16-.26.34-.61,1.08-2.14,4-9.5-3-16.89l-.08-.07a16.57,16.57,0,0,0-7-3.29l2-3.24a20.26,20.26,0,0,1,7.69,3.93l.2.18c7.83,8.21,5.86,17.21,3.5,21.32l-.34.56-.43.61Zm-4.92-2-10.29-17a16.862,16.862,0,0,0,1.53-2.46l.34-.55a15,15,0,0,1,6.78,3c7.34,7.85,2.66,15.55,2.48,15.84Zm-6.45-26.13-.38.63-.35.58-1,1.74-1,1.59-.79,1.31-.09.14a16.442,16.442,0,0,1-1,1.74c-.26.4-.58.82-.93,1.26a12.661,12.661,0,0,1-2.83,2.59,8.7,8.7,0,0,1-1.28.68,7.42,7.42,0,0,1-2.31.6,8.19,8.19,0,0,1-6.28-2.51l-1-1c-.4-.45-.8-.93-1.19-1.46l-1.1-1.52-.85-1.17c-3.39-4.7-7.9-11.13-12.05-17.12-3.38-4.85-6.52-9.4-8.65-12.49l2.14-3.55,9,12.88-.1.06c.26.39.53.77.8,1.16,4,5.83,8.42,12.06,11.76,16.71l.81,1.12,1.38,1.9a12.557,12.557,0,0,0,.82,1l1,1.05a4.42,4.42,0,0,0,3.15,1.4,3,3,0,0,0,.76-.17,5.11,5.11,0,0,0,1.28-.68A10.89,10.89,0,0,0,236.7,146a14.472,14.472,0,0,0,.86-1.43h0l.61-1,.88-1.46.69-1.15.78-1.29,1.72-2.85,1.22-2,11.59-19.21.82-1.36,2.13-3.53.81-1.35L268,94a13.31,13.31,0,0,0,3,2.47l-9.75,16.16-.81,1.35-2.15,3.57-.82,1.35ZM191,148.25l-.07-.07a16.19,16.19,0,0,0-4.78-2.65,17.4,17.4,0,0,0-2-.59h-.2l2-3.25a20.23,20.23,0,0,1,7.7,3.93l.19.18c6.86,7.19,6.2,15,4.35,19.57l-2.74-4.54A15.278,15.278,0,0,0,191,148.25Zm3,10.35-6.65-11a14.869,14.869,0,0,1,2.54,1.62A13.87,13.87,0,0,1,194,158.6Zm.79-13.78-.26-.24a21.8,21.8,0,0,0-8-4.13L200.7,117c4.94,7.17,14.54,21,20.5,29.31-2.24,2.54-4.93,6.94-5.74,14.53L212,188.4l-13-21.55c2.29-4.76,3.67-13.78-4.2-22.03Zm37.63.56-1.44.42c-.56.19-1.06.37-1.49.54a15,15,0,0,1-1-1.17l-1.3-1.79c.54-.24,1.17-.49,1.86-.74a32.081,32.081,0,0,1,3.77-1.08l1.48-.28c.51-.09,1-.16,1.56-.22s1-.1,1.54-.14l.11.83-1.27,2.1v.14c-.11.23-.25.47-.4.72a26.769,26.769,0,0,0-3.41.67Zm2.22.92a8.449,8.449,0,0,1-1.05,1,3.21,3.21,0,0,1-1.28.68h-.15a2.47,2.47,0,0,1-1.54-.64l1.1-.37,1.44-.4c.48-.07.98-.17,1.49-.27Zm23.4-38.54c-1.06-2.53-2.57-8.51,3.11-14.57a14.46,14.46,0,0,1,4.48-2.43,19.817,19.817,0,0,0,1.4,2.11Zm2.1-15.58-.07.07c-6.95,7.39-4.07,14.75-3,16.89l.06.12L255,112.83l-.41-.58h0l-.43-.61c-.11-.17-.23-.36-.34-.56-2.36-4.1-4.34-13.1,3.5-21.31l.2-.18a20.179,20.179,0,0,1,5.5-3.22l1.91,3.16a16.18,16.18,0,0,0-4.78,2.65Zm-3.63-3.6-.26.24c-8.82,9.23-6,19.43-3.34,23.54h0l1.21,1.76-11,18.2-3.48-27.54c-.84-7.83-3.68-12.27-6-14.76,4.68-6.47,11.72-16.59,17-24.16l11.6,19.24a21.46,21.46,0,0,0-5.72,3.48ZM245,71.6c-4.25,6.12-8.87,12.71-12.28,17.44-.52-.49-1-.87-1.33-1.16l-.08-.06-.24-.21a7,7,0,0,0-1.33-.85c3.38-4.68,7.88-11.11,12.05-17.11l.8-1.15-.1-.06L247.73,61l2.16,3.59C248.4,66.74,246.74,69.13,245,71.6Zm-4.14-3.33a.57.57,0,0,0-.11.36c-4.26,6.13-8.89,12.74-12.33,17.51a33.29,33.29,0,0,0-10.62-2.52L222.2,49c.93-8.67,4.54-11.66,6.08-12.93l.46-.39a15.47,15.47,0,0,1,3-1.2l15.18,25.18Zm-11.42,27c1.45,2,3,5.12,3.52,10.3l4.31,34.1a32.2,32.2,0,0,0-5,.73h-.15l-.12.06a31.491,31.491,0,0,0-5.6,1.86c-3.4-4.73-7.89-11.15-12-17.1a.59.59,0,0,0-.11-.36l-9.83-14.06L215,93.37a11.039,11.039,0,0,0,7.46,4.4h.7a9.66,9.66,0,0,0,6.3-2.54Zm-25.9,14.23-.81,1.35-2.14,3.54-.81,1.36L185.09,140.1l-.39.63-.35.59-1,1.73-1,1.59-.79,1.31-.08.14c-.1.2-.28.53-.52.94a15.436,15.436,0,0,1-.89,1.34c-1.41,1.93-3.77,4.33-7,4.59a8.21,8.21,0,0,1-6.28-2.51,14.471,14.471,0,0,1,1.93-1.84l.46-.4.41-.21a4.4,4.4,0,0,0,3.14,1.4c1.77-.14,3.4-1.94,4.41-3.4a13.32,13.32,0,0,0,.85-1.43h0l.6-1,.88-1.46.7-1.16.77-1.28,1.72-2.85,1.23-2,13.52-22.41.84-1.41,2.46-4.06,1.07-1.77,8.68-14.41a17.77,17.77,0,0,1,2.3-.54v.06a16.45,16.45,0,0,0,1.17,2Zm-32.49,37.93a26.133,26.133,0,0,1,4-1.09,4.52,4.52,0,0,1-2.48,1.73,2.49,2.49,0,0,1-1.5-.68Zm30.55-44.8a13.76,13.76,0,0,1,4.11-9.4,14.351,14.351,0,0,1,2.54-1.63Zm9.93-13.66a17.549,17.549,0,0,0-2.05.59,16.31,16.31,0,0,0-4.77,2.66.23.23,0,0,0-.07.07c-4.34,4.61-4.85,9.21-4.36,12.53l-2.74,4.54c-1.86-4.58-2.52-12.38,4.34-19.56l.2-.18a20.23,20.23,0,0,1,8-4l2,3.26Zm-10.46-.35-.26.24c-7.87,8.24-6.49,17.26-4.19,22l-13,21.55-3.48-27.54c-.84-7.83-3.68-12.27-6-14.76,5.94-8.23,15.72-22.36,20.72-29.63l14.42,23.91a21.49,21.49,0,0,0-8.19,4.19Zm-15.62-17c-4.25,6.12-8.87,12.71-12.29,17.44-.52-.49-1-.87-1.33-1.16l-.07-.06-.25-.21a6.87,6.87,0,0,0-1.32-.85c3.38-4.68,7.88-11.11,12-17.11l.8-1.15-.1-.06,9-12.88,2.14,3.55c-2.03,3.06-5.18,7.61-8.56,12.47Zm-4.15-3.33a.63.63,0,0,0-.1.36c-4.26,6.13-8.9,12.74-12.33,17.51a31.929,31.929,0,0,0-5.31-1.72l-.12-.07h-.14a33.331,33.331,0,0,0-5-.73L162.65,49c.93-8.67,4.54-11.66,6.08-12.93l.46-.39a23.83,23.83,0,0,1,9.37-2.34l12.6,20.89Zm-11.42,27c1.46,2,3,5.12,3.53,10.3l4.3,34.1a33.32,33.32,0,0,0-10.84,2.64c-3.41-4.72-7.9-11.14-12-17.09a.66.66,0,0,0-.11-.36l-6-8.63,11.51-19.07a8.67,8.67,0,0,0,2.64.65h.71a9.62,9.62,0,0,0,6.28-2.6Zm-28.87,73-.4.59-2.16-3.58.07-.12c1.08-2.14,4-9.5-3-16.89a.46.46,0,0,0-.07-.07,16.11,16.11,0,0,0-4.51-2.56l1.91-3.15a20.12,20.12,0,0,1,5.23,3.11l.2.18c7.83,8.21,5.86,17.21,3.5,21.32l-.34.56-.43.61Zm-3.46-4.48-8.8-14.59a17.709,17.709,0,0,0,1.46-2.33,14.46,14.46,0,0,1,4.24,2.34c5.7,6.03,4.19,12,3.12,14.54Zm5.09,4.66h0c2.69-4.11,5.47-14.31-3.34-23.54l-.26-.24a21.15,21.15,0,0,0-5.53-3.29l11.34-18.8c5.15,7.44,12.05,17.37,16.73,23.84-2.24,2.54-4.93,6.94-5.75,14.53l-3.47,27.54-11-18.2Zm7.94-40.28-4.87-7,2.17-3.59,5.21,7.45-.1.06c.27.39.54.77.8,1.16,4.06,5.83,8.43,12.06,11.77,16.71a5.68,5.68,0,0,0-1,.7l-.25.21-.07.06c-.4.33-.95.78-1.56,1.38-3.41-4.76-7.92-11.19-12.08-17.18ZM120,154.35h.7a8.91,8.91,0,0,0,2.91-.75l9.87,16.36-7.61,10.89a.62.62,0,0,0-.11.37c-4,5.76-8.34,11.95-11.7,16.63a32.5,32.5,0,0,0-11.24-1.68l4.37-34.6c.7-6.53,2.92-9.84,4.63-11.62C114.35,152.86,117.09,154.35,120,154.35Zm6.8,27.86.8-1.15-.1-.06,6.8-9.72,2.15,3.58c-1.85,2.69-4.09,5.92-6.44,9.3-3.8,5.47-7.89,11.31-11.16,15.87a14.72,14.72,0,0,0-3.38-1.7c3.31-4.58,7.53-10.54,11.36-16.12Zm10.47-6,12.5,20.72a21.54,21.54,0,0,0-8.26,4.2l-.26.24c-8.82,9.23-6,19.44-3.34,23.54v.06h0l2.78,4L131.17,245l-3.48-27.54c-1.08-10-5.44-14.5-7.7-16.45,5.15-7.23,12.4-17.69,17.31-24.8Zm2.31,48.6h0l-.43-.61c-.11-.17-.23-.36-.34-.56-2.36-4.1-4.34-13.11,3.5-21.31l.19-.18a20.25,20.25,0,0,1,8-4l2,3.26a16.61,16.61,0,0,0-7.32,3.35l-.07.07c-6.95,7.39-4.07,14.75-3,16.88.18.35.31.57.34.62l1.27,1.82-2.13,3.55Zm4.09-3.22c-.18-.3-4.87-8,2.48-15.84a15,15,0,0,1,7.08-3.08v.05a18.181,18.181,0,0,0,1.72,2.71l-10.47,17.35Zm13.14-25.87-3.19-5.29L157.37,161c.74-6.92,3.09-11,5.14-13.47.34-.41.68-.77,1-1.09.68-.68,1.27-1.17,1.7-1.53l.07-.06.31-.26a4.821,4.821,0,0,1,.8-.55c.36-.2.79-.42,1.31-.66a30.53,30.53,0,0,1,10.21-2.45l.1.82-1.26,2.1v.05l-.05.09a7.226,7.226,0,0,1-.39.71,27.851,27.851,0,0,0-6.32,1.64c-.6.24-1.06.45-1.37.61h-.06a.521.521,0,0,0-.13.06.51.51,0,0,0-.13.09h0c-.12.12-.28.25-.46.4a16.579,16.579,0,0,0-2,1.84,14.4,14.4,0,0,0-.9,1.13c-1.55,2.12-3.13,5.46-3.71,10.84Zm5.81-34.18a21.122,21.122,0,0,1,3.28-10,9.73,9.73,0,0,0,6.57,2.77h.71c3.46-.28,6-2.59,7.65-4.63l10.3,17.08-9.84,14a.69.69,0,0,0-.1.37c-4.26,6.12-8.9,12.74-12.33,17.51a31.93,31.93,0,0,0-5.31-1.72l-.12-.07h-.14a32.122,32.122,0,0,0-5-.73Zm19.61,20.67.8-1.15L183,181l9-12.88,2.14,3.54c-2.12,3.09-5.26,7.64-8.64,12.5-4.25,6.12-8.87,12.71-12.29,17.44-.52-.49-1-.87-1.33-1.16l-.07-.06-.25-.21a6.87,6.87,0,0,0-1.32-.85c3.35-4.68,7.85-11.11,12.02-17.11Zm12.7-9.21,14.42,23.91a21.61,21.61,0,0,0-8.26,4.2l-.26.24c-7.87,8.25-6.49,17.27-4.19,22l-13,21.55-3.48-27.54c-.84-7.83-3.68-12.27-6-14.77C180.15,194.42,189.93,180.29,194.93,173Zm21.47,22.7-3.19-5.29L216.92,161c.75-6.92,3.1-11,5.15-13.47l.87,1.2a20.21,20.21,0,0,0,1.5,1.82c-1.55,2.12-3.13,5.46-3.71,10.84Zm5.8-34.18c.53-4.9,1.9-8,3.28-10a9.77,9.77,0,0,0,6.58,2.77h.7a8.78,8.78,0,0,0,2.91-.75l11.24,18.63-6,8.62a.62.62,0,0,0-.11.37c-4.26,6.12-8.89,12.74-12.33,17.51a32.76,32.76,0,0,0-10.62-2.52Zm19.61,20.67.8-1.15-.1-.06,5.22-7.45,2.16,3.59c-1.49,2.16-3.15,4.55-4.87,7-4.25,6.12-8.87,12.71-12.28,17.44-.52-.49-1-.87-1.33-1.16l-.08-.06-.24-.21a7,7,0,0,0-1.33-.85c3.38-4.65,7.88-11.07,12.05-17.07Zm8.9-3.72,11.6,19.24a21.421,21.421,0,0,0-5.79,3.4l-.26.24c-8.82,9.23-6,19.44-3.34,23.54v.06h0l1.21,1.76-11,18.2-3.48-27.54c-.84-7.83-3.68-12.27-6-14.77,4.79-6.42,11.83-16.55,17.06-24.11Zm10.45,27.26a14.46,14.46,0,0,1,4.48-2.43,19.816,19.816,0,0,0,1.4,2.11l-9,14.89c-1.04-2.51-2.56-8.49,3.12-14.55Zm3.3-17.35-9.6-15.92c1.62-2.35,2.66-3.87,2.78-4h0c2.69-4.11,5.47-14.31-3.34-23.54l-.26-.24a21.64,21.64,0,0,0-8-4.13l12.21-20.24c4.84,7,11.94,17.24,17.07,24.41-2.31,2-6.41,6.54-7.45,16.24Zm1.12-60.25c-2.35-3.37-4.58-6.6-6.44-9.3l2.16-3.57,6.79,9.71-.1.06c.27.39.54.77.8,1.16,3.76,5.4,7.8,11.16,11,15.68a12.56,12.56,0,0,0-3.25,1.73l-.07.06c-3.2-4.49-7.18-10.17-10.89-15.51Zm4.26-3a.66.66,0,0,0-.11-.36l-7.62-10.89,10.14-16.81a8.73,8.73,0,0,0,2.65.65h.7c2.84,0,5.49-1.4,7.92-4.14,1.74,1.71,4.15,5,4.89,11.87l4.3,34.05a32.66,32.66,0,0,0-11.49,1.79c-3.32-4.54-7.5-10.53-11.38-16.11Zm-31-91.88a16.27,16.27,0,0,1,10.65,3.33c7.34,7.85,2.66,15.55,2.48,15.84l-.84,1.2ZM216.92,48.44c1.14-10.54,6-14.57,7.83-16.08l.08-.06c.12-.11.23-.19.31-.27a13.91,13.91,0,0,1,4-2A30.34,30.34,0,0,1,232.87,29c.48-.11,1-.2,1.48-.29s1-.16,1.56-.22c5.34-.62,11.77.09,17.17,4.52l.2.18c7.83,8.21,5.86,17.21,3.5,21.32l-.34.56-.43.61h0c-.39.58-1.08,1.58-2,2.87L251.9,55l1.28-1.83s.16-.26.34-.61c1.08-2.14,4-9.49-3-16.89l-.08-.06A18,18,0,0,0,238,31.94a14.171,14.171,0,0,0-1.61.13,28.789,28.789,0,0,0-3.94.75c-.51.14-1,.28-1.44.43a18.679,18.679,0,0,0-2.92,1.18l-.13.06-.12.09h0l-.47.4c-1.67,1.38-5.58,4.62-6.57,13.81l-4.4,34.37-3.19-5.29Zm-5.23,29.71,1.22,2L215,83.57l.78,1.3.36.61.88,1.46.61,1v.07l.29.53a15,15,0,0,0,1,1.5c1,1.32,2.44,2.69,4,2.81a4.07,4.07,0,0,0,2.72-1,7.41,7.41,0,0,1,.84.41l.46.39a14.849,14.849,0,0,1,1.65,1.54,8,8,0,0,1-6,2.26c-3.07-.25-5.37-2.46-6.8-4.34a14.176,14.176,0,0,1-.9-1.31c-.2-.32-.36-.6-.49-.83l-.2-.38-.57-.94-1.27-2.1-.75-1.24-.64-1.08-.09-.15-15-24.88L195,57.8l-2.13-3.54-.81-1.35-11.83-19.6a17.69,17.69,0,0,1,4.87.79l8.69,14.4,1.07,1.78,2.45,4.06.85,1.4ZM187.36,35a14.87,14.87,0,0,1,2.54,1.62A13.87,13.87,0,0,1,194,46Zm-30,13.43c1.13-10.54,6-14.57,7.83-16.08l.07-.06c.13-.11.23-.19.31-.27,1-1,6.53-3.48,13.1-3.71a25.89,25.89,0,0,1,2.91.06h.08a11.412,11.412,0,0,1,1.82.21,20.6,20.6,0,0,1,10,4.42l.19.18c6.86,7.19,6.2,15,4.35,19.57l-2.74-4.54c.49-3.33,0-7.92-4.36-12.54l-.07-.06A16,16,0,0,0,186.12,33a17.4,17.4,0,0,0-2-.59,19.88,19.88,0,0,0-4.68-.47,12.856,12.856,0,0,0-1.65.07,25.88,25.88,0,0,0-9.23,2.45l-.13.06-.13.09h0c-.12.12-.28.25-.46.4-1.67,1.38-5.58,4.62-6.57,13.81l-4.34,34.33-3.19-5.29Zm-5.24,29.71,1.23,2,2,3.38.78,1.3.37.61.88,1.46.6,1v.07c.08.15.17.34.29.54a13.859,13.859,0,0,0,1,1.49,9.65,9.65,0,0,0,2.16,2.12,4.43,4.43,0,0,0,1.33.61l.48.08a4.09,4.09,0,0,0,2.72-1,6.341,6.341,0,0,1,.83.41l.47.39A15.791,15.791,0,0,1,169,94.14a8,8,0,0,1-6,2.26,7.17,7.17,0,0,1-2-.49,7.529,7.529,0,0,1-1.31-.63,12,12,0,0,1-2.88-2.52,15.148,15.148,0,0,1-.95-1.22,16.285,16.285,0,0,1-1-1.62c-.09-.15-.16-.29-.21-.38L154,88.6l-1.26-2.1L152,85.25l-.65-1.07-.09-.15L138.2,62.35,137.39,61l-2.15-3.56-.82-1.35L120.83,33.54a23.6,23.6,0,0,1,4.26-.22L136.78,52.7l.82,1.35,2.13,3.54.82,1.36ZM126.88,33.48a15.28,15.28,0,0,1,7.59,3.15c5.68,6.07,4.17,12,3.1,14.58ZM101.42,83.16l-3.19-5.29,3.71-29.43c1.14-10.54,6-14.57,7.83-16.08l.07-.06.32-.27c.72-.68,3.66-2.12,7.63-3A29.529,29.529,0,0,1,122,28.4h.12c.54,0,1.08-.07,1.64-.08A21.56,21.56,0,0,1,138.1,33l.2.18c7.83,8.21,5.86,17.21,3.5,21.32l-.34.56-.43.61h0l-.4.59-2.16-3.58.07-.12c1.08-2.14,4-9.49-3-16.89l-.07-.06A17.05,17.05,0,0,0,126,32c-.58-.05-1.16-.07-1.73-.07a24.13,24.13,0,0,0-4.18.35c-.53.09-1,.19-1.52.3a23.08,23.08,0,0,0-5.45,1.87l-.13.06-.12.09h0l-.47.4c-1.67,1.38-5.58,4.62-6.57,13.81ZM108,91.48a4.26,4.26,0,0,1-2.32-1.56,26.821,26.821,0,0,1,4.16.67,2.88,2.88,0,0,1-1.84.89Zm4.44-1.57c-.45-.16-1-.31-1.48-.46a27.539,27.539,0,0,0-5.15-.91c-.41,0-.83-.05-1.25-.06a9.92,9.92,0,0,1-.61-1v-.1h0l-1.27-2.09v-.3c.75,0,1.5-.05,2.23,0a30.79,30.79,0,0,1,8.38,1.5c.5.16,1,.33,1.41.5a12.29,12.29,0,0,1,3.31,1.7h0l.26.23.08.06c.21.18.47.39.76.65,2.16,1.91,6.07,6.14,7.06,15.44l3.72,29.43-3.16,5.24h0l-4.33-34.29c-.8-7.49-3.55-11-5.44-12.82-.41-.39-.78-.7-1.09-1h0l-.47-.4h0l-.2-.23-.12-.06a18,18,0,0,0-2.61-1.03ZM101.8,95.24a9.77,9.77,0,0,0,5.64,2.53h.7c2.84,0,5.49-1.4,7.92-4.14,1.74,1.71,4.15,5,4.89,11.87l4.3,34.05a32.66,32.66,0,0,0-11.49,1.79c-3.31-4.62-7.5-10.61-11.38-16.19a.66.66,0,0,0-.11-.36l-9.83-14.06Zm-3.68,32.91c-3.37-4.85-6.51-9.4-8.64-12.49l2.14-3.55,9,12.88-.1.06.81,1.16c3.75,5.4,7.79,11.16,11,15.68a12.56,12.56,0,0,0-3.25,1.73l-.07.06C105.81,139.17,101.83,133.49,98.12,128.15Zm3.3,67.57-3.19-5.29L101.94,161c1-9,4.63-13.21,6.83-15.22.38-.35.73-.64,1-.87l.07-.06h0l.3-.25a11.11,11.11,0,0,1,3-1.59c.43-.17.9-.35,1.4-.52a32.142,32.142,0,0,1,3.23-.89A31,31,0,0,1,122,141h.12c.54,0,1.08-.07,1.64-.08s1.1,0,1.66,0l.8.06-.7.8-1.26,2.1v.14a3.769,3.769,0,0,1-.26.48,26.109,26.109,0,0,0-3.86.35c-.53.09-1,.19-1.52.3s-1.19.28-1.73.44-1,.31-1.45.47a16.061,16.061,0,0,0-2.27,1,.749.749,0,0,0-.13.06.47.47,0,0,0-.12.09h0l-.47.4-.29.24a14.18,14.18,0,0,0-1.07,1c-1.88,1.86-4.44,5.41-5.21,12.59ZM108,204a4.26,4.26,0,0,1-2.32-1.56,26.819,26.819,0,0,1,4.16.67A2.88,2.88,0,0,1,108,204Zm1.08,52.14-.07.06c-3.23-4.51-7.21-10.2-10.92-15.53-3.37-4.86-6.51-9.4-8.64-12.49l2.14-3.55,9,12.88-.1.06.81,1.16c3.75,5.4,7.79,11.16,11,15.68a12.559,12.559,0,0,0-3.19,1.77Zm4.65-2.25c-3.31-4.63-7.5-10.61-11.38-16.19a.66.66,0,0,0-.11-.36l-9.83-14.06,9.36-15.52a9.9,9.9,0,0,0,5.64,2.53h.7c2.84,0,5.49-1.4,7.92-4.14,1.74,1.71,4.15,5,4.89,11.87l4.3,34a32.66,32.66,0,0,0-11.46,1.91Zm8.65-36c-.8-7.49-3.55-11-5.44-12.82-.41-.4-.78-.71-1.09-1h0l-.47-.39h0l-.13-.09-.12-.06a18.938,18.938,0,0,0-2.61-1.08c-.45-.15-1-.3-1.48-.45a27.539,27.539,0,0,0-5.15-.91,8.789,8.789,0,0,1-1.25-.06,9.919,9.919,0,0,1-.61-1v-.15l-1.27-2.1v-.29c.75,0,1.5-.05,2.23,0a30.789,30.789,0,0,1,8.38,1.5c.5.16,1,.33,1.41.5a12.289,12.289,0,0,1,3.31,1.7h0l.26.23.08.06c.21.18.47.39.76.65,2.16,1.91,6.07,6.14,7.06,15.44L129.94,247l-3.16,5.25h0Zm-3.11,41,1.53-.27q1-.15,2.13-.21a9.551,9.551,0,0,1-1.39,1.44,3.21,3.21,0,0,1-1.28.68h-.15a3.5,3.5,0,0,1-2.31-1.32c.49-.06.98-.21,1.5-.28Zm18.27,17.4-8.8-14.59a17.712,17.712,0,0,0,1.46-2.33,14.46,14.46,0,0,1,4.24,2.34c5.71,6.11,4.2,12.08,3.13,14.62Zm.53-18.19.2.18c7.83,8.21,5.86,17.21,3.5,21.32l-.34.55-.43.62h0l-.4.59-2.16-3.58a.751.751,0,0,1,.07-.12c1.08-2.14,4-9.5-3-16.89l-.07-.07a16.11,16.11,0,0,0-4.51-2.56l1.91-3.15a20.119,20.119,0,0,1,5.26,3.15Zm6.73-25.75-.81,1.35-11.8,19.55h0l-.72,1.2-.65,1.08-1.28,2.11-.56.93c0,.08-.1.2-.17.32-.19.35-.48.85-.86,1.42-.27.39-.58.82-.93,1.26a12.739,12.739,0,0,1-2.84,2.59,8.23,8.23,0,0,1-1.28.68,7,7,0,0,1-2.31.59c-2.7.22-5.3-1.13-7.7-4l.4-.34c.18-.14.33-.27.46-.39a14.1,14.1,0,0,1,2.53-1c1.4,1.54,2.75,2.32,4,2.23a3,3,0,0,0,.77-.17,4.89,4.89,0,0,0,1.27-.68,10.63,10.63,0,0,0,2.45-2.68,10.448,10.448,0,0,0,.77-1.31v-.05h0l.6-1,.88-1.46.57-.94.74-1.23,1.88-3.12,1.23-2,10.21-16.93.82-1.35,2.14-3.56.82-1.35L156,206.6a13.08,13.08,0,0,0,2.93,2.43l-11.11,18.42L147,228.8Zm19.71,23.79c-.06.06-.15.12-.25.2l-.07.07c-.4.33-.95.78-1.56,1.38-3.39-4.71-7.9-11.14-12.06-17.12l-4.87-7,2.17-3.59,5.21,7.45-.1.06c.27.38.54.77.8,1.16,4.06,5.82,8.43,12.06,11.77,16.71a5.679,5.679,0,0,0-1.01.72Zm2.35-1.35c-3.41-4.73-7.9-11.14-12-17.09a.66.66,0,0,0-.11-.36l-6-8.63,11.51-19.07a8.67,8.67,0,0,0,2.64.65h.71a9.62,9.62,0,0,0,6.33-2.57c1.46,2,3,5.12,3.53,10.3l4.3,34.1a32.81,32.81,0,0,0-10.88,2.71Zm8-36.89c-.6-5.65-2.32-9-3.93-11.15-.32-.41-.63-.77-.93-1.09a18.882,18.882,0,0,0-1.7-1.57c-.19-.15-.35-.28-.47-.39h0l-.13-.09-.12-.06-.41-.2c-.36-.17-.84-.38-1.41-.59q-.51-.19-1.11-.39c-.44-.15-.92-.29-1.43-.42a27.651,27.651,0,0,0-3-.63,10.127,10.127,0,0,1-.79-1.31v-.1a.17.17,0,0,0,0-.05l-1.27-2.1v-.28a14.368,14.368,0,0,1,1.61.14c.53.06,1.05.14,1.56.22s1,.18,1.48.29a29.676,29.676,0,0,1,3.76,1.07c.58.2,1.09.41,1.56.61a10.922,10.922,0,0,1,1.32.64,5.92,5.92,0,0,1,1.09.7c.08.08.19.17.31.27l.07.06c.38.31.89.73,1.47,1.3.32.31.65.66,1,1.06,2.1,2.41,4.59,6.56,5.36,13.73L182.42,247l-3.1,5.14h-.11Zm.21,40.92a4.52,4.52,0,0,1-2.48,1.73,2.55,2.55,0,0,1-1.55-.64,26.128,26.128,0,0,1,4.06-1.05Zm12.26,1.27a14.872,14.872,0,0,1,2.54,1.62,13.85,13.85,0,0,1,4.11,9.41Zm6.17-2,.19.18c6.86,7.19,6.2,15,4.35,19.57l-2.74-4.54c.49-3.33,0-7.93-4.36-12.54l-.07-.07a16,16,0,0,0-4.78-2.65,17.473,17.473,0,0,0-2-.6h-.2l2-3.25a20.23,20.23,0,0,1,7.64,3.95Zm7.08-31.23-.81,1.36L185.06,252.6l-.39.64-.35.58-1,1.74-1,1.59-.79,1.31-.08.14c-.1.2-.28.53-.52.94a15.436,15.436,0,0,1-.89,1.34c-1.41,1.93-3.77,4.32-7,4.58a8.16,8.16,0,0,1-6.28-2.5,15.366,15.366,0,0,1,1.93-1.85l.46-.39a3.732,3.732,0,0,1,.41-.21,4.4,4.4,0,0,0,3.14,1.4c1.77-.14,3.4-1.94,4.41-3.41a11.61,11.61,0,0,0,.85-1.43h0l.6-1,.88-1.46.7-1.16.77-1.28,1.72-2.85,1.23-2,13.52-22.41.84-1.41,2.46-4.06,1.07-1.78,8.68-14.4a17.769,17.769,0,0,1,2.3-.54v.05a15.568,15.568,0,0,0,1.17,2L203.56,222l-.81,1.35Zm23.48,29.27-.24.2-.08.07c-.4.33-.94.78-1.56,1.38-3.39-4.71-7.9-11.14-12.05-17.12-3.38-4.86-6.52-9.4-8.65-12.49l2.14-3.55,9,12.88-.1.06.8,1.16c4,5.82,8.42,12.06,11.76,16.71a5.68,5.68,0,0,0-.99.75Zm8.22-3.26h-.15L232,253a32.4,32.4,0,0,0-5.6,1.85c-3.4-4.73-7.89-11.14-12-17.09a.59.59,0,0,0-.11-.36l-9.83-14.06L215,205.93a11.039,11.039,0,0,0,7.46,4.4h.7a9.66,9.66,0,0,0,6.34-2.57c1.45,2,3,5.12,3.52,10.3l4.31,34.1a32.2,32.2,0,0,0-5.02.76Zm2.14-35c-.61-5.65-2.32-9-3.94-11.15-.32-.41-.63-.77-.93-1.09a18.877,18.877,0,0,0-1.7-1.57l-.47-.39h0l-.12-.09-.13-.06-.4-.2c-.37-.18-.84-.38-1.42-.6a27.759,27.759,0,0,0-5.53-1.42A12.593,12.593,0,0,1,219,200v-.15l-1.27-2.1v-.27a30.88,30.88,0,0,1,10,2.32,12.916,12.916,0,0,1,1.32.63,6.219,6.219,0,0,1,1.08.71l.32.27.07.06a18.52,18.52,0,0,1,1.46,1.3c.32.31.66.66,1,1.06,2.09,2.41,4.59,6.56,5.36,13.73L242,247l-3.1,5.14h-.11Zm-2.72,41.64,1.44-.4c.47-.12,1-.22,1.48-.32a8.451,8.451,0,0,1-1.05,1,3.21,3.21,0,0,1-1.28.68h-.15a2.53,2.53,0,0,1-1.54-.64,3.831,3.831,0,0,0,1.13-.25Zm9.07,2.16a16.861,16.861,0,0,0,1.53-2.46l.34-.55a15,15,0,0,1,6.78,3c7.34,7.85,2.66,15.55,2.48,15.84l-.84,1.2Zm12.28-3.6.2.18c7.83,8.21,5.86,17.21,3.5,21.32l-.34.55-.43.62h0c-.39.58-1.08,1.58-2,2.87l-2.14-3.54,1.28-1.83c0-.05.16-.26.34-.61,1.08-2.14,4-9.5-3-16.89l-.08-.07a16.45,16.45,0,0,0-7-3.29l2-3.24a20.26,20.26,0,0,1,7.7,4Zm8.12-32.95-.81,1.35-2.15,3.57-.82,1.35-12.78,21.19-.38.64-.35.58-1,1.74-1,1.58-.79,1.32-.09.14a16.446,16.446,0,0,1-1,1.74c-.26.39-.58.82-.93,1.26a12.9,12.9,0,0,1-2.83,2.59,8.7,8.7,0,0,1-1.28.68,7.151,7.151,0,0,1-2.31.59,8.15,8.15,0,0,1-6.28-2.5,15.42,15.42,0,0,1,1.92-1.85c.18-.14.33-.27.46-.39l.41-.21a4.42,4.42,0,0,0,3.15,1.4,3,3,0,0,0,.76-.17,5.11,5.11,0,0,0,1.28-.68,10.89,10.89,0,0,0,2.36-2.55,13.381,13.381,0,0,0,.86-1.44h0l.61-1,.88-1.46.69-1.16.78-1.28,1.72-2.85,1.22-2,11.59-19.21.82-1.36,2.13-3.53.81-1.35L268,206.6a13.309,13.309,0,0,0,3,2.4Zm8.64,12.55a.66.66,0,0,0-.11-.36l-7.62-10.89,10.14-16.81a8.729,8.729,0,0,0,2.65.65h.7c2.84,0,5.49-1.4,7.92-4.14,1.74,1.71,4.15,5,4.89,11.87l4.3,34a32.66,32.66,0,0,0-11.49,1.79c-3.29-4.48-7.47-10.46-11.35-16.04Zm17.76,22.85a3.5,3.5,0,0,1-2.31-1.32,26.9,26.9,0,0,1,5.12-.82c-.84,1.17-1.91,2.14-2.78,2.21Zm4.12-4.18h0l-.05.09c-.07.15-.16.32-.25.48a12.238,12.238,0,0,0-1.61.07,27.8,27.8,0,0,0-5.51,1l-.3-.4c-.59-.8-1.25-1.7-2-2.68a31.482,31.482,0,0,1,8.69-1.6h2.17l.1.85Zm2-38.85L297.4,247l-3.17,5.25h0l-4.33-34.29c-.8-7.49-3.55-11-5.44-12.82-.41-.4-.78-.71-1.09-1h0l-.47-.39h0l-.13-.09-.12-.06a18,18,0,0,0-2.61-1.07c-.45-.16-.95-.31-1.48-.46s-.89-.23-1.37-.34-1-.21-1.51-.3a27.641,27.641,0,0,0-3.52-.34,9.856,9.856,0,0,1-.61-1v-.15l-1.27-2.1v-.3h1.73a11.058,11.058,0,0,1,1.64.08h.11a31.183,31.183,0,0,1,4.22.63c1.05.23,2,.5,2.91.79.5.17,1,.33,1.41.5a12.53,12.53,0,0,1,3.31,1.71h0l.26.23.07.06c.22.18.48.39.77.65,2.07,1.81,5.98,6.07,6.97,15.37Zm12.47-45.9c-2.13,3.09-5.27,7.64-8.65,12.5-3.8,5.47-7.89,11.31-11.16,15.87a14.72,14.72,0,0,0-3.38-1.7c3.28-4.58,7.45-10.54,11.33-16.12l.8-1.15-.1.01,9-12.88ZM287.5,154.28h.7a10,10,0,0,0,5.86-2.71l9.14,15.16-9.84,14a.69.69,0,0,0-.1.37c-4,5.76-8.34,11.95-11.7,16.63a32.5,32.5,0,0,0-11.24-1.68l4.37-34.6c.7-6.53,2.92-9.84,4.63-11.62,2.49,3.03,5.23,4.52,8.17,4.52Zm.11-6.32a3.5,3.5,0,0,1-2.31-1.32,26.9,26.9,0,0,1,5.12-.82c-.88,1.18-1.95,2.18-2.82,2.18Zm4.12-4.18v.05l-.05.09c-.07.16-.16.32-.25.48a12.238,12.238,0,0,0-1.61.07,27.8,27.8,0,0,0-5.51,1c-.52.15-1,.31-1.45.47a16.058,16.058,0,0,0-2.27,1,.52.52,0,0,0-.13.06.47.47,0,0,0-.12.09h0l-.47.4-.29.24a14.178,14.178,0,0,0-1.07,1c-1.88,1.86-4.44,5.41-5.21,12.59l-4.33,34.33-3.19-5.29L269.4,161c1-9,4.63-13.21,6.83-15.22.38-.35.73-.64,1-.87l.07-.06h0l.29-.25a11.71,11.71,0,0,1,3-1.59c.43-.17.9-.34,1.4-.51a31.089,31.089,0,0,1,8.69-1.61h2.17l.1.85Zm2-38.85,3.72,29.43-3.17,5.24h0l-4.33-34.29c-.8-7.49-3.55-11-5.44-12.82-.41-.39-.78-.7-1.09-1h0l-.47-.4h0l-.13-.09-.12-.06a18,18,0,0,0-2.61-1.07c-.45-.16-.95-.31-1.48-.45s-.89-.24-1.37-.35-1-.21-1.51-.29a24.429,24.429,0,0,0-3.52-.34,9.924,9.924,0,0,1-.61-1v-.1h0l-1.5-2.14v-.31h1.73a11.058,11.058,0,0,1,1.64.08h.11a31.181,31.181,0,0,1,4.22.63c1.05.23,2,.51,2.91.79l1.41.5a12.53,12.53,0,0,1,3.31,1.71l.26.23.07.06c.22.18.48.39.77.65,2.25,1.93,6.16,6.16,7.15,15.46ZM306.2,59.04c-2.13,3.08-5.27,7.63-8.65,12.49-3.8,5.47-7.89,11.31-11.16,15.87a14.72,14.72,0,0,0-3.38-1.7c3.28-4.58,7.45-10.53,11.33-16.12l.8-1.15-.1-.06,9-12.88Zm-3-4.9L293.36,68.2a.63.63,0,0,0-.1.36c-4,5.76-8.34,12-11.7,16.63a32.74,32.74,0,0,0-11.24-1.68L274.68,49c.93-8.67,4.54-11.66,6.08-12.93l.46-.39a23.89,23.89,0,0,1,9.37-2.34Zm-11.76-22.3a12.856,12.856,0,0,0-1.65.07,25.88,25.88,0,0,0-9.23,2.45l-.13.06a.938.938,0,0,0-.12.09h0l-.47.4c-1.67,1.38-5.58,4.62-6.57,13.81l-4.33,34.33-3.19-5.29,3.71-29.43c1.13-10.54,6-14.57,7.83-16.08l.07-.06c.13-.11.23-.19.31-.27,1-1,6.53-3.48,13.1-3.71a25.79,25.79,0,0,1,2.91.06h.08a11.412,11.412,0,0,1,1.82.21,20.6,20.6,0,0,1,10,4.42l.2.18c6.86,7.19,6.2,15,4.34,19.57l-2.74-4.54c.49-3.33,0-7.92-4.36-12.54l-.07-.06A16.08,16.08,0,0,0,298.16,33a17.551,17.551,0,0,0-2.05-.59,19.879,19.879,0,0,0-4.68-.5Z" fill="#12263f"/>
  </g>
</svg>
